  0
SECTION
  2
HEADER
  9
$ACADVER
  1
AC1009
  9
$INSBASE
 10
0.0
 20
0.0
 30
0.0
  9
$EXTMIN
 10
-5.137999999999999
 20
-1.105729999999999
 30
0.0
  9
$EXTMAX
 10
15.4704800000000002
 20
2.1852
 30
0.0
  9
$LIMMIN
 10
0.0
 20
0.0
  9
$LIMMAX
 10
12.0
 20
9.0
  9
$ORTHOMODE
 70
     0
  9
$REGENMODE
 70
     1
  9
$FILLMODE
 70
     1
  9
$QTEXTMODE
 70
     0
  9
$MIRRTEXT
 70
     0
  9
$DRAGMODE
 70
     2
  9
$LTSCALE
 40
1.0
  9
$OSMODE
 70
    37
  9
$ATTMODE
 70
     1
  9
$TEXTSIZE
 40
0.2
  9
$TRACEWID
 40
0.05
  9
$TEXTSTYLE
  7
STANDARD
  9
$CLAYER
  8
0
  9
$CELTYPE
  6
BYLAYER
  9
$CECOLOR
 62
   256
  9
$DIMSCALE
 40
1.0
  9
$DIMASZ
 40
0.18
  9
$DIMEXO
 40
0.0625
  9
$DIMDLI
 40
0.38
  9
$DIMRND
 40
0.0
  9
$DIMDLE
 40
0.0
  9
$DIMEXE
 40
0.18
  9
$DIMTP
 40
0.0
  9
$DIMTM
 40
0.0
  9
$DIMTXT
 40
0.18
  9
$DIMCEN
 40
0.09
  9
$DIMTSZ
 40
0.0
  9
$DIMTOL
 70
     0
  9
$DIMLIM
 70
     0
  9
$DIMTIH
 70
     1
  9
$DIMTOH
 70
     1
  9
$DIMSE1
 70
     0
  9
$DIMSE2
 70
     0
  9
$DIMTAD
 70
     0
  9
$DIMZIN
 70
     0
  9
$DIMBLK
  1

  9
$DIMASO
 70
     1
  9
$DIMSHO
 70
     1
  9
$DIMPOST
  1

  9
$DIMAPOST
  1

  9
$DIMALT
 70
     0
  9
$DIMALTD
 70
     2
  9
$DIMALTF
 40
25.3999999999999986
  9
$DIMLFAC
 40
1.0
  9
$DIMTOFL
 70
     0
  9
$DIMTVP
 40
0.0
  9
$DIMTIX
 70
     0
  9
$DIMSOXD
 70
     0
  9
$DIMSAH
 70
     0
  9
$DIMBLK1
  1

  9
$DIMBLK2
  1

  9
$DIMSTYLE
  2
STANDARD
  9
$DIMCLRD
 70
     0
  9
$DIMCLRE
 70
     0
  9
$DIMCLRT
 70
     0
  9
$DIMTFAC
 40
1.0
  9
$DIMGAP
 40
0.09
  9
$LUNITS
 70
     2
  9
$LUPREC
 70
     4
  9
$SKETCHINC
 40
0.1
  9
$FILLETRAD
 40
0.0
  9
$AUNITS
 70
     0
  9
$AUPREC
 70
     0
  9
$MENU
  1
.
  9
$ELEVATION
 40
0.0
  9
$PELEVATION
 40
0.0
  9
$THICKNESS
 40
0.0
  9
$LIMCHECK
 70
     0
  9
$BLIPMODE
 70
     0
  9
$CHAMFERA
 40
0.0
  9
$CHAMFERB
 40
0.0
  9
$SKPOLY
 70
     0
  9
$TDCREATE
 40
2457765.695150462910533
  9
$TDUPDATE
 40
2457765.6962037039920688
  9
$TDINDWG
 40
0.0010532407
  9
$TDUSRTIMER
 40
0.0010532407
  9
$USRTIMER
 70
     1
  9
$ANGBASE
 50
0.0
  9
$ANGDIR
 70
     0
  9
$PDMODE
 70
     0
  9
$PDSIZE
 40
0.0
  9
$PLINEWID
 40
0.0
  9
$COORDS
 70
     1
  9
$SPLFRAME
 70
     0
  9
$SPLINETYPE
 70
     6
  9
$SPLINESEGS
 70
     8
  9
$ATTDIA
 70
     1
  9
$ATTREQ
 70
     1
  9
$HANDLING
 70
     1
  9
$HANDSEED
  5
3A9
  9
$SURFTAB1
 70
     6
  9
$SURFTAB2
 70
     6
  9
$SURFTYPE
 70
     6
  9
$SURFU
 70
     6
  9
$SURFV
 70
     6
  9
$UCSNAME
  2

  9
$UCSORG
 10
0.0
 20
0.0
 30
0.0
  9
$UCSXDIR
 10
1.0
 20
0.0
 30
0.0
  9
$UCSYDIR
 10
0.0
 20
1.0
 30
0.0
  9
$PUCSNAME
  2

  9
$PUCSORG
 10
0.0
 20
0.0
 30
0.0
  9
$PUCSXDIR
 10
1.0
 20
0.0
 30
0.0
  9
$PUCSYDIR
 10
0.0
 20
1.0
 30
0.0
  9
$USERI1
 70
     0
  9
$USERI2
 70
     0
  9
$USERI3
 70
     0
  9
$USERI4
 70
     0
  9
$USERI5
 70
     0
  9
$USERR1
 40
0.0
  9
$USERR2
 40
0.0
  9
$USERR3
 40
0.0
  9
$USERR4
 40
0.0
  9
$USERR5
 40
0.0
  9
$WORLDVIEW
 70
     1
  9
$SHADEDGE
 70
     3
  9
$SHADEDIF
 70
    70
  9
$TILEMODE
 70
     1
  9
$MAXACTVP
 70
    64
  9
$PLIMCHECK
 70
     0
  9
$PEXTMIN
 10
0.0
 20
0.0
 30
0.0
  9
$PEXTMAX
 10
0.0
 20
0.0
 30
0.0
  9
$PLIMMIN
 10
0.0
 20
0.0
  9
$PLIMMAX
 10
12.0
 20
9.0
  9
$UNITMODE
 70
     0
  9
$VISRETAIN
 70
     1
  9
$PLINEGEN
 70
     0
  9
$PSLTSCALE
 70
     1
  0
ENDSEC
  0
SECTION
  2
TABLES
  0
TABLE
  2
VPORT
 70
     1
  0
VPORT
  2
*ACTIVE
 70
     0
 10
0.0
 20
0.0
 11
1.0
 21
1.0
 12
6.0955269015286042
 22
0.1709158734243452
 13
0.0
 23
0.0
 14
0.5
 24
0.5
 15
0.5
 25
0.5
 16
0.0
 26
0.0
 36
1.0
 17
0.0
 27
0.0
 37
0.0
 40
10.1456872372800895
 41
2.58041958041958
 42
50.0
 43
0.0
 44
0.0
 50
0.0
 51
0.0
 71
     0
 72
  1000
 73
     1
 74
     3
 75
     0
 76
     1
 77
     0
 78
     0
  0
ENDTAB
  0
TABLE
  2
LTYPE
 70
     1
  0
LTYPE
  2
CONTINUOUS
 70
     0
  3
Solid line
 72
    65
 73
     0
 40
0.0
  0
ENDTAB
  0
TABLE
  2
LAYER
 70
     1
  0
LAYER
  2
0
 70
     0
 62
     7
  6
CONTINUOUS
  0
ENDTAB
  0
TABLE
  2
STYLE
 70
     2
  0
STYLE
  2
STANDARD
 70
     0
 40
0.0
 41
1.0
 50
0.0
 71
     0
 42
0.2
  3
txt
  4

  0
STYLE
  2
ANNOTATIVE
 70
     0
 40
0.0
 41
1.0
 50
0.0
 71
     0
 42
0.2
  3
txt
  4

  0
ENDTAB
  0
TABLE
  2
VIEW
 70
     0
  0
ENDTAB
  0
TABLE
  2
UCS
 70
     0
  0
ENDTAB
  0
TABLE
  2
APPID
 70
     7
  0
APPID
  2
ACAD
 70
     0
  0
APPID
  2
ACADANNOPO
 70
     0
  0
APPID
  2
ACADANNOTATIVE
 70
     0
  0
APPID
  2
ACAD_DSTYLE_DIMJAG
 70
     0
  0
APPID
  2
ACAD_DSTYLE_DIMTALN
 70
     0
  0
APPID
  2
ACAD_MLEADERVER
 70
     0
  0
APPID
  2
ACAD_NAV_VCDISPLAY
 70
     0
  0
ENDTAB
  0
TABLE
  2
DIMSTYLE
 70
     2
  0
DIMSTYLE
  2
STANDARD
 70
     0
  3

  4

  5

  6

  7

 40
1.0
 41
0.18
 42
0.0625
 43
0.38
 44
0.18
 45
0.0
 46
0.0
 47
0.0
 48
0.0
140
0.18
141
0.09
142
0.0
143
25.3999999999999986
144
1.0
145
0.0
146
1.0
147
0.09
 71
     0
 72
     0
 73
     1
 74
     1
 75
     0
 76
     0
 77
     0
 78
     0
170
     0
171
     2
172
     0
173
     0
174
     0
175
     0
176
     0
177
     0
178
     0
  0
DIMSTYLE
  2
ANNOTATIVE
 70
     0
  3

  4

  5

  6

  7

 40
0.0
 41
0.18
 42
0.0625
 43
0.38
 44
0.18
 45
0.0
 46
0.0
 47
0.0
 48
0.0
140
0.18
141
0.09
142
0.0
143
25.3999999999999986
144
1.0
145
0.0
146
1.0
147
0.09
 71
     0
 72
     0
 73
     1
 74
     1
 75
     0
 76
     0
 77
     0
 78
     0
170
     0
171
     2
172
     0
173
     0
174
     0
175
     0
176
     0
177
     0
178
     0
  0
ENDTAB
  0
ENDSEC
  0
SECTION
  2
BLOCKS
  0
BLOCK
  8
0
  2
$MODEL_SPACE
 70
     0
 10
0.0
 20
0.0
 30
0.0
  3
$MODEL_SPACE
  1

  0
ENDBLK
  5
21
  8
0
  0
BLOCK
 67
     1
  8
0
  2
$PAPER_SPACE
 70
     0
 10
0.0
 20
0.0
 30
0.0
  3
$PAPER_SPACE
  1

  0
ENDBLK
  5
5B
 67
     1
  8
0
  0
ENDSEC
  0
SECTION
  2
ENTITIES
  0
POLYLINE
  5
1F7
  8
0
 66
     1
 10
0.0
 20
0.0
 30
0.0
  0
VERTEX
  5
248
  8
0
 10
15.4704800000000002
 20
0.0
 30
0.0
  0
VERTEX
  5
249
  8
0
 10
15.4139999999999997
 20
0.0
 30
0.0
  0
VERTEX
  5
24A
  8
0
 10
15.2084799999999998
 20
0.04702
 30
0.0
  0
VERTEX
  5
24B
  8
0
 10
15.0029599999999999
 20
0.1029
 30
0.0
  0
VERTEX
  5
24C
  8
0
 10
14.7974399999999999
 20
0.15628
 30
0.0
  0
VERTEX
  5
24D
  8
0
 10
14.59192
 20
0.2048
 30
0.0
  0
VERTEX
  5
24E
  8
0
 10
14.3864000000000001
 20
0.24961
 30
0.0
  0
VERTEX
  5
24F
  8
0
 10
14.1808800000000002
 20
0.29272
 30
0.0
  0
VERTEX
  5
250
  8
0
 10
13.9753600000000002
 20
0.335
 30
0.0
  0
VERTEX
  5
251
  8
0
 10
13.7698400000000003
 20
0.37698
 30
0.0
  0
VERTEX
  5
252
  8
0
 10
13.5643200000000004
 20
0.4188200000000001
 30
0.0
  0
VERTEX
  5
253
  8
0
 10
13.3588000000000005
 20
0.4606500000000001
 30
0.0
  0
VERTEX
  5
254
  8
0
 10
13.1532800000000005
 20
0.5025100000000001
 30
0.0
  0
VERTEX
  5
255
  8
0
 10
12.9477600000000006
 20
0.5444600000000001
 30
0.0
  0
VERTEX
  5
256
  8
0
 10
12.7422400000000007
 20
0.58652
 30
0.0
  0
VERTEX
  5
257
  8
0
 10
12.7422400000000007
 20
0.58652
 30
0.0
  0
VERTEX
  5
258
  8
0
 10
12.7422400000000007
 20
0.58652
 30
0.0
  0
VERTEX
  5
259
  8
0
 10
12.5367200000000008
 20
0.6286800000000001
 30
0.0
  0
VERTEX
  5
25A
  8
0
 10
12.3312000000000008
 20
0.67094
 30
0.0
  0
VERTEX
  5
25B
  8
0
 10
12.1256799999999991
 20
0.7133
 30
0.0
  0
VERTEX
  5
25C
  8
0
 10
11.9201599999999992
 20
0.75576
 30
0.0
  0
VERTEX
  5
25D
  8
0
 10
11.7146399999999993
 20
0.79832
 30
0.0
  0
VERTEX
  5
25E
  8
0
 10
11.5091199999999994
 20
0.8409600000000002
 30
0.0
  0
VERTEX
  5
25F
  8
0
 10
11.3035999999999994
 20
0.88367
 30
0.0
  0
VERTEX
  5
260
  8
0
 10
11.0980799999999995
 20
0.9264399999999998
 30
0.0
  0
VERTEX
  5
261
  8
0
 10
10.8925599999999996
 20
0.9692299999999999
 30
0.0
  0
VERTEX
  5
262
  8
0
 10
10.6870399999999997
 20
1.0120100000000001
 30
0.0
  0
VERTEX
  5
263
  8
0
 10
10.4815199999999997
 20
1.0547699999999991
 30
0.0
  0
VERTEX
  5
264
  8
0
 10
10.2759999999999998
 20
1.0974600000000001
 30
0.0
  0
VERTEX
  5
265
  8
0
 10
10.0704799999999999
 20
1.1400699999999999
 30
0.0
  0
VERTEX
  5
266
  8
0
 10
9.8649599999999982
 20
1.1825699999999999
 30
0.0
  0
VERTEX
  5
267
  8
0
 10
9.65944
 20
1.224929999999999
 30
0.0
  0
VERTEX
  5
268
  8
0
 10
9.4539200000000001
 20
1.2671099999999991
 30
0.0
  0
VERTEX
  5
269
  8
0
 10
9.2484000000000002
 20
1.30908
 30
0.0
  0
VERTEX
  5
26A
  8
0
 10
9.0428800000000003
 20
1.350789999999999
 30
0.0
  0
VERTEX
  5
26B
  8
0
 10
8.8373600000000003
 20
1.3922099999999991
 30
0.0
  0
VERTEX
  5
26C
  8
0
 10
8.6318399999999986
 20
1.433279999999999
 30
0.0
  0
VERTEX
  5
26D
  8
0
 10
8.4263200000000005
 20
1.47397
 30
0.0
  0
VERTEX
  5
26E
  8
0
 10
8.2208000000000006
 20
1.5142299999999991
 30
0.0
  0
VERTEX
  5
26F
  8
0
 10
8.0152800000000006
 20
1.5539499999999991
 30
0.0
  0
VERTEX
  5
270
  8
0
 10
7.8097599999999998
 20
1.59297
 30
0.0
  0
VERTEX
  5
271
  8
0
 10
7.604239999999999
 20
1.6311599999999991
 30
0.0
  0
VERTEX
  5
272
  8
0
 10
7.3987199999999991
 20
1.66839
 30
0.0
  0
VERTEX
  5
273
  8
0
 10
7.1932
 20
1.70459
 30
0.0
  0
VERTEX
  5
274
  8
0
 10
6.9876800000000001
 20
1.739679999999999
 30
0.0
  0
VERTEX
  5
275
  8
0
 10
6.7821600000000002
 20
1.7736000000000001
 30
0.0
  0
VERTEX
  5
276
  8
0
 10
6.5766399999999994
 20
1.8063299999999991
 30
0.0
  0
VERTEX
  5
277
  8
0
 10
6.3711199999999986
 20
1.837909999999999
 30
0.0
  0
VERTEX
  5
278
  8
0
 10
6.1656000000000004
 20
1.86839
 30
0.0
  0
VERTEX
  5
279
  8
0
 10
5.9600799999999996
 20
1.8977900000000001
 30
0.0
  0
VERTEX
  5
27A
  8
0
 10
5.7545599999999988
 20
1.9260699999999999
 30
0.0
  0
VERTEX
  5
27B
  8
0
 10
5.5490399999999989
 20
1.953109999999999
 30
0.0
  0
VERTEX
  5
27C
  8
0
 10
5.3435199999999989
 20
1.978829999999999
 30
0.0
  0
VERTEX
  5
27D
  8
0
 10
5.137999999999999
 20
2.0031500000000002
 30
0.0
  0
VERTEX
  5
27E
  8
0
 10
4.9324799999999991
 20
2.026009999999999
 30
0.0
  0
VERTEX
  5
27F
  8
0
 10
4.7269600000000001
 20
2.04739
 30
0.0
  0
VERTEX
  5
280
  8
0
 10
4.5214400000000001
 20
2.06725
 30
0.0
  0
VERTEX
  5
281
  8
0
 10
4.3159199999999993
 20
2.0855799999999989
 30
0.0
  0
VERTEX
  5
282
  8
0
 10
4.1104000000000003
 20
2.1024400000000001
 30
0.0
  0
VERTEX
  5
283
  8
0
 10
3.9048799999999999
 20
2.1178400000000002
 30
0.0
  0
VERTEX
  5
284
  8
0
 10
3.6993599999999991
 20
2.1318199999999998
 30
0.0
  0
VERTEX
  5
285
  8
0
 10
3.4938400000000001
 20
2.144299999999999
 30
0.0
  0
VERTEX
  5
286
  8
0
 10
3.2883199999999988
 20
2.1551999999999989
 30
0.0
  0
VERTEX
  5
287
  8
0
 10
3.0828000000000002
 20
2.164429999999999
 30
0.0
  0
VERTEX
  5
288
  8
0
 10
2.8772799999999989
 20
2.1719300000000001
 30
0.0
  0
VERTEX
  5
289
  8
0
 10
2.671759999999999
 20
2.17774
 30
0.0
  0
VERTEX
  5
28A
  8
0
 10
2.4662399999999991
 20
2.18188
 30
0.0
  0
VERTEX
  5
28B
  8
0
 10
2.2607200000000001
 20
2.184369999999999
 30
0.0
  0
VERTEX
  5
28C
  8
0
 10
2.0552000000000001
 20
2.1852
 30
0.0
  0
VERTEX
  5
28D
  8
0
 10
1.84968
 20
2.184359999999999
 30
0.0
  0
VERTEX
  5
28E
  8
0
 10
1.644159999999999
 20
2.1818200000000001
 30
0.0
  0
VERTEX
  5
28F
  8
0
 10
1.438639999999999
 20
2.1775500000000001
 30
0.0
  0
VERTEX
  5
290
  8
0
 10
1.2331199999999991
 20
2.1714699999999998
 30
0.0
  0
VERTEX
  5
291
  8
0
 10
1.0276000000000001
 20
2.1635299999999988
 30
0.0
  0
VERTEX
  5
292
  8
0
 10
0.8220799999999998
 20
2.15368
 30
0.0
  0
VERTEX
  5
293
  8
0
 10
0.61656
 20
2.141929999999999
 30
0.0
  0
VERTEX
  5
294
  8
0
 10
0.41104
 20
2.1282899999999998
 30
0.0
  0
VERTEX
  5
295
  8
0
 10
0.20552
 20
2.1127599999999989
 30
0.0
  0
VERTEX
  5
296
  8
0
 10
0.0
 20
2.0952599999999988
 30
0.0
  0
VERTEX
  5
297
  8
0
 10
-0.20552
 20
2.0757099999999991
 30
0.0
  0
VERTEX
  5
298
  8
0
 10
-0.41104
 20
2.054009999999999
 30
0.0
  0
VERTEX
  5
299
  8
0
 10
-0.61656
 20
2.030079999999999
 30
0.0
  0
VERTEX
  5
29A
  8
0
 10
-0.8220799999999998
 20
2.0038599999999991
 30
0.0
  0
VERTEX
  5
29B
  8
0
 10
-1.0276000000000001
 20
1.9752599999999989
 30
0.0
  0
VERTEX
  5
29C
  8
0
 10
-1.2331199999999991
 20
1.944159999999999
 30
0.0
  0
VERTEX
  5
29D
  8
0
 10
-1.438639999999999
 20
1.9104099999999991
 30
0.0
  0
VERTEX
  5
29E
  8
0
 10
-1.644159999999999
 20
1.873859999999999
 30
0.0
  0
VERTEX
  5
29F
  8
0
 10
-1.84968
 20
1.8342599999999989
 30
0.0
  0
VERTEX
  5
2A0
  8
0
 10
-2.0552000000000001
 20
1.79138
 30
0.0
  0
VERTEX
  5
2A1
  8
0
 10
-2.2607200000000001
 20
1.7449799999999991
 30
0.0
  0
VERTEX
  5
2A2
  8
0
 10
-2.4662399999999991
 20
1.6948000000000001
 30
0.0
  0
VERTEX
  5
2A3
  8
0
 10
-2.671759999999999
 20
1.6405700000000001
 30
0.0
  0
VERTEX
  5
2A4
  8
0
 10
-2.8772799999999989
 20
1.58185
 30
0.0
  0
VERTEX
  5
2A5
  8
0
 10
-3.0828000000000002
 20
1.5181
 30
0.0
  0
VERTEX
  5
2A6
  8
0
 10
-3.2883199999999988
 20
1.448529999999999
 30
0.0
  0
VERTEX
  5
2A7
  8
0
 10
-3.4938400000000001
 20
1.3722000000000001
 30
0.0
  0
VERTEX
  5
2A8
  8
0
 10
-3.6993599999999991
 20
1.2882299999999991
 30
0.0
  0
VERTEX
  5
2A9
  8
0
 10
-3.9048799999999999
 20
1.19574
 30
0.0
  0
VERTEX
  5
2AA
  8
0
 10
-4.1104000000000003
 20
1.0926199999999999
 30
0.0
  0
VERTEX
  5
2AB
  8
0
 10
-4.3159199999999993
 20
0.9754799999999999
 30
0.0
  0
VERTEX
  5
2AC
  8
0
 10
-4.5214400000000001
 20
0.8391499999999998
 30
0.0
  0
VERTEX
  5
2AD
  8
0
 10
-4.7269600000000001
 20
0.6777100000000001
 30
0.0
  0
VERTEX
  5
2AE
  8
0
 10
-4.7475100000000001
 20
0.65942
 30
0.0
  0
VERTEX
  5
2AF
  8
0
 10
-4.7680600000000002
 20
0.64051
 30
0.0
  0
VERTEX
  5
2B0
  8
0
 10
-4.7886100000000003
 20
0.6209
 30
0.0
  0
VERTEX
  5
2B1
  8
0
 10
-4.8091699999999991
 20
0.6005200000000001
 30
0.0
  0
VERTEX
  5
2B2
  8
0
 10
-4.82972
 20
0.5793199999999999
 30
0.0
  0
VERTEX
  5
2B3
  8
0
 10
-4.8502700000000001
 20
0.55722
 30
0.0
  0
VERTEX
  5
2B4
  8
0
 10
-4.8708200000000001
 20
0.53423
 30
0.0
  0
VERTEX
  5
2B5
  8
0
 10
-4.8913699999999993
 20
0.5103800000000001
 30
0.0
  0
VERTEX
  5
2B6
  8
0
 10
-4.911929999999999
 20
0.48571
 30
0.0
  0
VERTEX
  5
2B7
  8
0
 10
-4.9324799999999991
 20
0.46025
 30
0.0
  0
VERTEX
  5
2B8
  8
0
 10
-4.95303
 20
0.43405
 30
0.0
  0
VERTEX
  5
2B9
  8
0
 10
-4.9735800000000001
 20
0.40713
 30
0.0
  0
VERTEX
  5
2BA
  8
0
 10
-4.9941300000000002
 20
0.37947
 30
0.0
  0
VERTEX
  5
2BB
  8
0
 10
-5.014689999999999
 20
0.35012
 30
0.0
  0
VERTEX
  5
2BC
  8
0
 10
-5.035239999999999
 20
0.3174300000000001
 30
0.0
  0
VERTEX
  5
2BD
  8
0
 10
-5.05579
 20
0.27973
 30
0.0
  0
VERTEX
  5
2BE
  8
0
 10
-5.0763400000000001
 20
0.23534
 30
0.0
  0
VERTEX
  5
2BF
  8
0
 10
-5.0968900000000001
 20
0.18262
 30
0.0
  0
VERTEX
  5
2C0
  8
0
 10
-5.1174499999999989
 20
0.11989
 30
0.0
  0
VERTEX
  5
2C1
  8
0
 10
-5.137999999999999
 20
0.04548
 30
0.0
  0
VERTEX
  5
2C2
  8
0
 10
-5.137999999999999
 20
-0.05925
 30
0.0
  0
VERTEX
  5
2C3
  8
0
 10
-5.1174499999999989
 20
-0.09884
 30
0.0
  0
VERTEX
  5
2C4
  8
0
 10
-5.0968900000000001
 20
-0.13315
 30
0.0
  0
VERTEX
  5
2C5
  8
0
 10
-5.0763400000000001
 20
-0.1627
 30
0.0
  0
VERTEX
  5
2C6
  8
0
 10
-5.05579
 20
-0.18804
 30
0.0
  0
VERTEX
  5
2C7
  8
0
 10
-5.035239999999999
 20
-0.20969
 30
0.0
  0
VERTEX
  5
2C8
  8
0
 10
-5.014689999999999
 20
-0.22817
 30
0.0
  0
VERTEX
  5
2C9
  8
0
 10
-4.9941300000000002
 20
-0.244
 30
0.0
  0
VERTEX
  5
2CA
  8
0
 10
-4.9735800000000001
 20
-0.25773
 30
0.0
  0
VERTEX
  5
2CB
  8
0
 10
-4.95303
 20
-0.26987
 30
0.0
  0
VERTEX
  5
2CC
  8
0
 10
-4.9324799999999991
 20
-0.28095
 30
0.0
  0
VERTEX
  5
2CD
  8
0
 10
-4.911929999999999
 20
-0.29151
 30
0.0
  0
VERTEX
  5
2CE
  8
0
 10
-4.8913699999999993
 20
-0.30199
 30
0.0
  0
VERTEX
  5
2CF
  8
0
 10
-4.8708200000000001
 20
-0.31251
 30
0.0
  0
VERTEX
  5
2D0
  8
0
 10
-4.8502700000000001
 20
-0.3230300000000001
 30
0.0
  0
VERTEX
  5
2D1
  8
0
 10
-4.82972
 20
-0.33351
 30
0.0
  0
VERTEX
  5
2D2
  8
0
 10
-4.8091699999999991
 20
-0.34391
 30
0.0
  0
VERTEX
  5
2D3
  8
0
 10
-4.7886100000000003
 20
-0.3542
 30
0.0
  0
VERTEX
  5
2D4
  8
0
 10
-4.7680600000000002
 20
-0.36435
 30
0.0
  0
VERTEX
  5
2D5
  8
0
 10
-4.7475100000000001
 20
-0.37431
 30
0.0
  0
VERTEX
  5
2D6
  8
0
 10
-4.7269600000000001
 20
-0.38405
 30
0.0
  0
VERTEX
  5
2D7
  8
0
 10
-4.5214400000000001
 20
-0.46674
 30
0.0
  0
VERTEX
  5
2D8
  8
0
 10
-4.3159199999999993
 20
-0.5319700000000001
 30
0.0
  0
VERTEX
  5
2D9
  8
0
 10
-4.1104000000000003
 20
-0.5885100000000002
 30
0.0
  0
VERTEX
  5
2DA
  8
0
 10
-3.9048799999999999
 20
-0.63779
 30
0.0
  0
VERTEX
  5
2DB
  8
0
 10
-3.6993599999999991
 20
-0.68138
 30
0.0
  0
VERTEX
  5
2DC
  8
0
 10
-3.4938400000000001
 20
-0.72077
 30
0.0
  0
VERTEX
  5
2DD
  8
0
 10
-3.2883199999999988
 20
-0.7565400000000001
 30
0.0
  0
VERTEX
  5
2DE
  8
0
 10
-3.0828000000000002
 20
-0.78903
 30
0.0
  0
VERTEX
  5
2DF
  8
0
 10
-2.8772799999999989
 20
-0.8186899999999999
 30
0.0
  0
VERTEX
  5
2E0
  8
0
 10
-2.671759999999999
 20
-0.8460299999999999
 30
0.0
  0
VERTEX
  5
2E1
  8
0
 10
-2.4662399999999991
 20
-0.87139
 30
0.0
  0
VERTEX
  5
2E2
  8
0
 10
-2.2607200000000001
 20
-0.89489
 30
0.0
  0
VERTEX
  5
2E3
  8
0
 10
-2.0552000000000001
 20
-0.91667
 30
0.0
  0
VERTEX
  5
2E4
  8
0
 10
-1.84968
 20
-0.9368399999999999
 30
0.0
  0
VERTEX
  5
2E5
  8
0
 10
-1.644159999999999
 20
-0.95556
 30
0.0
  0
VERTEX
  5
2E6
  8
0
 10
-1.438639999999999
 20
-0.9729499999999999
 30
0.0
  0
VERTEX
  5
2E7
  8
0
 10
-1.2331199999999991
 20
-0.9890899999999998
 30
0.0
  0
VERTEX
  5
2E8
  8
0
 10
-1.0276000000000001
 20
-1.0040199999999999
 30
0.0
  0
VERTEX
  5
2E9
  8
0
 10
-0.8220799999999998
 20
-1.0177899999999991
 30
0.0
  0
VERTEX
  5
2EA
  8
0
 10
-0.61656
 20
-1.0304299999999991
 30
0.0
  0
VERTEX
  5
2EB
  8
0
 10
-0.41104
 20
-1.0419599999999991
 30
0.0
  0
VERTEX
  5
2EC
  8
0
 10
-0.20552
 20
-1.0524199999999999
 30
0.0
  0
VERTEX
  5
2ED
  8
0
 10
0.0
 20
-1.061839999999999
 30
0.0
  0
VERTEX
  5
2EE
  8
0
 10
0.20552
 20
-1.070279999999999
 30
0.0
  0
VERTEX
  5
2EF
  8
0
 10
0.41104
 20
-1.0777799999999991
 30
0.0
  0
VERTEX
  5
2F0
  8
0
 10
0.61656
 20
-1.0843700000000001
 30
0.0
  0
VERTEX
  5
2F1
  8
0
 10
0.8220799999999998
 20
-1.090079999999999
 30
0.0
  0
VERTEX
  5
2F2
  8
0
 10
1.0276000000000001
 20
-1.094889999999999
 30
0.0
  0
VERTEX
  5
2F3
  8
0
 10
1.2331199999999991
 20
-1.0988199999999999
 30
0.0
  0
VERTEX
  5
2F4
  8
0
 10
1.438639999999999
 20
-1.1018699999999999
 30
0.0
  0
VERTEX
  5
2F5
  8
0
 10
1.644159999999999
 20
-1.104039999999999
 30
0.0
  0
VERTEX
  5
2F6
  8
0
 10
1.84968
 20
-1.1053200000000001
 30
0.0
  0
VERTEX
  5
2F7
  8
0
 10
2.0552000000000001
 20
-1.105729999999999
 30
0.0
  0
VERTEX
  5
2F8
  8
0
 10
2.2607200000000001
 20
-1.1052999999999991
 30
0.0
  0
VERTEX
  5
2F9
  8
0
 10
2.4662399999999991
 20
-1.10409
 30
0.0
  0
VERTEX
  5
2FA
  8
0
 10
2.671759999999999
 20
-1.1021499999999991
 30
0.0
  0
VERTEX
  5
2FB
  8
0
 10
2.8772799999999989
 20
-1.099489999999999
 30
0.0
  0
VERTEX
  5
2FC
  8
0
 10
3.0828000000000002
 20
-1.0960799999999991
 30
0.0
  0
VERTEX
  5
2FD
  8
0
 10
3.2883199999999988
 20
-1.0918799999999991
 30
0.0
  0
VERTEX
  5
2FE
  8
0
 10
3.4938400000000001
 20
-1.0868500000000001
 30
0.0
  0
VERTEX
  5
2FF
  8
0
 10
3.6993599999999991
 20
-1.0809799999999989
 30
0.0
  0
VERTEX
  5
300
  8
0
 10
3.9048799999999999
 20
-1.0743100000000001
 30
0.0
  0
VERTEX
  5
301
  8
0
 10
4.1104000000000003
 20
-1.0668599999999999
 30
0.0
  0
VERTEX
  5
302
  8
0
 10
4.3159199999999993
 20
-1.058659999999999
 30
0.0
  0
VERTEX
  5
303
  8
0
 10
4.5214400000000001
 20
-1.049739999999999
 30
0.0
  0
VERTEX
  5
304
  8
0
 10
4.7269600000000001
 20
-1.0401100000000001
 30
0.0
  0
VERTEX
  5
305
  8
0
 10
4.9324799999999991
 20
-1.0298
 30
0.0
  0
VERTEX
  5
306
  8
0
 10
5.137999999999999
 20
-1.0188099999999991
 30
0.0
  0
VERTEX
  5
307
  8
0
 10
5.3435199999999989
 20
-1.007139999999999
 30
0.0
  0
VERTEX
  5
308
  8
0
 10
5.5490399999999989
 20
-0.9947600000000001
 30
0.0
  0
VERTEX
  5
309
  8
0
 10
5.7545599999999988
 20
-0.9816499999999999
 30
0.0
  0
VERTEX
  5
30A
  8
0
 10
5.9600799999999996
 20
-0.9677899999999999
 30
0.0
  0
VERTEX
  5
30B
  8
0
 10
6.1656000000000004
 20
-0.9532
 30
0.0
  0
VERTEX
  5
30C
  8
0
 10
6.3711199999999986
 20
-0.9379599999999999
 30
0.0
  0
VERTEX
  5
30D
  8
0
 10
6.5766399999999994
 20
-0.92209
 30
0.0
  0
VERTEX
  5
30E
  8
0
 10
6.7821600000000002
 20
-0.9056599999999999
 30
0.0
  0
VERTEX
  5
30F
  8
0
 10
6.9876800000000001
 20
-0.8887299999999999
 30
0.0
  0
VERTEX
  5
310
  8
0
 10
7.1932
 20
-0.8713799999999999
 30
0.0
  0
VERTEX
  5
311
  8
0
 10
7.3987199999999991
 20
-0.8536699999999999
 30
0.0
  0
VERTEX
  5
312
  8
0
 10
7.604239999999999
 20
-0.83566
 30
0.0
  0
VERTEX
  5
313
  8
0
 10
7.8097599999999998
 20
-0.81737
 30
0.0
  0
VERTEX
  5
314
  8
0
 10
8.0152800000000006
 20
-0.79878
 30
0.0
  0
VERTEX
  5
315
  8
0
 10
8.2208000000000006
 20
-0.7799000000000001
 30
0.0
  0
VERTEX
  5
316
  8
0
 10
8.4263200000000005
 20
-0.7607300000000001
 30
0.0
  0
VERTEX
  5
317
  8
0
 10
8.6318399999999986
 20
-0.74131
 30
0.0
  0
VERTEX
  5
318
  8
0
 10
8.8373600000000003
 20
-0.7216899999999999
 30
0.0
  0
VERTEX
  5
319
  8
0
 10
9.0428800000000003
 20
-0.7019000000000001
 30
0.0
  0
VERTEX
  5
31A
  8
0
 10
9.2484000000000002
 20
-0.6819800000000001
 30
0.0
  0
VERTEX
  5
31B
  8
0
 10
9.4539200000000001
 20
-0.66192
 30
0.0
  0
VERTEX
  5
31C
  8
0
 10
9.65944
 20
-0.64173
 30
0.0
  0
VERTEX
  5
31D
  8
0
 10
9.8649599999999982
 20
-0.6214100000000001
 30
0.0
  0
VERTEX
  5
31E
  8
0
 10
10.0704799999999999
 20
-0.6009800000000001
 30
0.0
  0
VERTEX
  5
31F
  8
0
 10
10.2759999999999998
 20
-0.58047
 30
0.0
  0
VERTEX
  5
320
  8
0
 10
10.4815199999999997
 20
-0.55992
 30
0.0
  0
VERTEX
  5
321
  8
0
 10
10.6870399999999997
 20
-0.53934
 30
0.0
  0
VERTEX
  5
322
  8
0
 10
10.8925599999999996
 20
-0.51875
 30
0.0
  0
VERTEX
  5
323
  8
0
 10
11.0980799999999995
 20
-0.49813
 30
0.0
  0
VERTEX
  5
324
  8
0
 10
11.3035999999999994
 20
-0.47748
 30
0.0
  0
VERTEX
  5
325
  8
0
 10
11.5091199999999994
 20
-0.4568100000000001
 30
0.0
  0
VERTEX
  5
326
  8
0
 10
11.7146399999999993
 20
-0.43613
 30
0.0
  0
VERTEX
  5
327
  8
0
 10
11.9201599999999992
 20
-0.41545
 30
0.0
  0
VERTEX
  5
328
  8
0
 10
12.1256799999999991
 20
-0.3947699999999999
 30
0.0
  0
VERTEX
  5
329
  8
0
 10
12.3312000000000008
 20
-0.3741
 30
0.0
  0
VERTEX
  5
32A
  8
0
 10
12.5367200000000008
 20
-0.35343
 30
0.0
  0
VERTEX
  5
32B
  8
0
 10
12.7422400000000007
 20
-0.33277
 30
0.0
  0
VERTEX
  5
32C
  8
0
 10
12.7422400000000007
 20
-0.33277
 30
0.0
  0
VERTEX
  5
32D
  8
0
 10
12.7422400000000007
 20
-0.35777
 30
0.0
  0
VERTEX
  5
32E
  8
0
 10
12.7422400000000007
 20
-0.08277
 30
0.0
  0
VERTEX
  5
32F
  8
0
 10
12.1256799999999991
 20
-0.11977
 30
0.0
  0
VERTEX
  5
330
  8
0
 10
12.1256799999999991
 20
0.4383
 30
0.0
  0
VERTEX
  5
331
  8
0
 10
11.8952899999999993
 20
0.4859100000000001
 30
0.0
  0
VERTEX
  5
332
  8
0
 10
11.6648999999999994
 20
0.53363
 30
0.0
  0
VERTEX
  5
333
  8
0
 10
11.4345099999999995
 20
0.5814600000000001
 30
0.0
  0
VERTEX
  5
334
  8
0
 10
11.2041199999999996
 20
0.62937
 30
0.0
  0
VERTEX
  5
335
  8
0
 10
10.9737299999999998
 20
0.67733
 30
0.0
  0
VERTEX
  5
336
  8
0
 10
10.7433399999999999
 20
0.7252999999999999
 30
0.0
  0
VERTEX
  5
337
  8
0
 10
10.51295
 20
0.77323
 30
0.0
  0
VERTEX
  5
338
  8
0
 10
10.2825600000000001
 20
0.8211000000000001
 30
0.0
  0
VERTEX
  5
339
  8
0
 10
10.0521700000000003
 20
0.86886
 30
0.0
  0
VERTEX
  5
33A
  8
0
 10
9.8217800000000004
 20
0.9164799999999999
 30
0.0
  0
VERTEX
  5
33B
  8
0
 10
9.5913899999999988
 20
0.96392
 30
0.0
  0
VERTEX
  5
33C
  8
0
 10
9.3610000000000007
 20
1.01112
 30
0.0
  0
VERTEX
  5
33D
  8
0
 10
9.1306100000000008
 20
1.05802
 30
0.0
  0
VERTEX
  5
33E
  8
0
 10
8.9002199999999991
 20
1.1045700000000001
 30
0.0
  0
VERTEX
  5
33F
  8
0
 10
8.669830000000001
 20
1.1507199999999991
 30
0.0
  0
VERTEX
  5
340
  8
0
 10
8.4394399999999994
 20
1.1963900000000001
 30
0.0
  0
VERTEX
  5
341
  8
0
 10
8.2090499999999995
 20
1.24152
 30
0.0
  0
VERTEX
  5
342
  8
0
 10
7.9786599999999996
 20
1.28596
 30
0.0
  0
VERTEX
  5
343
  8
0
 10
7.7482699999999989
 20
1.3294900000000001
 30
0.0
  0
VERTEX
  5
344
  8
0
 10
7.517879999999999
 20
1.371929999999999
 30
0.0
  0
VERTEX
  5
345
  8
0
 10
7.2874899999999991
 20
1.4131199999999999
 30
0.0
  0
VERTEX
  5
346
  8
0
 10
7.0571000000000002
 20
1.45296
 30
0.0
  0
VERTEX
  5
347
  8
0
 10
6.8267100000000003
 20
1.4913499999999991
 30
0.0
  0
VERTEX
  5
348
  8
0
 10
6.5963199999999986
 20
1.5282500000000001
 30
0.0
  0
VERTEX
  5
349
  8
0
 10
6.3659299999999996
 20
1.5637000000000001
 30
0.0
  0
VERTEX
  5
34A
  8
0
 10
6.1355399999999989
 20
1.5977600000000001
 30
0.0
  0
VERTEX
  5
34B
  8
0
 10
5.905149999999999
 20
1.6304700000000001
 30
0.0
  0
VERTEX
  5
34C
  8
0
 10
5.67476
 20
1.661729999999999
 30
0.0
  0
VERTEX
  5
34D
  8
0
 10
5.4443699999999993
 20
1.6913899999999999
 30
0.0
  0
VERTEX
  5
34E
  8
0
 10
5.2139800000000003
 20
1.7193400000000001
 30
0.0
  0
VERTEX
  5
34F
  8
0
 10
4.9835900000000004
 20
1.745479999999999
 30
0.0
  0
VERTEX
  5
350
  8
0
 10
4.7531999999999988
 20
1.7697599999999989
 30
0.0
  0
VERTEX
  5
351
  8
0
 10
4.5228099999999989
 20
1.7921400000000001
 30
0.0
  0
VERTEX
  5
352
  8
0
 10
4.292419999999999
 20
1.8125999999999991
 30
0.0
  0
VERTEX
  5
353
  8
0
 10
4.06203
 20
1.8312099999999989
 30
0.0
  0
VERTEX
  5
354
  8
0
 10
3.8316400000000002
 20
1.8480099999999999
 30
0.0
  0
VERTEX
  5
355
  8
0
 10
3.601249999999999
 20
1.8629899999999999
 30
0.0
  0
VERTEX
  5
356
  8
0
 10
3.3708599999999991
 20
1.87605
 30
0.0
  0
VERTEX
  5
357
  8
0
 10
3.1404700000000001
 20
1.8870400000000001
 30
0.0
  0
VERTEX
  5
358
  8
0
 10
2.9100799999999989
 20
1.89588
 30
0.0
  0
VERTEX
  5
359
  8
0
 10
2.6796899999999999
 20
1.9025799999999999
 30
0.0
  0
VERTEX
  5
35A
  8
0
 10
2.4493
 20
1.907179999999999
 30
0.0
  0
VERTEX
  5
35B
  8
0
 10
2.2189099999999988
 20
1.9097099999999989
 30
0.0
  0
VERTEX
  5
35C
  8
0
 10
1.9885200000000001
 20
1.9101499999999989
 30
0.0
  0
VERTEX
  5
35D
  8
0
 10
1.7581299999999991
 20
1.9084799999999991
 30
0.0
  0
VERTEX
  5
35E
  8
0
 10
1.527739999999999
 20
1.9046599999999989
 30
0.0
  0
VERTEX
  5
35F
  8
0
 10
1.2973499999999989
 20
1.898609999999999
 30
0.0
  0
VERTEX
  5
360
  8
0
 10
1.0669599999999999
 20
1.8902499999999991
 30
0.0
  0
VERTEX
  5
361
  8
0
 10
0.83657
 20
1.8794900000000001
 30
0.0
  0
VERTEX
  5
362
  8
0
 10
0.6061800000000001
 20
1.8663400000000001
 30
0.0
  0
VERTEX
  5
363
  8
0
 10
2.25034
 20
-0.8303599999999999
 30
0.0
  0
VERTEX
  5
364
  8
0
 10
2.447849999999999
 20
-0.82925
 30
0.0
  0
VERTEX
  5
365
  8
0
 10
2.6453500000000001
 20
-0.8274600000000001
 30
0.0
  0
VERTEX
  5
366
  8
0
 10
2.8428599999999991
 20
-0.825
 30
0.0
  0
VERTEX
  5
367
  8
0
 10
3.0403699999999998
 20
-0.82186
 30
0.0
  0
VERTEX
  5
368
  8
0
 10
3.23787
 20
-0.8179999999999999
 30
0.0
  0
VERTEX
  5
369
  8
0
 10
3.4353799999999999
 20
-0.81338
 30
0.0
  0
VERTEX
  5
36A
  8
0
 10
3.6328900000000002
 20
-0.80798
 30
0.0
  0
VERTEX
  5
36B
  8
0
 10
3.8303899999999991
 20
-0.8018299999999999
 30
0.0
  0
VERTEX
  5
36C
  8
0
 10
4.0278999999999989
 20
-0.79495
 30
0.0
  0
VERTEX
  5
36D
  8
0
 10
4.2254100000000001
 20
-0.78738
 30
0.0
  0
VERTEX
  5
36E
  8
0
 10
4.422909999999999
 20
-0.77912
 30
0.0
  0
VERTEX
  5
36F
  8
0
 10
4.6204199999999993
 20
-0.7702
 30
0.0
  0
VERTEX
  5
370
  8
0
 10
4.8179299999999996
 20
-0.76064
 30
0.0
  0
VERTEX
  5
371
  8
0
 10
5.0154300000000003
 20
-0.75045
 30
0.0
  0
VERTEX
  5
372
  8
0
 10
5.2129399999999997
 20
-0.73964
 30
0.0
  0
VERTEX
  5
373
  8
0
 10
5.4104499999999991
 20
-0.7281900000000001
 30
0.0
  0
VERTEX
  5
374
  8
0
 10
5.6079499999999989
 20
-0.71608
 30
0.0
  0
VERTEX
  5
375
  8
0
 10
5.8054600000000001
 20
-0.70329
 30
0.0
  0
VERTEX
  5
376
  8
0
 10
6.0029699999999986
 20
-0.6898100000000001
 30
0.0
  0
VERTEX
  5
377
  8
0
 10
6.2004700000000001
 20
-0.6756700000000001
 30
0.0
  0
VERTEX
  5
378
  8
0
 10
6.3979799999999996
 20
-0.66092
 30
0.0
  0
VERTEX
  5
379
  8
0
 10
6.595489999999999
 20
-0.6456100000000001
 30
0.0
  0
VERTEX
  5
37A
  8
0
 10
6.7929899999999988
 20
-0.6297800000000001
 30
0.0
  0
VERTEX
  5
37B
  8
0
 10
6.990499999999999
 20
-0.6135
 30
0.0
  0
VERTEX
  5
37C
  8
0
 10
7.1880100000000002
 20
-0.5968200000000001
 30
0.0
  0
VERTEX
  5
37D
  8
0
 10
7.38551
 20
-0.57982
 30
0.0
  0
VERTEX
  5
37E
  8
0
 10
7.5830199999999994
 20
-0.56253
 30
0.0
  0
VERTEX
  5
37F
  8
0
 10
7.7805299999999997
 20
-0.54499
 30
0.0
  0
VERTEX
  5
380
  8
0
 10
7.9780399999999991
 20
-0.52717
 30
0.0
  0
VERTEX
  5
381
  8
0
 10
8.1755399999999998
 20
-0.50908
 30
0.0
  0
VERTEX
  5
382
  8
0
 10
8.3730499999999992
 20
-0.4907300000000001
 30
0.0
  0
VERTEX
  5
383
  8
0
 10
8.5705600000000004
 20
-0.4721300000000001
 30
0.0
  0
VERTEX
  5
384
  8
0
 10
8.7680600000000002
 20
-0.4533300000000001
 30
0.0
  0
VERTEX
  5
385
  8
0
 10
8.9655699999999996
 20
-0.4343600000000001
 30
0.0
  0
VERTEX
  5
386
  8
0
 10
9.1630800000000008
 20
-0.41527
 30
0.0
  0
VERTEX
  5
387
  8
0
 10
9.3605800000000006
 20
-0.39604
 30
0.0
  0
VERTEX
  5
388
  8
0
 10
9.5580899999999982
 20
-0.3767
 30
0.0
  0
VERTEX
  5
389
  8
0
 10
9.7555999999999994
 20
-0.35723
 30
0.0
  0
VERTEX
  5
38A
  8
0
 10
9.9530999999999992
 20
-0.33765
 30
0.0
  0
VERTEX
  5
38B
  8
0
 10
10.1506100000000004
 20
-0.31799
 30
0.0
  0
VERTEX
  5
38C
  8
0
 10
10.3481199999999998
 20
-0.29826
 30
0.0
  0
VERTEX
  5
38D
  8
0
 10
10.5456199999999995
 20
-0.2785
 30
0.0
  0
VERTEX
  5
38E
  8
0
 10
10.7431300000000007
 20
-0.25872
 30
0.0
  0
VERTEX
  5
38F
  8
0
 10
10.9406400000000001
 20
-0.23893
 30
0.0
  0
VERTEX
  5
390
  8
0
 10
11.1381399999999999
 20
-0.2191
 30
0.0
  0
VERTEX
  5
391
  8
0
 10
11.3356499999999993
 20
-0.19926
 30
0.0
  0
VERTEX
  5
392
  8
0
 10
11.5331600000000005
 20
-0.17939
 30
0.0
  0
VERTEX
  5
393
  8
0
 10
11.7306600000000003
 20
-0.15951
 30
0.0
  0
VERTEX
  5
394
  8
0
 10
11.9281699999999997
 20
-0.13964
 30
0.0
  0
VERTEX
  5
395
  8
0
 10
12.1256799999999991
 20
-0.11977
 30
0.0
  0
VERTEX
  5
396
  8
0
 10
12.7422400000000007
 20
-0.08277
 30
0.0
  0
VERTEX
  5
397
  8
0
 10
12.7422400000000007
 20
-0.35777
 30
0.0
  0
VERTEX
  5
398
  8
0
 10
12.7422400000000007
 20
-0.33277
 30
0.0
  0
VERTEX
  5
399
  8
0
 10
12.7422400000000007
 20
-0.33277
 30
0.0
  0
VERTEX
  5
39A
  8
0
 10
12.9477600000000006
 20
-0.31212
 30
0.0
  0
VERTEX
  5
39B
  8
0
 10
13.1532800000000005
 20
-0.29148
 30
0.0
  0
VERTEX
  5
39C
  8
0
 10
13.3588000000000005
 20
-0.2707699999999999
 30
0.0
  0
VERTEX
  5
39D
  8
0
 10
13.5643200000000004
 20
-0.24986
 30
0.0
  0
VERTEX
  5
39E
  8
0
 10
13.7698400000000003
 20
-0.22864
 30
0.0
  0
VERTEX
  5
39F
  8
0
 10
13.9753600000000002
 20
-0.20698
 30
0.0
  0
VERTEX
  5
3A0
  8
0
 10
14.1808800000000002
 20
-0.18471
 30
0.0
  0
VERTEX
  5
3A1
  8
0
 10
14.3864000000000001
 20
-0.16121
 30
0.0
  0
VERTEX
  5
3A2
  8
0
 10
14.59192
 20
-0.13545
 30
0.0
  0
VERTEX
  5
3A3
  8
0
 10
14.7974399999999999
 20
-0.10525
 30
0.0
  0
VERTEX
  5
3A4
  8
0
 10
15.0029599999999999
 20
-0.06946
 30
0.0
  0
VERTEX
  5
3A5
  8
0
 10
15.2084799999999998
 20
-0.03048
 30
0.0
  0
VERTEX
  5
3A6
  8
0
 10
15.4139999999999997
 20
0.0
 30
0.0
  0
VERTEX
  5
3A7
  8
0
 10
15.4704800000000002
 20
0.0
 30
0.0
  0
SEQEND
  5
3A8
  8
0
  0
ENDSEC
  0
EOF
