  0
SECTION
  2
HEADER
  9
$ACADVER
  1
AC1009
  9
$INSBASE
 10
0.0
 20
0.0
 30
0.0
  9
$EXTMIN
 10
-3.4365299999999999
 20
-0.7673600000000002
 30
0.0
  9
$EXTMAX
 10
10.3094900000000003
 20
1.4820199999999999
 30
0.0
  9
$LIMMIN
 10
0.0
 20
0.0
  9
$LIMMAX
 10
12.0
 20
9.0
  9
$ORTHOMODE
 70
     0
  9
$REGENMODE
 70
     1
  9
$FILLMODE
 70
     1
  9
$QTEXTMODE
 70
     0
  9
$MIRRTEXT
 70
     0
  9
$DRAGMODE
 70
     2
  9
$LTSCALE
 40
1.0
  9
$OSMODE
 70
    37
  9
$ATTMODE
 70
     1
  9
$TEXTSIZE
 40
0.2
  9
$TRACEWID
 40
0.05
  9
$TEXTSTYLE
  7
STANDARD
  9
$CLAYER
  8
0
  9
$CELTYPE
  6
BYLAYER
  9
$CECOLOR
 62
   256
  9
$DIMSCALE
 40
1.0
  9
$DIMASZ
 40
0.18
  9
$DIMEXO
 40
0.0625
  9
$DIMDLI
 40
0.38
  9
$DIMRND
 40
0.0
  9
$DIMDLE
 40
0.0
  9
$DIMEXE
 40
0.18
  9
$DIMTP
 40
0.0
  9
$DIMTM
 40
0.0
  9
$DIMTXT
 40
0.18
  9
$DIMCEN
 40
0.09
  9
$DIMTSZ
 40
0.0
  9
$DIMTOL
 70
     0
  9
$DIMLIM
 70
     0
  9
$DIMTIH
 70
     1
  9
$DIMTOH
 70
     1
  9
$DIMSE1
 70
     0
  9
$DIMSE2
 70
     0
  9
$DIMTAD
 70
     0
  9
$DIMZIN
 70
     0
  9
$DIMBLK
  1

  9
$DIMASO
 70
     1
  9
$DIMSHO
 70
     1
  9
$DIMPOST
  1

  9
$DIMAPOST
  1

  9
$DIMALT
 70
     0
  9
$DIMALTD
 70
     2
  9
$DIMALTF
 40
25.3999999999999986
  9
$DIMLFAC
 40
1.0
  9
$DIMTOFL
 70
     0
  9
$DIMTVP
 40
0.0
  9
$DIMTIX
 70
     0
  9
$DIMSOXD
 70
     0
  9
$DIMSAH
 70
     0
  9
$DIMBLK1
  1

  9
$DIMBLK2
  1

  9
$DIMSTYLE
  2
STANDARD
  9
$DIMCLRD
 70
     0
  9
$DIMCLRE
 70
     0
  9
$DIMCLRT
 70
     0
  9
$DIMTFAC
 40
1.0
  9
$DIMGAP
 40
0.09
  9
$LUNITS
 70
     2
  9
$LUPREC
 70
     4
  9
$SKETCHINC
 40
0.1
  9
$FILLETRAD
 40
0.0
  9
$AUNITS
 70
     0
  9
$AUPREC
 70
     0
  9
$MENU
  1
.
  9
$ELEVATION
 40
0.0
  9
$PELEVATION
 40
0.0
  9
$THICKNESS
 40
0.0
  9
$LIMCHECK
 70
     0
  9
$BLIPMODE
 70
     0
  9
$CHAMFERA
 40
0.0
  9
$CHAMFERB
 40
0.0
  9
$SKPOLY
 70
     0
  9
$TDCREATE
 40
2457765.7241319450549781
  9
$TDUPDATE
 40
2457765.7246643519029021
  9
$TDINDWG
 40
0.0005324074
  9
$TDUSRTIMER
 40
0.0005324074
  9
$USRTIMER
 70
     1
  9
$ANGBASE
 50
0.0
  9
$ANGDIR
 70
     0
  9
$PDMODE
 70
     0
  9
$PDSIZE
 40
0.0
  9
$PLINEWID
 40
0.0
  9
$COORDS
 70
     1
  9
$SPLFRAME
 70
     0
  9
$SPLINETYPE
 70
     6
  9
$SPLINESEGS
 70
     8
  9
$ATTDIA
 70
     1
  9
$ATTREQ
 70
     1
  9
$HANDLING
 70
     1
  9
$HANDSEED
  5
339
  9
$SURFTAB1
 70
     6
  9
$SURFTAB2
 70
     6
  9
$SURFTYPE
 70
     6
  9
$SURFU
 70
     6
  9
$SURFV
 70
     6
  9
$UCSNAME
  2

  9
$UCSORG
 10
0.0
 20
0.0
 30
0.0
  9
$UCSXDIR
 10
1.0
 20
0.0
 30
0.0
  9
$UCSYDIR
 10
0.0
 20
1.0
 30
0.0
  9
$PUCSNAME
  2

  9
$PUCSORG
 10
0.0
 20
0.0
 30
0.0
  9
$PUCSXDIR
 10
1.0
 20
0.0
 30
0.0
  9
$PUCSYDIR
 10
0.0
 20
1.0
 30
0.0
  9
$USERI1
 70
     0
  9
$USERI2
 70
     0
  9
$USERI3
 70
     0
  9
$USERI4
 70
     0
  9
$USERI5
 70
     0
  9
$USERR1
 40
0.0
  9
$USERR2
 40
0.0
  9
$USERR3
 40
0.0
  9
$USERR4
 40
0.0
  9
$USERR5
 40
0.0
  9
$WORLDVIEW
 70
     1
  9
$SHADEDGE
 70
     3
  9
$SHADEDIF
 70
    70
  9
$TILEMODE
 70
     1
  9
$MAXACTVP
 70
    64
  9
$PLIMCHECK
 70
     0
  9
$PEXTMIN
 10
0.0
 20
0.0
 30
0.0
  9
$PEXTMAX
 10
0.0
 20
0.0
 30
0.0
  9
$PLIMMIN
 10
0.0
 20
0.0
  9
$PLIMMAX
 10
12.0
 20
9.0
  9
$UNITMODE
 70
     0
  9
$VISRETAIN
 70
     1
  9
$PLINEGEN
 70
     0
  9
$PSLTSCALE
 70
     1
  0
ENDSEC
  0
SECTION
  2
TABLES
  0
TABLE
  2
VPORT
 70
     1
  0
VPORT
  2
*ACTIVE
 70
     0
 10
0.0
 20
0.0
 11
1.0
 21
1.0
 12
5.7973751330412711
 22
-4.6006991321651682
 13
0.0
 23
0.0
 14
0.5
 24
0.5
 15
0.5
 25
0.5
 16
0.0
 26
0.0
 36
1.0
 17
0.0
 27
0.0
 37
0.0
 40
15.1104126140855204
 41
2.58041958041958
 42
50.0
 43
0.0
 44
0.0
 50
0.0
 51
0.0
 71
     0
 72
  1000
 73
     1
 74
     3
 75
     0
 76
     1
 77
     0
 78
     0
  0
ENDTAB
  0
TABLE
  2
LTYPE
 70
     1
  0
LTYPE
  2
CONTINUOUS
 70
     0
  3
Solid line
 72
    65
 73
     0
 40
0.0
  0
ENDTAB
  0
TABLE
  2
LAYER
 70
     1
  0
LAYER
  2
0
 70
     0
 62
     7
  6
CONTINUOUS
  0
ENDTAB
  0
TABLE
  2
STYLE
 70
     2
  0
STYLE
  2
STANDARD
 70
     0
 40
0.0
 41
1.0
 50
0.0
 71
     0
 42
0.2
  3
txt
  4

  0
STYLE
  2
ANNOTATIVE
 70
     0
 40
0.0
 41
1.0
 50
0.0
 71
     0
 42
0.2
  3
txt
  4

  0
ENDTAB
  0
TABLE
  2
VIEW
 70
     0
  0
ENDTAB
  0
TABLE
  2
UCS
 70
     0
  0
ENDTAB
  0
TABLE
  2
APPID
 70
     7
  0
APPID
  2
ACAD
 70
     0
  0
APPID
  2
ACADANNOPO
 70
     0
  0
APPID
  2
ACADANNOTATIVE
 70
     0
  0
APPID
  2
ACAD_DSTYLE_DIMJAG
 70
     0
  0
APPID
  2
ACAD_DSTYLE_DIMTALN
 70
     0
  0
APPID
  2
ACAD_MLEADERVER
 70
     0
  0
APPID
  2
ACAD_NAV_VCDISPLAY
 70
     0
  0
ENDTAB
  0
TABLE
  2
DIMSTYLE
 70
     2
  0
DIMSTYLE
  2
STANDARD
 70
     0
  3

  4

  5

  6

  7

 40
1.0
 41
0.18
 42
0.0625
 43
0.38
 44
0.18
 45
0.0
 46
0.0
 47
0.0
 48
0.0
140
0.18
141
0.09
142
0.0
143
25.3999999999999986
144
1.0
145
0.0
146
1.0
147
0.09
 71
     0
 72
     0
 73
     1
 74
     1
 75
     0
 76
     0
 77
     0
 78
     0
170
     0
171
     2
172
     0
173
     0
174
     0
175
     0
176
     0
177
     0
178
     0
  0
DIMSTYLE
  2
ANNOTATIVE
 70
     0
  3

  4

  5

  6

  7

 40
0.0
 41
0.18
 42
0.0625
 43
0.38
 44
0.18
 45
0.0
 46
0.0
 47
0.0
 48
0.0
140
0.18
141
0.09
142
0.0
143
25.3999999999999986
144
1.0
145
0.0
146
1.0
147
0.09
 71
     0
 72
     0
 73
     1
 74
     1
 75
     0
 76
     0
 77
     0
 78
     0
170
     0
171
     2
172
     0
173
     0
174
     0
175
     0
176
     0
177
     0
178
     0
  0
ENDTAB
  0
ENDSEC
  0
SECTION
  2
BLOCKS
  0
BLOCK
  8
0
  2
$MODEL_SPACE
 70
     0
 10
0.0
 20
0.0
 30
0.0
  3
$MODEL_SPACE
  1

  0
ENDBLK
  5
21
  8
0
  0
BLOCK
 67
     1
  8
0
  2
$PAPER_SPACE
 70
     0
 10
0.0
 20
0.0
 30
0.0
  3
$PAPER_SPACE
  1

  0
ENDBLK
  5
5B
 67
     1
  8
0
  0
ENDSEC
  0
SECTION
  2
ENTITIES
  0
POLYLINE
  5
1F7
  8
0
 66
     1
 10
0.0
 20
0.0
 30
0.0
  0
VERTEX
  5
248
  8
0
 10
10.0374099999999995
 20
0.0
 30
0.0
  0
VERTEX
  5
249
  8
0
 10
10.3094900000000003
 20
-0.00908
 30
0.0
  0
VERTEX
  5
24A
  8
0
 10
10.1720400000000009
 20
0.02314
 30
0.0
  0
VERTEX
  5
24B
  8
0
 10
10.0345999999999993
 20
0.06143
 30
0.0
  0
VERTEX
  5
24C
  8
0
 10
9.8971600000000013
 20
0.09789
 30
0.0
  0
VERTEX
  5
24D
  8
0
 10
9.7597199999999997
 20
0.13088
 30
0.0
  0
VERTEX
  5
24E
  8
0
 10
9.6222899999999996
 20
0.16122
 30
0.0
  0
VERTEX
  5
24F
  8
0
 10
9.4848499999999998
 20
0.19035
 30
0.0
  0
VERTEX
  5
250
  8
0
 10
9.3474099999999982
 20
0.21887
 30
0.0
  0
VERTEX
  5
251
  8
0
 10
9.2099700000000002
 20
0.24718
 30
0.0
  0
VERTEX
  5
252
  8
0
 10
9.07254
 20
0.27539
 30
0.0
  0
VERTEX
  5
253
  8
0
 10
8.9351000000000003
 20
0.30359
 30
0.0
  0
VERTEX
  5
254
  8
0
 10
8.7976600000000005
 20
0.33183
 30
0.0
  0
VERTEX
  5
255
  8
0
 10
8.6602300000000003
 20
0.36014
 30
0.0
  0
VERTEX
  5
256
  8
0
 10
8.5227899999999988
 20
0.38854
 30
0.0
  0
VERTEX
  5
257
  8
0
 10
8.3853500000000007
 20
0.4170300000000001
 30
0.0
  0
VERTEX
  5
258
  8
0
 10
8.2479099999999992
 20
0.4456100000000001
 30
0.0
  0
VERTEX
  5
259
  8
0
 10
8.1104699999999994
 20
0.4742800000000001
 30
0.0
  0
VERTEX
  5
25A
  8
0
 10
7.9730299999999996
 20
0.50305
 30
0.0
  0
VERTEX
  5
25B
  8
0
 10
7.8355899999999989
 20
0.5319000000000002
 30
0.0
  0
VERTEX
  5
25C
  8
0
 10
7.69815
 20
0.56084
 30
0.0
  0
VERTEX
  5
25D
  8
0
 10
7.5607100000000003
 20
0.5898600000000001
 30
0.0
  0
VERTEX
  5
25E
  8
0
 10
7.4232699999999987
 20
0.61894
 30
0.0
  0
VERTEX
  5
25F
  8
0
 10
7.2858299999999998
 20
0.6480700000000001
 30
0.0
  0
VERTEX
  5
260
  8
0
 10
7.1483899999999991
 20
0.6772100000000001
 30
0.0
  0
VERTEX
  5
261
  8
0
 10
7.0109500000000002
 20
0.7063699999999999
 30
0.0
  0
VERTEX
  5
262
  8
0
 10
6.8735099999999996
 20
0.7355000000000002
 30
0.0
  0
VERTEX
  5
263
  8
0
 10
6.7360600000000002
 20
0.7645900000000001
 30
0.0
  0
VERTEX
  5
264
  8
0
 10
6.5986199999999986
 20
0.79362
 30
0.0
  0
VERTEX
  5
265
  8
0
 10
6.4611799999999997
 20
0.8225799999999999
 30
0.0
  0
VERTEX
  5
266
  8
0
 10
6.3237300000000003
 20
0.8514299999999998
 30
0.0
  0
VERTEX
  5
267
  8
0
 10
6.1862899999999996
 20
0.88015
 30
0.0
  0
VERTEX
  5
268
  8
0
 10
6.0488400000000002
 20
0.9087099999999999
 30
0.0
  0
VERTEX
  5
269
  8
0
 10
5.9114000000000004
 20
0.9370799999999999
 30
0.0
  0
VERTEX
  5
26A
  8
0
 10
5.7739500000000001
 20
0.9652299999999998
 30
0.0
  0
VERTEX
  5
26B
  8
0
 10
5.6365099999999986
 20
0.99313
 30
0.0
  0
VERTEX
  5
26C
  8
0
 10
5.4990600000000001
 20
1.02075
 30
0.0
  0
VERTEX
  5
26D
  8
0
 10
5.3616099999999989
 20
1.0479899999999991
 30
0.0
  0
VERTEX
  5
26E
  8
0
 10
5.2241699999999991
 20
1.074779999999999
 30
0.0
  0
VERTEX
  5
26F
  8
0
 10
5.0867199999999988
 20
1.1009999999999991
 30
0.0
  0
VERTEX
  5
270
  8
0
 10
4.9492699999999994
 20
1.12656
 30
0.0
  0
VERTEX
  5
271
  8
0
 10
4.8118299999999996
 20
1.15141
 30
0.0
  0
VERTEX
  5
272
  8
0
 10
4.6743800000000002
 20
1.1755100000000001
 30
0.0
  0
VERTEX
  5
273
  8
0
 10
4.536929999999999
 20
1.1988000000000001
 30
0.0
  0
VERTEX
  5
274
  8
0
 10
4.3994799999999996
 20
1.2212700000000001
 30
0.0
  0
VERTEX
  5
275
  8
0
 10
4.2620300000000002
 20
1.2429600000000001
 30
0.0
  0
VERTEX
  5
276
  8
0
 10
4.124579999999999
 20
1.2639
 30
0.0
  0
VERTEX
  5
277
  8
0
 10
3.9871300000000001
 20
1.2841
 30
0.0
  0
VERTEX
  5
278
  8
0
 10
3.8496800000000002
 20
1.303529999999999
 30
0.0
  0
VERTEX
  5
279
  8
0
 10
3.7122299999999999
 20
1.3221199999999991
 30
0.0
  0
VERTEX
  5
27A
  8
0
 10
3.5747800000000001
 20
1.3398000000000001
 30
0.0
  0
VERTEX
  5
27B
  8
0
 10
3.4373300000000002
 20
1.3565100000000001
 30
0.0
  0
VERTEX
  5
27C
  8
0
 10
3.2998799999999999
 20
1.372229999999999
 30
0.0
  0
VERTEX
  5
27D
  8
0
 10
3.1624300000000001
 20
1.3869299999999991
 30
0.0
  0
VERTEX
  5
27E
  8
0
 10
3.0249700000000002
 20
1.40059
 30
0.0
  0
VERTEX
  5
27F
  8
0
 10
2.887519999999999
 20
1.4131999999999989
 30
0.0
  0
VERTEX
  5
280
  8
0
 10
2.75007
 20
1.4247899999999989
 30
0.0
  0
VERTEX
  5
281
  8
0
 10
2.6126099999999992
 20
1.4353899999999991
 30
0.0
  0
VERTEX
  5
282
  8
0
 10
2.4751599999999989
 20
1.4450199999999991
 30
0.0
  0
VERTEX
  5
283
  8
0
 10
2.337699999999999
 20
1.4536199999999999
 30
0.0
  0
VERTEX
  5
284
  8
0
 10
2.20025
 20
1.461139999999999
 30
0.0
  0
VERTEX
  5
285
  8
0
 10
2.0627900000000001
 20
1.4675100000000001
 30
0.0
  0
VERTEX
  5
286
  8
0
 10
1.9253400000000001
 20
1.472699999999999
 30
0.0
  0
VERTEX
  5
287
  8
0
 10
1.787879999999999
 20
1.476729999999999
 30
0.0
  0
VERTEX
  5
288
  8
0
 10
1.6504199999999991
 20
1.4796199999999999
 30
0.0
  0
VERTEX
  5
289
  8
0
 10
1.5129600000000001
 20
1.48139
 30
0.0
  0
VERTEX
  5
28A
  8
0
 10
1.37551
 20
1.4820199999999999
 30
0.0
  0
VERTEX
  5
28B
  8
0
 10
1.2380500000000001
 20
1.4815100000000001
 30
0.0
  0
VERTEX
  5
28C
  8
0
 10
1.1005899999999991
 20
1.4798500000000001
 30
0.0
  0
VERTEX
  5
28D
  8
0
 10
0.9631299999999999
 20
1.476999999999999
 30
0.0
  0
VERTEX
  5
28E
  8
0
 10
0.8256700000000002
 20
1.472929999999999
 30
0.0
  0
VERTEX
  5
28F
  8
0
 10
0.6882000000000001
 20
1.467579999999999
 30
0.0
  0
VERTEX
  5
290
  8
0
 10
0.5507400000000001
 20
1.460939999999999
 30
0.0
  0
VERTEX
  5
291
  8
0
 10
0.4132800000000001
 20
1.4530000000000001
 30
0.0
  0
VERTEX
  5
292
  8
0
 10
0.27581
 20
1.4437699999999991
 30
0.0
  0
VERTEX
  5
293
  8
0
 10
0.13835
 20
1.43327
 30
0.0
  0
VERTEX
  5
294
  8
0
 10
0.00088
 20
1.4214299999999991
 30
0.0
  0
VERTEX
  5
295
  8
0
 10
-0.13658
 20
1.408199999999999
 30
0.0
  0
VERTEX
  5
296
  8
0
 10
-0.27405
 20
1.39351
 30
0.0
  0
VERTEX
  5
297
  8
0
 10
-0.41152
 20
1.3773200000000001
 30
0.0
  0
VERTEX
  5
298
  8
0
 10
-0.54899
 20
1.3595699999999999
 30
0.0
  0
VERTEX
  5
299
  8
0
 10
-0.6864600000000002
 20
1.3402199999999991
 30
0.0
  0
VERTEX
  5
29A
  8
0
 10
-0.8239300000000001
 20
1.31917
 30
0.0
  0
VERTEX
  5
29B
  8
0
 10
-0.9614
 20
1.2963299999999991
 30
0.0
  0
VERTEX
  5
29C
  8
0
 10
-1.098879999999999
 20
1.2715899999999991
 30
0.0
  0
VERTEX
  5
29D
  8
0
 10
-1.2363500000000001
 20
1.244799999999999
 30
0.0
  0
VERTEX
  5
29E
  8
0
 10
-1.373829999999999
 20
1.215789999999999
 30
0.0
  0
VERTEX
  5
29F
  8
0
 10
-1.511309999999999
 20
1.1843799999999991
 30
0.0
  0
VERTEX
  5
2A0
  8
0
 10
-1.64879
 20
1.150429999999999
 30
0.0
  0
VERTEX
  5
2A1
  8
0
 10
-1.78627
 20
1.11375
 30
0.0
  0
VERTEX
  5
2A2
  8
0
 10
-1.923759999999999
 20
1.0740299999999989
 30
0.0
  0
VERTEX
  5
2A3
  8
0
 10
-2.0612400000000002
 20
1.0309200000000001
 30
0.0
  0
VERTEX
  5
2A4
  8
0
 10
-2.198729999999999
 20
0.9838699999999999
 30
0.0
  0
VERTEX
  5
2A5
  8
0
 10
-2.33623
 20
0.9322499999999999
 30
0.0
  0
VERTEX
  5
2A6
  8
0
 10
-2.4737200000000001
 20
0.8754599999999999
 30
0.0
  0
VERTEX
  5
2A7
  8
0
 10
-2.611219999999999
 20
0.81294
 30
0.0
  0
VERTEX
  5
2A8
  8
0
 10
-2.7487300000000001
 20
0.7432400000000001
 30
0.0
  0
VERTEX
  5
2A9
  8
0
 10
-2.8862399999999999
 20
0.66403
 30
0.0
  0
VERTEX
  5
2AA
  8
0
 10
-3.0237599999999989
 20
0.5718100000000002
 30
0.0
  0
VERTEX
  5
2AB
  8
0
 10
-3.1612900000000002
 20
0.46277
 30
0.0
  0
VERTEX
  5
2AC
  8
0
 10
-3.1750500000000001
 20
0.4504100000000001
 30
0.0
  0
VERTEX
  5
2AD
  8
0
 10
-3.1888000000000001
 20
0.43762
 30
0.0
  0
VERTEX
  5
2AE
  8
0
 10
-3.2025600000000001
 20
0.42435
 30
0.0
  0
VERTEX
  5
2AF
  8
0
 10
-3.21631
 20
0.4105500000000001
 30
0.0
  0
VERTEX
  5
2B0
  8
0
 10
-3.2300699999999991
 20
0.39618
 30
0.0
  0
VERTEX
  5
2B1
  8
0
 10
-3.243819999999999
 20
0.3811900000000001
 30
0.0
  0
VERTEX
  5
2B2
  8
0
 10
-3.257579999999999
 20
0.36557
 30
0.0
  0
VERTEX
  5
2B3
  8
0
 10
-3.271329999999999
 20
0.34936
 30
0.0
  0
VERTEX
  5
2B4
  8
0
 10
-3.2850899999999998
 20
0.33258
 30
0.0
  0
VERTEX
  5
2B5
  8
0
 10
-3.2988400000000002
 20
0.31527
 30
0.0
  0
VERTEX
  5
2B6
  8
0
 10
-3.3126000000000002
 20
0.29748
 30
0.0
  0
VERTEX
  5
2B7
  8
0
 10
-3.3263599999999989
 20
0.27924
 30
0.0
  0
VERTEX
  5
2B8
  8
0
 10
-3.3401199999999989
 20
0.26055
 30
0.0
  0
VERTEX
  5
2B9
  8
0
 10
-3.3538800000000002
 20
0.24074
 30
0.0
  0
VERTEX
  5
2BA
  8
0
 10
-3.3676400000000002
 20
0.21868
 30
0.0
  0
VERTEX
  5
2BB
  8
0
 10
-3.3814000000000002
 20
0.1932
 30
0.0
  0
VERTEX
  5
2BC
  8
0
 10
-3.3951699999999989
 20
0.16316
 30
0.0
  0
VERTEX
  5
2BD
  8
0
 10
-3.4089399999999999
 20
0.12739
 30
0.0
  0
VERTEX
  5
2BE
  8
0
 10
-3.422709999999999
 20
0.08473
 30
0.0
  0
VERTEX
  5
2BF
  8
0
 10
-3.43648
 20
0.03404
 30
0.0
  0
VERTEX
  5
2C0
  8
0
 10
-3.4365299999999999
 20
-0.03666
 30
0.0
  0
VERTEX
  5
2C1
  8
0
 10
-3.4227899999999991
 20
-0.06386
 30
0.0
  0
VERTEX
  5
2C2
  8
0
 10
-3.4090599999999989
 20
-0.0874
 30
0.0
  0
VERTEX
  5
2C3
  8
0
 10
-3.395319999999999
 20
-0.10765
 30
0.0
  0
VERTEX
  5
2C4
  8
0
 10
-3.38158
 20
-0.12497
 30
0.0
  0
VERTEX
  5
2C5
  8
0
 10
-3.3678499999999989
 20
-0.13973
 30
0.0
  0
VERTEX
  5
2C6
  8
0
 10
-3.354109999999999
 20
-0.1523
 30
0.0
  0
VERTEX
  5
2C7
  8
0
 10
-3.3403699999999992
 20
-0.16305
 30
0.0
  0
VERTEX
  5
2C8
  8
0
 10
-3.3266300000000002
 20
-0.17235
 30
0.0
  0
VERTEX
  5
2C9
  8
0
 10
-3.3128899999999999
 20
-0.18056
 30
0.0
  0
VERTEX
  5
2CA
  8
0
 10
-3.29915
 20
-0.18806
 30
0.0
  0
VERTEX
  5
2CB
  8
0
 10
-3.2854099999999988
 20
-0.19521
 30
0.0
  0
VERTEX
  5
2CC
  8
0
 10
-3.271669999999999
 20
-0.20233
 30
0.0
  0
VERTEX
  5
2CD
  8
0
 10
-3.257919999999999
 20
-0.2095
 30
0.0
  0
VERTEX
  5
2CE
  8
0
 10
-3.2441800000000001
 20
-0.21668
 30
0.0
  0
VERTEX
  5
2CF
  8
0
 10
-3.2304400000000002
 20
-0.22385
 30
0.0
  0
VERTEX
  5
2D0
  8
0
 10
-3.216699999999999
 20
-0.23099
 30
0.0
  0
VERTEX
  5
2D1
  8
0
 10
-3.2029499999999991
 20
-0.23806
 30
0.0
  0
VERTEX
  5
2D2
  8
0
 10
-3.1892099999999992
 20
-0.24503
 30
0.0
  0
VERTEX
  5
2D3
  8
0
 10
-3.1754699999999998
 20
-0.25189
 30
0.0
  0
VERTEX
  5
2D4
  8
0
 10
-3.161719999999999
 20
-0.25859
 30
0.0
  0
VERTEX
  5
2D5
  8
0
 10
-3.0242900000000001
 20
-0.31545
 30
0.0
  0
VERTEX
  5
2D6
  8
0
 10
-2.886849999999999
 20
-0.36033
 30
0.0
  0
VERTEX
  5
2D7
  8
0
 10
-2.7494000000000001
 20
-0.39937
 30
0.0
  0
VERTEX
  5
2D8
  8
0
 10
-2.6119500000000002
 20
-0.4335100000000001
 30
0.0
  0
VERTEX
  5
2D9
  8
0
 10
-2.474499999999999
 20
-0.4637800000000001
 30
0.0
  0
VERTEX
  5
2DA
  8
0
 10
-2.3370500000000001
 20
-0.49119
 30
0.0
  0
VERTEX
  5
2DB
  8
0
 10
-2.1995900000000002
 20
-0.51614
 30
0.0
  0
VERTEX
  5
2DC
  8
0
 10
-2.0621399999999999
 20
-0.5388500000000001
 30
0.0
  0
VERTEX
  5
2DD
  8
0
 10
-1.9246799999999999
 20
-0.55964
 30
0.0
  0
VERTEX
  5
2DE
  8
0
 10
-1.78722
 20
-0.57885
 30
0.0
  0
VERTEX
  5
2DF
  8
0
 10
-1.649759999999999
 20
-0.5967100000000001
 30
0.0
  0
VERTEX
  5
2E0
  8
0
 10
-1.5122999999999991
 20
-0.6133
 30
0.0
  0
VERTEX
  5
2E1
  8
0
 10
-1.3748400000000001
 20
-0.62871
 30
0.0
  0
VERTEX
  5
2E2
  8
0
 10
-1.237379999999999
 20
-0.64303
 30
0.0
  0
VERTEX
  5
2E3
  8
0
 10
-1.09992
 20
-0.65635
 30
0.0
  0
VERTEX
  5
2E4
  8
0
 10
-0.9624599999999999
 20
-0.66876
 30
0.0
  0
VERTEX
  5
2E5
  8
0
 10
-0.825
 20
-0.6803100000000001
 30
0.0
  0
VERTEX
  5
2E6
  8
0
 10
-0.6875399999999999
 20
-0.69104
 30
0.0
  0
VERTEX
  5
2E7
  8
0
 10
-0.55008
 20
-0.7009600000000001
 30
0.0
  0
VERTEX
  5
2E8
  8
0
 10
-0.41261
 20
-0.7101
 30
0.0
  0
VERTEX
  5
2E9
  8
0
 10
-0.27515
 20
-0.71848
 30
0.0
  0
VERTEX
  5
2EA
  8
0
 10
-0.13769
 20
-0.72612
 30
0.0
  0
VERTEX
  5
2EB
  8
0
 10
-0.00023
 20
-0.73304
 30
0.0
  0
VERTEX
  5
2EC
  8
0
 10
0.13724
 20
-0.73928
 30
0.0
  0
VERTEX
  5
2ED
  8
0
 10
0.2747
 20
-0.7448600000000001
 30
0.0
  0
VERTEX
  5
2EE
  8
0
 10
0.41216
 20
-0.7498300000000001
 30
0.0
  0
VERTEX
  5
2EF
  8
0
 10
0.5496300000000001
 20
-0.7541700000000001
 30
0.0
  0
VERTEX
  5
2F0
  8
0
 10
0.68709
 20
-0.75789
 30
0.0
  0
VERTEX
  5
2F1
  8
0
 10
0.8245499999999999
 20
-0.761
 30
0.0
  0
VERTEX
  5
2F2
  8
0
 10
0.96202
 20
-0.7635
 30
0.0
  0
VERTEX
  5
2F3
  8
0
 10
1.09948
 20
-0.7653800000000001
 30
0.0
  0
VERTEX
  5
2F4
  8
0
 10
1.2369499999999991
 20
-0.76664
 30
0.0
  0
VERTEX
  5
2F5
  8
0
 10
1.3744099999999999
 20
-0.76729
 30
0.0
  0
VERTEX
  5
2F6
  8
0
 10
1.51187
 20
-0.7673600000000002
 30
0.0
  0
VERTEX
  5
2F7
  8
0
 10
1.64934
 20
-0.76689
 30
0.0
  0
VERTEX
  5
2F8
  8
0
 10
1.7867999999999991
 20
-0.7659000000000001
 30
0.0
  0
VERTEX
  5
2F9
  8
0
 10
1.9242699999999999
 20
-0.76441
 30
0.0
  0
VERTEX
  5
2FA
  8
0
 10
2.061729999999999
 20
-0.76239
 30
0.0
  0
VERTEX
  5
2FB
  8
0
 10
2.1991999999999989
 20
-0.75983
 30
0.0
  0
VERTEX
  5
2FC
  8
0
 10
2.3366599999999988
 20
-0.7566800000000001
 30
0.0
  0
VERTEX
  5
2FD
  8
0
 10
2.4741200000000001
 20
-0.7529500000000001
 30
0.0
  0
VERTEX
  5
2FE
  8
0
 10
2.6115900000000001
 20
-0.7486500000000001
 30
0.0
  0
VERTEX
  5
2FF
  8
0
 10
2.7490499999999991
 20
-0.7438100000000001
 30
0.0
  0
VERTEX
  5
300
  8
0
 10
2.8865199999999991
 20
-0.73844
 30
0.0
  0
VERTEX
  5
301
  8
0
 10
3.023979999999999
 20
-0.7325700000000001
 30
0.0
  0
VERTEX
  5
302
  8
0
 10
3.161449999999999
 20
-0.7262
 30
0.0
  0
VERTEX
  5
303
  8
0
 10
3.2989099999999989
 20
-0.71935
 30
0.0
  0
VERTEX
  5
304
  8
0
 10
3.4363800000000002
 20
-0.71202
 30
0.0
  0
VERTEX
  5
305
  8
0
 10
3.5738400000000001
 20
-0.70422
 30
0.0
  0
VERTEX
  5
306
  8
0
 10
3.7113099999999992
 20
-0.69592
 30
0.0
  0
VERTEX
  5
307
  8
0
 10
3.8487699999999991
 20
-0.6871000000000002
 30
0.0
  0
VERTEX
  5
308
  8
0
 10
3.98624
 20
-0.6777600000000001
 30
0.0
  0
VERTEX
  5
309
  8
0
 10
4.1237000000000004
 20
-0.66791
 30
0.0
  0
VERTEX
  5
30A
  8
0
 10
4.2611600000000003
 20
-0.65759
 30
0.0
  0
VERTEX
  5
30B
  8
0
 10
4.3986299999999998
 20
-0.64684
 30
0.0
  0
VERTEX
  5
30C
  8
0
 10
4.5360899999999988
 20
-0.63569
 30
0.0
  0
VERTEX
  5
30D
  8
0
 10
4.6735600000000002
 20
-0.62419
 30
0.0
  0
VERTEX
  5
30E
  8
0
 10
4.8110200000000001
 20
-0.61239
 30
0.0
  0
VERTEX
  5
30F
  8
0
 10
4.9484899999999996
 20
-0.6003300000000001
 30
0.0
  0
VERTEX
  5
310
  8
0
 10
5.0859500000000004
 20
-0.58807
 30
0.0
  0
VERTEX
  5
311
  8
0
 10
5.2234199999999991
 20
-0.5756000000000001
 30
0.0
  0
VERTEX
  5
312
  8
0
 10
5.360879999999999
 20
-0.5629300000000002
 30
0.0
  0
VERTEX
  5
313
  8
0
 10
5.4983500000000003
 20
-0.5500500000000001
 30
0.0
  0
VERTEX
  5
314
  8
0
 10
5.6358100000000002
 20
-0.5369600000000001
 30
0.0
  0
VERTEX
  5
315
  8
0
 10
5.7732700000000001
 20
-0.5236900000000001
 30
0.0
  0
VERTEX
  5
316
  8
0
 10
5.9107399999999997
 20
-0.5102800000000001
 30
0.0
  0
VERTEX
  5
317
  8
0
 10
6.0481999999999987
 20
-0.49674
 30
0.0
  0
VERTEX
  5
318
  8
0
 10
6.18567
 20
-0.4831100000000001
 30
0.0
  0
VERTEX
  5
319
  8
0
 10
6.323129999999999
 20
-0.46937
 30
0.0
  0
VERTEX
  5
31A
  8
0
 10
6.4605899999999989
 20
-0.45554
 30
0.0
  0
VERTEX
  5
31B
  8
0
 10
6.5980600000000003
 20
-0.4416100000000001
 30
0.0
  0
VERTEX
  5
31C
  8
0
 10
6.7355199999999993
 20
-0.4276
 30
0.0
  0
VERTEX
  5
31D
  8
0
 10
6.8729800000000001
 20
-0.41353
 30
0.0
  0
VERTEX
  5
31E
  8
0
 10
7.0104499999999987
 20
-0.39942
 30
0.0
  0
VERTEX
  5
31F
  8
0
 10
7.1479100000000004
 20
-0.38528
 30
0.0
  0
VERTEX
  5
320
  8
0
 10
7.2853699999999986
 20
-0.37112
 30
0.0
  0
VERTEX
  5
321
  8
0
 10
7.4228399999999981
 20
-0.35694
 30
0.0
  0
VERTEX
  5
322
  8
0
 10
7.5602999999999989
 20
-0.34272
 30
0.0
  0
VERTEX
  5
323
  8
0
 10
7.6977599999999997
 20
-0.32848
 30
0.0
  0
VERTEX
  5
324
  8
0
 10
7.8352300000000001
 20
-0.31421
 30
0.0
  0
VERTEX
  5
325
  8
0
 10
7.9726899999999992
 20
-0.2999399999999999
 30
0.0
  0
VERTEX
  5
326
  8
0
 10
8.1101500000000009
 20
-0.28565
 30
0.0
  0
VERTEX
  5
327
  8
0
 10
8.2476099999999999
 20
-0.27135
 30
0.0
  0
VERTEX
  5
328
  8
0
 10
8.3850699999999971
 20
-0.25705
 30
0.0
  0
VERTEX
  5
329
  8
0
 10
8.5225299999999997
 20
-0.24273
 30
0.0
  0
VERTEX
  5
32A
  8
0
 10
8.6599899999999987
 20
-0.2284
 30
0.0
  0
VERTEX
  5
32B
  8
0
 10
8.7974599999999992
 20
-0.21406
 30
0.0
  0
VERTEX
  5
32C
  8
0
 10
8.9349199999999982
 20
-0.19965
 30
0.0
  0
VERTEX
  5
32D
  8
0
 10
9.0723699999999994
 20
-0.18508
 30
0.0
  0
VERTEX
  5
32E
  8
0
 10
9.2098300000000002
 20
-0.17026
 30
0.0
  0
VERTEX
  5
32F
  8
0
 10
9.3472899999999992
 20
-0.1551
 30
0.0
  0
VERTEX
  5
330
  8
0
 10
9.48475
 20
-0.1395
 30
0.0
  0
VERTEX
  5
331
  8
0
 10
9.6222100000000008
 20
-0.123
 30
0.0
  0
VERTEX
  5
332
  8
0
 10
9.7596699999999998
 20
-0.10488
 30
0.0
  0
VERTEX
  5
333
  8
0
 10
9.8971199999999993
 20
-0.08359
 30
0.0
  0
VERTEX
  5
334
  8
0
 10
10.0345800000000001
 20
-0.05832
 30
0.0
  0
VERTEX
  5
335
  8
0
 10
10.1720299999999995
 20
-0.03076
 30
0.0
  0
VERTEX
  5
336
  8
0
 10
10.3094900000000003
 20
-0.00908
 30
0.0
  0
VERTEX
  5
337
  8
0
 10
10.0374099999999995
 20
0.0
 30
0.0
  0
SEQEND
  5
338
  8
0
  0
ENDSEC
  0
EOF
