  0
SECTION
  2
HEADER
  9
$ACADVER
  1
AC1009
  9
$INSBASE
 10
0.0
 20
0.0
 30
0.0
  9
$EXTMIN
 10
-2.3052000000000001
 20
-0.6416500000000001
 30
0.0
  9
$EXTMAX
 10
10.0374099999999995
 20
0.62424
 30
0.0
  9
$LIMMIN
 10
0.0
 20
0.0
  9
$LIMMAX
 10
12.0
 20
9.0
  9
$ORTHOMODE
 70
     0
  9
$REGENMODE
 70
     1
  9
$FILLMODE
 70
     1
  9
$QTEXTMODE
 70
     0
  9
$MIRRTEXT
 70
     0
  9
$DRAGMODE
 70
     2
  9
$LTSCALE
 40
1.0
  9
$OSMODE
 70
    37
  9
$ATTMODE
 70
     1
  9
$TEXTSIZE
 40
0.2
  9
$TRACEWID
 40
0.05
  9
$TEXTSTYLE
  7
STANDARD
  9
$CLAYER
  8
0
  9
$CELTYPE
  6
BYLAYER
  9
$CECOLOR
 62
   256
  9
$DIMSCALE
 40
1.0
  9
$DIMASZ
 40
0.18
  9
$DIMEXO
 40
0.0625
  9
$DIMDLI
 40
0.38
  9
$DIMRND
 40
0.0
  9
$DIMDLE
 40
0.0
  9
$DIMEXE
 40
0.18
  9
$DIMTP
 40
0.0
  9
$DIMTM
 40
0.0
  9
$DIMTXT
 40
0.18
  9
$DIMCEN
 40
0.09
  9
$DIMTSZ
 40
0.0
  9
$DIMTOL
 70
     0
  9
$DIMLIM
 70
     0
  9
$DIMTIH
 70
     1
  9
$DIMTOH
 70
     1
  9
$DIMSE1
 70
     0
  9
$DIMSE2
 70
     0
  9
$DIMTAD
 70
     0
  9
$DIMZIN
 70
     0
  9
$DIMBLK
  1

  9
$DIMASO
 70
     1
  9
$DIMSHO
 70
     1
  9
$DIMPOST
  1

  9
$DIMAPOST
  1

  9
$DIMALT
 70
     0
  9
$DIMALTD
 70
     2
  9
$DIMALTF
 40
25.3999999999999986
  9
$DIMLFAC
 40
1.0
  9
$DIMTOFL
 70
     0
  9
$DIMTVP
 40
0.0
  9
$DIMTIX
 70
     0
  9
$DIMSOXD
 70
     0
  9
$DIMSAH
 70
     0
  9
$DIMBLK1
  1

  9
$DIMBLK2
  1

  9
$DIMSTYLE
  2
STANDARD
  9
$DIMCLRD
 70
     0
  9
$DIMCLRE
 70
     0
  9
$DIMCLRT
 70
     0
  9
$DIMTFAC
 40
1.0
  9
$DIMGAP
 40
0.09
  9
$LUNITS
 70
     2
  9
$LUPREC
 70
     4
  9
$SKETCHINC
 40
0.1
  9
$FILLETRAD
 40
0.0
  9
$AUNITS
 70
     0
  9
$AUPREC
 70
     0
  9
$MENU
  1
.
  9
$ELEVATION
 40
0.0
  9
$PELEVATION
 40
0.0
  9
$THICKNESS
 40
0.0
  9
$LIMCHECK
 70
     0
  9
$BLIPMODE
 70
     0
  9
$CHAMFERA
 40
0.0
  9
$CHAMFERB
 40
0.0
  9
$SKPOLY
 70
     0
  9
$TDCREATE
 40
2457765.7210995368659496
  9
$TDUPDATE
 40
2457765.7223842591047287
  9
$TDINDWG
 40
0.0012847222
  9
$TDUSRTIMER
 40
0.0012847222
  9
$USRTIMER
 70
     1
  9
$ANGBASE
 50
0.0
  9
$ANGDIR
 70
     0
  9
$PDMODE
 70
     0
  9
$PDSIZE
 40
0.0
  9
$PLINEWID
 40
0.0
  9
$COORDS
 70
     1
  9
$SPLFRAME
 70
     0
  9
$SPLINETYPE
 70
     6
  9
$SPLINESEGS
 70
     8
  9
$ATTDIA
 70
     1
  9
$ATTREQ
 70
     1
  9
$HANDLING
 70
     1
  9
$HANDSEED
  5
475
  9
$SURFTAB1
 70
     6
  9
$SURFTAB2
 70
     6
  9
$SURFTYPE
 70
     6
  9
$SURFU
 70
     6
  9
$SURFV
 70
     6
  9
$UCSNAME
  2

  9
$UCSORG
 10
0.0
 20
0.0
 30
0.0
  9
$UCSXDIR
 10
1.0
 20
0.0
 30
0.0
  9
$UCSYDIR
 10
0.0
 20
1.0
 30
0.0
  9
$PUCSNAME
  2

  9
$PUCSORG
 10
0.0
 20
0.0
 30
0.0
  9
$PUCSXDIR
 10
1.0
 20
0.0
 30
0.0
  9
$PUCSYDIR
 10
0.0
 20
1.0
 30
0.0
  9
$USERI1
 70
     0
  9
$USERI2
 70
     0
  9
$USERI3
 70
     0
  9
$USERI4
 70
     0
  9
$USERI5
 70
     0
  9
$USERR1
 40
0.0
  9
$USERR2
 40
0.0
  9
$USERR3
 40
0.0
  9
$USERR4
 40
0.0
  9
$USERR5
 40
0.0
  9
$WORLDVIEW
 70
     1
  9
$SHADEDGE
 70
     3
  9
$SHADEDIF
 70
    70
  9
$TILEMODE
 70
     1
  9
$MAXACTVP
 70
    64
  9
$PLIMCHECK
 70
     0
  9
$PEXTMIN
 10
0.0
 20
0.0
 30
0.0
  9
$PEXTMAX
 10
0.0
 20
0.0
 30
0.0
  9
$PLIMMIN
 10
0.0
 20
0.0
  9
$PLIMMAX
 10
12.0
 20
9.0
  9
$UNITMODE
 70
     0
  9
$VISRETAIN
 70
     1
  9
$PLINEGEN
 70
     0
  9
$PSLTSCALE
 70
     1
  0
ENDSEC
  0
SECTION
  2
TABLES
  0
TABLE
  2
VPORT
 70
     1
  0
VPORT
  2
*ACTIVE
 70
     0
 10
0.0
 20
0.0
 11
1.0
 21
1.0
 12
1.8041914044080509
 22
0.880057005535769
 13
0.0
 23
0.0
 14
0.5
 24
0.5
 15
0.5
 25
0.5
 16
0.0
 26
0.0
 36
1.0
 17
0.0
 27
0.0
 37
0.0
 40
15.4467732930532993
 41
2.58041958041958
 42
50.0
 43
0.0
 44
0.0
 50
0.0
 51
0.0
 71
     0
 72
  1000
 73
     1
 74
     3
 75
     0
 76
     1
 77
     0
 78
     0
  0
ENDTAB
  0
TABLE
  2
LTYPE
 70
     1
  0
LTYPE
  2
CONTINUOUS
 70
     0
  3
Solid line
 72
    65
 73
     0
 40
0.0
  0
ENDTAB
  0
TABLE
  2
LAYER
 70
     1
  0
LAYER
  2
0
 70
     0
 62
     7
  6
CONTINUOUS
  0
ENDTAB
  0
TABLE
  2
STYLE
 70
     2
  0
STYLE
  2
STANDARD
 70
     0
 40
0.0
 41
1.0
 50
0.0
 71
     0
 42
0.2
  3
txt
  4

  0
STYLE
  2
ANNOTATIVE
 70
     0
 40
0.0
 41
1.0
 50
0.0
 71
     0
 42
0.2
  3
txt
  4

  0
ENDTAB
  0
TABLE
  2
VIEW
 70
     0
  0
ENDTAB
  0
TABLE
  2
UCS
 70
     0
  0
ENDTAB
  0
TABLE
  2
APPID
 70
     7
  0
APPID
  2
ACAD
 70
     0
  0
APPID
  2
ACADANNOPO
 70
     0
  0
APPID
  2
ACADANNOTATIVE
 70
     0
  0
APPID
  2
ACAD_DSTYLE_DIMJAG
 70
     0
  0
APPID
  2
ACAD_DSTYLE_DIMTALN
 70
     0
  0
APPID
  2
ACAD_MLEADERVER
 70
     0
  0
APPID
  2
ACAD_NAV_VCDISPLAY
 70
     0
  0
ENDTAB
  0
TABLE
  2
DIMSTYLE
 70
     2
  0
DIMSTYLE
  2
STANDARD
 70
     0
  3

  4

  5

  6

  7

 40
1.0
 41
0.18
 42
0.0625
 43
0.38
 44
0.18
 45
0.0
 46
0.0
 47
0.0
 48
0.0
140
0.18
141
0.09
142
0.0
143
25.3999999999999986
144
1.0
145
0.0
146
1.0
147
0.09
 71
     0
 72
     0
 73
     1
 74
     1
 75
     0
 76
     0
 77
     0
 78
     0
170
     0
171
     2
172
     0
173
     0
174
     0
175
     0
176
     0
177
     0
178
     0
  0
DIMSTYLE
  2
ANNOTATIVE
 70
     0
  3

  4

  5

  6

  7

 40
0.0
 41
0.18
 42
0.0625
 43
0.38
 44
0.18
 45
0.0
 46
0.0
 47
0.0
 48
0.0
140
0.18
141
0.09
142
0.0
143
25.3999999999999986
144
1.0
145
0.0
146
1.0
147
0.09
 71
     0
 72
     0
 73
     1
 74
     1
 75
     0
 76
     0
 77
     0
 78
     0
170
     0
171
     2
172
     0
173
     0
174
     0
175
     0
176
     0
177
     0
178
     0
  0
ENDTAB
  0
ENDSEC
  0
SECTION
  2
BLOCKS
  0
BLOCK
  8
0
  2
$MODEL_SPACE
 70
     0
 10
0.0
 20
0.0
 30
0.0
  3
$MODEL_SPACE
  1

  0
ENDBLK
  5
21
  8
0
  0
BLOCK
 67
     1
  8
0
  2
$PAPER_SPACE
 70
     0
 10
0.0
 20
0.0
 30
0.0
  3
$PAPER_SPACE
  1

  0
ENDBLK
  5
5B
 67
     1
  8
0
  0
ENDSEC
  0
SECTION
  2
ENTITIES
  0
POLYLINE
  5
1F7
  8
0
 66
     1
 10
0.0
 20
0.0
 30
0.0
  0
VERTEX
  5
384
  8
0
 10
10.0374099999999995
 20
0.0
 30
0.0
  0
VERTEX
  5
385
  8
0
 10
-2.3052000000000001
 20
0.1392
 30
0.0
  0
VERTEX
  5
386
  8
0
 10
-2.274719999999999
 20
0.12045
 30
0.0
  0
VERTEX
  5
387
  8
0
 10
-2.2442700000000002
 20
0.09793
 30
0.0
  0
VERTEX
  5
388
  8
0
 10
-2.213849999999999
 20
0.07845
 30
0.0
  0
VERTEX
  5
389
  8
0
 10
-2.18344
 20
0.06296
 30
0.0
  0
VERTEX
  5
38A
  8
0
 10
-2.1530399999999998
 20
0.05048
 30
0.0
  0
VERTEX
  5
38B
  8
0
 10
-2.1226500000000001
 20
0.03956
 30
0.0
  0
VERTEX
  5
38C
  8
0
 10
-2.09226
 20
0.02945
 30
0.0
  0
VERTEX
  5
38D
  8
0
 10
-2.061869999999999
 20
0.01968
 30
0.0
  0
VERTEX
  5
38E
  8
0
 10
-2.0314899999999998
 20
0.01
 30
0.0
  0
VERTEX
  5
38F
  8
0
 10
-2.0011000000000001
 20
0.00028
 30
0.0
  0
VERTEX
  5
390
  8
0
 10
-1.97071
 20
-0.00962
 30
0.0
  0
VERTEX
  5
391
  8
0
 10
-1.94032
 20
-0.01978
 30
0.0
  0
VERTEX
  5
392
  8
0
 10
-1.909919999999999
 20
-0.03023
 30
0.0
  0
VERTEX
  5
393
  8
0
 10
-1.8795200000000001
 20
-0.04102
 30
0.0
  0
VERTEX
  5
394
  8
0
 10
-1.8491200000000001
 20
-0.05216
 30
0.0
  0
VERTEX
  5
395
  8
0
 10
-1.8186999999999991
 20
-0.06369
 30
0.0
  0
VERTEX
  5
396
  8
0
 10
-1.7882899999999999
 20
-0.07563
 30
0.0
  0
VERTEX
  5
397
  8
0
 10
-1.7578599999999991
 20
-0.08802
 30
0.0
  0
VERTEX
  5
398
  8
0
 10
-1.72743
 20
-0.10086
 30
0.0
  0
VERTEX
  5
399
  8
0
 10
-1.69699
 20
-0.11415
 30
0.0
  0
VERTEX
  5
39A
  8
0
 10
-1.6665499999999991
 20
-0.12788
 30
0.0
  0
VERTEX
  5
39B
  8
0
 10
-1.6361000000000001
 20
-0.14202
 30
0.0
  0
VERTEX
  5
39C
  8
0
 10
-1.60564
 20
-0.15656
 30
0.0
  0
VERTEX
  5
39D
  8
0
 10
-1.57517
 20
-0.17145
 30
0.0
  0
VERTEX
  5
39E
  8
0
 10
-1.5446999999999991
 20
-0.18666
 30
0.0
  0
VERTEX
  5
39F
  8
0
 10
-1.5142199999999999
 20
-0.20214
 30
0.0
  0
VERTEX
  5
3A0
  8
0
 10
-1.4837400000000001
 20
-0.21785
 30
0.0
  0
VERTEX
  5
3A1
  8
0
 10
-1.453249999999999
 20
-0.23377
 30
0.0
  0
VERTEX
  5
3A2
  8
0
 10
-1.42276
 20
-0.24988
 30
0.0
  0
VERTEX
  5
3A3
  8
0
 10
-1.3922600000000001
 20
-0.26613
 30
0.0
  0
VERTEX
  5
3A4
  8
0
 10
-1.36175
 20
-0.28251
 30
0.0
  0
VERTEX
  5
3A5
  8
0
 10
-1.3312399999999991
 20
-0.29899
 30
0.0
  0
VERTEX
  5
3A6
  8
0
 10
-1.3007299999999991
 20
-0.31553
 30
0.0
  0
VERTEX
  5
3A7
  8
0
 10
-1.2702100000000001
 20
-0.3321
 30
0.0
  0
VERTEX
  5
3A8
  8
0
 10
-1.2396899999999991
 20
-0.34867
 30
0.0
  0
VERTEX
  5
3A9
  8
0
 10
-1.20916
 20
-0.3651499999999999
 30
0.0
  0
VERTEX
  5
3AA
  8
0
 10
-1.17862
 20
-0.38146
 30
0.0
  0
VERTEX
  5
3AB
  8
0
 10
-1.1480799999999991
 20
-0.3975
 30
0.0
  0
VERTEX
  5
3AC
  8
0
 10
-1.1175399999999991
 20
-0.41319
 30
0.0
  0
VERTEX
  5
3AD
  8
0
 10
-1.086989999999999
 20
-0.4284800000000001
 30
0.0
  0
VERTEX
  5
3AE
  8
0
 10
-1.05644
 20
-0.4433200000000001
 30
0.0
  0
VERTEX
  5
3AF
  8
0
 10
-1.025879999999999
 20
-0.4576800000000001
 30
0.0
  0
VERTEX
  5
3B0
  8
0
 10
-0.99531
 20
-0.4715500000000001
 30
0.0
  0
VERTEX
  5
3B1
  8
0
 10
-0.9647399999999999
 20
-0.4849600000000001
 30
0.0
  0
VERTEX
  5
3B2
  8
0
 10
-0.9341700000000001
 20
-0.4979600000000001
 30
0.0
  0
VERTEX
  5
3B3
  8
0
 10
-0.9035899999999999
 20
-0.51057
 30
0.0
  0
VERTEX
  5
3B4
  8
0
 10
-0.873
 20
-0.52276
 30
0.0
  0
VERTEX
  5
3B5
  8
0
 10
-0.8424099999999999
 20
-0.53446
 30
0.0
  0
VERTEX
  5
3B6
  8
0
 10
-0.81181
 20
-0.54562
 30
0.0
  0
VERTEX
  5
3B7
  8
0
 10
-0.7812000000000001
 20
-0.5562000000000001
 30
0.0
  0
VERTEX
  5
3B8
  8
0
 10
-0.75059
 20
-0.56616
 30
0.0
  0
VERTEX
  5
3B9
  8
0
 10
-0.71997
 20
-0.5755
 30
0.0
  0
VERTEX
  5
3BA
  8
0
 10
-0.6893500000000001
 20
-0.58419
 30
0.0
  0
VERTEX
  5
3BB
  8
0
 10
-0.65872
 20
-0.59224
 30
0.0
  0
VERTEX
  5
3BC
  8
0
 10
-0.62808
 20
-0.5996800000000001
 30
0.0
  0
VERTEX
  5
3BD
  8
0
 10
-0.59744
 20
-0.6065500000000001
 30
0.0
  0
VERTEX
  5
3BE
  8
0
 10
-0.5667800000000001
 20
-0.61288
 30
0.0
  0
VERTEX
  5
3BF
  8
0
 10
-0.53613
 20
-0.6186300000000001
 30
0.0
  0
VERTEX
  5
3C0
  8
0
 10
-0.5054600000000001
 20
-0.62376
 30
0.0
  0
VERTEX
  5
3C1
  8
0
 10
-0.47479
 20
-0.62822
 30
0.0
  0
VERTEX
  5
3C2
  8
0
 10
-0.4441
 20
-0.6320000000000001
 30
0.0
  0
VERTEX
  5
3C3
  8
0
 10
-0.41341
 20
-0.6351200000000001
 30
0.0
  0
VERTEX
  5
3C4
  8
0
 10
-0.38271
 20
-0.63762
 30
0.0
  0
VERTEX
  5
3C5
  8
0
 10
-0.35201
 20
-0.6395100000000001
 30
0.0
  0
VERTEX
  5
3C6
  8
0
 10
-0.32129
 20
-0.6408199999999999
 30
0.0
  0
VERTEX
  5
3C7
  8
0
 10
-0.29056
 20
-0.64153
 30
0.0
  0
VERTEX
  5
3C8
  8
0
 10
-0.25983
 20
-0.6416500000000001
 30
0.0
  0
VERTEX
  5
3C9
  8
0
 10
-0.22908
 20
-0.64119
 30
0.0
  0
VERTEX
  5
3CA
  8
0
 10
-0.19833
 20
-0.6401
 30
0.0
  0
VERTEX
  5
3CB
  8
0
 10
-0.16756
 20
-0.6383900000000001
 30
0.0
  0
VERTEX
  5
3CC
  8
0
 10
-0.13678
 20
-0.63603
 30
0.0
  0
VERTEX
  5
3CD
  8
0
 10
-0.106
 20
-0.6330600000000001
 30
0.0
  0
VERTEX
  5
3CE
  8
0
 10
-0.0752
 20
-0.62951
 30
0.0
  0
VERTEX
  5
3CF
  8
0
 10
-0.04438
 20
-0.6254100000000001
 30
0.0
  0
VERTEX
  5
3D0
  8
0
 10
-0.01356
 20
-0.62073
 30
0.0
  0
VERTEX
  5
3D1
  8
0
 10
0.01728
 20
-0.6154600000000001
 30
0.0
  0
VERTEX
  5
3D2
  8
0
 10
0.04814
 20
-0.6095800000000001
 30
0.0
  0
VERTEX
  5
3D3
  8
0
 10
0.079
 20
-0.60307
 30
0.0
  0
VERTEX
  5
3D4
  8
0
 10
0.10989
 20
-0.59592
 30
0.0
  0
VERTEX
  5
3D5
  8
0
 10
0.14079
 20
-0.58815
 30
0.0
  0
VERTEX
  5
3D6
  8
0
 10
0.17171
 20
-0.5797200000000001
 30
0.0
  0
VERTEX
  5
3D7
  8
0
 10
0.20265
 20
-0.57058
 30
0.0
  0
VERTEX
  5
3D8
  8
0
 10
0.2336
 20
-0.5607
 30
0.0
  0
VERTEX
  5
3D9
  8
0
 10
0.26458
 20
-0.55001
 30
0.0
  0
VERTEX
  5
3DA
  8
0
 10
0.29558
 20
-0.53845
 30
0.0
  0
VERTEX
  5
3DB
  8
0
 10
0.32661
 20
-0.52594
 30
0.0
  0
VERTEX
  5
3DC
  8
0
 10
0.35766
 20
-0.51246
 30
0.0
  0
VERTEX
  5
3DD
  8
0
 10
0.38874
 20
-0.4980000000000001
 30
0.0
  0
VERTEX
  5
3DE
  8
0
 10
0.41986
 20
-0.48244
 30
0.0
  0
VERTEX
  5
3DF
  8
0
 10
0.4510100000000001
 20
-0.4656200000000001
 30
0.0
  0
VERTEX
  5
3E0
  8
0
 10
0.4822
 20
-0.44729
 30
0.0
  0
VERTEX
  5
3E1
  8
0
 10
0.5134400000000001
 20
-0.4271
 30
0.0
  0
VERTEX
  5
3E2
  8
0
 10
0.54474
 20
-0.4049800000000001
 30
0.0
  0
VERTEX
  5
3E3
  8
0
 10
0.5760999999999999
 20
-0.38102
 30
0.0
  0
VERTEX
  5
3E4
  8
0
 10
0.6075400000000001
 20
-0.35449
 30
0.0
  0
VERTEX
  5
3E5
  8
0
 10
0.6390700000000001
 20
-0.32378
 30
0.0
  0
VERTEX
  5
3E6
  8
0
 10
0.67073
 20
-0.28738
 30
0.0
  0
VERTEX
  5
3E7
  8
0
 10
0.7026
 20
-0.2469
 30
0.0
  0
VERTEX
  5
3E8
  8
0
 10
0.70581
 20
-0.24224
 30
0.0
  0
VERTEX
  5
3E9
  8
0
 10
0.7090100000000001
 20
-0.23729
 30
0.0
  0
VERTEX
  5
3EA
  8
0
 10
0.71222
 20
-0.23201
 30
0.0
  0
VERTEX
  5
3EB
  8
0
 10
0.7154199999999999
 20
-0.22634
 30
0.0
  0
VERTEX
  5
3EC
  8
0
 10
0.7186300000000001
 20
-0.22023
 30
0.0
  0
VERTEX
  5
3ED
  8
0
 10
0.72185
 20
-0.21363
 30
0.0
  0
VERTEX
  5
3EE
  8
0
 10
0.7250600000000001
 20
-0.20654
 30
0.0
  0
VERTEX
  5
3EF
  8
0
 10
0.72828
 20
-0.19897
 30
0.0
  0
VERTEX
  5
3F0
  8
0
 10
0.7315000000000002
 20
-0.19104
 30
0.0
  0
VERTEX
  5
3F1
  8
0
 10
0.7347199999999999
 20
-0.18295
 30
0.0
  0
VERTEX
  5
3F2
  8
0
 10
0.7379600000000001
 20
-0.17495
 30
0.0
  0
VERTEX
  5
3F3
  8
0
 10
0.7412100000000001
 20
-0.16727
 30
0.0
  0
VERTEX
  5
3F4
  8
0
 10
0.74447
 20
-0.16011
 30
0.0
  0
VERTEX
  5
3F5
  8
0
 10
0.7477600000000001
 20
-0.15303
 30
0.0
  0
VERTEX
  5
3F6
  8
0
 10
0.75108
 20
-0.14516
 30
0.0
  0
VERTEX
  5
3F7
  8
0
 10
0.75442
 20
-0.13559
 30
0.0
  0
VERTEX
  5
3F8
  8
0
 10
0.75779
 20
-0.12342
 30
0.0
  0
VERTEX
  5
3F9
  8
0
 10
0.7612
 20
-0.10776
 30
0.0
  0
VERTEX
  5
3FA
  8
0
 10
0.7646500000000001
 20
-0.08769
 30
0.0
  0
VERTEX
  5
3FB
  8
0
 10
0.76815
 20
-0.06233
 30
0.0
  0
VERTEX
  5
3FC
  8
0
 10
0.76892
 20
-0.03673
 30
0.0
  0
VERTEX
  5
3FD
  8
0
 10
0.7660100000000001
 20
-0.01964
 30
0.0
  0
VERTEX
  5
3FE
  8
0
 10
0.76309
 20
-0.0054
 30
0.0
  0
VERTEX
  5
3FF
  8
0
 10
0.7601600000000001
 20
0.00631
 30
0.0
  0
VERTEX
  5
400
  8
0
 10
0.7572200000000001
 20
0.01581
 30
0.0
  0
VERTEX
  5
401
  8
0
 10
0.75427
 20
0.02342
 30
0.0
  0
VERTEX
  5
402
  8
0
 10
0.7513100000000001
 20
0.02945
 30
0.0
  0
VERTEX
  5
403
  8
0
 10
0.74834
 20
0.03423
 30
0.0
  0
VERTEX
  5
404
  8
0
 10
0.74536
 20
0.03808
 30
0.0
  0
VERTEX
  5
405
  8
0
 10
0.74238
 20
0.04131
 30
0.0
  0
VERTEX
  5
406
  8
0
 10
0.7393900000000001
 20
0.04424
 30
0.0
  0
VERTEX
  5
407
  8
0
 10
0.7363900000000001
 20
0.0472
 30
0.0
  0
VERTEX
  5
408
  8
0
 10
0.73338
 20
0.05046
 30
0.0
  0
VERTEX
  5
409
  8
0
 10
0.73037
 20
0.05405
 30
0.0
  0
VERTEX
  5
40A
  8
0
 10
0.7273500000000001
 20
0.05792
 30
0.0
  0
VERTEX
  5
40B
  8
0
 10
0.7243300000000001
 20
0.06202
 30
0.0
  0
VERTEX
  5
40C
  8
0
 10
0.72131
 20
0.06628
 30
0.0
  0
VERTEX
  5
40D
  8
0
 10
0.7182800000000001
 20
0.07065
 30
0.0
  0
VERTEX
  5
40E
  8
0
 10
0.7152500000000001
 20
0.07507
 30
0.0
  0
VERTEX
  5
40F
  8
0
 10
0.71222
 20
0.07949
 30
0.0
  0
VERTEX
  5
410
  8
0
 10
0.70919
 20
0.08385
 30
0.0
  0
VERTEX
  5
411
  8
0
 10
0.67882
 20
0.12008
 30
0.0
  0
VERTEX
  5
412
  8
0
 10
0.64837
 20
0.14903
 30
0.0
  0
VERTEX
  5
413
  8
0
 10
0.61785
 20
0.1763
 30
0.0
  0
VERTEX
  5
414
  8
0
 10
0.58727
 20
0.20175
 30
0.0
  0
VERTEX
  5
415
  8
0
 10
0.5566600000000002
 20
0.22529
 30
0.0
  0
VERTEX
  5
416
  8
0
 10
0.52603
 20
0.2475
 30
0.0
  0
VERTEX
  5
417
  8
0
 10
0.4953800000000001
 20
0.26857
 30
0.0
  0
VERTEX
  5
418
  8
0
 10
0.4647000000000001
 20
0.28853
 30
0.0
  0
VERTEX
  5
419
  8
0
 10
0.4340100000000001
 20
0.30753
 30
0.0
  0
VERTEX
  5
41A
  8
0
 10
0.4033100000000001
 20
0.32577
 30
0.0
  0
VERTEX
  5
41B
  8
0
 10
0.37259
 20
0.34334
 30
0.0
  0
VERTEX
  5
41C
  8
0
 10
0.34187
 20
0.36024
 30
0.0
  0
VERTEX
  5
41D
  8
0
 10
0.31114
 20
0.37651
 30
0.0
  0
VERTEX
  5
41E
  8
0
 10
0.28039
 20
0.39215
 30
0.0
  0
VERTEX
  5
41F
  8
0
 10
0.24964
 20
0.4072300000000001
 30
0.0
  0
VERTEX
  5
420
  8
0
 10
0.21889
 20
0.42177
 30
0.0
  0
VERTEX
  5
421
  8
0
 10
0.18813
 20
0.4358100000000001
 30
0.0
  0
VERTEX
  5
422
  8
0
 10
0.15736
 20
0.44933
 30
0.0
  0
VERTEX
  5
423
  8
0
 10
0.12659
 20
0.46232
 30
0.0
  0
VERTEX
  5
424
  8
0
 10
0.09582
 20
0.47479
 30
0.0
  0
VERTEX
  5
425
  8
0
 10
0.06504
 20
0.48674
 30
0.0
  0
VERTEX
  5
426
  8
0
 10
0.03426
 20
0.4981600000000001
 30
0.0
  0
VERTEX
  5
427
  8
0
 10
0.00348
 20
0.5090600000000001
 30
0.0
  0
VERTEX
  5
428
  8
0
 10
-0.02731
 20
0.51945
 30
0.0
  0
VERTEX
  5
429
  8
0
 10
-0.0581
 20
0.5293600000000001
 30
0.0
  0
VERTEX
  5
42A
  8
0
 10
-0.08889
 20
0.5387900000000001
 30
0.0
  0
VERTEX
  5
42B
  8
0
 10
-0.11969
 20
0.5477400000000001
 30
0.0
  0
VERTEX
  5
42C
  8
0
 10
-0.15048
 20
0.5562000000000001
 30
0.0
  0
VERTEX
  5
42D
  8
0
 10
-0.18128
 20
0.5641600000000001
 30
0.0
  0
VERTEX
  5
42E
  8
0
 10
-0.21208
 20
0.5716100000000001
 30
0.0
  0
VERTEX
  5
42F
  8
0
 10
-0.24288
 20
0.57855
 30
0.0
  0
VERTEX
  5
430
  8
0
 10
-0.2736800000000001
 20
0.5849700000000001
 30
0.0
  0
VERTEX
  5
431
  8
0
 10
-0.30448
 20
0.5908600000000001
 30
0.0
  0
VERTEX
  5
432
  8
0
 10
-0.33528
 20
0.59624
 30
0.0
  0
VERTEX
  5
433
  8
0
 10
-0.36608
 20
0.6011600000000001
 30
0.0
  0
VERTEX
  5
434
  8
0
 10
-0.39689
 20
0.6056300000000001
 30
0.0
  0
VERTEX
  5
435
  8
0
 10
-0.42769
 20
0.60968
 30
0.0
  0
VERTEX
  5
436
  8
0
 10
-0.4585
 20
0.61327
 30
0.0
  0
VERTEX
  5
437
  8
0
 10
-0.4893100000000001
 20
0.61637
 30
0.0
  0
VERTEX
  5
438
  8
0
 10
-0.5201100000000001
 20
0.61895
 30
0.0
  0
VERTEX
  5
439
  8
0
 10
-0.55092
 20
0.6210100000000001
 30
0.0
  0
VERTEX
  5
43A
  8
0
 10
-0.58173
 20
0.62255
 30
0.0
  0
VERTEX
  5
43B
  8
0
 10
-0.61254
 20
0.62359
 30
0.0
  0
VERTEX
  5
43C
  8
0
 10
-0.64335
 20
0.6241500000000001
 30
0.0
  0
VERTEX
  5
43D
  8
0
 10
-0.67416
 20
0.62424
 30
0.0
  0
VERTEX
  5
43E
  8
0
 10
-0.70496
 20
0.6238600000000001
 30
0.0
  0
VERTEX
  5
43F
  8
0
 10
-0.7357700000000001
 20
0.62304
 30
0.0
  0
VERTEX
  5
440
  8
0
 10
-0.7665800000000002
 20
0.6217800000000001
 30
0.0
  0
VERTEX
  5
441
  8
0
 10
-0.79739
 20
0.6200700000000001
 30
0.0
  0
VERTEX
  5
442
  8
0
 10
-0.8282
 20
0.6179000000000001
 30
0.0
  0
VERTEX
  5
443
  8
0
 10
-0.8590099999999999
 20
0.6152300000000001
 30
0.0
  0
VERTEX
  5
444
  8
0
 10
-0.8898200000000001
 20
0.61206
 30
0.0
  0
VERTEX
  5
445
  8
0
 10
-0.9206299999999998
 20
0.6084100000000001
 30
0.0
  0
VERTEX
  5
446
  8
0
 10
-0.95144
 20
0.60429
 30
0.0
  0
VERTEX
  5
447
  8
0
 10
-0.9822499999999998
 20
0.5997600000000001
 30
0.0
  0
VERTEX
  5
448
  8
0
 10
-1.0130600000000001
 20
0.59483
 30
0.0
  0
VERTEX
  5
449
  8
0
 10
-1.0438700000000001
 20
0.5895500000000001
 30
0.0
  0
VERTEX
  5
44A
  8
0
 10
-1.074679999999999
 20
0.58397
 30
0.0
  0
VERTEX
  5
44B
  8
0
 10
-1.10548
 20
0.57813
 30
0.0
  0
VERTEX
  5
44C
  8
0
 10
-1.13629
 20
0.57207
 30
0.0
  0
VERTEX
  5
44D
  8
0
 10
-1.1671
 20
0.56579
 30
0.0
  0
VERTEX
  5
44E
  8
0
 10
-1.1978999999999991
 20
0.55929
 30
0.0
  0
VERTEX
  5
44F
  8
0
 10
-1.2287099999999991
 20
0.55254
 30
0.0
  0
VERTEX
  5
450
  8
0
 10
-1.2595099999999999
 20
0.5455700000000001
 30
0.0
  0
VERTEX
  5
451
  8
0
 10
-1.2903199999999999
 20
0.53838
 30
0.0
  0
VERTEX
  5
452
  8
0
 10
-1.3211200000000001
 20
0.5310000000000001
 30
0.0
  0
VERTEX
  5
453
  8
0
 10
-1.35192
 20
0.52344
 30
0.0
  0
VERTEX
  5
454
  8
0
 10
-1.38273
 20
0.51574
 30
0.0
  0
VERTEX
  5
455
  8
0
 10
-1.4135299999999991
 20
0.50787
 30
0.0
  0
VERTEX
  5
456
  8
0
 10
-1.44432
 20
0.4998300000000001
 30
0.0
  0
VERTEX
  5
457
  8
0
 10
-1.4751199999999991
 20
0.49163
 30
0.0
  0
VERTEX
  5
458
  8
0
 10
-1.5059199999999999
 20
0.4832600000000001
 30
0.0
  0
VERTEX
  5
459
  8
0
 10
-1.53671
 20
0.47473
 30
0.0
  0
VERTEX
  5
45A
  8
0
 10
-1.567499999999999
 20
0.46604
 30
0.0
  0
VERTEX
  5
45B
  8
0
 10
-1.5982899999999991
 20
0.45722
 30
0.0
  0
VERTEX
  5
45C
  8
0
 10
-1.629079999999999
 20
0.4482300000000001
 30
0.0
  0
VERTEX
  5
45D
  8
0
 10
-1.659859999999999
 20
0.4390800000000001
 30
0.0
  0
VERTEX
  5
45E
  8
0
 10
-1.6906399999999999
 20
0.4297500000000001
 30
0.0
  0
VERTEX
  5
45F
  8
0
 10
-1.72142
 20
0.4202399999999999
 30
0.0
  0
VERTEX
  5
460
  8
0
 10
-1.7521899999999999
 20
0.41053
 30
0.0
  0
VERTEX
  5
461
  8
0
 10
-1.7829699999999999
 20
0.4006400000000001
 30
0.0
  0
VERTEX
  5
462
  8
0
 10
-1.813729999999999
 20
0.39055
 30
0.0
  0
VERTEX
  5
463
  8
0
 10
-1.8445
 20
0.38026
 30
0.0
  0
VERTEX
  5
464
  8
0
 10
-1.875259999999999
 20
0.3697599999999999
 30
0.0
  0
VERTEX
  5
465
  8
0
 10
-1.90602
 20
0.35902
 30
0.0
  0
VERTEX
  5
466
  8
0
 10
-1.9367700000000001
 20
0.3479999999999999
 30
0.0
  0
VERTEX
  5
467
  8
0
 10
-1.967509999999999
 20
0.33669
 30
0.0
  0
VERTEX
  5
468
  8
0
 10
-1.998259999999999
 20
0.325
 30
0.0
  0
VERTEX
  5
469
  8
0
 10
-2.0289899999999998
 20
0.31282
 30
0.0
  0
VERTEX
  5
46A
  8
0
 10
-2.0597199999999991
 20
0.30007
 30
0.0
  0
VERTEX
  5
46B
  8
0
 10
-2.0904400000000001
 20
0.28663
 30
0.0
  0
VERTEX
  5
46C
  8
0
 10
-2.1211500000000001
 20
0.27237
 30
0.0
  0
VERTEX
  5
46D
  8
0
 10
-2.1518599999999992
 20
0.25684
 30
0.0
  0
VERTEX
  5
46E
  8
0
 10
-2.1825600000000001
 20
0.23929
 30
0.0
  0
VERTEX
  5
46F
  8
0
 10
-2.2132399999999999
 20
0.21811
 30
0.0
  0
VERTEX
  5
470
  8
0
 10
-2.2439100000000001
 20
0.19241
 30
0.0
  0
VERTEX
  5
471
  8
0
 10
-2.2745700000000002
 20
0.16371
 30
0.0
  0
VERTEX
  5
472
  8
0
 10
-2.3052000000000001
 20
0.1392
 30
0.0
  0
VERTEX
  5
473
  8
0
 10
10.0374099999999995
 20
0.0
 30
0.0
  0
SEQEND
  5
474
  8
0
  0
ENDSEC
  0
EOF
