  0
SECTION
  2
HEADER
  9
$ACADVER
  1
AC1009
  9
$INSBASE
 10
0.0
 20
0.0
 30
0.0
  9
$EXTMIN
 10
-6.4613199999999988
 20
-1.3905099999999999
 30
0.0
  9
$EXTMAX
 10
2.5845299999999991
 20
2.676439999999999
 30
0.0
  9
$LIMMIN
 10
0.0
 20
0.0
  9
$LIMMAX
 10
12.0
 20
9.0
  9
$ORTHOMODE
 70
     0
  9
$REGENMODE
 70
     1
  9
$FILLMODE
 70
     1
  9
$QTEXTMODE
 70
     0
  9
$MIRRTEXT
 70
     0
  9
$DRAGMODE
 70
     2
  9
$LTSCALE
 40
1.0
  9
$OSMODE
 70
    37
  9
$ATTMODE
 70
     1
  9
$TEXTSIZE
 40
0.2
  9
$TRACEWID
 40
0.05
  9
$TEXTSTYLE
  7
STANDARD
  9
$CLAYER
  8
0
  9
$CELTYPE
  6
BYLAYER
  9
$CECOLOR
 62
   256
  9
$DIMSCALE
 40
1.0
  9
$DIMASZ
 40
0.18
  9
$DIMEXO
 40
0.0625
  9
$DIMDLI
 40
0.38
  9
$DIMRND
 40
0.0
  9
$DIMDLE
 40
0.0
  9
$DIMEXE
 40
0.18
  9
$DIMTP
 40
0.0
  9
$DIMTM
 40
0.0
  9
$DIMTXT
 40
0.18
  9
$DIMCEN
 40
0.09
  9
$DIMTSZ
 40
0.0
  9
$DIMTOL
 70
     0
  9
$DIMLIM
 70
     0
  9
$DIMTIH
 70
     1
  9
$DIMTOH
 70
     1
  9
$DIMSE1
 70
     0
  9
$DIMSE2
 70
     0
  9
$DIMTAD
 70
     0
  9
$DIMZIN
 70
     0
  9
$DIMBLK
  1

  9
$DIMASO
 70
     1
  9
$DIMSHO
 70
     1
  9
$DIMPOST
  1

  9
$DIMAPOST
  1

  9
$DIMALT
 70
     0
  9
$DIMALTD
 70
     2
  9
$DIMALTF
 40
25.3999999999999986
  9
$DIMLFAC
 40
1.0
  9
$DIMTOFL
 70
     0
  9
$DIMTVP
 40
0.0
  9
$DIMTIX
 70
     0
  9
$DIMSOXD
 70
     0
  9
$DIMSAH
 70
     0
  9
$DIMBLK1
  1

  9
$DIMBLK2
  1

  9
$DIMSTYLE
  2
STANDARD
  9
$DIMCLRD
 70
     0
  9
$DIMCLRE
 70
     0
  9
$DIMCLRT
 70
     0
  9
$DIMTFAC
 40
1.0
  9
$DIMGAP
 40
0.09
  9
$LUNITS
 70
     2
  9
$LUPREC
 70
     4
  9
$SKETCHINC
 40
0.1
  9
$FILLETRAD
 40
0.0
  9
$AUNITS
 70
     0
  9
$AUPREC
 70
     0
  9
$MENU
  1
.
  9
$ELEVATION
 40
0.0
  9
$PELEVATION
 40
0.0
  9
$THICKNESS
 40
0.0
  9
$LIMCHECK
 70
     0
  9
$BLIPMODE
 70
     0
  9
$CHAMFERA
 40
0.0
  9
$CHAMFERB
 40
0.0
  9
$SKPOLY
 70
     0
  9
$TDCREATE
 40
2457765.7670949068851769
  9
$TDUPDATE
 40
2457765.7677314821630716
  9
$TDINDWG
 40
0.0006365741
  9
$TDUSRTIMER
 40
0.0006365741
  9
$USRTIMER
 70
     1
  9
$ANGBASE
 50
0.0
  9
$ANGDIR
 70
     0
  9
$PDMODE
 70
     0
  9
$PDSIZE
 40
0.0
  9
$PLINEWID
 40
0.0
  9
$COORDS
 70
     1
  9
$SPLFRAME
 70
     0
  9
$SPLINETYPE
 70
     6
  9
$SPLINESEGS
 70
     8
  9
$ATTDIA
 70
     1
  9
$ATTREQ
 70
     1
  9
$HANDLING
 70
     1
  9
$HANDSEED
  5
4C8
  9
$SURFTAB1
 70
     6
  9
$SURFTAB2
 70
     6
  9
$SURFTYPE
 70
     6
  9
$SURFU
 70
     6
  9
$SURFV
 70
     6
  9
$UCSNAME
  2

  9
$UCSORG
 10
0.0
 20
0.0
 30
0.0
  9
$UCSXDIR
 10
1.0
 20
0.0
 30
0.0
  9
$UCSYDIR
 10
0.0
 20
1.0
 30
0.0
  9
$PUCSNAME
  2

  9
$PUCSORG
 10
0.0
 20
0.0
 30
0.0
  9
$PUCSXDIR
 10
1.0
 20
0.0
 30
0.0
  9
$PUCSYDIR
 10
0.0
 20
1.0
 30
0.0
  9
$USERI1
 70
     0
  9
$USERI2
 70
     0
  9
$USERI3
 70
     0
  9
$USERI4
 70
     0
  9
$USERI5
 70
     0
  9
$USERR1
 40
0.0
  9
$USERR2
 40
0.0
  9
$USERR3
 40
0.0
  9
$USERR4
 40
0.0
  9
$USERR5
 40
0.0
  9
$WORLDVIEW
 70
     1
  9
$SHADEDGE
 70
     3
  9
$SHADEDIF
 70
    70
  9
$TILEMODE
 70
     1
  9
$MAXACTVP
 70
    64
  9
$PLIMCHECK
 70
     0
  9
$PEXTMIN
 10
0.0
 20
0.0
 30
0.0
  9
$PEXTMAX
 10
0.0
 20
0.0
 30
0.0
  9
$PLIMMIN
 10
0.0
 20
0.0
  9
$PLIMMAX
 10
12.0
 20
9.0
  9
$UNITMODE
 70
     0
  9
$VISRETAIN
 70
     1
  9
$PLINEGEN
 70
     0
  9
$PSLTSCALE
 70
     1
  0
ENDSEC
  0
SECTION
  2
TABLES
  0
TABLE
  2
VPORT
 70
     1
  0
VPORT
  2
*ACTIVE
 70
     0
 10
0.0
 20
0.0
 11
1.0
 21
1.0
 12
0.0529082980513831
 22
-0.4212901875990412
 13
0.0
 23
0.0
 14
0.5
 24
0.5
 15
0.5
 25
0.5
 16
0.0
 26
0.0
 36
1.0
 17
0.0
 27
0.0
 37
0.0
 40
9.5046743365748654
 41
2.58041958041958
 42
50.0
 43
0.0
 44
0.0
 50
0.0
 51
0.0
 71
     0
 72
  1000
 73
     1
 74
     3
 75
     0
 76
     1
 77
     0
 78
     0
  0
ENDTAB
  0
TABLE
  2
LTYPE
 70
     1
  0
LTYPE
  2
CONTINUOUS
 70
     0
  3
Solid line
 72
    65
 73
     0
 40
0.0
  0
ENDTAB
  0
TABLE
  2
LAYER
 70
     1
  0
LAYER
  2
0
 70
     0
 62
     7
  6
CONTINUOUS
  0
ENDTAB
  0
TABLE
  2
STYLE
 70
     2
  0
STYLE
  2
STANDARD
 70
     0
 40
0.0
 41
1.0
 50
0.0
 71
     0
 42
0.2
  3
txt
  4

  0
STYLE
  2
ANNOTATIVE
 70
     0
 40
0.0
 41
1.0
 50
0.0
 71
     0
 42
0.2
  3
txt
  4

  0
ENDTAB
  0
TABLE
  2
VIEW
 70
     0
  0
ENDTAB
  0
TABLE
  2
UCS
 70
     0
  0
ENDTAB
  0
TABLE
  2
APPID
 70
     7
  0
APPID
  2
ACAD
 70
     0
  0
APPID
  2
ACADANNOPO
 70
     0
  0
APPID
  2
ACADANNOTATIVE
 70
     0
  0
APPID
  2
ACAD_DSTYLE_DIMJAG
 70
     0
  0
APPID
  2
ACAD_DSTYLE_DIMTALN
 70
     0
  0
APPID
  2
ACAD_MLEADERVER
 70
     0
  0
APPID
  2
ACAD_NAV_VCDISPLAY
 70
     0
  0
ENDTAB
  0
TABLE
  2
DIMSTYLE
 70
     2
  0
DIMSTYLE
  2
STANDARD
 70
     0
  3

  4

  5

  6

  7

 40
1.0
 41
0.18
 42
0.0625
 43
0.38
 44
0.18
 45
0.0
 46
0.0
 47
0.0
 48
0.0
140
0.18
141
0.09
142
0.0
143
25.3999999999999986
144
1.0
145
0.0
146
1.0
147
0.09
 71
     0
 72
     0
 73
     1
 74
     1
 75
     0
 76
     0
 77
     0
 78
     0
170
     0
171
     2
172
     0
173
     0
174
     0
175
     0
176
     0
177
     0
178
     0
  0
DIMSTYLE
  2
ANNOTATIVE
 70
     0
  3

  4

  5

  6

  7

 40
0.0
 41
0.18
 42
0.0625
 43
0.38
 44
0.18
 45
0.0
 46
0.0
 47
0.0
 48
0.0
140
0.18
141
0.09
142
0.0
143
25.3999999999999986
144
1.0
145
0.0
146
1.0
147
0.09
 71
     0
 72
     0
 73
     1
 74
     1
 75
     0
 76
     0
 77
     0
 78
     0
170
     0
171
     2
172
     0
173
     0
174
     0
175
     0
176
     0
177
     0
178
     0
  0
ENDTAB
  0
ENDSEC
  0
SECTION
  2
BLOCKS
  0
BLOCK
  8
0
  2
$MODEL_SPACE
 70
     0
 10
0.0
 20
0.0
 30
0.0
  3
$MODEL_SPACE
  1

  0
ENDBLK
  5
21
  8
0
  0
BLOCK
 67
     1
  8
0
  2
$PAPER_SPACE
 70
     0
 10
0.0
 20
0.0
 30
0.0
  3
$PAPER_SPACE
  1

  0
ENDBLK
  5
5B
 67
     1
  8
0
  0
ENDSEC
  0
SECTION
  2
ENTITIES
  0
POLYLINE
  5
1F7
  8
0
 66
     1
 10
0.0
 20
0.0
 30
0.0
 70
     1
  0
VERTEX
  5
248
  8
0
 10
0.0
 20
0.0
 30
0.0
  0
VERTEX
  5
249
  8
0
 10
-1.98488
 20
-0.9279999999999999
 30
0.0
  0
VERTEX
  5
24A
  8
0
 10
-2.0676199999999998
 20
-1.00482
 30
0.0
  0
VERTEX
  5
24B
  8
0
 10
-2.094209999999999
 20
-1.00248
 30
0.0
  0
VERTEX
  5
24C
  8
0
 10
-2.1207899999999991
 20
-1.0001199999999999
 30
0.0
  0
VERTEX
  5
24D
  8
0
 10
-2.1473800000000001
 20
-0.9977399999999998
 30
0.0
  0
VERTEX
  5
24E
  8
0
 10
-2.1739599999999988
 20
-0.99534
 30
0.0
  0
VERTEX
  5
24F
  8
0
 10
-2.2005400000000002
 20
-0.9929299999999999
 30
0.0
  0
VERTEX
  5
250
  8
0
 10
-2.2271299999999989
 20
-0.9905
 30
0.0
  0
VERTEX
  5
251
  8
0
 10
-2.253709999999999
 20
-0.9880499999999999
 30
0.0
  0
VERTEX
  5
252
  8
0
 10
-2.2802999999999991
 20
-0.9855799999999998
 30
0.0
  0
VERTEX
  5
253
  8
0
 10
-2.30688
 20
-0.9830899999999999
 30
0.0
  0
VERTEX
  5
254
  8
0
 10
-2.3334700000000002
 20
-0.9805799999999999
 30
0.0
  0
VERTEX
  5
255
  8
0
 10
-2.3600500000000002
 20
-0.9780499999999999
 30
0.0
  0
VERTEX
  5
256
  8
0
 10
-2.3866399999999999
 20
-0.9755
 30
0.0
  0
VERTEX
  5
257
  8
0
 10
-2.413219999999999
 20
-0.9729399999999998
 30
0.0
  0
VERTEX
  5
258
  8
0
 10
-2.4397999999999991
 20
-0.97035
 30
0.0
  0
VERTEX
  5
259
  8
0
 10
-2.4663900000000001
 20
-0.9677399999999998
 30
0.0
  0
VERTEX
  5
25A
  8
0
 10
-2.4929700000000001
 20
-0.9651200000000001
 30
0.0
  0
VERTEX
  5
25B
  8
0
 10
-2.5195599999999989
 20
-0.96247
 30
0.0
  0
VERTEX
  5
25C
  8
0
 10
-2.5461399999999998
 20
-0.9597999999999998
 30
0.0
  0
VERTEX
  5
25D
  8
0
 10
-2.5727299999999991
 20
-0.9571099999999999
 30
0.0
  0
VERTEX
  5
25E
  8
0
 10
-2.59931
 20
-0.9544
 30
0.0
  0
VERTEX
  5
25F
  8
0
 10
-2.6259000000000001
 20
-0.9516700000000001
 30
0.0
  0
VERTEX
  5
260
  8
0
 10
-2.6524799999999988
 20
-0.94891
 30
0.0
  0
VERTEX
  5
261
  8
0
 10
-2.6790699999999998
 20
-0.9461399999999999
 30
0.0
  0
VERTEX
  5
262
  8
0
 10
-2.705649999999999
 20
-0.9433399999999998
 30
0.0
  0
VERTEX
  5
263
  8
0
 10
-2.732229999999999
 20
-0.94052
 30
0.0
  0
VERTEX
  5
264
  8
0
 10
-2.7588200000000001
 20
-0.9376799999999998
 30
0.0
  0
VERTEX
  5
265
  8
0
 10
-2.7854000000000001
 20
-0.93481
 30
0.0
  0
VERTEX
  5
266
  8
0
 10
-2.8119900000000002
 20
-0.93192
 30
0.0
  0
VERTEX
  5
267
  8
0
 10
-2.8385699999999998
 20
-0.92901
 30
0.0
  0
VERTEX
  5
268
  8
0
 10
-2.865159999999999
 20
-0.9260799999999999
 30
0.0
  0
VERTEX
  5
269
  8
0
 10
-2.89174
 20
-0.9231200000000001
 30
0.0
  0
VERTEX
  5
26A
  8
0
 10
-2.9183300000000001
 20
-0.9201399999999998
 30
0.0
  0
VERTEX
  5
26B
  8
0
 10
-2.9449099999999988
 20
-0.91714
 30
0.0
  0
VERTEX
  5
26C
  8
0
 10
-2.9714999999999989
 20
-0.9141100000000001
 30
0.0
  0
VERTEX
  5
26D
  8
0
 10
-2.998079999999999
 20
-0.9110599999999999
 30
0.0
  0
VERTEX
  5
26E
  8
0
 10
-3.024659999999999
 20
-0.90799
 30
0.0
  0
VERTEX
  5
26F
  8
0
 10
-3.05125
 20
-0.9048899999999999
 30
0.0
  0
VERTEX
  5
270
  8
0
 10
-3.0778300000000001
 20
-0.9017599999999999
 30
0.0
  0
VERTEX
  5
271
  8
0
 10
-3.1044200000000002
 20
-0.89861
 30
0.0
  0
VERTEX
  5
272
  8
0
 10
-3.1309999999999998
 20
-0.8954399999999999
 30
0.0
  0
VERTEX
  5
273
  8
0
 10
-3.1575899999999999
 20
-0.8922399999999999
 30
0.0
  0
VERTEX
  5
274
  8
0
 10
-3.1841699999999991
 20
-0.88902
 30
0.0
  0
VERTEX
  5
275
  8
0
 10
-3.2107600000000001
 20
-0.8857700000000001
 30
0.0
  0
VERTEX
  5
276
  8
0
 10
-3.2373400000000001
 20
-0.8825
 30
0.0
  0
VERTEX
  5
277
  8
0
 10
-3.2639200000000002
 20
-0.8791999999999999
 30
0.0
  0
VERTEX
  5
278
  8
0
 10
-3.2905099999999989
 20
-0.8758799999999999
 30
0.0
  0
VERTEX
  5
279
  8
0
 10
-3.3170899999999999
 20
-0.8725299999999998
 30
0.0
  0
VERTEX
  5
27A
  8
0
 10
-3.34368
 20
-0.8691499999999999
 30
0.0
  0
VERTEX
  5
27B
  8
0
 10
-3.37026
 20
-0.86575
 30
0.0
  0
VERTEX
  5
27C
  8
0
 10
-3.3968500000000001
 20
-0.86232
 30
0.0
  0
VERTEX
  5
27D
  8
0
 10
-3.4234300000000002
 20
-0.8588699999999999
 30
0.0
  0
VERTEX
  5
27E
  8
0
 10
-3.450019999999999
 20
-0.85539
 30
0.0
  0
VERTEX
  5
27F
  8
0
 10
-3.476599999999999
 20
-0.8518799999999997
 30
0.0
  0
VERTEX
  5
280
  8
0
 10
-3.50319
 20
-0.84835
 30
0.0
  0
VERTEX
  5
281
  8
0
 10
-3.5297699999999992
 20
-0.8447899999999998
 30
0.0
  0
VERTEX
  5
282
  8
0
 10
-3.5563500000000001
 20
-0.8411899999999999
 30
0.0
  0
VERTEX
  5
283
  8
0
 10
-3.5829399999999998
 20
-0.83757
 30
0.0
  0
VERTEX
  5
284
  8
0
 10
-3.609519999999999
 20
-0.8339200000000001
 30
0.0
  0
VERTEX
  5
285
  8
0
 10
-3.6361099999999991
 20
-0.83024
 30
0.0
  0
VERTEX
  5
286
  8
0
 10
-3.66269
 20
-0.82652
 30
0.0
  0
VERTEX
  5
287
  8
0
 10
-3.6892800000000001
 20
-0.82278
 30
0.0
  0
VERTEX
  5
288
  8
0
 10
-3.7158599999999988
 20
-0.8190000000000001
 30
0.0
  0
VERTEX
  5
289
  8
0
 10
-3.7424499999999989
 20
-0.8151899999999999
 30
0.0
  0
VERTEX
  5
28A
  8
0
 10
-3.7690299999999999
 20
-0.81135
 30
0.0
  0
VERTEX
  5
28B
  8
0
 10
-3.795609999999999
 20
-0.8074699999999999
 30
0.0
  0
VERTEX
  5
28C
  8
0
 10
-3.8222
 20
-0.8035600000000001
 30
0.0
  0
VERTEX
  5
28D
  8
0
 10
-3.8487800000000001
 20
-0.7996
 30
0.0
  0
VERTEX
  5
28E
  8
0
 10
-3.8753699999999989
 20
-0.79562
 30
0.0
  0
VERTEX
  5
28F
  8
0
 10
-3.9019499999999989
 20
-0.7915900000000001
 30
0.0
  0
VERTEX
  5
290
  8
0
 10
-3.9285399999999999
 20
-0.7875300000000001
 30
0.0
  0
VERTEX
  5
291
  8
0
 10
-3.9551199999999991
 20
-0.7834300000000001
 30
0.0
  0
VERTEX
  5
292
  8
0
 10
-3.9817099999999992
 20
-0.77928
 30
0.0
  0
VERTEX
  5
293
  8
0
 10
-4.0082899999999997
 20
-0.7751000000000001
 30
0.0
  0
VERTEX
  5
294
  8
0
 10
-4.0348800000000002
 20
-0.77088
 30
0.0
  0
VERTEX
  5
295
  8
0
 10
-4.0614600000000003
 20
-0.7666100000000001
 30
0.0
  0
VERTEX
  5
296
  8
0
 10
-4.0880400000000003
 20
-0.7623100000000002
 30
0.0
  0
VERTEX
  5
297
  8
0
 10
-4.11463
 20
-0.7579600000000001
 30
0.0
  0
VERTEX
  5
298
  8
0
 10
-4.1412100000000001
 20
-0.7535600000000001
 30
0.0
  0
VERTEX
  5
299
  8
0
 10
-4.1677999999999988
 20
-0.7491300000000001
 30
0.0
  0
VERTEX
  5
29A
  8
0
 10
-4.1943799999999998
 20
-0.74464
 30
0.0
  0
VERTEX
  5
29B
  8
0
 10
-4.2209699999999986
 20
-0.7401200000000001
 30
0.0
  0
VERTEX
  5
29C
  8
0
 10
-4.2475500000000004
 20
-0.73554
 30
0.0
  0
VERTEX
  5
29D
  8
0
 10
-4.2741400000000001
 20
-0.73093
 30
0.0
  0
VERTEX
  5
29E
  8
0
 10
-4.3007200000000001
 20
-0.72626
 30
0.0
  0
VERTEX
  5
29F
  8
0
 10
-4.3273000000000001
 20
-0.7215500000000001
 30
0.0
  0
VERTEX
  5
2A0
  8
0
 10
-4.3538899999999989
 20
-0.71679
 30
0.0
  0
VERTEX
  5
2A1
  8
0
 10
-4.380469999999999
 20
-0.7119900000000001
 30
0.0
  0
VERTEX
  5
2A2
  8
0
 10
-4.4070599999999986
 20
-0.7071300000000001
 30
0.0
  0
VERTEX
  5
2A3
  8
0
 10
-4.4336399999999996
 20
-0.7022300000000001
 30
0.0
  0
VERTEX
  5
2A4
  8
0
 10
-4.4602300000000001
 20
-0.6972800000000001
 30
0.0
  0
VERTEX
  5
2A5
  8
0
 10
-4.4868100000000002
 20
-0.6922800000000001
 30
0.0
  0
VERTEX
  5
2A6
  8
0
 10
-4.513399999999999
 20
-0.68723
 30
0.0
  0
VERTEX
  5
2A7
  8
0
 10
-4.539979999999999
 20
-0.68213
 30
0.0
  0
VERTEX
  5
2A8
  8
0
 10
-4.5665699999999987
 20
-0.67698
 30
0.0
  0
VERTEX
  5
2A9
  8
0
 10
-4.5931499999999987
 20
-0.6717800000000002
 30
0.0
  0
VERTEX
  5
2AA
  8
0
 10
-4.6197299999999997
 20
-0.6665300000000001
 30
0.0
  0
VERTEX
  5
2AB
  8
0
 10
-4.6463199999999993
 20
-0.6612200000000001
 30
0.0
  0
VERTEX
  5
2AC
  8
0
 10
-4.6729000000000003
 20
-0.6558600000000001
 30
0.0
  0
VERTEX
  5
2AD
  8
0
 10
-4.6994899999999991
 20
-0.6504500000000001
 30
0.0
  0
VERTEX
  5
2AE
  8
0
 10
-4.7260699999999991
 20
-0.64498
 30
0.0
  0
VERTEX
  5
2AF
  8
0
 10
-4.7526599999999988
 20
-0.63945
 30
0.0
  0
VERTEX
  5
2B0
  8
0
 10
-4.7792399999999988
 20
-0.6338600000000002
 30
0.0
  0
VERTEX
  5
2B1
  8
0
 10
-4.8058300000000003
 20
-0.6282
 30
0.0
  0
VERTEX
  5
2B2
  8
0
 10
-4.8324099999999994
 20
-0.62248
 30
0.0
  0
VERTEX
  5
2B3
  8
0
 10
-4.8589999999999991
 20
-0.61669
 30
0.0
  0
VERTEX
  5
2B4
  8
0
 10
-4.88558
 20
-0.61083
 30
0.0
  0
VERTEX
  5
2B5
  8
0
 10
-4.9121600000000001
 20
-0.6049
 30
0.0
  0
VERTEX
  5
2B6
  8
0
 10
-4.9387499999999989
 20
-0.5989
 30
0.0
  0
VERTEX
  5
2B7
  8
0
 10
-4.9653299999999998
 20
-0.5928100000000001
 30
0.0
  0
VERTEX
  5
2B8
  8
0
 10
-4.9919199999999986
 20
-0.5866500000000001
 30
0.0
  0
VERTEX
  5
2B9
  8
0
 10
-5.0185000000000004
 20
-0.5804000000000001
 30
0.0
  0
VERTEX
  5
2BA
  8
0
 10
-5.0450900000000001
 20
-0.57407
 30
0.0
  0
VERTEX
  5
2BB
  8
0
 10
-5.0716700000000001
 20
-0.56765
 30
0.0
  0
VERTEX
  5
2BC
  8
0
 10
-5.0982599999999989
 20
-0.56113
 30
0.0
  0
VERTEX
  5
2BD
  8
0
 10
-5.124839999999999
 20
-0.5545200000000001
 30
0.0
  0
VERTEX
  5
2BE
  8
0
 10
-5.151419999999999
 20
-0.5478100000000001
 30
0.0
  0
VERTEX
  5
2BF
  8
0
 10
-5.1780099999999987
 20
-0.5410000000000001
 30
0.0
  0
VERTEX
  5
2C0
  8
0
 10
-5.2045899999999996
 20
-0.53408
 30
0.0
  0
VERTEX
  5
2C1
  8
0
 10
-5.2311800000000002
 20
-0.52707
 30
0.0
  0
VERTEX
  5
2C2
  8
0
 10
-5.2577600000000002
 20
-0.5199500000000001
 30
0.0
  0
VERTEX
  5
2C3
  8
0
 10
-5.284349999999999
 20
-0.51273
 30
0.0
  0
VERTEX
  5
2C4
  8
0
 10
-5.310929999999999
 20
-0.50542
 30
0.0
  0
VERTEX
  5
2C5
  8
0
 10
-5.3375199999999987
 20
-0.4980100000000001
 30
0.0
  0
VERTEX
  5
2C6
  8
0
 10
-5.3640999999999988
 20
-0.4905000000000001
 30
0.0
  0
VERTEX
  5
2C7
  8
0
 10
-5.3906900000000002
 20
-0.4829
 30
0.0
  0
VERTEX
  5
2C8
  8
0
 10
-5.4172699999999994
 20
-0.4752100000000001
 30
0.0
  0
VERTEX
  5
2C9
  8
0
 10
-5.4438500000000003
 20
-0.4674300000000001
 30
0.0
  0
VERTEX
  5
2CA
  8
0
 10
-5.4704399999999991
 20
-0.4595500000000001
 30
0.0
  0
VERTEX
  5
2CB
  8
0
 10
-5.49702
 20
-0.45156
 30
0.0
  0
VERTEX
  5
2CC
  8
0
 10
-5.5236099999999988
 20
-0.44344
 30
0.0
  0
VERTEX
  5
2CD
  8
0
 10
-5.5501899999999988
 20
-0.43518
 30
0.0
  0
VERTEX
  5
2CE
  8
0
 10
-5.5767800000000003
 20
-0.42677
 30
0.0
  0
VERTEX
  5
2CF
  8
0
 10
-5.6033599999999986
 20
-0.41819
 30
0.0
  0
VERTEX
  5
2D0
  8
0
 10
-5.62995
 20
-0.4094400000000001
 30
0.0
  0
VERTEX
  5
2D1
  8
0
 10
-5.6565300000000001
 20
-0.4004900000000001
 30
0.0
  0
VERTEX
  5
2D2
  8
0
 10
-5.6831100000000001
 20
-0.39135
 30
0.0
  0
VERTEX
  5
2D3
  8
0
 10
-5.7096999999999989
 20
-0.38199
 30
0.0
  0
VERTEX
  5
2D4
  8
0
 10
-5.7362799999999998
 20
-0.37239
 30
0.0
  0
VERTEX
  5
2D5
  8
0
 10
-5.7628699999999986
 20
-0.36253
 30
0.0
  0
VERTEX
  5
2D6
  8
0
 10
-5.7894500000000004
 20
-0.35239
 30
0.0
  0
VERTEX
  5
2D7
  8
0
 10
-5.8160400000000001
 20
-0.34195
 30
0.0
  0
VERTEX
  5
2D8
  8
0
 10
-5.8426200000000001
 20
-0.33119
 30
0.0
  0
VERTEX
  5
2D9
  8
0
 10
-5.8692099999999989
 20
-0.32009
 30
0.0
  0
VERTEX
  5
2DA
  8
0
 10
-5.895789999999999
 20
-0.3086
 30
0.0
  0
VERTEX
  5
2DB
  8
0
 10
-5.9223800000000004
 20
-0.29667
 30
0.0
  0
VERTEX
  5
2DC
  8
0
 10
-5.9489599999999987
 20
-0.2843
 30
0.0
  0
VERTEX
  5
2DD
  8
0
 10
-5.9755399999999996
 20
-0.2715800000000001
 30
0.0
  0
VERTEX
  5
2DE
  8
0
 10
-6.0021300000000002
 20
-0.25858
 30
0.0
  0
VERTEX
  5
2DF
  8
0
 10
-6.0287100000000002
 20
-0.24535
 30
0.0
  0
VERTEX
  5
2E0
  8
0
 10
-6.055299999999999
 20
-0.23193
 30
0.0
  0
VERTEX
  5
2E1
  8
0
 10
-6.055299999999999
 20
0.55218
 30
0.0
  0
VERTEX
  5
2E2
  8
0
 10
-6.0183799999999996
 20
0.5888100000000001
 30
0.0
  0
VERTEX
  5
2E3
  8
0
 10
-5.9814499999999988
 20
0.62342
 30
0.0
  0
VERTEX
  5
2E4
  8
0
 10
-5.9445300000000003
 20
0.65635
 30
0.0
  0
VERTEX
  5
2E5
  8
0
 10
-5.90761
 20
0.68792
 30
0.0
  0
VERTEX
  5
2E6
  8
0
 10
-5.8706800000000001
 20
0.7185100000000001
 30
0.0
  0
VERTEX
  5
2E7
  8
0
 10
-5.8337599999999989
 20
0.7481800000000001
 30
0.0
  0
VERTEX
  5
2E8
  8
0
 10
-5.7968400000000004
 20
0.77694
 30
0.0
  0
VERTEX
  5
2E9
  8
0
 10
-5.7599200000000002
 20
0.8048899999999999
 30
0.0
  0
VERTEX
  5
2EA
  8
0
 10
-5.7229900000000002
 20
0.8321099999999999
 30
0.0
  0
VERTEX
  5
2EB
  8
0
 10
-5.6860699999999991
 20
0.8586999999999999
 30
0.0
  0
VERTEX
  5
2EC
  8
0
 10
-5.6491499999999988
 20
0.88475
 30
0.0
  0
VERTEX
  5
2ED
  8
0
 10
-5.6122300000000003
 20
0.9102899999999999
 30
0.0
  0
VERTEX
  5
2EE
  8
0
 10
-5.5753000000000004
 20
0.9352999999999999
 30
0.0
  0
VERTEX
  5
2EF
  8
0
 10
-5.5383800000000001
 20
0.9597799999999999
 30
0.0
  0
VERTEX
  5
2F0
  8
0
 10
-5.5014599999999989
 20
0.9837299999999999
 30
0.0
  0
VERTEX
  5
2F1
  8
0
 10
-5.4645400000000004
 20
1.0071600000000001
 30
0.0
  0
VERTEX
  5
2F2
  8
0
 10
-5.4276099999999987
 20
1.0300599999999991
 30
0.0
  0
VERTEX
  5
2F3
  8
0
 10
-5.3906900000000002
 20
1.0524500000000001
 30
0.0
  0
VERTEX
  5
2F4
  8
0
 10
-5.353769999999999
 20
1.074349999999999
 30
0.0
  0
VERTEX
  5
2F5
  8
0
 10
-5.3168499999999987
 20
1.0957699999999999
 30
0.0
  0
VERTEX
  5
2F6
  8
0
 10
-5.2799199999999988
 20
1.116749999999999
 30
0.0
  0
VERTEX
  5
2F7
  8
0
 10
-5.2429999999999994
 20
1.13731
 30
0.0
  0
VERTEX
  5
2F8
  8
0
 10
-5.20608
 20
1.157489999999999
 30
0.0
  0
VERTEX
  5
2F9
  8
0
 10
-5.1691599999999989
 20
1.1772899999999991
 30
0.0
  0
VERTEX
  5
2FA
  8
0
 10
-5.132229999999999
 20
1.1967499999999991
 30
0.0
  0
VERTEX
  5
2FB
  8
0
 10
-5.0953099999999987
 20
1.215889999999999
 30
0.0
  0
VERTEX
  5
2FC
  8
0
 10
-5.0583900000000002
 20
1.234699999999999
 30
0.0
  0
VERTEX
  5
2FD
  8
0
 10
-5.0214600000000003
 20
1.2532000000000001
 30
0.0
  0
VERTEX
  5
2FE
  8
0
 10
-4.9845399999999991
 20
1.2714000000000001
 30
0.0
  0
VERTEX
  5
2FF
  8
0
 10
-4.9476199999999988
 20
1.289299999999999
 30
0.0
  0
VERTEX
  5
300
  8
0
 10
-4.9107000000000003
 20
1.306929999999999
 30
0.0
  0
VERTEX
  5
301
  8
0
 10
-4.8737699999999986
 20
1.3242899999999991
 30
0.0
  0
VERTEX
  5
302
  8
0
 10
-4.8368500000000001
 20
1.34138
 30
0.0
  0
VERTEX
  5
303
  8
0
 10
-4.7999299999999998
 20
1.3582199999999991
 30
0.0
  0
VERTEX
  5
304
  8
0
 10
-4.7630099999999986
 20
1.3748100000000001
 30
0.0
  0
VERTEX
  5
305
  8
0
 10
-4.7260799999999996
 20
1.39117
 30
0.0
  0
VERTEX
  5
306
  8
0
 10
-4.6891600000000002
 20
1.4073
 30
0.0
  0
VERTEX
  5
307
  8
0
 10
-4.652239999999999
 20
1.4232199999999999
 30
0.0
  0
VERTEX
  5
308
  8
0
 10
-4.6153199999999988
 20
1.4389099999999999
 30
0.0
  0
VERTEX
  5
309
  8
0
 10
-4.5783899999999988
 20
1.45441
 30
0.0
  0
VERTEX
  5
30A
  8
0
 10
-4.5414699999999986
 20
1.4696899999999991
 30
0.0
  0
VERTEX
  5
30B
  8
0
 10
-4.5045500000000001
 20
1.4847699999999999
 30
0.0
  0
VERTEX
  5
30C
  8
0
 10
-4.4676299999999998
 20
1.499649999999999
 30
0.0
  0
VERTEX
  5
30D
  8
0
 10
-4.430699999999999
 20
1.5143200000000001
 30
0.0
  0
VERTEX
  5
30E
  8
0
 10
-4.3937799999999996
 20
1.528799999999999
 30
0.0
  0
VERTEX
  5
30F
  8
0
 10
-4.3568600000000002
 20
1.5430799999999989
 30
0.0
  0
VERTEX
  5
310
  8
0
 10
-4.3199300000000003
 20
1.5571600000000001
 30
0.0
  0
VERTEX
  5
311
  8
0
 10
-4.2830099999999991
 20
1.5710500000000001
 30
0.0
  0
VERTEX
  5
312
  8
0
 10
-4.2460899999999997
 20
1.5847599999999991
 30
0.0
  0
VERTEX
  5
313
  8
0
 10
-4.2091699999999994
 20
1.598279999999999
 30
0.0
  0
VERTEX
  5
314
  8
0
 10
-4.1722400000000004
 20
1.6116200000000001
 30
0.0
  0
VERTEX
  5
315
  8
0
 10
-4.1353200000000001
 20
1.624779999999999
 30
0.0
  0
VERTEX
  5
316
  8
0
 10
-4.0983999999999989
 20
1.6377699999999999
 30
0.0
  0
VERTEX
  5
317
  8
0
 10
-4.0614800000000004
 20
1.65059
 30
0.0
  0
VERTEX
  5
318
  8
0
 10
-4.0245499999999987
 20
1.6632400000000001
 30
0.0
  0
VERTEX
  5
319
  8
0
 10
-3.9876299999999998
 20
1.6757299999999991
 30
0.0
  0
VERTEX
  5
31A
  8
0
 10
-3.9507099999999991
 20
1.688059999999999
 30
0.0
  0
VERTEX
  5
31B
  8
0
 10
-3.9137900000000001
 20
1.700229999999999
 30
0.0
  0
VERTEX
  5
31C
  8
0
 10
-3.8768599999999989
 20
1.71225
 30
0.0
  0
VERTEX
  5
31D
  8
0
 10
-3.8399399999999999
 20
1.7241299999999991
 30
0.0
  0
VERTEX
  5
31E
  8
0
 10
-3.8030199999999992
 20
1.7358599999999991
 30
0.0
  0
VERTEX
  5
31F
  8
0
 10
-3.7660999999999989
 20
1.7474400000000001
 30
0.0
  0
VERTEX
  5
320
  8
0
 10
-3.729169999999999
 20
1.7588900000000001
 30
0.0
  0
VERTEX
  5
321
  8
0
 10
-3.69225
 20
1.7701999999999991
 30
0.0
  0
VERTEX
  5
322
  8
0
 10
-3.6553300000000002
 20
1.7813799999999991
 30
0.0
  0
VERTEX
  5
323
  8
0
 10
-3.618409999999999
 20
1.7924199999999999
 30
0.0
  0
VERTEX
  5
324
  8
0
 10
-3.58148
 20
1.8033399999999999
 30
0.0
  0
VERTEX
  5
325
  8
0
 10
-3.5445599999999988
 20
1.81413
 30
0.0
  0
VERTEX
  5
326
  8
0
 10
-3.5076399999999999
 20
1.8247999999999991
 30
0.0
  0
VERTEX
  5
327
  8
0
 10
-3.4707099999999991
 20
1.83535
 30
0.0
  0
VERTEX
  5
328
  8
0
 10
-3.4337900000000001
 20
1.8457699999999999
 30
0.0
  0
VERTEX
  5
329
  8
0
 10
-3.3968699999999989
 20
1.85608
 30
0.0
  0
VERTEX
  5
32A
  8
0
 10
-3.3599499999999991
 20
1.8662599999999989
 30
0.0
  0
VERTEX
  5
32B
  8
0
 10
-3.3230199999999992
 20
1.8763399999999999
 30
0.0
  0
VERTEX
  5
32C
  8
0
 10
-3.2860999999999989
 20
1.8863000000000001
 30
0.0
  0
VERTEX
  5
32D
  8
0
 10
-3.2491799999999991
 20
1.8961399999999999
 30
0.0
  0
VERTEX
  5
32E
  8
0
 10
-3.2122599999999988
 20
1.9058799999999989
 30
0.0
  0
VERTEX
  5
32F
  8
0
 10
-3.1753299999999989
 20
1.9155099999999989
 30
0.0
  0
VERTEX
  5
330
  8
0
 10
-3.138409999999999
 20
1.9250299999999989
 30
0.0
  0
VERTEX
  5
331
  8
0
 10
-3.1014900000000001
 20
1.93445
 30
0.0
  0
VERTEX
  5
332
  8
0
 10
-3.0645699999999998
 20
1.9437699999999991
 30
0.0
  0
VERTEX
  5
333
  8
0
 10
-3.0276399999999999
 20
1.9529799999999991
 30
0.0
  0
VERTEX
  5
334
  8
0
 10
-2.9907199999999992
 20
1.9620899999999999
 30
0.0
  0
VERTEX
  5
335
  8
0
 10
-2.9538000000000002
 20
1.971109999999999
 30
0.0
  0
VERTEX
  5
336
  8
0
 10
-2.916879999999999
 20
1.9800199999999999
 30
0.0
  0
VERTEX
  5
337
  8
0
 10
-2.87995
 20
1.988829999999999
 30
0.0
  0
VERTEX
  5
338
  8
0
 10
-2.8430299999999988
 20
1.9975499999999999
 30
0.0
  0
VERTEX
  5
339
  8
0
 10
-2.806109999999999
 20
2.00617
 30
0.0
  0
VERTEX
  5
33A
  8
0
 10
-2.76919
 20
2.014699999999999
 30
0.0
  0
VERTEX
  5
33B
  8
0
 10
-2.7322599999999988
 20
2.0231300000000001
 30
0.0
  0
VERTEX
  5
33C
  8
0
 10
-2.6953399999999998
 20
2.03146
 30
0.0
  0
VERTEX
  5
33D
  8
0
 10
-2.65842
 20
2.039699999999999
 30
0.0
  0
VERTEX
  5
33E
  8
0
 10
-2.6214900000000001
 20
2.0478499999999991
 30
0.0
  0
VERTEX
  5
33F
  8
0
 10
-2.5845699999999998
 20
2.055909999999999
 30
0.0
  0
VERTEX
  5
340
  8
0
 10
-2.5476499999999991
 20
2.0638799999999988
 30
0.0
  0
VERTEX
  5
341
  8
0
 10
-2.5107300000000001
 20
2.0717599999999989
 30
0.0
  0
VERTEX
  5
342
  8
0
 10
-2.4738000000000002
 20
2.0795499999999989
 30
0.0
  0
VERTEX
  5
343
  8
0
 10
-2.436879999999999
 20
2.08725
 30
0.0
  0
VERTEX
  5
344
  8
0
 10
-2.3999599999999992
 20
2.0948599999999988
 30
0.0
  0
VERTEX
  5
345
  8
0
 10
-2.3630399999999998
 20
2.1023900000000002
 30
0.0
  0
VERTEX
  5
346
  8
0
 10
-2.326109999999999
 20
2.1098400000000002
 30
0.0
  0
VERTEX
  5
347
  8
0
 10
-2.2891900000000001
 20
2.1171899999999999
 30
0.0
  0
VERTEX
  5
348
  8
0
 10
-2.2522700000000002
 20
2.1244700000000001
 30
0.0
  0
VERTEX
  5
349
  8
0
 10
-2.215349999999999
 20
2.1316599999999988
 30
0.0
  0
VERTEX
  5
34A
  8
0
 10
-2.17842
 20
2.1387700000000001
 30
0.0
  0
VERTEX
  5
34B
  8
0
 10
-2.1415000000000002
 20
2.145799999999999
 30
0.0
  0
VERTEX
  5
34C
  8
0
 10
-2.104579999999999
 20
2.1527599999999989
 30
0.0
  0
VERTEX
  5
34D
  8
0
 10
-2.0676600000000001
 20
2.1596299999999991
 30
0.0
  0
VERTEX
  5
34E
  8
0
 10
-2.0307300000000001
 20
2.16642
 30
0.0
  0
VERTEX
  5
34F
  8
0
 10
-1.993809999999999
 20
2.1731400000000001
 30
0.0
  0
VERTEX
  5
350
  8
0
 10
-1.95689
 20
2.1797800000000001
 30
0.0
  0
VERTEX
  5
351
  8
0
 10
-1.919959999999999
 20
2.1863399999999991
 30
0.0
  0
VERTEX
  5
352
  8
0
 10
-1.88304
 20
2.1928399999999999
 30
0.0
  0
VERTEX
  5
353
  8
0
 10
-1.8461199999999991
 20
2.1992500000000001
 30
0.0
  0
VERTEX
  5
354
  8
0
 10
-1.809199999999999
 20
2.2056
 30
0.0
  0
VERTEX
  5
355
  8
0
 10
-1.7722699999999989
 20
2.2118699999999998
 30
0.0
  0
VERTEX
  5
356
  8
0
 10
-1.7353499999999991
 20
2.2180699999999991
 30
0.0
  0
VERTEX
  5
357
  8
0
 10
-1.698429999999999
 20
2.2242000000000002
 30
0.0
  0
VERTEX
  5
358
  8
0
 10
-1.6615099999999989
 20
2.2302699999999991
 30
0.0
  0
VERTEX
  5
359
  8
0
 10
-1.624579999999999
 20
2.2362599999999988
 30
0.0
  0
VERTEX
  5
35A
  8
0
 10
-1.5876600000000001
 20
2.242179999999999
 30
0.0
  0
VERTEX
  5
35B
  8
0
 10
-1.55074
 20
2.24804
 30
0.0
  0
VERTEX
  5
35C
  8
0
 10
-1.5138199999999999
 20
2.2538200000000002
 30
0.0
  0
VERTEX
  5
35D
  8
0
 10
-1.47689
 20
2.2595399999999999
 30
0.0
  0
VERTEX
  5
35E
  8
0
 10
-1.4399699999999991
 20
2.26519
 30
0.0
  0
VERTEX
  5
35F
  8
0
 10
-1.403049999999999
 20
2.2707799999999989
 30
0.0
  0
VERTEX
  5
360
  8
0
 10
-1.366129999999999
 20
2.2762999999999991
 30
0.0
  0
VERTEX
  5
361
  8
0
 10
-1.329199999999999
 20
2.2817500000000002
 30
0.0
  0
VERTEX
  5
362
  8
0
 10
-1.292279999999999
 20
2.2871399999999991
 30
0.0
  0
VERTEX
  5
363
  8
0
 10
-1.25536
 20
2.2924699999999998
 30
0.0
  0
VERTEX
  5
364
  8
0
 10
-1.2184399999999991
 20
2.2977300000000001
 30
0.0
  0
VERTEX
  5
365
  8
0
 10
-1.1815100000000001
 20
2.302929999999999
 30
0.0
  0
VERTEX
  5
366
  8
0
 10
-1.1445899999999991
 20
2.3080699999999998
 30
0.0
  0
VERTEX
  5
367
  8
0
 10
-1.1076699999999999
 20
2.3131400000000002
 30
0.0
  0
VERTEX
  5
368
  8
0
 10
-1.07074
 20
2.3181599999999989
 30
0.0
  0
VERTEX
  5
369
  8
0
 10
-1.03382
 20
2.3231099999999989
 30
0.0
  0
VERTEX
  5
36A
  8
0
 10
-0.9968999999999999
 20
2.3279999999999998
 30
0.0
  0
VERTEX
  5
36B
  8
0
 10
-0.9599800000000001
 20
2.3328299999999991
 30
0.0
  0
VERTEX
  5
36C
  8
0
 10
-0.9230500000000001
 20
2.3376000000000001
 30
0.0
  0
VERTEX
  5
36D
  8
0
 10
-0.8861299999999999
 20
2.342309999999999
 30
0.0
  0
VERTEX
  5
36E
  8
0
 10
-0.84921
 20
2.3469599999999988
 30
0.0
  0
VERTEX
  5
36F
  8
0
 10
-0.8122899999999998
 20
2.35155
 30
0.0
  0
VERTEX
  5
370
  8
0
 10
-0.77536
 20
2.35609
 30
0.0
  0
VERTEX
  5
371
  8
0
 10
-0.73844
 20
2.3605599999999991
 30
0.0
  0
VERTEX
  5
372
  8
0
 10
-0.70152
 20
2.36497
 30
0.0
  0
VERTEX
  5
373
  8
0
 10
-0.6646
 20
2.3693299999999988
 30
0.0
  0
VERTEX
  5
374
  8
0
 10
-0.62767
 20
2.373629999999999
 30
0.0
  0
VERTEX
  5
375
  8
0
 10
-0.59075
 20
2.3778700000000002
 30
0.0
  0
VERTEX
  5
376
  8
0
 10
-0.5538300000000002
 20
2.38205
 30
0.0
  0
VERTEX
  5
377
  8
0
 10
-0.5169100000000002
 20
2.3861799999999991
 30
0.0
  0
VERTEX
  5
378
  8
0
 10
-0.197
 20
2.3128999999999991
 30
0.0
  0
VERTEX
  5
379
  8
0
 10
-0.19531
 20
2.3386200000000001
 30
0.0
  0
VERTEX
  5
37A
  8
0
 10
-0.19029
 20
2.36389
 30
0.0
  0
VERTEX
  5
37B
  8
0
 10
-0.182
 20
2.38829
 30
0.0
  0
VERTEX
  5
37C
  8
0
 10
-0.17061
 20
2.4113999999999991
 30
0.0
  0
VERTEX
  5
37D
  8
0
 10
-0.15629
 20
2.43283
 30
0.0
  0
VERTEX
  5
37E
  8
0
 10
-0.1393
 20
2.452199999999999
 30
0.0
  0
VERTEX
  5
37F
  8
0
 10
-0.11993
 20
2.469199999999999
 30
0.0
  0
VERTEX
  5
380
  8
0
 10
-0.0985
 20
2.483509999999999
 30
0.0
  0
VERTEX
  5
381
  8
0
 10
-0.07539
 20
2.4949099999999991
 30
0.0
  0
VERTEX
  5
382
  8
0
 10
-0.05099
 20
2.50319
 30
0.0
  0
VERTEX
  5
383
  8
0
 10
-0.02571
 20
2.5082200000000001
 30
0.0
  0
VERTEX
  5
384
  8
0
 10
0.0
 20
2.5099
 30
0.0
  0
VERTEX
  5
385
  8
0
 10
0.02571
 20
2.5082200000000001
 30
0.0
  0
VERTEX
  5
386
  8
0
 10
0.05099
 20
2.50319
 30
0.0
  0
VERTEX
  5
387
  8
0
 10
0.07539
 20
2.4949099999999991
 30
0.0
  0
VERTEX
  5
388
  8
0
 10
0.0985
 20
2.483509999999999
 30
0.0
  0
VERTEX
  5
389
  8
0
 10
0.11993
 20
2.469199999999999
 30
0.0
  0
VERTEX
  5
38A
  8
0
 10
0.1393
 20
2.452199999999999
 30
0.0
  0
VERTEX
  5
38B
  8
0
 10
0.15629
 20
2.43283
 30
0.0
  0
VERTEX
  5
38C
  8
0
 10
0.17061
 20
2.4113999999999991
 30
0.0
  0
VERTEX
  5
38D
  8
0
 10
0.182
 20
2.38829
 30
0.0
  0
VERTEX
  5
38E
  8
0
 10
0.19029
 20
2.36389
 30
0.0
  0
VERTEX
  5
38F
  8
0
 10
0.19531
 20
2.3386200000000001
 30
0.0
  0
VERTEX
  5
390
  8
0
 10
0.197
 20
2.3128999999999991
 30
0.0
  0
VERTEX
  5
391
  8
0
 10
0.5169100000000002
 20
2.3128999999999991
 30
0.0
  0
VERTEX
  5
392
  8
0
 10
0.5169100000000002
 20
2.676439999999999
 30
0.0
  0
VERTEX
  5
393
  8
0
 10
0.4703800000000001
 20
2.6730999999999989
 30
0.0
  0
VERTEX
  5
394
  8
0
 10
0.42386
 20
2.6696900000000001
 30
0.0
  0
VERTEX
  5
395
  8
0
 10
0.37734
 20
2.6661899999999998
 30
0.0
  0
VERTEX
  5
396
  8
0
 10
0.33082
 20
2.6626199999999991
 30
0.0
  0
VERTEX
  5
397
  8
0
 10
0.2843
 20
2.6589700000000001
 30
0.0
  0
VERTEX
  5
398
  8
0
 10
0.23778
 20
2.65524
 30
0.0
  0
VERTEX
  5
399
  8
0
 10
0.19126
 20
2.6514299999999991
 30
0.0
  0
VERTEX
  5
39A
  8
0
 10
0.14473
 20
2.6475399999999998
 30
0.0
  0
VERTEX
  5
39B
  8
0
 10
0.09821
 20
2.643559999999999
 30
0.0
  0
VERTEX
  5
39C
  8
0
 10
0.05169
 20
2.63951
 30
0.0
  0
VERTEX
  5
39D
  8
0
 10
0.00517
 20
2.6353699999999991
 30
0.0
  0
VERTEX
  5
39E
  8
0
 10
-0.04135
 20
2.631149999999999
 30
0.0
  0
VERTEX
  5
39F
  8
0
 10
-0.08787
 20
2.6268400000000001
 30
0.0
  0
VERTEX
  5
3A0
  8
0
 10
-0.1344
 20
2.6224500000000002
 30
0.0
  0
VERTEX
  5
3A1
  8
0
 10
-0.18092
 20
2.6179700000000001
 30
0.0
  0
VERTEX
  5
3A2
  8
0
 10
-0.22744
 20
2.61341
 30
0.0
  0
VERTEX
  5
3A3
  8
0
 10
-0.27396
 20
2.6087599999999989
 30
0.0
  0
VERTEX
  5
3A4
  8
0
 10
-0.32048
 20
2.6040199999999998
 30
0.0
  0
VERTEX
  5
3A5
  8
0
 10
-0.367
 20
2.5991900000000001
 30
0.0
  0
VERTEX
  5
3A6
  8
0
 10
-0.4135200000000001
 20
2.594269999999999
 30
0.0
  0
VERTEX
  5
3A7
  8
0
 10
-0.4600500000000001
 20
2.5892699999999991
 30
0.0
  0
VERTEX
  5
3A8
  8
0
 10
-0.50657
 20
2.584169999999999
 30
0.0
  0
VERTEX
  5
3A9
  8
0
 10
-0.55309
 20
2.5789800000000001
 30
0.0
  0
VERTEX
  5
3AA
  8
0
 10
-0.5996100000000001
 20
2.5737099999999988
 30
0.0
  0
VERTEX
  5
3AB
  8
0
 10
-0.64613
 20
2.5683400000000001
 30
0.0
  0
VERTEX
  5
3AC
  8
0
 10
-0.69265
 20
2.5628799999999989
 30
0.0
  0
VERTEX
  5
3AD
  8
0
 10
-0.7391700000000001
 20
2.5573199999999998
 30
0.0
  0
VERTEX
  5
3AE
  8
0
 10
-0.7857
 20
2.5516700000000001
 30
0.0
  0
VERTEX
  5
3AF
  8
0
 10
-0.83222
 20
2.5459299999999989
 30
0.0
  0
VERTEX
  5
3B0
  8
0
 10
-0.8787399999999999
 20
2.5400999999999989
 30
0.0
  0
VERTEX
  5
3B1
  8
0
 10
-0.9252600000000001
 20
2.53417
 30
0.0
  0
VERTEX
  5
3B2
  8
0
 10
-0.97178
 20
2.5281400000000001
 30
0.0
  0
VERTEX
  5
3B3
  8
0
 10
-1.0182999999999991
 20
2.522019999999999
 30
0.0
  0
VERTEX
  5
3B4
  8
0
 10
-1.0648299999999991
 20
2.5158099999999992
 30
0.0
  0
VERTEX
  5
3B5
  8
0
 10
-1.1113500000000001
 20
2.5094899999999991
 30
0.0
  0
VERTEX
  5
3B6
  8
0
 10
-1.15787
 20
2.5030799999999989
 30
0.0
  0
VERTEX
  5
3B7
  8
0
 10
-1.2043900000000001
 20
2.4965700000000002
 30
0.0
  0
VERTEX
  5
3B8
  8
0
 10
-1.2509099999999991
 20
2.4899599999999991
 30
0.0
  0
VERTEX
  5
3B9
  8
0
 10
-1.297429999999999
 20
2.4832499999999991
 30
0.0
  0
VERTEX
  5
3BA
  8
0
 10
-1.3439499999999991
 20
2.4764300000000001
 30
0.0
  0
VERTEX
  5
3BB
  8
0
 10
-1.3904799999999991
 20
2.4695200000000002
 30
0.0
  0
VERTEX
  5
3BC
  8
0
 10
-1.4369999999999989
 20
2.462499999999999
 30
0.0
  0
VERTEX
  5
3BD
  8
0
 10
-1.4835199999999999
 20
2.4553699999999998
 30
0.0
  0
VERTEX
  5
3BE
  8
0
 10
-1.5300400000000001
 20
2.4481399999999991
 30
0.0
  0
VERTEX
  5
3BF
  8
0
 10
-1.5765599999999991
 20
2.440799999999999
 30
0.0
  0
VERTEX
  5
3C0
  8
0
 10
-1.623079999999999
 20
2.433349999999999
 30
0.0
  0
VERTEX
  5
3C1
  8
0
 10
-1.6695999999999991
 20
2.4257900000000001
 30
0.0
  0
VERTEX
  5
3C2
  8
0
 10
-1.716129999999999
 20
2.41812
 30
0.0
  0
VERTEX
  5
3C3
  8
0
 10
-1.7626500000000001
 20
2.4103400000000001
 30
0.0
  0
VERTEX
  5
3C4
  8
0
 10
-1.8091699999999999
 20
2.4024499999999991
 30
0.0
  0
VERTEX
  5
3C5
  8
0
 10
-1.8556900000000001
 20
2.3944399999999999
 30
0.0
  0
VERTEX
  5
3C6
  8
0
 10
-1.90221
 20
2.3863199999999991
 30
0.0
  0
VERTEX
  5
3C7
  8
0
 10
-1.948729999999999
 20
2.3780799999999989
 30
0.0
  0
VERTEX
  5
3C8
  8
0
 10
-1.9952599999999989
 20
2.36972
 30
0.0
  0
VERTEX
  5
3C9
  8
0
 10
-2.0417799999999988
 20
2.36124
 30
0.0
  0
VERTEX
  5
3CA
  8
0
 10
-2.0882999999999989
 20
2.3526400000000001
 30
0.0
  0
VERTEX
  5
3CB
  8
0
 10
-2.1348199999999991
 20
2.3439099999999988
 30
0.0
  0
VERTEX
  5
3CC
  8
0
 10
-2.1813400000000001
 20
2.335059999999999
 30
0.0
  0
VERTEX
  5
3CD
  8
0
 10
-2.2278599999999988
 20
2.3260800000000001
 30
0.0
  0
VERTEX
  5
3CE
  8
0
 10
-2.274379999999999
 20
2.3169699999999991
 30
0.0
  0
VERTEX
  5
3CF
  8
0
 10
-2.32091
 20
2.3077200000000002
 30
0.0
  0
VERTEX
  5
3D0
  8
0
 10
-2.3674300000000001
 20
2.2983500000000001
 30
0.0
  0
VERTEX
  5
3D1
  8
0
 10
-2.4139499999999989
 20
2.288829999999999
 30
0.0
  0
VERTEX
  5
3D2
  8
0
 10
-2.460469999999999
 20
2.2791799999999989
 30
0.0
  0
VERTEX
  5
3D3
  8
0
 10
-2.5069900000000001
 20
2.26939
 30
0.0
  0
VERTEX
  5
3D4
  8
0
 10
-2.5535099999999988
 20
2.2594599999999989
 30
0.0
  0
VERTEX
  5
3D5
  8
0
 10
-2.600029999999999
 20
2.24939
 30
0.0
  0
VERTEX
  5
3D6
  8
0
 10
-2.64656
 20
2.2391700000000001
 30
0.0
  0
VERTEX
  5
3D7
  8
0
 10
-2.6930800000000001
 20
2.2288099999999988
 30
0.0
  0
VERTEX
  5
3D8
  8
0
 10
-2.7395999999999989
 20
2.2183000000000002
 30
0.0
  0
VERTEX
  5
3D9
  8
0
 10
-2.786119999999999
 20
2.20764
 30
0.0
  0
VERTEX
  5
3DA
  8
0
 10
-2.8326399999999992
 20
2.196829999999999
 30
0.0
  0
VERTEX
  5
3DB
  8
0
 10
-2.8791599999999988
 20
2.185859999999999
 30
0.0
  0
VERTEX
  5
3DC
  8
0
 10
-2.9256799999999989
 20
2.1747399999999999
 30
0.0
  0
VERTEX
  5
3DD
  8
0
 10
-2.97221
 20
2.1634599999999988
 30
0.0
  0
VERTEX
  5
3DE
  8
0
 10
-3.0187300000000001
 20
2.152029999999999
 30
0.0
  0
VERTEX
  5
3DF
  8
0
 10
-3.0652499999999989
 20
2.1404299999999989
 30
0.0
  0
VERTEX
  5
3E0
  8
0
 10
-3.111769999999999
 20
2.1286700000000001
 30
0.0
  0
VERTEX
  5
3E1
  8
0
 10
-3.15829
 20
2.1167500000000001
 30
0.0
  0
VERTEX
  5
3E2
  8
0
 10
-3.2048099999999988
 20
2.1046599999999991
 30
0.0
  0
VERTEX
  5
3E3
  8
0
 10
-3.2513399999999999
 20
2.0924
 30
0.0
  0
VERTEX
  5
3E4
  8
0
 10
-3.29786
 20
2.079969999999999
 30
0.0
  0
VERTEX
  5
3E5
  8
0
 10
-3.3443800000000001
 20
2.067359999999999
 30
0.0
  0
VERTEX
  5
3E6
  8
0
 10
-3.3908999999999989
 20
2.0545599999999991
 30
0.0
  0
VERTEX
  5
3E7
  8
0
 10
-3.437419999999999
 20
2.0415799999999988
 30
0.0
  0
VERTEX
  5
3E8
  8
0
 10
-3.48394
 20
2.02841
 30
0.0
  0
VERTEX
  5
3E9
  8
0
 10
-3.5304599999999988
 20
2.01505
 30
0.0
  0
VERTEX
  5
3EA
  8
0
 10
-3.5769899999999999
 20
2.0014899999999991
 30
0.0
  0
VERTEX
  5
3EB
  8
0
 10
-3.62351
 20
1.9877299999999991
 30
0.0
  0
VERTEX
  5
3EC
  8
0
 10
-3.6700300000000001
 20
1.97376
 30
0.0
  0
VERTEX
  5
3ED
  8
0
 10
-3.7165499999999989
 20
1.9595899999999999
 30
0.0
  0
VERTEX
  5
3EE
  8
0
 10
-3.763069999999999
 20
1.9451999999999989
 30
0.0
  0
VERTEX
  5
3EF
  8
0
 10
-3.80959
 20
1.93059
 30
0.0
  0
VERTEX
  5
3F0
  8
0
 10
-3.8561099999999988
 20
1.915759999999999
 30
0.0
  0
VERTEX
  5
3F1
  8
0
 10
-3.9026399999999999
 20
1.90069
 30
0.0
  0
VERTEX
  5
3F2
  8
0
 10
-3.94916
 20
1.8853799999999989
 30
0.0
  0
VERTEX
  5
3F3
  8
0
 10
-3.9956800000000001
 20
1.869829999999999
 30
0.0
  0
VERTEX
  5
3F4
  8
0
 10
-4.0422000000000002
 20
1.85402
 30
0.0
  0
VERTEX
  5
3F5
  8
0
 10
-4.0887199999999986
 20
1.83795
 30
0.0
  0
VERTEX
  5
3F6
  8
0
 10
-4.1352399999999996
 20
1.8216099999999991
 30
0.0
  0
VERTEX
  5
3F7
  8
0
 10
-4.1817699999999993
 20
1.804999999999999
 30
0.0
  0
VERTEX
  5
3F8
  8
0
 10
-4.2282900000000003
 20
1.7881
 30
0.0
  0
VERTEX
  5
3F9
  8
0
 10
-4.2748099999999987
 20
1.7709099999999991
 30
0.0
  0
VERTEX
  5
3FA
  8
0
 10
-4.3213299999999997
 20
1.7534299999999989
 30
0.0
  0
VERTEX
  5
3FB
  8
0
 10
-4.3678499999999989
 20
1.7356400000000001
 30
0.0
  0
VERTEX
  5
3FC
  8
0
 10
-4.414369999999999
 20
1.7175400000000001
 30
0.0
  0
VERTEX
  5
3FD
  8
0
 10
-4.46089
 20
1.6991199999999991
 30
0.0
  0
VERTEX
  5
3FE
  8
0
 10
-4.5074199999999989
 20
1.6803900000000001
 30
0.0
  0
VERTEX
  5
3FF
  8
0
 10
-4.553939999999999
 20
1.6613299999999991
 30
0.0
  0
VERTEX
  5
400
  8
0
 10
-4.6004599999999991
 20
1.64195
 30
0.0
  0
VERTEX
  5
401
  8
0
 10
-4.6469800000000001
 20
1.622239999999999
 30
0.0
  0
VERTEX
  5
402
  8
0
 10
-4.6935000000000002
 20
1.60219
 30
0.0
  0
VERTEX
  5
403
  8
0
 10
-4.7400199999999986
 20
1.5817899999999989
 30
0.0
  0
VERTEX
  5
404
  8
0
 10
-4.7865399999999996
 20
1.5610200000000001
 30
0.0
  0
VERTEX
  5
405
  8
0
 10
-4.8330699999999993
 20
1.5398700000000001
 30
0.0
  0
VERTEX
  5
406
  8
0
 10
-4.8795900000000003
 20
1.51831
 30
0.0
  0
VERTEX
  5
407
  8
0
 10
-4.9261099999999987
 20
1.49634
 30
0.0
  0
VERTEX
  5
408
  8
0
 10
-4.9726299999999997
 20
1.47393
 30
0.0
  0
VERTEX
  5
409
  8
0
 10
-5.0191499999999989
 20
1.4510700000000001
 30
0.0
  0
VERTEX
  5
40A
  8
0
 10
-5.065669999999999
 20
1.4277200000000001
 30
0.0
  0
VERTEX
  5
40B
  8
0
 10
-5.1121999999999987
 20
1.40388
 30
0.0
  0
VERTEX
  5
40C
  8
0
 10
-5.1587199999999989
 20
1.3795200000000001
 30
0.0
  0
VERTEX
  5
40D
  8
0
 10
-5.205239999999999
 20
1.3546100000000001
 30
0.0
  0
VERTEX
  5
40E
  8
0
 10
-5.2517599999999991
 20
1.3291200000000001
 30
0.0
  0
VERTEX
  5
40F
  8
0
 10
-5.2982800000000001
 20
1.30301
 30
0.0
  0
VERTEX
  5
410
  8
0
 10
-5.3448000000000002
 20
1.2762
 30
0.0
  0
VERTEX
  5
411
  8
0
 10
-5.3913199999999986
 20
1.2486699999999999
 30
0.0
  0
VERTEX
  5
412
  8
0
 10
-5.4378500000000001
 20
1.22035
 30
0.0
  0
VERTEX
  5
413
  8
0
 10
-5.4843699999999993
 20
1.1912199999999999
 30
0.0
  0
VERTEX
  5
414
  8
0
 10
-5.5308900000000003
 20
1.161249999999999
 30
0.0
  0
VERTEX
  5
415
  8
0
 10
-5.5774099999999986
 20
1.1304499999999991
 30
0.0
  0
VERTEX
  5
416
  8
0
 10
-5.6239299999999997
 20
1.0987999999999991
 30
0.0
  0
VERTEX
  5
417
  8
0
 10
-5.6704499999999989
 20
1.0663
 30
0.0
  0
VERTEX
  5
418
  8
0
 10
-5.716969999999999
 20
1.0329399999999991
 30
0.0
  0
VERTEX
  5
419
  8
0
 10
-5.7634999999999987
 20
0.9985799999999999
 30
0.0
  0
VERTEX
  5
41A
  8
0
 10
-5.8100199999999989
 20
0.96307
 30
0.0
  0
VERTEX
  5
41B
  8
0
 10
-5.856539999999999
 20
0.92621
 30
0.0
  0
VERTEX
  5
41C
  8
0
 10
-5.9030599999999991
 20
0.8878199999999999
 30
0.0
  0
VERTEX
  5
41D
  8
0
 10
-5.9495800000000001
 20
0.84771
 30
0.0
  0
VERTEX
  5
41E
  8
0
 10
-5.9961000000000002
 20
0.80547
 30
0.0
  0
VERTEX
  5
41F
  8
0
 10
-6.0426199999999994
 20
0.7603900000000001
 30
0.0
  0
VERTEX
  5
420
  8
0
 10
-6.0891500000000001
 20
0.7119900000000001
 30
0.0
  0
VERTEX
  5
421
  8
0
 10
-6.1356699999999993
 20
0.6599500000000001
 30
0.0
  0
VERTEX
  5
422
  8
0
 10
-6.1821900000000003
 20
0.6044800000000001
 30
0.0
  0
VERTEX
  5
423
  8
0
 10
-6.2287099999999986
 20
0.5458400000000001
 30
0.0
  0
VERTEX
  5
424
  8
0
 10
-6.2752299999999996
 20
0.4842800000000001
 30
0.0
  0
VERTEX
  5
425
  8
0
 10
-6.3217499999999989
 20
0.41627
 30
0.0
  0
VERTEX
  5
426
  8
0
 10
-6.3682800000000004
 20
0.33057
 30
0.0
  0
VERTEX
  5
427
  8
0
 10
-6.4147999999999987
 20
0.21495
 30
0.0
  0
VERTEX
  5
428
  8
0
 10
-6.4613199999999988
 20
0.05719
 30
0.0
  0
VERTEX
  5
429
  8
0
 10
-6.4613199999999988
 20
-0.07451
 30
0.0
  0
VERTEX
  5
42A
  8
0
 10
-6.4010099999999994
 20
-0.18046
 30
0.0
  0
VERTEX
  5
42B
  8
0
 10
-6.3407099999999987
 20
-0.2551
 30
0.0
  0
VERTEX
  5
42C
  8
0
 10
-6.2804000000000002
 20
-0.30685
 30
0.0
  0
VERTEX
  5
42D
  8
0
 10
-6.2201000000000004
 20
-0.34414
 30
0.0
  0
VERTEX
  5
42E
  8
0
 10
-6.1597900000000001
 20
-0.37537
 30
0.0
  0
VERTEX
  5
42F
  8
0
 10
-6.0994799999999998
 20
-0.4062300000000001
 30
0.0
  0
VERTEX
  5
430
  8
0
 10
-6.0391799999999991
 20
-0.43682
 30
0.0
  0
VERTEX
  5
431
  8
0
 10
-5.9788699999999988
 20
-0.4665700000000001
 30
0.0
  0
VERTEX
  5
432
  8
0
 10
-5.918569999999999
 20
-0.4948500000000001
 30
0.0
  0
VERTEX
  5
433
  8
0
 10
-5.8582599999999987
 20
-0.52112
 30
0.0
  0
VERTEX
  5
434
  8
0
 10
-5.7979599999999989
 20
-0.5455700000000001
 30
0.0
  0
VERTEX
  5
435
  8
0
 10
-5.7376500000000004
 20
-0.5684300000000001
 30
0.0
  0
VERTEX
  5
436
  8
0
 10
-5.6773499999999988
 20
-0.5899600000000002
 30
0.0
  0
VERTEX
  5
437
  8
0
 10
-5.6170400000000003
 20
-0.6103600000000001
 30
0.0
  0
VERTEX
  5
438
  8
0
 10
-5.5567299999999991
 20
-0.62981
 30
0.0
  0
VERTEX
  5
439
  8
0
 10
-5.4964300000000001
 20
-0.6484600000000001
 30
0.0
  0
VERTEX
  5
43A
  8
0
 10
-5.436119999999999
 20
-0.6664500000000001
 30
0.0
  0
VERTEX
  5
43B
  8
0
 10
-5.37582
 20
-0.6839300000000001
 30
0.0
  0
VERTEX
  5
43C
  8
0
 10
-5.3155099999999988
 20
-0.70092
 30
0.0
  0
VERTEX
  5
43D
  8
0
 10
-5.255209999999999
 20
-0.7174100000000001
 30
0.0
  0
VERTEX
  5
43E
  8
0
 10
-5.1948999999999987
 20
-0.73339
 30
0.0
  0
VERTEX
  5
43F
  8
0
 10
-5.1345900000000002
 20
-0.7488500000000001
 30
0.0
  0
VERTEX
  5
440
  8
0
 10
-5.0742900000000004
 20
-0.7637900000000001
 30
0.0
  0
VERTEX
  5
441
  8
0
 10
-5.0139800000000001
 20
-0.7782600000000001
 30
0.0
  0
VERTEX
  5
442
  8
0
 10
-4.9536800000000003
 20
-0.79229
 30
0.0
  0
VERTEX
  5
443
  8
0
 10
-4.8933699999999991
 20
-0.80591
 30
0.0
  0
VERTEX
  5
444
  8
0
 10
-4.8330699999999993
 20
-0.81915
 30
0.0
  0
VERTEX
  5
445
  8
0
 10
-4.772759999999999
 20
-0.8320399999999999
 30
0.0
  0
VERTEX
  5
446
  8
0
 10
-4.7124499999999987
 20
-0.8445999999999999
 30
0.0
  0
VERTEX
  5
447
  8
0
 10
-4.6521499999999989
 20
-0.8568699999999999
 30
0.0
  0
VERTEX
  5
448
  8
0
 10
-4.5918400000000004
 20
-0.86886
 30
0.0
  0
VERTEX
  5
449
  8
0
 10
-4.5315399999999997
 20
-0.8805799999999999
 30
0.0
  0
VERTEX
  5
44A
  8
0
 10
-4.4712300000000003
 20
-0.89205
 30
0.0
  0
VERTEX
  5
44B
  8
0
 10
-4.4109299999999996
 20
-0.90325
 30
0.0
  0
VERTEX
  5
44C
  8
0
 10
-4.3506199999999993
 20
-0.9142100000000001
 30
0.0
  0
VERTEX
  5
44D
  8
0
 10
-4.2903199999999986
 20
-0.9249299999999999
 30
0.0
  0
VERTEX
  5
44E
  8
0
 10
-4.23001
 20
-0.9353999999999999
 30
0.0
  0
VERTEX
  5
44F
  8
0
 10
-4.1696999999999989
 20
-0.9456399999999998
 30
0.0
  0
VERTEX
  5
450
  8
0
 10
-4.1093999999999991
 20
-0.9556499999999999
 30
0.0
  0
VERTEX
  5
451
  8
0
 10
-4.0490899999999996
 20
-0.9654399999999999
 30
0.0
  0
VERTEX
  5
452
  8
0
 10
-3.9887899999999998
 20
-0.9750099999999999
 30
0.0
  0
VERTEX
  5
453
  8
0
 10
-3.92848
 20
-0.9843799999999999
 30
0.0
  0
VERTEX
  5
454
  8
0
 10
-3.8681800000000002
 20
-0.9935399999999999
 30
0.0
  0
VERTEX
  5
455
  8
0
 10
-3.807869999999999
 20
-1.00251
 30
0.0
  0
VERTEX
  5
456
  8
0
 10
-3.74756
 20
-1.0113000000000001
 30
0.0
  0
VERTEX
  5
457
  8
0
 10
-3.6872599999999989
 20
-1.0199100000000001
 30
0.0
  0
VERTEX
  5
458
  8
0
 10
-3.626949999999999
 20
-1.0283500000000001
 30
0.0
  0
VERTEX
  5
459
  8
0
 10
-3.5666500000000001
 20
-1.03664
 30
0.0
  0
VERTEX
  5
45A
  8
0
 10
-3.5063399999999998
 20
-1.0447699999999991
 30
0.0
  0
VERTEX
  5
45B
  8
0
 10
-3.4460399999999991
 20
-1.0527599999999999
 30
0.0
  0
VERTEX
  5
45C
  8
0
 10
-3.3857300000000001
 20
-1.0606100000000001
 30
0.0
  0
VERTEX
  5
45D
  8
0
 10
-3.3254299999999999
 20
-1.0683199999999999
 30
0.0
  0
VERTEX
  5
45E
  8
0
 10
-3.26512
 20
-1.0759000000000001
 30
0.0
  0
VERTEX
  5
45F
  8
0
 10
-3.2048099999999988
 20
-1.08335
 30
0.0
  0
VERTEX
  5
460
  8
0
 10
-3.144509999999999
 20
-1.09067
 30
0.0
  0
VERTEX
  5
461
  8
0
 10
-3.0842000000000001
 20
-1.0978600000000001
 30
0.0
  0
VERTEX
  5
462
  8
0
 10
-3.0238999999999989
 20
-1.1049199999999999
 30
0.0
  0
VERTEX
  5
463
  8
0
 10
-2.9635899999999991
 20
-1.1118600000000001
 30
0.0
  0
VERTEX
  5
464
  8
0
 10
-2.9032900000000001
 20
-1.118679999999999
 30
0.0
  0
VERTEX
  5
465
  8
0
 10
-2.842979999999999
 20
-1.1253799999999989
 30
0.0
  0
VERTEX
  5
466
  8
0
 10
-2.7826699999999991
 20
-1.1319600000000001
 30
0.0
  0
VERTEX
  5
467
  8
0
 10
-2.7223700000000002
 20
-1.1384199999999991
 30
0.0
  0
VERTEX
  5
468
  8
0
 10
-2.662059999999999
 20
-1.1447599999999989
 30
0.0
  0
VERTEX
  5
469
  8
0
 10
-2.6017600000000001
 20
-1.151
 30
0.0
  0
VERTEX
  5
46A
  8
0
 10
-2.5414500000000002
 20
-1.1571199999999999
 30
0.0
  0
VERTEX
  5
46B
  8
0
 10
-2.4811499999999991
 20
-1.1631400000000001
 30
0.0
  0
VERTEX
  5
46C
  8
0
 10
-2.4208400000000001
 20
-1.169049999999999
 30
0.0
  0
VERTEX
  5
46D
  8
0
 10
-2.3605299999999989
 20
-1.17486
 30
0.0
  0
VERTEX
  5
46E
  8
0
 10
-2.3002299999999991
 20
-1.1805600000000001
 30
0.0
  0
VERTEX
  5
46F
  8
0
 10
-2.2399200000000001
 20
-1.1861699999999999
 30
0.0
  0
VERTEX
  5
470
  8
0
 10
-2.179619999999999
 20
-1.191679999999999
 30
0.0
  0
VERTEX
  5
471
  8
0
 10
-2.11931
 20
-1.1971000000000001
 30
0.0
  0
VERTEX
  5
472
  8
0
 10
-2.0590099999999989
 20
-1.20242
 30
0.0
  0
VERTEX
  5
473
  8
0
 10
-1.998699999999999
 20
-1.2076599999999991
 30
0.0
  0
VERTEX
  5
474
  8
0
 10
-1.938399999999999
 20
-1.2128099999999991
 30
0.0
  0
VERTEX
  5
475
  8
0
 10
-1.87809
 20
-1.21787
 30
0.0
  0
VERTEX
  5
476
  8
0
 10
-1.8177799999999991
 20
-1.222839999999999
 30
0.0
  0
VERTEX
  5
477
  8
0
 10
-1.757479999999999
 20
-1.2277299999999991
 30
0.0
  0
VERTEX
  5
478
  8
0
 10
-1.6971700000000001
 20
-1.232529999999999
 30
0.0
  0
VERTEX
  5
479
  8
0
 10
-1.63687
 20
-1.2372499999999991
 30
0.0
  0
VERTEX
  5
47A
  8
0
 10
-1.5765599999999991
 20
-1.241879999999999
 30
0.0
  0
VERTEX
  5
47B
  8
0
 10
-1.5162599999999991
 20
-1.246429999999999
 30
0.0
  0
VERTEX
  5
47C
  8
0
 10
-1.4559500000000001
 20
-1.250899999999999
 30
0.0
  0
VERTEX
  5
47D
  8
0
 10
-1.39564
 20
-1.2552799999999991
 30
0.0
  0
VERTEX
  5
47E
  8
0
 10
-1.3353399999999991
 20
-1.2595899999999991
 30
0.0
  0
VERTEX
  5
47F
  8
0
 10
-1.275029999999999
 20
-1.2638100000000001
 30
0.0
  0
VERTEX
  5
480
  8
0
 10
-1.214729999999999
 20
-1.2679599999999991
 30
0.0
  0
VERTEX
  5
481
  8
0
 10
-1.15442
 20
-1.2720299999999991
 30
0.0
  0
VERTEX
  5
482
  8
0
 10
-1.0941199999999991
 20
-1.2760199999999999
 30
0.0
  0
VERTEX
  5
483
  8
0
 10
-1.0338099999999999
 20
-1.27993
 30
0.0
  0
VERTEX
  5
484
  8
0
 10
-0.9735099999999999
 20
-1.28376
 30
0.0
  0
VERTEX
  5
485
  8
0
 10
-0.9131999999999999
 20
-1.2875199999999991
 30
0.0
  0
VERTEX
  5
486
  8
0
 10
-0.85289
 20
-1.291199999999999
 30
0.0
  0
VERTEX
  5
487
  8
0
 10
-0.7925900000000001
 20
-1.2947999999999991
 30
0.0
  0
VERTEX
  5
488
  8
0
 10
-0.7322800000000002
 20
-1.2983299999999991
 30
0.0
  0
VERTEX
  5
489
  8
0
 10
-0.6719800000000001
 20
-1.301779999999999
 30
0.0
  0
VERTEX
  5
48A
  8
0
 10
-0.61167
 20
-1.3051600000000001
 30
0.0
  0
VERTEX
  5
48B
  8
0
 10
-0.55137
 20
-1.30847
 30
0.0
  0
VERTEX
  5
48C
  8
0
 10
-0.4910600000000001
 20
-1.3117000000000001
 30
0.0
  0
VERTEX
  5
48D
  8
0
 10
-0.43075
 20
-1.3148500000000001
 30
0.0
  0
VERTEX
  5
48E
  8
0
 10
-0.37045
 20
-1.317939999999999
 30
0.0
  0
VERTEX
  5
48F
  8
0
 10
-0.31014
 20
-1.3209500000000001
 30
0.0
  0
VERTEX
  5
490
  8
0
 10
-0.24984
 20
-1.32389
 30
0.0
  0
VERTEX
  5
491
  8
0
 10
-0.18953
 20
-1.3267599999999991
 30
0.0
  0
VERTEX
  5
492
  8
0
 10
-0.12923
 20
-1.3295600000000001
 30
0.0
  0
VERTEX
  5
493
  8
0
 10
-0.06892
 20
-1.3322899999999991
 30
0.0
  0
VERTEX
  5
494
  8
0
 10
-0.00862
 20
-1.3349500000000001
 30
0.0
  0
VERTEX
  5
495
  8
0
 10
0.05169
 20
-1.33755
 30
0.0
  0
VERTEX
  5
496
  8
0
 10
0.112
 20
-1.3400700000000001
 30
0.0
  0
VERTEX
  5
497
  8
0
 10
0.1723
 20
-1.34253
 30
0.0
  0
VERTEX
  5
498
  8
0
 10
0.23261
 20
-1.3449299999999991
 30
0.0
  0
VERTEX
  5
499
  8
0
 10
0.29291
 20
-1.3472599999999999
 30
0.0
  0
VERTEX
  5
49A
  8
0
 10
0.35322
 20
-1.349529999999999
 30
0.0
  0
VERTEX
  5
49B
  8
0
 10
0.4135200000000001
 20
-1.351729999999999
 30
0.0
  0
VERTEX
  5
49C
  8
0
 10
0.4738300000000001
 20
-1.3538699999999999
 30
0.0
  0
VERTEX
  5
49D
  8
0
 10
0.5341399999999999
 20
-1.3559499999999991
 30
0.0
  0
VERTEX
  5
49E
  8
0
 10
0.59444
 20
-1.3579699999999999
 30
0.0
  0
VERTEX
  5
49F
  8
0
 10
0.6547500000000001
 20
-1.359929999999999
 30
0.0
  0
VERTEX
  5
4A0
  8
0
 10
0.71505
 20
-1.361829999999999
 30
0.0
  0
VERTEX
  5
4A1
  8
0
 10
0.77536
 20
-1.3636600000000001
 30
0.0
  0
VERTEX
  5
4A2
  8
0
 10
0.83566
 20
-1.365429999999999
 30
0.0
  0
VERTEX
  5
4A3
  8
0
 10
0.8959699999999999
 20
-1.3671500000000001
 30
0.0
  0
VERTEX
  5
4A4
  8
0
 10
0.9562799999999999
 20
-1.3688
 30
0.0
  0
VERTEX
  5
4A5
  8
0
 10
1.0165799999999989
 20
-1.3703899999999991
 30
0.0
  0
VERTEX
  5
4A6
  8
0
 10
1.076889999999999
 20
-1.37192
 30
0.0
  0
VERTEX
  5
4A7
  8
0
 10
1.137189999999999
 20
-1.373389999999999
 30
0.0
  0
VERTEX
  5
4A8
  8
0
 10
1.1975
 20
-1.3747899999999991
 30
0.0
  0
VERTEX
  5
4A9
  8
0
 10
1.2578
 20
-1.376139999999999
 30
0.0
  0
VERTEX
  5
4AA
  8
0
 10
1.3181099999999999
 20
-1.377429999999999
 30
0.0
  0
VERTEX
  5
4AB
  8
0
 10
1.3784099999999999
 20
-1.3786599999999991
 30
0.0
  0
VERTEX
  5
4AC
  8
0
 10
1.4387199999999991
 20
-1.37982
 30
0.0
  0
VERTEX
  5
4AD
  8
0
 10
1.499029999999999
 20
-1.3809299999999991
 30
0.0
  0
VERTEX
  5
4AE
  8
0
 10
1.559329999999999
 20
-1.3819699999999999
 30
0.0
  0
VERTEX
  5
4AF
  8
0
 10
1.6196399999999991
 20
-1.3829599999999991
 30
0.0
  0
VERTEX
  5
4B0
  8
0
 10
1.67994
 20
-1.3838799999999991
 30
0.0
  0
VERTEX
  5
4B1
  8
0
 10
1.7402500000000001
 20
-1.384749999999999
 30
0.0
  0
VERTEX
  5
4B2
  8
0
 10
1.8005500000000001
 20
-1.3855500000000001
 30
0.0
  0
VERTEX
  5
4B3
  8
0
 10
1.8608599999999991
 20
-1.3863000000000001
 30
0.0
  0
VERTEX
  5
4B4
  8
0
 10
1.92117
 20
-1.386979999999999
 30
0.0
  0
VERTEX
  5
4B5
  8
0
 10
1.9814700000000001
 20
-1.3875999999999991
 30
0.0
  0
VERTEX
  5
4B6
  8
0
 10
2.0417799999999988
 20
-1.3881699999999999
 30
0.0
  0
VERTEX
  5
4B7
  8
0
 10
2.1020799999999991
 20
-1.3886700000000001
 30
0.0
  0
VERTEX
  5
4B8
  8
0
 10
2.1623899999999998
 20
-1.3891100000000001
 30
0.0
  0
VERTEX
  5
4B9
  8
0
 10
2.2226900000000001
 20
-1.389489999999999
 30
0.0
  0
VERTEX
  5
4BA
  8
0
 10
2.282999999999999
 20
-1.3898099999999991
 30
0.0
  0
VERTEX
  5
4BB
  8
0
 10
2.3433000000000002
 20
-1.3900699999999999
 30
0.0
  0
VERTEX
  5
4BC
  8
0
 10
2.40361
 20
-1.3902699999999999
 30
0.0
  0
VERTEX
  5
4BD
  8
0
 10
2.463919999999999
 20
-1.3904099999999999
 30
0.0
  0
VERTEX
  5
4BE
  8
0
 10
2.5242200000000001
 20
-1.3904899999999989
 30
0.0
  0
VERTEX
  5
4BF
  8
0
 10
2.5845299999999991
 20
-1.3905099999999999
 30
0.0
  0
VERTEX
  5
4C0
  8
0
 10
2.5845299999999991
 20
-0.78681
 30
0.0
  0
VERTEX
  5
4C1
  8
0
 10
1.98488
 20
-0.78681
 30
0.0
  0
VERTEX
  5
4C2
  8
0
 10
1.98488
 20
-0.9279999999999999
 30
0.0
  0
VERTEX
  5
4C3
  8
0
 10
-1.98488
 20
-0.9279999999999999
 30
0.0
  0
VERTEX
  5
4C4
  8
0
 10
-0.197
 20
2.3128999999999991
 30
0.0
  0
VERTEX
  5
4C5
  8
0
 10
0.0
 20
0.0
 30
0.0
  0
VERTEX
  5
4C6
  8
0
 10
0.0
 20
0.0
 30
0.0
  0
SEQEND
  5
4C7
  8
0
  0
ENDSEC
  0
EOF
