  0
SECTION
  2
HEADER
  9
$ACADVER
  1
AC1009
  9
$INSBASE
 10
0.0
 20
0.0
 30
0.0
  9
$EXTMIN
 10
-3.7338399999999998
 20
-2.24682
 30
0.0
  9
$EXTMAX
 10
10.4443900000000003
 20
4.3263299999999996
 30
0.0
  9
$LIMMIN
 10
0.0
 20
0.0
  9
$LIMMAX
 10
12.0
 20
9.0
  9
$ORTHOMODE
 70
     0
  9
$REGENMODE
 70
     1
  9
$FILLMODE
 70
     1
  9
$QTEXTMODE
 70
     0
  9
$MIRRTEXT
 70
     0
  9
$DRAGMODE
 70
     2
  9
$LTSCALE
 40
1.0
  9
$OSMODE
 70
    37
  9
$ATTMODE
 70
     1
  9
$TEXTSIZE
 40
0.2
  9
$TRACEWID
 40
0.05
  9
$TEXTSTYLE
  7
STANDARD
  9
$CLAYER
  8
0
  9
$CELTYPE
  6
BYLAYER
  9
$CECOLOR
 62
   256
  9
$DIMSCALE
 40
1.0
  9
$DIMASZ
 40
0.18
  9
$DIMEXO
 40
0.0625
  9
$DIMDLI
 40
0.38
  9
$DIMRND
 40
0.0
  9
$DIMDLE
 40
0.0
  9
$DIMEXE
 40
0.18
  9
$DIMTP
 40
0.0
  9
$DIMTM
 40
0.0
  9
$DIMTXT
 40
0.18
  9
$DIMCEN
 40
0.09
  9
$DIMTSZ
 40
0.0
  9
$DIMTOL
 70
     0
  9
$DIMLIM
 70
     0
  9
$DIMTIH
 70
     1
  9
$DIMTOH
 70
     1
  9
$DIMSE1
 70
     0
  9
$DIMSE2
 70
     0
  9
$DIMTAD
 70
     0
  9
$DIMZIN
 70
     0
  9
$DIMBLK
  1

  9
$DIMASO
 70
     1
  9
$DIMSHO
 70
     1
  9
$DIMPOST
  1

  9
$DIMAPOST
  1

  9
$DIMALT
 70
     0
  9
$DIMALTD
 70
     2
  9
$DIMALTF
 40
25.3999999999999986
  9
$DIMLFAC
 40
1.0
  9
$DIMTOFL
 70
     0
  9
$DIMTVP
 40
0.0
  9
$DIMTIX
 70
     0
  9
$DIMSOXD
 70
     0
  9
$DIMSAH
 70
     0
  9
$DIMBLK1
  1

  9
$DIMBLK2
  1

  9
$DIMSTYLE
  2
STANDARD
  9
$DIMCLRD
 70
     0
  9
$DIMCLRE
 70
     0
  9
$DIMCLRT
 70
     0
  9
$DIMTFAC
 40
1.0
  9
$DIMGAP
 40
0.09
  9
$LUNITS
 70
     2
  9
$LUPREC
 70
     4
  9
$SKETCHINC
 40
0.1
  9
$FILLETRAD
 40
0.0
  9
$AUNITS
 70
     0
  9
$AUPREC
 70
     0
  9
$MENU
  1
.
  9
$ELEVATION
 40
0.0
  9
$PELEVATION
 40
0.0
  9
$THICKNESS
 40
0.0
  9
$LIMCHECK
 70
     0
  9
$BLIPMODE
 70
     0
  9
$CHAMFERA
 40
0.0
  9
$CHAMFERB
 40
0.0
  9
$SKPOLY
 70
     0
  9
$TDCREATE
 40
2457765.6682523149065673
  9
$TDUPDATE
 40
2457765.6814236110076308
  9
$TDINDWG
 40
0.0131712963
  9
$TDUSRTIMER
 40
0.0131712963
  9
$USRTIMER
 70
     1
  9
$ANGBASE
 50
0.0
  9
$ANGDIR
 70
     0
  9
$PDMODE
 70
     0
  9
$PDSIZE
 40
0.0
  9
$PLINEWID
 40
0.0
  9
$COORDS
 70
     1
  9
$SPLFRAME
 70
     0
  9
$SPLINETYPE
 70
     6
  9
$SPLINESEGS
 70
     8
  9
$ATTDIA
 70
     1
  9
$ATTREQ
 70
     1
  9
$HANDLING
 70
     1
  9
$HANDSEED
  5
4CA
  9
$SURFTAB1
 70
     6
  9
$SURFTAB2
 70
     6
  9
$SURFTYPE
 70
     6
  9
$SURFU
 70
     6
  9
$SURFV
 70
     6
  9
$UCSNAME
  2

  9
$UCSORG
 10
0.0
 20
0.0
 30
0.0
  9
$UCSXDIR
 10
1.0
 20
0.0
 30
0.0
  9
$UCSYDIR
 10
0.0
 20
1.0
 30
0.0
  9
$PUCSNAME
  2

  9
$PUCSORG
 10
0.0
 20
0.0
 30
0.0
  9
$PUCSXDIR
 10
1.0
 20
0.0
 30
0.0
  9
$PUCSYDIR
 10
0.0
 20
1.0
 30
0.0
  9
$USERI1
 70
     0
  9
$USERI2
 70
     0
  9
$USERI3
 70
     0
  9
$USERI4
 70
     0
  9
$USERI5
 70
     0
  9
$USERR1
 40
0.0
  9
$USERR2
 40
0.0
  9
$USERR3
 40
0.0
  9
$USERR4
 40
0.0
  9
$USERR5
 40
0.0
  9
$WORLDVIEW
 70
     1
  9
$SHADEDGE
 70
     3
  9
$SHADEDIF
 70
    70
  9
$TILEMODE
 70
     1
  9
$MAXACTVP
 70
    64
  9
$PLIMCHECK
 70
     0
  9
$PEXTMIN
 10
0.0
 20
0.0
 30
0.0
  9
$PEXTMAX
 10
0.0
 20
0.0
 30
0.0
  9
$PLIMMIN
 10
0.0
 20
0.0
  9
$PLIMMAX
 10
12.0
 20
9.0
  9
$UNITMODE
 70
     0
  9
$VISRETAIN
 70
     1
  9
$PLINEGEN
 70
     0
  9
$PSLTSCALE
 70
     1
  0
ENDSEC
  0
SECTION
  2
TABLES
  0
TABLE
  2
VPORT
 70
     1
  0
VPORT
  2
*ACTIVE
 70
     0
 10
0.0
 20
0.0
 11
1.0
 21
1.0
 12
5.5583976082803943
 22
-0.0572691460740345
 13
0.0
 23
0.0
 14
0.5
 24
0.5
 15
0.5
 25
0.5
 16
0.0
 26
0.0
 36
1.0
 17
0.0
 27
0.0
 37
0.0
 40
10.1138276241225906
 41
2.58041958041958
 42
50.0
 43
0.0
 44
0.0
 50
0.0
 51
0.0
 71
     0
 72
  1000
 73
     1
 74
     3
 75
     0
 76
     1
 77
     0
 78
     0
  0
ENDTAB
  0
TABLE
  2
LTYPE
 70
     1
  0
LTYPE
  2
CONTINUOUS
 70
     0
  3
Solid line
 72
    65
 73
     0
 40
0.0
  0
ENDTAB
  0
TABLE
  2
LAYER
 70
     1
  0
LAYER
  2
0
 70
     0
 62
     7
  6
CONTINUOUS
  0
ENDTAB
  0
TABLE
  2
STYLE
 70
     2
  0
STYLE
  2
STANDARD
 70
     0
 40
0.0
 41
1.0
 50
0.0
 71
     0
 42
0.2
  3
txt
  4

  0
STYLE
  2
ANNOTATIVE
 70
     0
 40
0.0
 41
1.0
 50
0.0
 71
     0
 42
0.2
  3
txt
  4

  0
ENDTAB
  0
TABLE
  2
VIEW
 70
     0
  0
ENDTAB
  0
TABLE
  2
UCS
 70
     0
  0
ENDTAB
  0
TABLE
  2
APPID
 70
     7
  0
APPID
  2
ACAD
 70
     0
  0
APPID
  2
ACADANNOPO
 70
     0
  0
APPID
  2
ACADANNOTATIVE
 70
     0
  0
APPID
  2
ACAD_DSTYLE_DIMJAG
 70
     0
  0
APPID
  2
ACAD_DSTYLE_DIMTALN
 70
     0
  0
APPID
  2
ACAD_MLEADERVER
 70
     0
  0
APPID
  2
ACAD_NAV_VCDISPLAY
 70
     0
  0
ENDTAB
  0
TABLE
  2
DIMSTYLE
 70
     2
  0
DIMSTYLE
  2
STANDARD
 70
     0
  3

  4

  5

  6

  7

 40
1.0
 41
0.18
 42
0.0625
 43
0.38
 44
0.18
 45
0.0
 46
0.0
 47
0.0
 48
0.0
140
0.18
141
0.09
142
0.0
143
25.3999999999999986
144
1.0
145
0.0
146
1.0
147
0.09
 71
     0
 72
     0
 73
     1
 74
     1
 75
     0
 76
     0
 77
     0
 78
     0
170
     0
171
     2
172
     0
173
     0
174
     0
175
     0
176
     0
177
     0
178
     0
  0
DIMSTYLE
  2
ANNOTATIVE
 70
     0
  3

  4

  5

  6

  7

 40
0.0
 41
0.18
 42
0.0625
 43
0.38
 44
0.18
 45
0.0
 46
0.0
 47
0.0
 48
0.0
140
0.18
141
0.09
142
0.0
143
25.3999999999999986
144
1.0
145
0.0
146
1.0
147
0.09
 71
     0
 72
     0
 73
     1
 74
     1
 75
     0
 76
     0
 77
     0
 78
     0
170
     0
171
     2
172
     0
173
     0
174
     0
175
     0
176
     0
177
     0
178
     0
  0
ENDTAB
  0
ENDSEC
  0
SECTION
  2
BLOCKS
  0
BLOCK
  8
0
  2
$MODEL_SPACE
 70
     0
 10
0.0
 20
0.0
 30
0.0
  3
$MODEL_SPACE
  1

  0
ENDBLK
  5
21
  8
0
  0
BLOCK
 67
     1
  8
0
  2
$PAPER_SPACE
 70
     0
 10
0.0
 20
0.0
 30
0.0
  3
$PAPER_SPACE
  1

  0
ENDBLK
  5
5B
 67
     1
  8
0
  0
ENDSEC
  0
SECTION
  2
ENTITIES
  0
POLYLINE
  5
1F7
  8
0
 66
     1
 10
0.0
 20
0.0
 30
0.0
  0
VERTEX
  5
24B
  8
0
 10
0.0
 20
0.0
 30
0.0
  0
VERTEX
  5
24C
  8
0
 10
3.3431099999999989
 20
-1.6562399999999999
 30
0.0
  0
VERTEX
  5
24D
  8
0
 10
3.3422000000000001
 20
-1.745579999999999
 30
0.0
  0
VERTEX
  5
24E
  8
0
 10
3.3868
 20
-1.7416599999999991
 30
0.0
  0
VERTEX
  5
24F
  8
0
 10
3.4314
 20
-1.73769
 30
0.0
  0
VERTEX
  5
250
  8
0
 10
3.476
 20
-1.7336999999999989
 30
0.0
  0
VERTEX
  5
251
  8
0
 10
3.5205999999999991
 20
-1.729679999999999
 30
0.0
  0
VERTEX
  5
252
  8
0
 10
3.5651899999999999
 20
-1.7256299999999991
 30
0.0
  0
VERTEX
  5
253
  8
0
 10
3.6097899999999998
 20
-1.7215400000000001
 30
0.0
  0
VERTEX
  5
254
  8
0
 10
3.6543899999999998
 20
-1.7174199999999999
 30
0.0
  0
VERTEX
  5
255
  8
0
 10
3.6989899999999998
 20
-1.7132700000000001
 30
0.0
  0
VERTEX
  5
256
  8
0
 10
3.7435800000000001
 20
-1.709079999999999
 30
0.0
  0
VERTEX
  5
257
  8
0
 10
3.7881800000000001
 20
-1.7048599999999989
 30
0.0
  0
VERTEX
  5
258
  8
0
 10
3.8327799999999992
 20
-1.7006099999999991
 30
0.0
  0
VERTEX
  5
259
  8
0
 10
3.87738
 20
-1.6963200000000001
 30
0.0
  0
VERTEX
  5
25A
  8
0
 10
3.9219699999999991
 20
-1.6919999999999991
 30
0.0
  0
VERTEX
  5
25B
  8
0
 10
3.966569999999999
 20
-1.68764
 30
0.0
  0
VERTEX
  5
25C
  8
0
 10
4.011169999999999
 20
-1.683249999999999
 30
0.0
  0
VERTEX
  5
25D
  8
0
 10
4.055769999999999
 20
-1.6788199999999991
 30
0.0
  0
VERTEX
  5
25E
  8
0
 10
4.1003600000000002
 20
-1.674359999999999
 30
0.0
  0
VERTEX
  5
25F
  8
0
 10
4.1449600000000002
 20
-1.669859999999999
 30
0.0
  0
VERTEX
  5
260
  8
0
 10
4.1895600000000002
 20
-1.6653199999999999
 30
0.0
  0
VERTEX
  5
261
  8
0
 10
4.2341600000000001
 20
-1.6607400000000001
 30
0.0
  0
VERTEX
  5
262
  8
0
 10
4.2787499999999987
 20
-1.656129999999999
 30
0.0
  0
VERTEX
  5
263
  8
0
 10
4.3233499999999987
 20
-1.6514799999999989
 30
0.0
  0
VERTEX
  5
264
  8
0
 10
4.3679500000000004
 20
-1.64679
 30
0.0
  0
VERTEX
  5
265
  8
0
 10
4.4125500000000004
 20
-1.6420699999999999
 30
0.0
  0
VERTEX
  5
266
  8
0
 10
4.457139999999999
 20
-1.6372999999999991
 30
0.0
  0
VERTEX
  5
267
  8
0
 10
4.501739999999999
 20
-1.6325000000000001
 30
0.0
  0
VERTEX
  5
268
  8
0
 10
4.5463399999999989
 20
-1.62765
 30
0.0
  0
VERTEX
  5
269
  8
0
 10
4.5909399999999989
 20
-1.62277
 30
0.0
  0
VERTEX
  5
26A
  8
0
 10
4.6355399999999989
 20
-1.6178499999999989
 30
0.0
  0
VERTEX
  5
26B
  8
0
 10
4.6801300000000001
 20
-1.612879999999999
 30
0.0
  0
VERTEX
  5
26C
  8
0
 10
4.7247300000000001
 20
-1.6078799999999991
 30
0.0
  0
VERTEX
  5
26D
  8
0
 10
4.7693300000000001
 20
-1.6028299999999991
 30
0.0
  0
VERTEX
  5
26E
  8
0
 10
4.81393
 20
-1.597739999999999
 30
0.0
  0
VERTEX
  5
26F
  8
0
 10
4.8585199999999986
 20
-1.5926100000000001
 30
0.0
  0
VERTEX
  5
270
  8
0
 10
4.9031199999999986
 20
-1.5874399999999991
 30
0.0
  0
VERTEX
  5
271
  8
0
 10
4.9477199999999986
 20
-1.58223
 30
0.0
  0
VERTEX
  5
272
  8
0
 10
4.9923199999999994
 20
-1.57697
 30
0.0
  0
VERTEX
  5
273
  8
0
 10
5.0369099999999989
 20
-1.5716699999999999
 30
0.0
  0
VERTEX
  5
274
  8
0
 10
5.0815099999999989
 20
-1.5663299999999989
 30
0.0
  0
VERTEX
  5
275
  8
0
 10
5.1261099999999988
 20
-1.5609399999999991
 30
0.0
  0
VERTEX
  5
276
  8
0
 10
5.1707099999999988
 20
-1.55552
 30
0.0
  0
VERTEX
  5
277
  8
0
 10
5.2153
 20
-1.550039999999999
 30
0.0
  0
VERTEX
  5
278
  8
0
 10
5.2599
 20
-1.5445199999999999
 30
0.0
  0
VERTEX
  5
279
  8
0
 10
5.3044999999999991
 20
-1.5389600000000001
 30
0.0
  0
VERTEX
  5
27A
  8
0
 10
5.3490999999999991
 20
-1.5333600000000001
 30
0.0
  0
VERTEX
  5
27B
  8
0
 10
5.3936900000000003
 20
-1.5277099999999999
 30
0.0
  0
VERTEX
  5
27C
  8
0
 10
5.4382900000000003
 20
-1.5220100000000001
 30
0.0
  0
VERTEX
  5
27D
  8
0
 10
5.4828900000000003
 20
-1.51627
 30
0.0
  0
VERTEX
  5
27E
  8
0
 10
5.5274900000000002
 20
-1.510489999999999
 30
0.0
  0
VERTEX
  5
27F
  8
0
 10
5.5720799999999997
 20
-1.5046600000000001
 30
0.0
  0
VERTEX
  5
280
  8
0
 10
5.6166799999999997
 20
-1.49878
 30
0.0
  0
VERTEX
  5
281
  8
0
 10
5.6612799999999996
 20
-1.4928499999999989
 30
0.0
  0
VERTEX
  5
282
  8
0
 10
5.7058799999999996
 20
-1.4868699999999999
 30
0.0
  0
VERTEX
  5
283
  8
0
 10
5.7504699999999991
 20
-1.480839999999999
 30
0.0
  0
VERTEX
  5
284
  8
0
 10
5.7950699999999991
 20
-1.4747600000000001
 30
0.0
  0
VERTEX
  5
285
  8
0
 10
5.839669999999999
 20
-1.468629999999999
 30
0.0
  0
VERTEX
  5
286
  8
0
 10
5.884269999999999
 20
-1.46245
 30
0.0
  0
VERTEX
  5
287
  8
0
 10
5.928869999999999
 20
-1.45621
 30
0.0
  0
VERTEX
  5
288
  8
0
 10
5.9734600000000002
 20
-1.44991
 30
0.0
  0
VERTEX
  5
289
  8
0
 10
6.0180600000000002
 20
-1.4435599999999991
 30
0.0
  0
VERTEX
  5
28A
  8
0
 10
6.0626600000000002
 20
-1.437149999999999
 30
0.0
  0
VERTEX
  5
28B
  8
0
 10
6.1072600000000001
 20
-1.43069
 30
0.0
  0
VERTEX
  5
28C
  8
0
 10
6.1518499999999987
 20
-1.4241600000000001
 30
0.0
  0
VERTEX
  5
28D
  8
0
 10
6.1964499999999987
 20
-1.417559999999999
 30
0.0
  0
VERTEX
  5
28E
  8
0
 10
6.2410500000000004
 20
-1.4109100000000001
 30
0.0
  0
VERTEX
  5
28F
  8
0
 10
6.2856500000000004
 20
-1.40419
 30
0.0
  0
VERTEX
  5
290
  8
0
 10
6.330239999999999
 20
-1.3973999999999991
 30
0.0
  0
VERTEX
  5
291
  8
0
 10
6.374839999999999
 20
-1.3905499999999991
 30
0.0
  0
VERTEX
  5
292
  8
0
 10
6.4194399999999989
 20
-1.383629999999999
 30
0.0
  0
VERTEX
  5
293
  8
0
 10
6.4640399999999989
 20
-1.376639999999999
 30
0.0
  0
VERTEX
  5
294
  8
0
 10
6.5086300000000001
 20
-1.36957
 30
0.0
  0
VERTEX
  5
295
  8
0
 10
6.5532300000000001
 20
-1.362439999999999
 30
0.0
  0
VERTEX
  5
296
  8
0
 10
6.5978300000000001
 20
-1.355229999999999
 30
0.0
  0
VERTEX
  5
297
  8
0
 10
6.6424300000000001
 20
-1.3479499999999991
 30
0.0
  0
VERTEX
  5
298
  8
0
 10
6.6870199999999986
 20
-1.3405899999999991
 30
0.0
  0
VERTEX
  5
299
  8
0
 10
6.7316199999999986
 20
-1.3331599999999999
 30
0.0
  0
VERTEX
  5
29A
  8
0
 10
6.7762199999999986
 20
-1.325639999999999
 30
0.0
  0
VERTEX
  5
29B
  8
0
 10
6.8208199999999994
 20
-1.3180499999999991
 30
0.0
  0
VERTEX
  5
29C
  8
0
 10
6.8654099999999998
 20
-1.3103899999999991
 30
0.0
  0
VERTEX
  5
29D
  8
0
 10
6.9100099999999998
 20
-1.30264
 30
0.0
  0
VERTEX
  5
29E
  8
0
 10
6.9546099999999997
 20
-1.29481
 30
0.0
  0
VERTEX
  5
29F
  8
0
 10
6.9992099999999997
 20
-1.286899999999999
 30
0.0
  0
VERTEX
  5
2A0
  8
0
 10
7.0438000000000001
 20
-1.278899999999999
 30
0.0
  0
VERTEX
  5
2A1
  8
0
 10
7.0884
 20
-1.270829999999999
 30
0.0
  0
VERTEX
  5
2A2
  8
0
 10
7.1329999999999991
 20
-1.26267
 30
0.0
  0
VERTEX
  5
2A3
  8
0
 10
7.1775999999999991
 20
-1.254429999999999
 30
0.0
  0
VERTEX
  5
2A4
  8
0
 10
7.2221999999999991
 20
-1.2460999999999991
 30
0.0
  0
VERTEX
  5
2A5
  8
0
 10
7.2667899999999994
 20
-1.2376899999999991
 30
0.0
  0
VERTEX
  5
2A6
  8
0
 10
7.3113899999999994
 20
-1.2291799999999991
 30
0.0
  0
VERTEX
  5
2A7
  8
0
 10
7.3559899999999994
 20
-1.2205900000000001
 30
0.0
  0
VERTEX
  5
2A8
  8
0
 10
7.4005899999999993
 20
-1.2119200000000001
 30
0.0
  0
VERTEX
  5
2A9
  8
0
 10
7.4451799999999997
 20
-1.2031499999999991
 30
0.0
  0
VERTEX
  5
2AA
  8
0
 10
7.4897799999999997
 20
-1.1942900000000001
 30
0.0
  0
VERTEX
  5
2AB
  8
0
 10
7.5343799999999996
 20
-1.1853400000000001
 30
0.0
  0
VERTEX
  5
2AC
  8
0
 10
7.5789799999999996
 20
-1.1762900000000001
 30
0.0
  0
VERTEX
  5
2AD
  8
0
 10
7.6235699999999991
 20
-1.167149999999999
 30
0.0
  0
VERTEX
  5
2AE
  8
0
 10
7.668169999999999
 20
-1.1579099999999991
 30
0.0
  0
VERTEX
  5
2AF
  8
0
 10
7.712769999999999
 20
-1.14856
 30
0.0
  0
VERTEX
  5
2B0
  8
0
 10
7.757369999999999
 20
-1.1391
 30
0.0
  0
VERTEX
  5
2B1
  8
0
 10
7.8019600000000002
 20
-1.1295200000000001
 30
0.0
  0
VERTEX
  5
2B2
  8
0
 10
7.8465600000000002
 20
-1.119829999999999
 30
0.0
  0
VERTEX
  5
2B3
  8
0
 10
7.8911600000000002
 20
-1.11002
 30
0.0
  0
VERTEX
  5
2B4
  8
0
 10
7.9357600000000001
 20
-1.1000799999999991
 30
0.0
  0
VERTEX
  5
2B5
  8
0
 10
7.9803499999999987
 20
-1.0900099999999999
 30
0.0
  0
VERTEX
  5
2B6
  8
0
 10
8.0249500000000005
 20
-1.079809999999999
 30
0.0
  0
VERTEX
  5
2B7
  8
0
 10
8.0695499999999996
 20
-1.0694600000000001
 30
0.0
  0
VERTEX
  5
2B8
  8
0
 10
8.1141500000000004
 20
-1.05898
 30
0.0
  0
VERTEX
  5
2B9
  8
0
 10
8.1587399999999999
 20
-1.04834
 30
0.0
  0
VERTEX
  5
2BA
  8
0
 10
8.2033399999999972
 20
-1.037539999999999
 30
0.0
  0
VERTEX
  5
2BB
  8
0
 10
8.2479399999999998
 20
-1.0265799999999989
 30
0.0
  0
VERTEX
  5
2BC
  8
0
 10
8.2925399999999971
 20
-1.01546
 30
0.0
  0
VERTEX
  5
2BD
  8
0
 10
8.3371399999999998
 20
-1.00417
 30
0.0
  0
VERTEX
  5
2BE
  8
0
 10
8.381730000000001
 20
-0.9926899999999999
 30
0.0
  0
VERTEX
  5
2BF
  8
0
 10
8.4263300000000001
 20
-0.9810399999999999
 30
0.0
  0
VERTEX
  5
2C0
  8
0
 10
8.4709299999999992
 20
-0.9692200000000001
 30
0.0
  0
VERTEX
  5
2C1
  8
0
 10
8.51553
 20
-0.95722
 30
0.0
  0
VERTEX
  5
2C2
  8
0
 10
8.5601199999999995
 20
-0.94504
 30
0.0
  0
VERTEX
  5
2C3
  8
0
 10
8.6047200000000004
 20
-0.9326999999999999
 30
0.0
  0
VERTEX
  5
2C4
  8
0
 10
8.6493199999999995
 20
-0.92019
 30
0.0
  0
VERTEX
  5
2C5
  8
0
 10
8.6939200000000003
 20
-0.90751
 30
0.0
  0
VERTEX
  5
2C6
  8
0
 10
8.7385099999999998
 20
-0.89466
 30
0.0
  0
VERTEX
  5
2C7
  8
0
 10
8.7831100000000006
 20
-0.88165
 30
0.0
  0
VERTEX
  5
2C8
  8
0
 10
8.8277099999999997
 20
-0.8684799999999999
 30
0.0
  0
VERTEX
  5
2C9
  8
0
 10
8.8723100000000006
 20
-0.8551200000000001
 30
0.0
  0
VERTEX
  5
2CA
  8
0
 10
8.9169
 20
-0.84154
 30
0.0
  0
VERTEX
  5
2CB
  8
0
 10
8.9614999999999991
 20
-0.82772
 30
0.0
  0
VERTEX
  5
2CC
  8
0
 10
9.0060999999999982
 20
-0.8136499999999999
 30
0.0
  0
VERTEX
  5
2CD
  8
0
 10
9.0507000000000009
 20
-0.7992899999999999
 30
0.0
  0
VERTEX
  5
2CE
  8
0
 10
9.0952899999999985
 20
-0.78462
 30
0.0
  0
VERTEX
  5
2CF
  8
0
 10
9.1398899999999994
 20
-0.76962
 30
0.0
  0
VERTEX
  5
2D0
  8
0
 10
9.1844900000000003
 20
-0.7542600000000002
 30
0.0
  0
VERTEX
  5
2D1
  8
0
 10
9.2290899999999993
 20
-0.73852
 30
0.0
  0
VERTEX
  5
2D2
  8
0
 10
9.2736800000000006
 20
-0.7223800000000001
 30
0.0
  0
VERTEX
  5
2D3
  8
0
 10
9.3182799999999997
 20
-0.7057700000000001
 30
0.0
  0
VERTEX
  5
2D4
  8
0
 10
9.3628800000000005
 20
-0.6886800000000001
 30
0.0
  0
VERTEX
  5
2D5
  8
0
 10
9.4074799999999996
 20
-0.67106
 30
0.0
  0
VERTEX
  5
2D6
  8
0
 10
9.4520699999999991
 20
-0.6528800000000001
 30
0.0
  0
VERTEX
  5
2D7
  8
0
 10
9.4966699999999982
 20
-0.63409
 30
0.0
  0
VERTEX
  5
2D8
  8
0
 10
9.541269999999999
 20
-0.61466
 30
0.0
  0
VERTEX
  5
2D9
  8
0
 10
9.5858699999999981
 20
-0.59455
 30
0.0
  0
VERTEX
  5
2DA
  8
0
 10
9.6304699999999972
 20
-0.5737300000000002
 30
0.0
  0
VERTEX
  5
2DB
  8
0
 10
9.6750600000000002
 20
-0.5522899999999999
 30
0.0
  0
VERTEX
  5
2DC
  8
0
 10
9.7196600000000011
 20
-0.53041
 30
0.0
  0
VERTEX
  5
2DD
  8
0
 10
9.7642600000000002
 20
-0.5081600000000001
 30
0.0
  0
VERTEX
  5
2DE
  8
0
 10
9.808860000000001
 20
-0.48563
 30
0.0
  0
VERTEX
  5
2DF
  8
0
 10
9.8534500000000005
 20
-0.4629
 30
0.0
  0
VERTEX
  5
2E0
  8
0
 10
9.8980499999999996
 20
-0.4400800000000001
 30
0.0
  0
VERTEX
  5
2E1
  8
0
 10
9.9426500000000004
 20
-0.41724
 30
0.0
  0
VERTEX
  5
2E2
  8
0
 10
9.9872499999999995
 20
-0.39448
 30
0.0
  0
VERTEX
  5
2E3
  8
0
 10
10.0318400000000008
 20
-0.37159
 30
0.0
  0
VERTEX
  5
2E4
  8
0
 10
10.0318400000000008
 20
0.73236
 30
0.0
  0
VERTEX
  5
2E5
  8
0
 10
9.9705300000000001
 20
0.80805
 30
0.0
  0
VERTEX
  5
2E6
  8
0
 10
9.9092300000000009
 20
0.8802599999999999
 30
0.0
  0
VERTEX
  5
2E7
  8
0
 10
9.8479200000000002
 20
0.9487299999999999
 30
0.0
  0
VERTEX
  5
2E8
  8
0
 10
9.7866100000000014
 20
1.0132499999999991
 30
0.0
  0
VERTEX
  5
2E9
  8
0
 10
9.7253000000000007
 20
1.07406
 30
0.0
  0
VERTEX
  5
2EA
  8
0
 10
9.6639900000000001
 20
1.131589999999999
 30
0.0
  0
VERTEX
  5
2EB
  8
0
 10
9.6026799999999994
 20
1.18628
 30
0.0
  0
VERTEX
  5
2EC
  8
0
 10
9.5413700000000006
 20
1.2388799999999991
 30
0.0
  0
VERTEX
  5
2ED
  8
0
 10
9.4800699999999996
 20
1.289639999999999
 30
0.0
  0
VERTEX
  5
2EE
  8
0
 10
9.4187600000000007
 20
1.3387199999999999
 30
0.0
  0
VERTEX
  5
2EF
  8
0
 10
9.35745
 20
1.38629
 30
0.0
  0
VERTEX
  5
2F0
  8
0
 10
9.2961399999999994
 20
1.4325000000000001
 30
0.0
  0
VERTEX
  5
2F1
  8
0
 10
9.2348300000000005
 20
1.4775100000000001
 30
0.0
  0
VERTEX
  5
2F2
  8
0
 10
9.1735199999999981
 20
1.5214799999999991
 30
0.0
  0
VERTEX
  5
2F3
  8
0
 10
9.112210000000001
 20
1.5645299999999991
 30
0.0
  0
VERTEX
  5
2F4
  8
0
 10
9.05091
 20
1.6066599999999991
 30
0.0
  0
VERTEX
  5
2F5
  8
0
 10
8.9895999999999994
 20
1.6478699999999999
 30
0.0
  0
VERTEX
  5
2F6
  8
0
 10
8.9282899999999987
 20
1.6881900000000001
 30
0.0
  0
VERTEX
  5
2F7
  8
0
 10
8.8669799999999999
 20
1.7275999999999989
 30
0.0
  0
VERTEX
  5
2F8
  8
0
 10
8.8056699999999992
 20
1.7661199999999999
 30
0.0
  0
VERTEX
  5
2F9
  8
0
 10
8.7443600000000004
 20
1.8037599999999989
 30
0.0
  0
VERTEX
  5
2FA
  8
0
 10
8.6830499999999997
 20
1.84053
 30
0.0
  0
VERTEX
  5
2FB
  8
0
 10
8.6217500000000005
 20
1.87649
 30
0.0
  0
VERTEX
  5
2FC
  8
0
 10
8.5604399999999998
 20
1.9116699999999991
 30
0.0
  0
VERTEX
  5
2FD
  8
0
 10
8.4991299999999992
 20
1.946129999999999
 30
0.0
  0
VERTEX
  5
2FE
  8
0
 10
8.4378200000000003
 20
1.9798899999999999
 30
0.0
  0
VERTEX
  5
2FF
  8
0
 10
8.3765100000000015
 20
2.01302
 30
0.0
  0
VERTEX
  5
300
  8
0
 10
8.3152000000000008
 20
2.0455399999999999
 30
0.0
  0
VERTEX
  5
301
  8
0
 10
8.2538900000000002
 20
2.0774900000000001
 30
0.0
  0
VERTEX
  5
302
  8
0
 10
8.1925799999999995
 20
2.1088900000000002
 30
0.0
  0
VERTEX
  5
303
  8
0
 10
8.1312800000000003
 20
2.1397400000000002
 30
0.0
  0
VERTEX
  5
304
  8
0
 10
8.0699699999999996
 20
2.17008
 30
0.0
  0
VERTEX
  5
305
  8
0
 10
8.0086600000000008
 20
2.1999200000000001
 30
0.0
  0
VERTEX
  5
306
  8
0
 10
7.9473500000000001
 20
2.2292799999999988
 30
0.0
  0
VERTEX
  5
307
  8
0
 10
7.8860399999999986
 20
2.2581699999999998
 30
0.0
  0
VERTEX
  5
308
  8
0
 10
7.8247299999999997
 20
2.28661
 30
0.0
  0
VERTEX
  5
309
  8
0
 10
7.7634199999999991
 20
2.3146200000000001
 30
0.0
  0
VERTEX
  5
30A
  8
0
 10
7.702119999999999
 20
2.3422099999999988
 30
0.0
  0
VERTEX
  5
30B
  8
0
 10
7.6408100000000001
 20
2.3693900000000001
 30
0.0
  0
VERTEX
  5
30C
  8
0
 10
7.5795000000000003
 20
2.3961899999999998
 30
0.0
  0
VERTEX
  5
30D
  8
0
 10
7.5181899999999988
 20
2.4226099999999988
 30
0.0
  0
VERTEX
  5
30E
  8
0
 10
7.4568799999999991
 20
2.448669999999999
 30
0.0
  0
VERTEX
  5
30F
  8
0
 10
7.3955699999999993
 20
2.4743699999999991
 30
0.0
  0
VERTEX
  5
310
  8
0
 10
7.3342599999999996
 20
2.4997199999999991
 30
0.0
  0
VERTEX
  5
311
  8
0
 10
7.2729600000000003
 20
2.524719999999999
 30
0.0
  0
VERTEX
  5
312
  8
0
 10
7.2116499999999988
 20
2.5493700000000001
 30
0.0
  0
VERTEX
  5
313
  8
0
 10
7.150339999999999
 20
2.5736799999999991
 30
0.0
  0
VERTEX
  5
314
  8
0
 10
7.0890300000000002
 20
2.5976499999999989
 30
0.0
  0
VERTEX
  5
315
  8
0
 10
7.0277199999999986
 20
2.6212900000000001
 30
0.0
  0
VERTEX
  5
316
  8
0
 10
6.9664099999999998
 20
2.6445899999999991
 30
0.0
  0
VERTEX
  5
317
  8
0
 10
6.9051
 20
2.6675699999999991
 30
0.0
  0
VERTEX
  5
318
  8
0
 10
6.843799999999999
 20
2.6902300000000001
 30
0.0
  0
VERTEX
  5
319
  8
0
 10
6.7824899999999992
 20
2.7125799999999991
 30
0.0
  0
VERTEX
  5
31A
  8
0
 10
6.7211800000000004
 20
2.7346200000000001
 30
0.0
  0
VERTEX
  5
31B
  8
0
 10
6.6598699999999988
 20
2.7563699999999991
 30
0.0
  0
VERTEX
  5
31C
  8
0
 10
6.59856
 20
2.7778099999999988
 30
0.0
  0
VERTEX
  5
31D
  8
0
 10
6.5372500000000002
 20
2.7989700000000002
 30
0.0
  0
VERTEX
  5
31E
  8
0
 10
6.4759399999999996
 20
2.8198500000000002
 30
0.0
  0
VERTEX
  5
31F
  8
0
 10
6.4146400000000003
 20
2.8404599999999989
 30
0.0
  0
VERTEX
  5
320
  8
0
 10
6.3533299999999997
 20
2.8607900000000002
 30
0.0
  0
VERTEX
  5
321
  8
0
 10
6.2920199999999991
 20
2.8808699999999998
 30
0.0
  0
VERTEX
  5
322
  8
0
 10
6.2307100000000002
 20
2.9006899999999991
 30
0.0
  0
VERTEX
  5
323
  8
0
 10
6.1694000000000004
 20
2.9202499999999989
 30
0.0
  0
VERTEX
  5
324
  8
0
 10
6.1080899999999989
 20
2.939579999999999
 30
0.0
  0
VERTEX
  5
325
  8
0
 10
6.04678
 20
2.9586600000000001
 30
0.0
  0
VERTEX
  5
326
  8
0
 10
5.9854699999999994
 20
2.9775099999999992
 30
0.0
  0
VERTEX
  5
327
  8
0
 10
5.9241699999999993
 20
2.9961299999999991
 30
0.0
  0
VERTEX
  5
328
  8
0
 10
5.8628599999999986
 20
3.0145299999999988
 30
0.0
  0
VERTEX
  5
329
  8
0
 10
5.8015499999999989
 20
3.0327099999999989
 30
0.0
  0
VERTEX
  5
32A
  8
0
 10
5.74024
 20
3.0506700000000002
 30
0.0
  0
VERTEX
  5
32B
  8
0
 10
5.6789300000000003
 20
3.0684200000000001
 30
0.0
  0
VERTEX
  5
32C
  8
0
 10
5.6176199999999987
 20
3.08596
 30
0.0
  0
VERTEX
  5
32D
  8
0
 10
5.556309999999999
 20
3.1032899999999999
 30
0.0
  0
VERTEX
  5
32E
  8
0
 10
5.4950099999999988
 20
3.1204200000000002
 30
0.0
  0
VERTEX
  5
32F
  8
0
 10
5.4336999999999991
 20
3.1373500000000001
 30
0.0
  0
VERTEX
  5
330
  8
0
 10
5.3723900000000002
 20
3.1540799999999991
 30
0.0
  0
VERTEX
  5
331
  8
0
 10
5.3110799999999996
 20
3.1706199999999991
 30
0.0
  0
VERTEX
  5
332
  8
0
 10
5.2497699999999989
 20
3.1869700000000001
 30
0.0
  0
VERTEX
  5
333
  8
0
 10
5.1884600000000001
 20
3.2031299999999989
 30
0.0
  0
VERTEX
  5
334
  8
0
 10
5.1271500000000003
 20
3.2191000000000001
 30
0.0
  0
VERTEX
  5
335
  8
0
 10
5.0658500000000002
 20
3.2349000000000001
 30
0.0
  0
VERTEX
  5
336
  8
0
 10
5.0045400000000004
 20
3.2505099999999989
 30
0.0
  0
VERTEX
  5
337
  8
0
 10
4.9432299999999998
 20
3.2659500000000001
 30
0.0
  0
VERTEX
  5
338
  8
0
 10
4.88192
 20
3.2812199999999989
 30
0.0
  0
VERTEX
  5
339
  8
0
 10
4.8206100000000003
 20
3.2963199999999988
 30
0.0
  0
VERTEX
  5
33A
  8
0
 10
4.7592999999999988
 20
3.3112499999999989
 30
0.0
  0
VERTEX
  5
33B
  8
0
 10
4.697989999999999
 20
3.3260000000000001
 30
0.0
  0
VERTEX
  5
33C
  8
0
 10
4.6366899999999989
 20
3.3405900000000002
 30
0.0
  0
VERTEX
  5
33D
  8
0
 10
4.57538
 20
3.3550199999999988
 30
0.0
  0
VERTEX
  5
33E
  8
0
 10
4.5140699999999994
 20
3.3692699999999989
 30
0.0
  0
VERTEX
  5
33F
  8
0
 10
4.4527599999999987
 20
3.3833699999999989
 30
0.0
  0
VERTEX
  5
340
  8
0
 10
4.391449999999999
 20
3.3972999999999991
 30
0.0
  0
VERTEX
  5
341
  8
0
 10
4.3301400000000001
 20
3.4110800000000001
 30
0.0
  0
VERTEX
  5
342
  8
0
 10
4.2688300000000003
 20
3.42469
 30
0.0
  0
VERTEX
  5
343
  8
0
 10
4.2075300000000002
 20
3.4381499999999989
 30
0.0
  0
VERTEX
  5
344
  8
0
 10
4.1462199999999987
 20
3.451449999999999
 30
0.0
  0
VERTEX
  5
345
  8
0
 10
4.0849099999999989
 20
3.464599999999999
 30
0.0
  0
VERTEX
  5
346
  8
0
 10
4.0236000000000001
 20
3.4775999999999989
 30
0.0
  0
VERTEX
  5
347
  8
0
 10
3.9622899999999999
 20
3.4904500000000001
 30
0.0
  0
VERTEX
  5
348
  8
0
 10
3.9009800000000001
 20
3.5031500000000002
 30
0.0
  0
VERTEX
  5
349
  8
0
 10
3.839669999999999
 20
3.5156999999999989
 30
0.0
  0
VERTEX
  5
34A
  8
0
 10
3.7783599999999988
 20
3.5280999999999989
 30
0.0
  0
VERTEX
  5
34B
  8
0
 10
3.71706
 20
3.5403599999999988
 30
0.0
  0
VERTEX
  5
34C
  8
0
 10
3.6557499999999989
 20
3.5524800000000001
 30
0.0
  0
VERTEX
  5
34D
  8
0
 10
3.5944400000000001
 20
3.5644599999999991
 30
0.0
  0
VERTEX
  5
34E
  8
0
 10
3.5331299999999999
 20
3.5762900000000002
 30
0.0
  0
VERTEX
  5
34F
  8
0
 10
3.4718199999999988
 20
3.58799
 30
0.0
  0
VERTEX
  5
350
  8
0
 10
3.410509999999999
 20
3.599559999999999
 30
0.0
  0
VERTEX
  5
351
  8
0
 10
3.3492000000000002
 20
3.6109800000000001
 30
0.0
  0
VERTEX
  5
352
  8
0
 10
3.2879
 20
3.6222799999999999
 30
0.0
  0
VERTEX
  5
353
  8
0
 10
3.2265899999999998
 20
3.6334399999999998
 30
0.0
  0
VERTEX
  5
354
  8
0
 10
3.1652800000000001
 20
3.6444699999999992
 30
0.0
  0
VERTEX
  5
355
  8
0
 10
3.103969999999999
 20
3.6553800000000001
 30
0.0
  0
VERTEX
  5
356
  8
0
 10
3.0426599999999988
 20
3.6661599999999992
 30
0.0
  0
VERTEX
  5
357
  8
0
 10
2.9813499999999991
 20
3.6768099999999988
 30
0.0
  0
VERTEX
  5
358
  8
0
 10
2.9200400000000002
 20
3.6873399999999998
 30
0.0
  0
VERTEX
  5
359
  8
0
 10
2.8587400000000001
 20
3.69774
 30
0.0
  0
VERTEX
  5
35A
  8
0
 10
2.797429999999999
 20
3.7080299999999999
 30
0.0
  0
VERTEX
  5
35B
  8
0
 10
2.7361200000000001
 20
3.7181899999999999
 30
0.0
  0
VERTEX
  5
35C
  8
0
 10
2.674809999999999
 20
3.7282399999999991
 30
0.0
  0
VERTEX
  5
35D
  8
0
 10
2.6135000000000002
 20
3.7381699999999989
 30
0.0
  0
VERTEX
  5
35E
  8
0
 10
2.5521899999999991
 20
3.7479800000000001
 30
0.0
  0
VERTEX
  5
35F
  8
0
 10
2.4908799999999989
 20
3.7576699999999992
 30
0.0
  0
VERTEX
  5
360
  8
0
 10
2.4295800000000001
 20
3.7672500000000002
 30
0.0
  0
VERTEX
  5
361
  8
0
 10
2.368269999999999
 20
3.77671
 30
0.0
  0
VERTEX
  5
362
  8
0
 10
2.3069599999999988
 20
3.7860599999999991
 30
0.0
  0
VERTEX
  5
363
  8
0
 10
2.245649999999999
 20
3.7952900000000001
 30
0.0
  0
VERTEX
  5
364
  8
0
 10
2.1843400000000002
 20
3.8044199999999999
 30
0.0
  0
VERTEX
  5
365
  8
0
 10
2.1230299999999991
 20
3.8134299999999999
 30
0.0
  0
VERTEX
  5
366
  8
0
 10
2.0617200000000002
 20
3.82233
 30
0.0
  0
VERTEX
  5
367
  8
0
 10
2.00041
 20
3.8311299999999999
 30
0.0
  0
VERTEX
  5
368
  8
0
 10
1.939109999999999
 20
3.8398099999999991
 30
0.0
  0
VERTEX
  5
369
  8
0
 10
1.877799999999999
 20
3.8483900000000002
 30
0.0
  0
VERTEX
  5
36A
  8
0
 10
1.8164899999999999
 20
3.8568699999999989
 30
0.0
  0
VERTEX
  5
36B
  8
0
 10
1.75518
 20
3.8652299999999999
 30
0.0
  0
VERTEX
  5
36C
  8
0
 10
1.6938699999999991
 20
3.8734999999999991
 30
0.0
  0
VERTEX
  5
36D
  8
0
 10
1.6325599999999989
 20
3.88165
 30
0.0
  0
VERTEX
  5
36E
  8
0
 10
1.57125
 20
3.88971
 30
0.0
  0
VERTEX
  5
36F
  8
0
 10
1.509949999999999
 20
3.8976599999999988
 30
0.0
  0
VERTEX
  5
370
  8
0
 10
1.448639999999999
 20
3.9055099999999991
 30
0.0
  0
VERTEX
  5
371
  8
0
 10
1.3873299999999991
 20
3.9132599999999989
 30
0.0
  0
VERTEX
  5
372
  8
0
 10
1.3260199999999991
 20
3.9209099999999988
 30
0.0
  0
VERTEX
  5
373
  8
0
 10
1.26471
 20
3.9284500000000002
 30
0.0
  0
VERTEX
  5
374
  8
0
 10
1.2034
 20
3.9359000000000002
 30
0.0
  0
VERTEX
  5
375
  8
0
 10
1.14209
 20
3.9432399999999999
 30
0.0
  0
VERTEX
  5
376
  8
0
 10
1.080789999999999
 20
3.9504899999999998
 30
0.0
  0
VERTEX
  5
377
  8
0
 10
1.0194799999999991
 20
3.95763
 30
0.0
  0
VERTEX
  5
378
  8
0
 10
0.9581700000000001
 20
3.96468
 30
0.0
  0
VERTEX
  5
379
  8
0
 10
0.89686
 20
3.9716300000000002
 30
0.0
  0
VERTEX
  5
37A
  8
0
 10
0.8355499999999999
 20
3.9784799999999998
 30
0.0
  0
VERTEX
  5
37B
  8
0
 10
0.25408
 20
3.8801099999999988
 30
0.0
  0
VERTEX
  5
37C
  8
0
 10
0.2519
 20
3.9132699999999989
 30
0.0
  0
VERTEX
  5
37D
  8
0
 10
0.24542
 20
3.9458699999999989
 30
0.0
  0
VERTEX
  5
37E
  8
0
 10
0.23474
 20
3.9773399999999999
 30
0.0
  0
VERTEX
  5
37F
  8
0
 10
0.22004
 20
4.0071500000000002
 30
0.0
  0
VERTEX
  5
380
  8
0
 10
0.20157
 20
4.0347799999999996
 30
0.0
  0
VERTEX
  5
381
  8
0
 10
0.17966
 20
4.0597699999999994
 30
0.0
  0
VERTEX
  5
382
  8
0
 10
0.15467
 20
4.0816800000000004
 30
0.0
  0
VERTEX
  5
383
  8
0
 10
0.12704
 20
4.1001500000000002
 30
0.0
  0
VERTEX
  5
384
  8
0
 10
0.09723
 20
4.1148499999999988
 30
0.0
  0
VERTEX
  5
385
  8
0
 10
0.06576
 20
4.1255300000000004
 30
0.0
  0
VERTEX
  5
386
  8
0
 10
0.03316
 20
4.1320100000000002
 30
0.0
  0
VERTEX
  5
387
  8
0
 10
0.0
 20
4.1341900000000003
 30
0.0
  0
VERTEX
  5
388
  8
0
 10
-0.03316
 20
4.1320100000000002
 30
0.0
  0
VERTEX
  5
389
  8
0
 10
-0.06576
 20
4.1255300000000004
 30
0.0
  0
VERTEX
  5
38A
  8
0
 10
-0.09723
 20
4.1148499999999988
 30
0.0
  0
VERTEX
  5
38B
  8
0
 10
-0.12704
 20
4.1001500000000002
 30
0.0
  0
VERTEX
  5
38C
  8
0
 10
-0.15467
 20
4.0816800000000004
 30
0.0
  0
VERTEX
  5
38D
  8
0
 10
-0.17966
 20
4.0597699999999994
 30
0.0
  0
VERTEX
  5
38E
  8
0
 10
-0.20157
 20
4.0347799999999996
 30
0.0
  0
VERTEX
  5
38F
  8
0
 10
-0.22004
 20
4.0071500000000002
 30
0.0
  0
VERTEX
  5
390
  8
0
 10
-0.23474
 20
3.9773399999999999
 30
0.0
  0
VERTEX
  5
391
  8
0
 10
-0.24542
 20
3.9458699999999989
 30
0.0
  0
VERTEX
  5
392
  8
0
 10
-0.2519
 20
3.9132699999999989
 30
0.0
  0
VERTEX
  5
393
  8
0
 10
-0.25408
 20
3.8801099999999988
 30
0.0
  0
VERTEX
  5
394
  8
0
 10
-0.8355499999999999
 20
3.8801099999999988
 30
0.0
  0
VERTEX
  5
395
  8
0
 10
-0.8355499999999999
 20
4.3263299999999996
 30
0.0
  0
VERTEX
  5
396
  8
0
 10
-0.76035
 20
4.3209400000000002
 30
0.0
  0
VERTEX
  5
397
  8
0
 10
-0.6851500000000001
 20
4.3154099999999991
 30
0.0
  0
VERTEX
  5
398
  8
0
 10
-0.60995
 20
4.3097699999999994
 30
0.0
  0
VERTEX
  5
399
  8
0
 10
-0.5347499999999999
 20
4.3039899999999989
 30
0.0
  0
VERTEX
  5
39A
  8
0
 10
-0.4595500000000001
 20
4.2980900000000002
 30
0.0
  0
VERTEX
  5
39B
  8
0
 10
-0.38435
 20
4.2920600000000002
 30
0.0
  0
VERTEX
  5
39C
  8
0
 10
-0.30915
 20
4.2858999999999989
 30
0.0
  0
VERTEX
  5
39D
  8
0
 10
-0.23395
 20
4.279609999999999
 30
0.0
  0
VERTEX
  5
39E
  8
0
 10
-0.15875
 20
4.2731899999999996
 30
0.0
  0
VERTEX
  5
39F
  8
0
 10
-0.08356
 20
4.2666300000000001
 30
0.0
  0
VERTEX
  5
3A0
  8
0
 10
-0.00836
 20
4.2599400000000003
 30
0.0
  0
VERTEX
  5
3A1
  8
0
 10
0.06684
 20
4.2531099999999986
 30
0.0
  0
VERTEX
  5
3A2
  8
0
 10
0.14204
 20
4.2461500000000001
 30
0.0
  0
VERTEX
  5
3A3
  8
0
 10
0.21724
 20
4.2390499999999989
 30
0.0
  0
VERTEX
  5
3A4
  8
0
 10
0.29244
 20
4.231819999999999
 30
0.0
  0
VERTEX
  5
3A5
  8
0
 10
0.36764
 20
4.2244400000000004
 30
0.0
  0
VERTEX
  5
3A6
  8
0
 10
0.44284
 20
4.21692
 30
0.0
  0
VERTEX
  5
3A7
  8
0
 10
0.5180399999999999
 20
4.2092599999999987
 30
0.0
  0
VERTEX
  5
3A8
  8
0
 10
0.59324
 20
4.2014599999999991
 30
0.0
  0
VERTEX
  5
3A9
  8
0
 10
0.66844
 20
4.193509999999999
 30
0.0
  0
VERTEX
  5
3AA
  8
0
 10
0.74364
 20
4.1854199999999988
 30
0.0
  0
VERTEX
  5
3AB
  8
0
 10
0.8188399999999999
 20
4.177179999999999
 30
0.0
  0
VERTEX
  5
3AC
  8
0
 10
0.8940399999999999
 20
4.1688000000000001
 30
0.0
  0
VERTEX
  5
3AD
  8
0
 10
0.9692399999999999
 20
4.1602699999999988
 30
0.0
  0
VERTEX
  5
3AE
  8
0
 10
1.04444
 20
4.1515899999999997
 30
0.0
  0
VERTEX
  5
3AF
  8
0
 10
1.1196399999999991
 20
4.1427599999999991
 30
0.0
  0
VERTEX
  5
3B0
  8
0
 10
1.194839999999999
 20
4.1337799999999998
 30
0.0
  0
VERTEX
  5
3B1
  8
0
 10
1.2700400000000001
 20
4.124649999999999
 30
0.0
  0
VERTEX
  5
3B2
  8
0
 10
1.3452399999999991
 20
4.1153699999999986
 30
0.0
  0
VERTEX
  5
3B3
  8
0
 10
1.420439999999999
 20
4.1059400000000004
 30
0.0
  0
VERTEX
  5
3B4
  8
0
 10
1.495639999999999
 20
4.0963500000000002
 30
0.0
  0
VERTEX
  5
3B5
  8
0
 10
1.57084
 20
4.0866100000000003
 30
0.0
  0
VERTEX
  5
3B6
  8
0
 10
1.6460399999999999
 20
4.076719999999999
 30
0.0
  0
VERTEX
  5
3B7
  8
0
 10
1.7212400000000001
 20
4.0666699999999993
 30
0.0
  0
VERTEX
  5
3B8
  8
0
 10
1.79644
 20
4.0564599999999986
 30
0.0
  0
VERTEX
  5
3B9
  8
0
 10
1.871629999999999
 20
4.0461
 30
0.0
  0
VERTEX
  5
3BA
  8
0
 10
1.946829999999999
 20
4.0355800000000004
 30
0.0
  0
VERTEX
  5
3BB
  8
0
 10
2.0220299999999991
 20
4.0248900000000001
 30
0.0
  0
VERTEX
  5
3BC
  8
0
 10
2.0972299999999988
 20
4.0140399999999996
 30
0.0
  0
VERTEX
  5
3BD
  8
0
 10
2.172429999999999
 20
4.003029999999999
 30
0.0
  0
VERTEX
  5
3BE
  8
0
 10
2.24763
 20
3.991849999999999
 30
0.0
  0
VERTEX
  5
3BF
  8
0
 10
2.3228299999999988
 20
3.9805000000000001
 30
0.0
  0
VERTEX
  5
3C0
  8
0
 10
2.398029999999999
 20
3.9689800000000002
 30
0.0
  0
VERTEX
  5
3C1
  8
0
 10
2.47323
 20
3.95729
 30
0.0
  0
VERTEX
  5
3C2
  8
0
 10
2.5484299999999989
 20
3.9454199999999999
 30
0.0
  0
VERTEX
  5
3C3
  8
0
 10
2.623629999999999
 20
3.9333800000000001
 30
0.0
  0
VERTEX
  5
3C4
  8
0
 10
2.6988300000000001
 20
3.9211699999999992
 30
0.0
  0
VERTEX
  5
3C5
  8
0
 10
2.7740299999999989
 20
3.9087699999999992
 30
0.0
  0
VERTEX
  5
3C6
  8
0
 10
2.8492299999999999
 20
3.896199999999999
 30
0.0
  0
VERTEX
  5
3C7
  8
0
 10
2.9244300000000001
 20
3.8834399999999998
 30
0.0
  0
VERTEX
  5
3C8
  8
0
 10
2.9996299999999989
 20
3.8704999999999989
 30
0.0
  0
VERTEX
  5
3C9
  8
0
 10
3.0748299999999991
 20
3.8573699999999991
 30
0.0
  0
VERTEX
  5
3CA
  8
0
 10
3.1500300000000001
 20
3.8440500000000002
 30
0.0
  0
VERTEX
  5
3CB
  8
0
 10
3.2252299999999989
 20
3.8305400000000001
 30
0.0
  0
VERTEX
  5
3CC
  8
0
 10
3.30043
 20
3.8168299999999999
 30
0.0
  0
VERTEX
  5
3CD
  8
0
 10
3.3756300000000001
 20
3.802919999999999
 30
0.0
  0
VERTEX
  5
3CE
  8
0
 10
3.4508299999999998
 20
3.788819999999999
 30
0.0
  0
VERTEX
  5
3CF
  8
0
 10
3.52603
 20
3.7745099999999989
 30
0.0
  0
VERTEX
  5
3D0
  8
0
 10
3.6012300000000002
 20
3.7599900000000002
 30
0.0
  0
VERTEX
  5
3D1
  8
0
 10
3.6764299999999999
 20
3.74526
 30
0.0
  0
VERTEX
  5
3D2
  8
0
 10
3.75163
 20
3.730319999999999
 30
0.0
  0
VERTEX
  5
3D3
  8
0
 10
3.8268199999999988
 20
3.71516
 30
0.0
  0
VERTEX
  5
3D4
  8
0
 10
3.9020199999999989
 20
3.6997800000000001
 30
0.0
  0
VERTEX
  5
3D5
  8
0
 10
3.9772199999999991
 20
3.68418
 30
0.0
  0
VERTEX
  5
3D6
  8
0
 10
4.0524199999999988
 20
3.668359999999999
 30
0.0
  0
VERTEX
  5
3D7
  8
0
 10
4.1276199999999994
 20
3.6523099999999991
 30
0.0
  0
VERTEX
  5
3D8
  8
0
 10
4.20282
 20
3.6360299999999999
 30
0.0
  0
VERTEX
  5
3D9
  8
0
 10
4.2780199999999988
 20
3.61951
 30
0.0
  0
VERTEX
  5
3DA
  8
0
 10
4.3532199999999994
 20
3.6027599999999991
 30
0.0
  0
VERTEX
  5
3DB
  8
0
 10
4.42842
 20
3.5857699999999988
 30
0.0
  0
VERTEX
  5
3DC
  8
0
 10
4.5036199999999988
 20
3.56854
 30
0.0
  0
VERTEX
  5
3DD
  8
0
 10
4.5788199999999986
 20
3.5510599999999992
 30
0.0
  0
VERTEX
  5
3DE
  8
0
 10
4.65402
 20
3.5333299999999999
 30
0.0
  0
VERTEX
  5
3DF
  8
0
 10
4.7292199999999989
 20
3.5153599999999989
 30
0.0
  0
VERTEX
  5
3E0
  8
0
 10
4.8044199999999986
 20
3.4971299999999998
 30
0.0
  0
VERTEX
  5
3E1
  8
0
 10
4.8796200000000001
 20
3.4786399999999991
 30
0.0
  0
VERTEX
  5
3E2
  8
0
 10
4.9548199999999989
 20
3.4599000000000002
 30
0.0
  0
VERTEX
  5
3E3
  8
0
 10
5.0300199999999986
 20
3.44089
 30
0.0
  0
VERTEX
  5
3E4
  8
0
 10
5.1052200000000001
 20
3.421619999999999
 30
0.0
  0
VERTEX
  5
3E5
  8
0
 10
5.1804199999999989
 20
3.4020800000000002
 30
0.0
  0
VERTEX
  5
3E6
  8
0
 10
5.2556199999999986
 20
3.38226
 30
0.0
  0
VERTEX
  5
3E7
  8
0
 10
5.3308200000000001
 20
3.3621599999999989
 30
0.0
  0
VERTEX
  5
3E8
  8
0
 10
5.4060199999999989
 20
3.341769999999999
 30
0.0
  0
VERTEX
  5
3E9
  8
0
 10
5.4812199999999986
 20
3.3210899999999999
 30
0.0
  0
VERTEX
  5
3EA
  8
0
 10
5.5564200000000001
 20
3.3001099999999992
 30
0.0
  0
VERTEX
  5
3EB
  8
0
 10
5.631619999999999
 20
3.2788199999999992
 30
0.0
  0
VERTEX
  5
3EC
  8
0
 10
5.7068099999999991
 20
3.2572199999999998
 30
0.0
  0
VERTEX
  5
3ED
  8
0
 10
5.7820099999999988
 20
3.2353000000000001
 30
0.0
  0
VERTEX
  5
3EE
  8
0
 10
5.8572100000000002
 20
3.21306
 30
0.0
  0
VERTEX
  5
3EF
  8
0
 10
5.9324099999999991
 20
3.19049
 30
0.0
  0
VERTEX
  5
3F0
  8
0
 10
6.0076099999999988
 20
3.1675800000000001
 30
0.0
  0
VERTEX
  5
3F1
  8
0
 10
6.0828100000000003
 20
3.14432
 30
0.0
  0
VERTEX
  5
3F2
  8
0
 10
6.1580099999999991
 20
3.120709999999999
 30
0.0
  0
VERTEX
  5
3F3
  8
0
 10
6.2332099999999988
 20
3.0967299999999991
 30
0.0
  0
VERTEX
  5
3F4
  8
0
 10
6.3084100000000003
 20
3.0723699999999998
 30
0.0
  0
VERTEX
  5
3F5
  8
0
 10
6.38361
 20
3.047629999999999
 30
0.0
  0
VERTEX
  5
3F6
  8
0
 10
6.4588099999999988
 20
3.0224799999999989
 30
0.0
  0
VERTEX
  5
3F7
  8
0
 10
6.5340099999999994
 20
2.996929999999999
 30
0.0
  0
VERTEX
  5
3F8
  8
0
 10
6.60921
 20
2.9709500000000002
 30
0.0
  0
VERTEX
  5
3F9
  8
0
 10
6.6844099999999997
 20
2.944539999999999
 30
0.0
  0
VERTEX
  5
3FA
  8
0
 10
6.7596100000000003
 20
2.9176799999999989
 30
0.0
  0
VERTEX
  5
3FB
  8
0
 10
6.8348100000000001
 20
2.890369999999999
 30
0.0
  0
VERTEX
  5
3FC
  8
0
 10
6.9100099999999998
 20
2.8625899999999991
 30
0.0
  0
VERTEX
  5
3FD
  8
0
 10
6.9852100000000004
 20
2.8343199999999991
 30
0.0
  0
VERTEX
  5
3FE
  8
0
 10
7.0604100000000001
 20
2.805569999999999
 30
0.0
  0
VERTEX
  5
3FF
  8
0
 10
7.1356099999999998
 20
2.7763100000000001
 30
0.0
  0
VERTEX
  5
400
  8
0
 10
7.2108100000000004
 20
2.74655
 30
0.0
  0
VERTEX
  5
401
  8
0
 10
7.2860100000000001
 20
2.7162700000000002
 30
0.0
  0
VERTEX
  5
402
  8
0
 10
7.3612099999999998
 20
2.6854599999999991
 30
0.0
  0
VERTEX
  5
403
  8
0
 10
7.4364100000000004
 20
2.654129999999999
 30
0.0
  0
VERTEX
  5
404
  8
0
 10
7.511610000000001
 20
2.6222599999999989
 30
0.0
  0
VERTEX
  5
405
  8
0
 10
7.5868099999999998
 20
2.5898500000000002
 30
0.0
  0
VERTEX
  5
406
  8
0
 10
7.6619999999999999
 20
2.55688
 30
0.0
  0
VERTEX
  5
407
  8
0
 10
7.7371999999999987
 20
2.5233099999999991
 30
0.0
  0
VERTEX
  5
408
  8
0
 10
7.8124000000000002
 20
2.4891200000000002
 30
0.0
  0
VERTEX
  5
409
  8
0
 10
7.8875999999999991
 20
2.4542799999999989
 30
0.0
  0
VERTEX
  5
40A
  8
0
 10
7.9627999999999988
 20
2.4187599999999989
 30
0.0
  0
VERTEX
  5
40B
  8
0
 10
8.0380000000000003
 20
2.3825400000000001
 30
0.0
  0
VERTEX
  5
40C
  8
0
 10
8.1132000000000009
 20
2.345569999999999
 30
0.0
  0
VERTEX
  5
40D
  8
0
 10
8.1883999999999997
 20
2.3078400000000001
 30
0.0
  0
VERTEX
  5
40E
  8
0
 10
8.2636000000000003
 20
2.269299999999999
 30
0.0
  0
VERTEX
  5
40F
  8
0
 10
8.3388000000000009
 20
2.229919999999999
 30
0.0
  0
VERTEX
  5
410
  8
0
 10
8.4139999999999997
 20
2.1896599999999991
 30
0.0
  0
VERTEX
  5
411
  8
0
 10
8.4892000000000003
 20
2.14846
 30
0.0
  0
VERTEX
  5
412
  8
0
 10
8.5643999999999991
 20
2.1062400000000001
 30
0.0
  0
VERTEX
  5
413
  8
0
 10
8.6395999999999997
 20
2.0629200000000001
 30
0.0
  0
VERTEX
  5
414
  8
0
 10
8.7148000000000003
 20
2.0184099999999989
 30
0.0
  0
VERTEX
  5
415
  8
0
 10
8.7899999999999991
 20
1.9726399999999999
 30
0.0
  0
VERTEX
  5
416
  8
0
 10
8.8651999999999997
 20
1.92554
 30
0.0
  0
VERTEX
  5
417
  8
0
 10
8.9404000000000003
 20
1.8771
 30
0.0
  0
VERTEX
  5
418
  8
0
 10
9.0155999999999992
 20
1.8273099999999991
 30
0.0
  0
VERTEX
  5
419
  8
0
 10
9.0907999999999998
 20
1.7761599999999991
 30
0.0
  0
VERTEX
  5
41A
  8
0
 10
9.1660000000000004
 20
1.7236199999999999
 30
0.0
  0
VERTEX
  5
41B
  8
0
 10
9.2411999999999992
 20
1.6696899999999999
 30
0.0
  0
VERTEX
  5
41C
  8
0
 10
9.3163999999999998
 20
1.61416
 30
0.0
  0
VERTEX
  5
41D
  8
0
 10
9.3916000000000004
 20
1.5567500000000001
 30
0.0
  0
VERTEX
  5
41E
  8
0
 10
9.4667999999999992
 20
1.4971699999999999
 30
0.0
  0
VERTEX
  5
41F
  8
0
 10
9.5419999999999998
 20
1.4351100000000001
 30
0.0
  0
VERTEX
  5
420
  8
0
 10
9.617189999999999
 20
1.37029
 30
0.0
  0
VERTEX
  5
421
  8
0
 10
9.6923899999999996
 20
1.3019999999999989
 30
0.0
  0
VERTEX
  5
422
  8
0
 10
9.7675900000000002
 20
1.229139999999999
 30
0.0
  0
VERTEX
  5
423
  8
0
 10
9.842789999999999
 20
1.1508899999999991
 30
0.0
  0
VERTEX
  5
424
  8
0
 10
9.9179899999999996
 20
1.066779999999999
 30
0.0
  0
VERTEX
  5
425
  8
0
 10
9.9931900000000002
 20
0.97711
 30
0.0
  0
VERTEX
  5
426
  8
0
 10
10.0683900000000008
 20
0.8823200000000001
 30
0.0
  0
VERTEX
  5
427
  8
0
 10
10.1435899999999997
 20
0.78282
 30
0.0
  0
VERTEX
  5
428
  8
0
 10
10.2187900000000003
 20
0.6728800000000001
 30
0.0
  0
VERTEX
  5
429
  8
0
 10
10.2939900000000009
 20
0.53435
 30
0.0
  0
VERTEX
  5
42A
  8
0
 10
10.3691899999999997
 20
0.34746
 30
0.0
  0
VERTEX
  5
42B
  8
0
 10
10.4443900000000003
 20
0.09244
 30
0.0
  0
VERTEX
  5
42C
  8
0
 10
10.4443900000000003
 20
-0.12045
 30
0.0
  0
VERTEX
  5
42D
  8
0
 10
10.3498699999999992
 20
-0.28732
 30
0.0
  0
VERTEX
  5
42E
  8
0
 10
10.25535
 20
-0.40622
 30
0.0
  0
VERTEX
  5
42F
  8
0
 10
10.1608300000000007
 20
-0.4895600000000001
 30
0.0
  0
VERTEX
  5
430
  8
0
 10
10.0663
 20
-0.5497600000000001
 30
0.0
  0
VERTEX
  5
431
  8
0
 10
9.9717800000000008
 20
-0.59922
 30
0.0
  0
VERTEX
  5
432
  8
0
 10
9.8772599999999997
 20
-0.64756
 30
0.0
  0
VERTEX
  5
433
  8
0
 10
9.7827399999999987
 20
-0.69567
 30
0.0
  0
VERTEX
  5
434
  8
0
 10
9.6882199999999994
 20
-0.74268
 30
0.0
  0
VERTEX
  5
435
  8
0
 10
9.5937000000000001
 20
-0.78774
 30
0.0
  0
VERTEX
  5
436
  8
0
 10
9.4991800000000008
 20
-0.8298200000000001
 30
0.0
  0
VERTEX
  5
437
  8
0
 10
9.4046500000000002
 20
-0.8690000000000001
 30
0.0
  0
VERTEX
  5
438
  8
0
 10
9.3101299999999991
 20
-0.9056599999999999
 30
0.0
  0
VERTEX
  5
439
  8
0
 10
9.2156099999999999
 20
-0.94015
 30
0.0
  0
VERTEX
  5
43A
  8
0
 10
9.1210899999999988
 20
-0.9728100000000001
 30
0.0
  0
VERTEX
  5
43B
  8
0
 10
9.0265699999999995
 20
-1.0039299999999991
 30
0.0
  0
VERTEX
  5
43C
  8
0
 10
8.9320500000000003
 20
-1.0337099999999999
 30
0.0
  0
VERTEX
  5
43D
  8
0
 10
8.8375199999999996
 20
-1.0624
 30
0.0
  0
VERTEX
  5
43E
  8
0
 10
8.7430000000000003
 20
-1.0902000000000001
 30
0.0
  0
VERTEX
  5
43F
  8
0
 10
8.6484800000000011
 20
-1.1172699999999991
 30
0.0
  0
VERTEX
  5
440
  8
0
 10
8.55396
 20
-1.1435799999999989
 30
0.0
  0
VERTEX
  5
441
  8
0
 10
8.4594399999999972
 20
-1.16913
 30
0.0
  0
VERTEX
  5
442
  8
0
 10
8.3649199999999997
 20
-1.193889999999999
 30
0.0
  0
VERTEX
  5
443
  8
0
 10
8.2704000000000004
 20
-1.2178599999999991
 30
0.0
  0
VERTEX
  5
444
  8
0
 10
8.1758699999999997
 20
-1.2410600000000001
 30
0.0
  0
VERTEX
  5
445
  8
0
 10
8.0813500000000005
 20
-1.26356
 30
0.0
  0
VERTEX
  5
446
  8
0
 10
7.9868300000000003
 20
-1.28539
 30
0.0
  0
VERTEX
  5
447
  8
0
 10
7.8923100000000002
 20
-1.3066199999999999
 30
0.0
  0
VERTEX
  5
448
  8
0
 10
7.7977899999999991
 20
-1.32728
 30
0.0
  0
VERTEX
  5
449
  8
0
 10
7.703269999999999
 20
-1.3474099999999991
 30
0.0
  0
VERTEX
  5
44A
  8
0
 10
7.6087399999999992
 20
-1.3670599999999991
 30
0.0
  0
VERTEX
  5
44B
  8
0
 10
7.514219999999999
 20
-1.3862499999999991
 30
0.0
  0
VERTEX
  5
44C
  8
0
 10
7.4196999999999989
 20
-1.40503
 30
0.0
  0
VERTEX
  5
44D
  8
0
 10
7.3251799999999996
 20
-1.4233999999999991
 30
0.0
  0
VERTEX
  5
44E
  8
0
 10
7.2306600000000003
 20
-1.44137
 30
0.0
  0
VERTEX
  5
44F
  8
0
 10
7.1361399999999993
 20
-1.4589499999999991
 30
0.0
  0
VERTEX
  5
450
  8
0
 10
7.0416199999999991
 20
-1.4761599999999999
 30
0.0
  0
VERTEX
  5
451
  8
0
 10
6.9470899999999993
 20
-1.4929899999999989
 30
0.0
  0
VERTEX
  5
452
  8
0
 10
6.8525700000000001
 20
-1.5094599999999989
 30
0.0
  0
VERTEX
  5
453
  8
0
 10
6.758049999999999
 20
-1.525579999999999
 30
0.0
  0
VERTEX
  5
454
  8
0
 10
6.6635299999999997
 20
-1.541339999999999
 30
0.0
  0
VERTEX
  5
455
  8
0
 10
6.5690099999999996
 20
-1.5567599999999999
 30
0.0
  0
VERTEX
  5
456
  8
0
 10
6.4744900000000003
 20
-1.5718499999999991
 30
0.0
  0
VERTEX
  5
457
  8
0
 10
6.3799700000000001
 20
-1.5866199999999999
 30
0.0
  0
VERTEX
  5
458
  8
0
 10
6.2854400000000004
 20
-1.601089999999999
 30
0.0
  0
VERTEX
  5
459
  8
0
 10
6.1909199999999993
 20
-1.6152500000000001
 30
0.0
  0
VERTEX
  5
45A
  8
0
 10
6.0964
 20
-1.6291299999999991
 30
0.0
  0
VERTEX
  5
45B
  8
0
 10
6.001879999999999
 20
-1.6427400000000001
 30
0.0
  0
VERTEX
  5
45C
  8
0
 10
5.9073599999999988
 20
-1.6560900000000001
 30
0.0
  0
VERTEX
  5
45D
  8
0
 10
5.8128399999999996
 20
-1.66919
 30
0.0
  0
VERTEX
  5
45E
  8
0
 10
5.7183099999999989
 20
-1.682059999999999
 30
0.0
  0
VERTEX
  5
45F
  8
0
 10
5.6237899999999996
 20
-1.6947000000000001
 30
0.0
  0
VERTEX
  5
460
  8
0
 10
5.5292699999999986
 20
-1.7071199999999991
 30
0.0
  0
VERTEX
  5
461
  8
0
 10
5.4347500000000002
 20
-1.71933
 30
0.0
  0
VERTEX
  5
462
  8
0
 10
5.34023
 20
-1.7313400000000001
 30
0.0
  0
VERTEX
  5
463
  8
0
 10
5.245709999999999
 20
-1.7431499999999991
 30
0.0
  0
VERTEX
  5
464
  8
0
 10
5.1511899999999988
 20
-1.754759999999999
 30
0.0
  0
VERTEX
  5
465
  8
0
 10
5.056659999999999
 20
-1.766179999999999
 30
0.0
  0
VERTEX
  5
466
  8
0
 10
4.9621399999999989
 20
-1.7774000000000001
 30
0.0
  0
VERTEX
  5
467
  8
0
 10
4.8676199999999987
 20
-1.7884299999999991
 30
0.0
  0
VERTEX
  5
468
  8
0
 10
4.7731000000000003
 20
-1.7992699999999999
 30
0.0
  0
VERTEX
  5
469
  8
0
 10
4.6785800000000002
 20
-1.8099299999999989
 30
0.0
  0
VERTEX
  5
46A
  8
0
 10
4.58406
 20
-1.8204
 30
0.0
  0
VERTEX
  5
46B
  8
0
 10
4.4895300000000002
 20
-1.8306899999999999
 30
0.0
  0
VERTEX
  5
46C
  8
0
 10
4.3950100000000001
 20
-1.8407999999999991
 30
0.0
  0
VERTEX
  5
46D
  8
0
 10
4.300489999999999
 20
-1.8507400000000001
 30
0.0
  0
VERTEX
  5
46E
  8
0
 10
4.2059699999999989
 20
-1.860509999999999
 30
0.0
  0
VERTEX
  5
46F
  8
0
 10
4.1114499999999987
 20
-1.8701099999999999
 30
0.0
  0
VERTEX
  5
470
  8
0
 10
4.0169300000000003
 20
-1.8795500000000001
 30
0.0
  0
VERTEX
  5
471
  8
0
 10
3.9224099999999988
 20
-1.88883
 30
0.0
  0
VERTEX
  5
472
  8
0
 10
3.8278799999999999
 20
-1.8979499999999989
 30
0.0
  0
VERTEX
  5
473
  8
0
 10
3.7333599999999989
 20
-1.9069199999999999
 30
0.0
  0
VERTEX
  5
474
  8
0
 10
3.6388400000000001
 20
-1.915729999999999
 30
0.0
  0
VERTEX
  5
475
  8
0
 10
3.544319999999999
 20
-1.9244000000000001
 30
0.0
  0
VERTEX
  5
476
  8
0
 10
3.4498000000000002
 20
-1.93292
 30
0.0
  0
VERTEX
  5
477
  8
0
 10
3.35528
 20
-1.941309999999999
 30
0.0
  0
VERTEX
  5
478
  8
0
 10
3.260759999999999
 20
-1.9495599999999991
 30
0.0
  0
VERTEX
  5
479
  8
0
 10
3.1662300000000001
 20
-1.95767
 30
0.0
  0
VERTEX
  5
47A
  8
0
 10
3.0717099999999991
 20
-1.965649999999999
 30
0.0
  0
VERTEX
  5
47B
  8
0
 10
2.9771899999999998
 20
-1.9734999999999989
 30
0.0
  0
VERTEX
  5
47C
  8
0
 10
2.8826700000000001
 20
-1.981209999999999
 30
0.0
  0
VERTEX
  5
47D
  8
0
 10
2.788149999999999
 20
-1.988799999999999
 30
0.0
  0
VERTEX
  5
47E
  8
0
 10
2.6936299999999989
 20
-1.9962500000000001
 30
0.0
  0
VERTEX
  5
47F
  8
0
 10
2.5990999999999991
 20
-2.003579999999999
 30
0.0
  0
VERTEX
  5
480
  8
0
 10
2.5045799999999989
 20
-2.0107900000000001
 30
0.0
  0
VERTEX
  5
481
  8
0
 10
2.4100599999999992
 20
-2.0178599999999989
 30
0.0
  0
VERTEX
  5
482
  8
0
 10
2.315539999999999
 20
-2.0248099999999991
 30
0.0
  0
VERTEX
  5
483
  8
0
 10
2.2210200000000002
 20
-2.0316399999999999
 30
0.0
  0
VERTEX
  5
484
  8
0
 10
2.1265000000000001
 20
-2.038349999999999
 30
0.0
  0
VERTEX
  5
485
  8
0
 10
2.031979999999999
 20
-2.044929999999999
 30
0.0
  0
VERTEX
  5
486
  8
0
 10
1.937449999999999
 20
-2.05139
 30
0.0
  0
VERTEX
  5
487
  8
0
 10
1.8429299999999991
 20
-2.0577399999999999
 30
0.0
  0
VERTEX
  5
488
  8
0
 10
1.7484099999999989
 20
-2.0639599999999989
 30
0.0
  0
VERTEX
  5
489
  8
0
 10
1.6538900000000001
 20
-2.070069999999999
 30
0.0
  0
VERTEX
  5
48A
  8
0
 10
1.5593699999999999
 20
-2.07606
 30
0.0
  0
VERTEX
  5
48B
  8
0
 10
1.46485
 20
-2.0819299999999989
 30
0.0
  0
VERTEX
  5
48C
  8
0
 10
1.3703199999999991
 20
-2.0876899999999998
 30
0.0
  0
VERTEX
  5
48D
  8
0
 10
1.2758
 20
-2.093329999999999
 30
0.0
  0
VERTEX
  5
48E
  8
0
 10
1.181279999999999
 20
-2.0988599999999988
 30
0.0
  0
VERTEX
  5
48F
  8
0
 10
1.0867599999999991
 20
-2.1042700000000001
 30
0.0
  0
VERTEX
  5
490
  8
0
 10
0.9922399999999999
 20
-2.1095700000000002
 30
0.0
  0
VERTEX
  5
491
  8
0
 10
0.8977199999999999
 20
-2.114749999999999
 30
0.0
  0
VERTEX
  5
492
  8
0
 10
0.8032
 20
-2.119829999999999
 30
0.0
  0
VERTEX
  5
493
  8
0
 10
0.7086700000000001
 20
-2.1247899999999991
 30
0.0
  0
VERTEX
  5
494
  8
0
 10
0.61415
 20
-2.1296400000000002
 30
0.0
  0
VERTEX
  5
495
  8
0
 10
0.5196300000000001
 20
-2.1343799999999988
 30
0.0
  0
VERTEX
  5
496
  8
0
 10
0.42511
 20
-2.139009999999999
 30
0.0
  0
VERTEX
  5
497
  8
0
 10
0.33059
 20
-2.1435299999999988
 30
0.0
  0
VERTEX
  5
498
  8
0
 10
0.23607
 20
-2.1479499999999989
 30
0.0
  0
VERTEX
  5
499
  8
0
 10
0.14154
 20
-2.1522600000000001
 30
0.0
  0
VERTEX
  5
49A
  8
0
 10
0.04702
 20
-2.1564700000000001
 30
0.0
  0
VERTEX
  5
49B
  8
0
 10
-0.0475
 20
-2.160569999999999
 30
0.0
  0
VERTEX
  5
49C
  8
0
 10
-0.14202
 20
-2.164569999999999
 30
0.0
  0
VERTEX
  5
49D
  8
0
 10
-0.23654
 20
-2.1684700000000001
 30
0.0
  0
VERTEX
  5
49E
  8
0
 10
-0.3310599999999999
 20
-2.1722700000000001
 30
0.0
  0
VERTEX
  5
49F
  8
0
 10
-0.42558
 20
-2.17598
 30
0.0
  0
VERTEX
  5
4A0
  8
0
 10
-0.5201100000000001
 20
-2.1795800000000001
 30
0.0
  0
VERTEX
  5
4A1
  8
0
 10
-0.61463
 20
-2.1830899999999991
 30
0.0
  0
VERTEX
  5
4A2
  8
0
 10
-0.7091499999999999
 20
-2.1865000000000001
 30
0.0
  0
VERTEX
  5
4A3
  8
0
 10
-0.8036699999999999
 20
-2.1898200000000001
 30
0.0
  0
VERTEX
  5
4A4
  8
0
 10
-0.8981899999999999
 20
-2.1930399999999999
 30
0.0
  0
VERTEX
  5
4A5
  8
0
 10
-0.9927099999999999
 20
-2.19618
 30
0.0
  0
VERTEX
  5
4A6
  8
0
 10
-1.087229999999999
 20
-2.199209999999999
 30
0.0
  0
VERTEX
  5
4A7
  8
0
 10
-1.1817599999999999
 20
-2.2021599999999988
 30
0.0
  0
VERTEX
  5
4A8
  8
0
 10
-1.276279999999999
 20
-2.2050099999999988
 30
0.0
  0
VERTEX
  5
4A9
  8
0
 10
-1.3708
 20
-2.20777
 30
0.0
  0
VERTEX
  5
4AA
  8
0
 10
-1.46532
 20
-2.2104400000000002
 30
0.0
  0
VERTEX
  5
4AB
  8
0
 10
-1.559839999999999
 20
-2.2130099999999988
 30
0.0
  0
VERTEX
  5
4AC
  8
0
 10
-1.6543599999999989
 20
-2.2154899999999991
 30
0.0
  0
VERTEX
  5
4AD
  8
0
 10
-1.7488900000000001
 20
-2.2178800000000001
 30
0.0
  0
VERTEX
  5
4AE
  8
0
 10
-1.8434099999999991
 20
-2.22018
 30
0.0
  0
VERTEX
  5
4AF
  8
0
 10
-1.937929999999999
 20
-2.2223799999999989
 30
0.0
  0
VERTEX
  5
4B0
  8
0
 10
-2.032449999999999
 20
-2.2244899999999999
 30
0.0
  0
VERTEX
  5
4B1
  8
0
 10
-2.12697
 20
-2.2265099999999989
 30
0.0
  0
VERTEX
  5
4B2
  8
0
 10
-2.2214900000000002
 20
-2.2284399999999991
 30
0.0
  0
VERTEX
  5
4B3
  8
0
 10
-2.316009999999999
 20
-2.23028
 30
0.0
  0
VERTEX
  5
4B4
  8
0
 10
-2.4105400000000001
 20
-2.232019999999999
 30
0.0
  0
VERTEX
  5
4B5
  8
0
 10
-2.505059999999999
 20
-2.2336800000000001
 30
0.0
  0
VERTEX
  5
4B6
  8
0
 10
-2.59958
 20
-2.2352400000000001
 30
0.0
  0
VERTEX
  5
4B7
  8
0
 10
-2.6941000000000002
 20
-2.2367099999999991
 30
0.0
  0
VERTEX
  5
4B8
  8
0
 10
-2.788619999999999
 20
-2.2380900000000001
 30
0.0
  0
VERTEX
  5
4B9
  8
0
 10
-2.88314
 20
-2.2393700000000001
 30
0.0
  0
VERTEX
  5
4BA
  8
0
 10
-2.9776699999999998
 20
-2.2405699999999991
 30
0.0
  0
VERTEX
  5
4BB
  8
0
 10
-3.0721899999999991
 20
-2.2416700000000001
 30
0.0
  0
VERTEX
  5
4BC
  8
0
 10
-3.1667099999999988
 20
-2.24268
 30
0.0
  0
VERTEX
  5
4BD
  8
0
 10
-3.261229999999999
 20
-2.2435999999999989
 30
0.0
  0
VERTEX
  5
4BE
  8
0
 10
-3.35575
 20
-2.244429999999999
 30
0.0
  0
VERTEX
  5
4BF
  8
0
 10
-3.4502699999999988
 20
-2.245169999999999
 30
0.0
  0
VERTEX
  5
4C0
  8
0
 10
-3.5447899999999999
 20
-2.2458099999999992
 30
0.0
  0
VERTEX
  5
4C1
  8
0
 10
-3.6393199999999988
 20
-2.2463599999999988
 30
0.0
  0
VERTEX
  5
4C2
  8
0
 10
-3.7338399999999998
 20
-2.24682
 30
0.0
  0
VERTEX
  5
4C3
  8
0
 10
-3.7338399999999998
 20
-1.595729999999999
 30
0.0
  0
VERTEX
  5
4C4
  8
0
 10
-3.3431099999999989
 20
-1.595729999999999
 30
0.0
  0
VERTEX
  5
4C5
  8
0
 10
-3.3431099999999989
 20
-1.6562399999999999
 30
0.0
  0
VERTEX
  5
4C6
  8
0
 10
3.3431099999999989
 20
-1.6562399999999999
 30
0.0
  0
VERTEX
  5
4C7
  8
0
 10
0.25408
 20
3.8801099999999988
 30
0.0
  0
VERTEX
  5
4C8
  8
0
 10
0.0
 20
0.0
 30
0.0
  0
SEQEND
  5
4C9
  8
0
  0
ENDSEC
  0
EOF
