  0
SECTION
  2
HEADER
  9
$ACADVER
  1
AC1009
  9
$INSBASE
 10
0.0
 20
0.0
 30
0.0
  9
$EXTMIN
 10
-6.9043099999999997
 20
-1.485849999999999
 30
0.0
  9
$EXTMAX
 10
2.7617199999999991
 20
2.858909999999999
 30
0.0
  9
$LIMMIN
 10
0.0
 20
0.0
  9
$LIMMAX
 10
12.0
 20
9.0
  9
$ORTHOMODE
 70
     0
  9
$REGENMODE
 70
     1
  9
$FILLMODE
 70
     1
  9
$QTEXTMODE
 70
     0
  9
$MIRRTEXT
 70
     0
  9
$DRAGMODE
 70
     2
  9
$LTSCALE
 40
1.0
  9
$OSMODE
 70
    37
  9
$ATTMODE
 70
     1
  9
$TEXTSIZE
 40
0.2
  9
$TRACEWID
 40
0.05
  9
$TEXTSTYLE
  7
STANDARD
  9
$CLAYER
  8
0
  9
$CELTYPE
  6
BYLAYER
  9
$CECOLOR
 62
   256
  9
$DIMSCALE
 40
1.0
  9
$DIMASZ
 40
0.18
  9
$DIMEXO
 40
0.0625
  9
$DIMDLI
 40
0.38
  9
$DIMRND
 40
0.0
  9
$DIMDLE
 40
0.0
  9
$DIMEXE
 40
0.18
  9
$DIMTP
 40
0.0
  9
$DIMTM
 40
0.0
  9
$DIMTXT
 40
0.18
  9
$DIMCEN
 40
0.09
  9
$DIMTSZ
 40
0.0
  9
$DIMTOL
 70
     0
  9
$DIMLIM
 70
     0
  9
$DIMTIH
 70
     1
  9
$DIMTOH
 70
     1
  9
$DIMSE1
 70
     0
  9
$DIMSE2
 70
     0
  9
$DIMTAD
 70
     0
  9
$DIMZIN
 70
     0
  9
$DIMBLK
  1

  9
$DIMASO
 70
     1
  9
$DIMSHO
 70
     1
  9
$DIMPOST
  1

  9
$DIMAPOST
  1

  9
$DIMALT
 70
     0
  9
$DIMALTD
 70
     2
  9
$DIMALTF
 40
25.3999999999999986
  9
$DIMLFAC
 40
1.0
  9
$DIMTOFL
 70
     0
  9
$DIMTVP
 40
0.0
  9
$DIMTIX
 70
     0
  9
$DIMSOXD
 70
     0
  9
$DIMSAH
 70
     0
  9
$DIMBLK1
  1

  9
$DIMBLK2
  1

  9
$DIMSTYLE
  2
STANDARD
  9
$DIMCLRD
 70
     0
  9
$DIMCLRE
 70
     0
  9
$DIMCLRT
 70
     0
  9
$DIMTFAC
 40
1.0
  9
$DIMGAP
 40
0.09
  9
$LUNITS
 70
     2
  9
$LUPREC
 70
     4
  9
$SKETCHINC
 40
0.1
  9
$FILLETRAD
 40
0.0
  9
$AUNITS
 70
     0
  9
$AUPREC
 70
     0
  9
$MENU
  1
.
  9
$ELEVATION
 40
0.0
  9
$PELEVATION
 40
0.0
  9
$THICKNESS
 40
0.0
  9
$LIMCHECK
 70
     0
  9
$BLIPMODE
 70
     0
  9
$CHAMFERA
 40
0.0
  9
$CHAMFERB
 40
0.0
  9
$SKPOLY
 70
     0
  9
$TDCREATE
 40
2457765.7536689820699394
  9
$TDUPDATE
 40
2457765.7543402779847383
  9
$TDINDWG
 40
0.0006712963
  9
$TDUSRTIMER
 40
0.0006712963
  9
$USRTIMER
 70
     1
  9
$ANGBASE
 50
0.0
  9
$ANGDIR
 70
     0
  9
$PDMODE
 70
     0
  9
$PDSIZE
 40
0.0
  9
$PLINEWID
 40
0.0
  9
$COORDS
 70
     1
  9
$SPLFRAME
 70
     0
  9
$SPLINETYPE
 70
     6
  9
$SPLINESEGS
 70
     8
  9
$ATTDIA
 70
     1
  9
$ATTREQ
 70
     1
  9
$HANDLING
 70
     1
  9
$HANDSEED
  5
4C8
  9
$SURFTAB1
 70
     6
  9
$SURFTAB2
 70
     6
  9
$SURFTYPE
 70
     6
  9
$SURFU
 70
     6
  9
$SURFV
 70
     6
  9
$UCSNAME
  2

  9
$UCSORG
 10
0.0
 20
0.0
 30
0.0
  9
$UCSXDIR
 10
1.0
 20
0.0
 30
0.0
  9
$UCSYDIR
 10
0.0
 20
1.0
 30
0.0
  9
$PUCSNAME
  2

  9
$PUCSORG
 10
0.0
 20
0.0
 30
0.0
  9
$PUCSXDIR
 10
1.0
 20
0.0
 30
0.0
  9
$PUCSYDIR
 10
0.0
 20
1.0
 30
0.0
  9
$USERI1
 70
     0
  9
$USERI2
 70
     0
  9
$USERI3
 70
     0
  9
$USERI4
 70
     0
  9
$USERI5
 70
     0
  9
$USERR1
 40
0.0
  9
$USERR2
 40
0.0
  9
$USERR3
 40
0.0
  9
$USERR4
 40
0.0
  9
$USERR5
 40
0.0
  9
$WORLDVIEW
 70
     1
  9
$SHADEDGE
 70
     3
  9
$SHADEDIF
 70
    70
  9
$TILEMODE
 70
     1
  9
$MAXACTVP
 70
    64
  9
$PLIMCHECK
 70
     0
  9
$PEXTMIN
 10
0.0
 20
0.0
 30
0.0
  9
$PEXTMAX
 10
0.0
 20
0.0
 30
0.0
  9
$PLIMMIN
 10
0.0
 20
0.0
  9
$PLIMMAX
 10
12.0
 20
9.0
  9
$UNITMODE
 70
     0
  9
$VISRETAIN
 70
     1
  9
$PLINEGEN
 70
     0
  9
$PSLTSCALE
 70
     1
  0
ENDSEC
  0
SECTION
  2
TABLES
  0
TABLE
  2
VPORT
 70
     1
  0
VPORT
  2
*ACTIVE
 70
     0
 10
0.0
 20
0.0
 11
1.0
 21
1.0
 12
-6.9482699556758032
 22
-0.98313391416211
 13
0.0
 23
0.0
 14
0.5
 24
0.5
 15
0.5
 25
0.5
 16
0.0
 26
0.0
 36
1.0
 17
0.0
 27
0.0
 37
0.0
 40
11.6063169381293108
 41
2.58041958041958
 42
50.0
 43
0.0
 44
0.0
 50
0.0
 51
0.0
 71
     0
 72
  1000
 73
     1
 74
     3
 75
     0
 76
     1
 77
     0
 78
     0
  0
ENDTAB
  0
TABLE
  2
LTYPE
 70
     1
  0
LTYPE
  2
CONTINUOUS
 70
     0
  3
Solid line
 72
    65
 73
     0
 40
0.0
  0
ENDTAB
  0
TABLE
  2
LAYER
 70
     1
  0
LAYER
  2
0
 70
     0
 62
     7
  6
CONTINUOUS
  0
ENDTAB
  0
TABLE
  2
STYLE
 70
     2
  0
STYLE
  2
STANDARD
 70
     0
 40
0.0
 41
1.0
 50
0.0
 71
     0
 42
0.2
  3
txt
  4

  0
STYLE
  2
ANNOTATIVE
 70
     0
 40
0.0
 41
1.0
 50
0.0
 71
     0
 42
0.2
  3
txt
  4

  0
ENDTAB
  0
TABLE
  2
VIEW
 70
     0
  0
ENDTAB
  0
TABLE
  2
UCS
 70
     0
  0
ENDTAB
  0
TABLE
  2
APPID
 70
     7
  0
APPID
  2
ACAD
 70
     0
  0
APPID
  2
ACADANNOPO
 70
     0
  0
APPID
  2
ACADANNOTATIVE
 70
     0
  0
APPID
  2
ACAD_DSTYLE_DIMJAG
 70
     0
  0
APPID
  2
ACAD_DSTYLE_DIMTALN
 70
     0
  0
APPID
  2
ACAD_MLEADERVER
 70
     0
  0
APPID
  2
ACAD_NAV_VCDISPLAY
 70
     0
  0
ENDTAB
  0
TABLE
  2
DIMSTYLE
 70
     2
  0
DIMSTYLE
  2
STANDARD
 70
     0
  3

  4

  5

  6

  7

 40
1.0
 41
0.18
 42
0.0625
 43
0.38
 44
0.18
 45
0.0
 46
0.0
 47
0.0
 48
0.0
140
0.18
141
0.09
142
0.0
143
25.3999999999999986
144
1.0
145
0.0
146
1.0
147
0.09
 71
     0
 72
     0
 73
     1
 74
     1
 75
     0
 76
     0
 77
     0
 78
     0
170
     0
171
     2
172
     0
173
     0
174
     0
175
     0
176
     0
177
     0
178
     0
  0
DIMSTYLE
  2
ANNOTATIVE
 70
     0
  3

  4

  5

  6

  7

 40
0.0
 41
0.18
 42
0.0625
 43
0.38
 44
0.18
 45
0.0
 46
0.0
 47
0.0
 48
0.0
140
0.18
141
0.09
142
0.0
143
25.3999999999999986
144
1.0
145
0.0
146
1.0
147
0.09
 71
     0
 72
     0
 73
     1
 74
     1
 75
     0
 76
     0
 77
     0
 78
     0
170
     0
171
     2
172
     0
173
     0
174
     0
175
     0
176
     0
177
     0
178
     0
  0
ENDTAB
  0
ENDSEC
  0
SECTION
  2
BLOCKS
  0
BLOCK
  8
0
  2
$MODEL_SPACE
 70
     0
 10
0.0
 20
0.0
 30
0.0
  3
$MODEL_SPACE
  1

  0
ENDBLK
  5
21
  8
0
  0
BLOCK
 67
     1
  8
0
  2
$PAPER_SPACE
 70
     0
 10
0.0
 20
0.0
 30
0.0
  3
$PAPER_SPACE
  1

  0
ENDBLK
  5
5B
 67
     1
  8
0
  0
ENDSEC
  0
SECTION
  2
ENTITIES
  0
POLYLINE
  5
1F7
  8
0
 66
     1
 10
0.0
 20
0.0
 30
0.0
  0
VERTEX
  5
248
  8
0
 10
0.0
 20
0.0
 30
0.0
  0
VERTEX
  5
249
  8
0
 10
-2.1366499999999991
 20
-1.01024
 30
0.0
  0
VERTEX
  5
24A
  8
0
 10
-2.209379999999999
 20
-1.0871999999999991
 30
0.0
  0
VERTEX
  5
24B
  8
0
 10
-2.2379699999999998
 20
-1.084689999999999
 30
0.0
  0
VERTEX
  5
24C
  8
0
 10
-2.2665599999999988
 20
-1.0821499999999991
 30
0.0
  0
VERTEX
  5
24D
  8
0
 10
-2.29515
 20
-1.07959
 30
0.0
  0
VERTEX
  5
24E
  8
0
 10
-2.3237399999999999
 20
-1.07701
 30
0.0
  0
VERTEX
  5
24F
  8
0
 10
-2.3523299999999989
 20
-1.0744199999999999
 30
0.0
  0
VERTEX
  5
250
  8
0
 10
-2.3809200000000001
 20
-1.0718000000000001
 30
0.0
  0
VERTEX
  5
251
  8
0
 10
-2.40951
 20
-1.0691600000000001
 30
0.0
  0
VERTEX
  5
252
  8
0
 10
-2.4380899999999999
 20
-1.0665100000000001
 30
0.0
  0
VERTEX
  5
253
  8
0
 10
-2.4666799999999989
 20
-1.0638299999999989
 30
0.0
  0
VERTEX
  5
254
  8
0
 10
-2.4952700000000001
 20
-1.061129999999999
 30
0.0
  0
VERTEX
  5
255
  8
0
 10
-2.5238599999999991
 20
-1.0584100000000001
 30
0.0
  0
VERTEX
  5
256
  8
0
 10
-2.552449999999999
 20
-1.0556700000000001
 30
0.0
  0
VERTEX
  5
257
  8
0
 10
-2.5810399999999998
 20
-1.05291
 30
0.0
  0
VERTEX
  5
258
  8
0
 10
-2.6096300000000001
 20
-1.0501199999999999
 30
0.0
  0
VERTEX
  5
259
  8
0
 10
-2.63822
 20
-1.04732
 30
0.0
  0
VERTEX
  5
25A
  8
0
 10
-2.666809999999999
 20
-1.044489999999999
 30
0.0
  0
VERTEX
  5
25B
  8
0
 10
-2.6953999999999989
 20
-1.041639999999999
 30
0.0
  0
VERTEX
  5
25C
  8
0
 10
-2.7239900000000001
 20
-1.0387699999999991
 30
0.0
  0
VERTEX
  5
25D
  8
0
 10
-2.75258
 20
-1.0358700000000001
 30
0.0
  0
VERTEX
  5
25E
  8
0
 10
-2.781169999999999
 20
-1.03295
 30
0.0
  0
VERTEX
  5
25F
  8
0
 10
-2.8097599999999989
 20
-1.0300100000000001
 30
0.0
  0
VERTEX
  5
260
  8
0
 10
-2.8383500000000002
 20
-1.02705
 30
0.0
  0
VERTEX
  5
261
  8
0
 10
-2.8669399999999992
 20
-1.0240599999999991
 30
0.0
  0
VERTEX
  5
262
  8
0
 10
-2.895529999999999
 20
-1.02105
 30
0.0
  0
VERTEX
  5
263
  8
0
 10
-2.9241199999999998
 20
-1.0180100000000001
 30
0.0
  0
VERTEX
  5
264
  8
0
 10
-2.9527099999999988
 20
-1.01495
 30
0.0
  0
VERTEX
  5
265
  8
0
 10
-2.9813000000000001
 20
-1.0118599999999991
 30
0.0
  0
VERTEX
  5
266
  8
0
 10
-3.0098899999999991
 20
-1.00875
 30
0.0
  0
VERTEX
  5
267
  8
0
 10
-3.038479999999999
 20
-1.00562
 30
0.0
  0
VERTEX
  5
268
  8
0
 10
-3.0670700000000002
 20
-1.0024599999999999
 30
0.0
  0
VERTEX
  5
269
  8
0
 10
-3.09565
 20
-0.9992799999999999
 30
0.0
  0
VERTEX
  5
26A
  8
0
 10
-3.1242399999999999
 20
-0.99607
 30
0.0
  0
VERTEX
  5
26B
  8
0
 10
-3.1528299999999989
 20
-0.9928299999999998
 30
0.0
  0
VERTEX
  5
26C
  8
0
 10
-3.1814200000000001
 20
-0.9895700000000001
 30
0.0
  0
VERTEX
  5
26D
  8
0
 10
-3.21001
 20
-0.98628
 30
0.0
  0
VERTEX
  5
26E
  8
0
 10
-3.238599999999999
 20
-0.98297
 30
0.0
  0
VERTEX
  5
26F
  8
0
 10
-3.2671899999999998
 20
-0.9796299999999998
 30
0.0
  0
VERTEX
  5
270
  8
0
 10
-3.2957800000000002
 20
-0.97626
 30
0.0
  0
VERTEX
  5
271
  8
0
 10
-3.3243699999999992
 20
-0.9728700000000001
 30
0.0
  0
VERTEX
  5
272
  8
0
 10
-3.3529599999999991
 20
-0.9694499999999999
 30
0.0
  0
VERTEX
  5
273
  8
0
 10
-3.3815499999999989
 20
-0.9660099999999999
 30
0.0
  0
VERTEX
  5
274
  8
0
 10
-3.4101400000000002
 20
-0.9625299999999999
 30
0.0
  0
VERTEX
  5
275
  8
0
 10
-3.4387300000000001
 20
-0.9590299999999999
 30
0.0
  0
VERTEX
  5
276
  8
0
 10
-3.4673199999999991
 20
-0.9554999999999999
 30
0.0
  0
VERTEX
  5
277
  8
0
 10
-3.495909999999999
 20
-0.9519499999999999
 30
0.0
  0
VERTEX
  5
278
  8
0
 10
-3.5245000000000002
 20
-0.94837
 30
0.0
  0
VERTEX
  5
279
  8
0
 10
-3.5530900000000001
 20
-0.9447600000000002
 30
0.0
  0
VERTEX
  5
27A
  8
0
 10
-3.58168
 20
-0.94112
 30
0.0
  0
VERTEX
  5
27B
  8
0
 10
-3.610269999999999
 20
-0.9374499999999999
 30
0.0
  0
VERTEX
  5
27C
  8
0
 10
-3.6388599999999989
 20
-0.93376
 30
0.0
  0
VERTEX
  5
27D
  8
0
 10
-3.6674500000000001
 20
-0.9300399999999999
 30
0.0
  0
VERTEX
  5
27E
  8
0
 10
-3.6960399999999991
 20
-0.9262799999999998
 30
0.0
  0
VERTEX
  5
27F
  8
0
 10
-3.7246299999999999
 20
-0.9224999999999999
 30
0.0
  0
VERTEX
  5
280
  8
0
 10
-3.7532099999999988
 20
-0.9186899999999999
 30
0.0
  0
VERTEX
  5
281
  8
0
 10
-3.7818000000000001
 20
-0.9148500000000001
 30
0.0
  0
VERTEX
  5
282
  8
0
 10
-3.8103899999999991
 20
-0.9109699999999999
 30
0.0
  0
VERTEX
  5
283
  8
0
 10
-3.8389799999999998
 20
-0.90706
 30
0.0
  0
VERTEX
  5
284
  8
0
 10
-3.8675699999999988
 20
-0.90312
 30
0.0
  0
VERTEX
  5
285
  8
0
 10
-3.8961600000000001
 20
-0.89915
 30
0.0
  0
VERTEX
  5
286
  8
0
 10
-3.9247499999999991
 20
-0.8951499999999999
 30
0.0
  0
VERTEX
  5
287
  8
0
 10
-3.9533399999999999
 20
-0.8911100000000001
 30
0.0
  0
VERTEX
  5
288
  8
0
 10
-3.9819300000000002
 20
-0.8870299999999998
 30
0.0
  0
VERTEX
  5
289
  8
0
 10
-4.0105199999999988
 20
-0.88292
 30
0.0
  0
VERTEX
  5
28A
  8
0
 10
-4.0391099999999991
 20
-0.8787700000000001
 30
0.0
  0
VERTEX
  5
28B
  8
0
 10
-4.0677000000000003
 20
-0.8745799999999999
 30
0.0
  0
VERTEX
  5
28C
  8
0
 10
-4.0962899999999989
 20
-0.87035
 30
0.0
  0
VERTEX
  5
28D
  8
0
 10
-4.1248800000000001
 20
-0.8660899999999999
 30
0.0
  0
VERTEX
  5
28E
  8
0
 10
-4.1534699999999987
 20
-0.8617799999999999
 30
0.0
  0
VERTEX
  5
28F
  8
0
 10
-4.182059999999999
 20
-0.85744
 30
0.0
  0
VERTEX
  5
290
  8
0
 10
-4.2106500000000002
 20
-0.8530499999999999
 30
0.0
  0
VERTEX
  5
291
  8
0
 10
-4.2392399999999997
 20
-0.84862
 30
0.0
  0
VERTEX
  5
292
  8
0
 10
-4.26783
 20
-0.8441399999999999
 30
0.0
  0
VERTEX
  5
293
  8
0
 10
-4.2964199999999986
 20
-0.83962
 30
0.0
  0
VERTEX
  5
294
  8
0
 10
-4.3250099999999989
 20
-0.83506
 30
0.0
  0
VERTEX
  5
295
  8
0
 10
-4.3536000000000001
 20
-0.83045
 30
0.0
  0
VERTEX
  5
296
  8
0
 10
-4.3821899999999996
 20
-0.8257999999999999
 30
0.0
  0
VERTEX
  5
297
  8
0
 10
-4.4107699999999994
 20
-0.8211000000000001
 30
0.0
  0
VERTEX
  5
298
  8
0
 10
-4.4393599999999989
 20
-0.81635
 30
0.0
  0
VERTEX
  5
299
  8
0
 10
-4.4679500000000001
 20
-0.81155
 30
0.0
  0
VERTEX
  5
29A
  8
0
 10
-4.4965400000000004
 20
-0.8067099999999999
 30
0.0
  0
VERTEX
  5
29B
  8
0
 10
-4.525129999999999
 20
-0.80181
 30
0.0
  0
VERTEX
  5
29C
  8
0
 10
-4.5537199999999993
 20
-0.7968700000000001
 30
0.0
  0
VERTEX
  5
29D
  8
0
 10
-4.5823099999999988
 20
-0.79188
 30
0.0
  0
VERTEX
  5
29E
  8
0
 10
-4.6108999999999991
 20
-0.7868300000000001
 30
0.0
  0
VERTEX
  5
29F
  8
0
 10
-4.6394900000000003
 20
-0.7817400000000001
 30
0.0
  0
VERTEX
  5
2A0
  8
0
 10
-4.6680799999999998
 20
-0.7765900000000001
 30
0.0
  0
VERTEX
  5
2A1
  8
0
 10
-4.6966700000000001
 20
-0.7714
 30
0.0
  0
VERTEX
  5
2A2
  8
0
 10
-4.7252599999999987
 20
-0.7661500000000001
 30
0.0
  0
VERTEX
  5
2A3
  8
0
 10
-4.753849999999999
 20
-0.7608500000000001
 30
0.0
  0
VERTEX
  5
2A4
  8
0
 10
-4.7824400000000002
 20
-0.75549
 30
0.0
  0
VERTEX
  5
2A5
  8
0
 10
-4.8110299999999997
 20
-0.75008
 30
0.0
  0
VERTEX
  5
2A6
  8
0
 10
-4.83962
 20
-0.7446199999999999
 30
0.0
  0
VERTEX
  5
2A7
  8
0
 10
-4.8682099999999986
 20
-0.7391
 30
0.0
  0
VERTEX
  5
2A8
  8
0
 10
-4.8967999999999989
 20
-0.7335300000000001
 30
0.0
  0
VERTEX
  5
2A9
  8
0
 10
-4.9253900000000002
 20
-0.7279
 30
0.0
  0
VERTEX
  5
2AA
  8
0
 10
-4.9539799999999996
 20
-0.72222
 30
0.0
  0
VERTEX
  5
2AB
  8
0
 10
-4.9825699999999991
 20
-0.7164700000000001
 30
0.0
  0
VERTEX
  5
2AC
  8
0
 10
-5.0111600000000003
 20
-0.71067
 30
0.0
  0
VERTEX
  5
2AD
  8
0
 10
-5.0397499999999988
 20
-0.70481
 30
0.0
  0
VERTEX
  5
2AE
  8
0
 10
-5.0683299999999996
 20
-0.6988900000000001
 30
0.0
  0
VERTEX
  5
2AF
  8
0
 10
-5.096919999999999
 20
-0.6929
 30
0.0
  0
VERTEX
  5
2B0
  8
0
 10
-5.1255100000000002
 20
-0.6868400000000001
 30
0.0
  0
VERTEX
  5
2B1
  8
0
 10
-5.1540999999999988
 20
-0.6807100000000001
 30
0.0
  0
VERTEX
  5
2B2
  8
0
 10
-5.18269
 20
-0.6745100000000001
 30
0.0
  0
VERTEX
  5
2B3
  8
0
 10
-5.2112800000000004
 20
-0.66823
 30
0.0
  0
VERTEX
  5
2B4
  8
0
 10
-5.2398699999999989
 20
-0.6618800000000001
 30
0.0
  0
VERTEX
  5
2B5
  8
0
 10
-5.2684600000000001
 20
-0.65544
 30
0.0
  0
VERTEX
  5
2B6
  8
0
 10
-5.2970499999999987
 20
-0.64893
 30
0.0
  0
VERTEX
  5
2B7
  8
0
 10
-5.325639999999999
 20
-0.64232
 30
0.0
  0
VERTEX
  5
2B8
  8
0
 10
-5.3542300000000003
 20
-0.63563
 30
0.0
  0
VERTEX
  5
2B9
  8
0
 10
-5.3828199999999988
 20
-0.62884
 30
0.0
  0
VERTEX
  5
2BA
  8
0
 10
-5.4114100000000001
 20
-0.6219600000000001
 30
0.0
  0
VERTEX
  5
2BB
  8
0
 10
-5.4400000000000004
 20
-0.61498
 30
0.0
  0
VERTEX
  5
2BC
  8
0
 10
-5.468589999999999
 20
-0.6079
 30
0.0
  0
VERTEX
  5
2BD
  8
0
 10
-5.4971800000000002
 20
-0.6007100000000002
 30
0.0
  0
VERTEX
  5
2BE
  8
0
 10
-5.5257699999999987
 20
-0.59341
 30
0.0
  0
VERTEX
  5
2BF
  8
0
 10
-5.5543599999999991
 20
-0.58601
 30
0.0
  0
VERTEX
  5
2C0
  8
0
 10
-5.5829500000000003
 20
-0.5784899999999999
 30
0.0
  0
VERTEX
  5
2C1
  8
0
 10
-5.6115399999999989
 20
-0.5708600000000001
 30
0.0
  0
VERTEX
  5
2C2
  8
0
 10
-5.6401300000000001
 20
-0.5631300000000001
 30
0.0
  0
VERTEX
  5
2C3
  8
0
 10
-5.6687199999999986
 20
-0.55528
 30
0.0
  0
VERTEX
  5
2C4
  8
0
 10
-5.697309999999999
 20
-0.54734
 30
0.0
  0
VERTEX
  5
2C5
  8
0
 10
-5.7258899999999988
 20
-0.53928
 30
0.0
  0
VERTEX
  5
2C6
  8
0
 10
-5.75448
 20
-0.5311300000000001
 30
0.0
  0
VERTEX
  5
2C7
  8
0
 10
-5.7830699999999986
 20
-0.5228699999999999
 30
0.0
  0
VERTEX
  5
2C8
  8
0
 10
-5.8116599999999989
 20
-0.5145100000000001
 30
0.0
  0
VERTEX
  5
2C9
  8
0
 10
-5.8402500000000002
 20
-0.5060500000000001
 30
0.0
  0
VERTEX
  5
2CA
  8
0
 10
-5.8688399999999996
 20
-0.49747
 30
0.0
  0
VERTEX
  5
2CB
  8
0
 10
-5.8974299999999991
 20
-0.4887500000000001
 30
0.0
  0
VERTEX
  5
2CC
  8
0
 10
-5.9260199999999994
 20
-0.47989
 30
0.0
  0
VERTEX
  5
2CD
  8
0
 10
-5.9546099999999988
 20
-0.4708600000000001
 30
0.0
  0
VERTEX
  5
2CE
  8
0
 10
-5.9832000000000001
 20
-0.46166
 30
0.0
  0
VERTEX
  5
2CF
  8
0
 10
-6.0117900000000004
 20
-0.4522600000000001
 30
0.0
  0
VERTEX
  5
2D0
  8
0
 10
-6.040379999999999
 20
-0.4426600000000001
 30
0.0
  0
VERTEX
  5
2D1
  8
0
 10
-6.0689699999999993
 20
-0.43284
 30
0.0
  0
VERTEX
  5
2D2
  8
0
 10
-6.0975599999999988
 20
-0.4227899999999999
 30
0.0
  0
VERTEX
  5
2D3
  8
0
 10
-6.1261499999999991
 20
-0.4124800000000001
 30
0.0
  0
VERTEX
  5
2D4
  8
0
 10
-6.1547400000000003
 20
-0.4019000000000001
 30
0.0
  0
VERTEX
  5
2D5
  8
0
 10
-6.1833299999999998
 20
-0.39102
 30
0.0
  0
VERTEX
  5
2D6
  8
0
 10
-6.2119200000000001
 20
-0.37981
 30
0.0
  0
VERTEX
  5
2D7
  8
0
 10
-6.2405099999999987
 20
-0.36826
 30
0.0
  0
VERTEX
  5
2D8
  8
0
 10
-6.269099999999999
 20
-0.35635
 30
0.0
  0
VERTEX
  5
2D9
  8
0
 10
-6.2976900000000002
 20
-0.34404
 30
0.0
  0
VERTEX
  5
2DA
  8
0
 10
-6.3262799999999997
 20
-0.33132
 30
0.0
  0
VERTEX
  5
2DB
  8
0
 10
-6.35487
 20
-0.31816
 30
0.0
  0
VERTEX
  5
2DC
  8
0
 10
-6.383449999999999
 20
-0.30456
 30
0.0
  0
VERTEX
  5
2DD
  8
0
 10
-6.4120400000000002
 20
-0.29063
 30
0.0
  0
VERTEX
  5
2DE
  8
0
 10
-6.4406299999999996
 20
-0.27644
 30
0.0
  0
VERTEX
  5
2DF
  8
0
 10
-6.4692199999999991
 20
-0.26204
 30
0.0
  0
VERTEX
  5
2E0
  8
0
 10
-6.4978099999999994
 20
-0.24749
 30
0.0
  0
VERTEX
  5
2E1
  8
0
 10
-6.4978099999999994
 20
0.57419
 30
0.0
  0
VERTEX
  5
2E2
  8
0
 10
-6.4581799999999996
 20
0.61511
 30
0.0
  0
VERTEX
  5
2E3
  8
0
 10
-6.4185400000000001
 20
0.6537500000000001
 30
0.0
  0
VERTEX
  5
2E4
  8
0
 10
-6.3788999999999989
 20
0.6903699999999999
 30
0.0
  0
VERTEX
  5
2E5
  8
0
 10
-6.3392699999999991
 20
0.72534
 30
0.0
  0
VERTEX
  5
2E6
  8
0
 10
-6.2996299999999996
 20
0.7590500000000001
 30
0.0
  0
VERTEX
  5
2E7
  8
0
 10
-6.2599900000000002
 20
0.79162
 30
0.0
  0
VERTEX
  5
2E8
  8
0
 10
-6.2203599999999986
 20
0.82315
 30
0.0
  0
VERTEX
  5
2E9
  8
0
 10
-6.1807199999999991
 20
0.8537299999999998
 30
0.0
  0
VERTEX
  5
2EA
  8
0
 10
-6.1410900000000002
 20
0.8834899999999999
 30
0.0
  0
VERTEX
  5
2EB
  8
0
 10
-6.1014499999999989
 20
0.9125
 30
0.0
  0
VERTEX
  5
2EC
  8
0
 10
-6.0618099999999986
 20
0.9408899999999999
 30
0.0
  0
VERTEX
  5
2ED
  8
0
 10
-6.0221799999999996
 20
0.9686899999999999
 30
0.0
  0
VERTEX
  5
2EE
  8
0
 10
-5.9825400000000002
 20
0.9959100000000001
 30
0.0
  0
VERTEX
  5
2EF
  8
0
 10
-5.942899999999999
 20
1.0225599999999999
 30
0.0
  0
VERTEX
  5
2F0
  8
0
 10
-5.90327
 20
1.0486299999999991
 30
0.0
  0
VERTEX
  5
2F1
  8
0
 10
-5.8636299999999997
 20
1.07413
 30
0.0
  0
VERTEX
  5
2F2
  8
0
 10
-5.8239900000000002
 20
1.09907
 30
0.0
  0
VERTEX
  5
2F3
  8
0
 10
-5.7843599999999986
 20
1.1234399999999991
 30
0.0
  0
VERTEX
  5
2F4
  8
0
 10
-5.74472
 20
1.1472599999999991
 30
0.0
  0
VERTEX
  5
2F5
  8
0
 10
-5.7050799999999997
 20
1.1705700000000001
 30
0.0
  0
VERTEX
  5
2F6
  8
0
 10
-5.665449999999999
 20
1.193379999999999
 30
0.0
  0
VERTEX
  5
2F7
  8
0
 10
-5.6258099999999986
 20
1.2157199999999999
 30
0.0
  0
VERTEX
  5
2F8
  8
0
 10
-5.5861700000000001
 20
1.23763
 30
0.0
  0
VERTEX
  5
2F9
  8
0
 10
-5.5465400000000002
 20
1.259129999999999
 30
0.0
  0
VERTEX
  5
2FA
  8
0
 10
-5.506899999999999
 20
1.28024
 30
0.0
  0
VERTEX
  5
2FB
  8
0
 10
-5.4672700000000001
 20
1.300989999999999
 30
0.0
  0
VERTEX
  5
2FC
  8
0
 10
-5.4276299999999997
 20
1.3213799999999991
 30
0.0
  0
VERTEX
  5
2FD
  8
0
 10
-5.3879900000000003
 20
1.341429999999999
 30
0.0
  0
VERTEX
  5
2FE
  8
0
 10
-5.3483599999999987
 20
1.3611500000000001
 30
0.0
  0
VERTEX
  5
2FF
  8
0
 10
-5.3087200000000001
 20
1.3805499999999991
 30
0.0
  0
VERTEX
  5
300
  8
0
 10
-5.2690799999999998
 20
1.3996399999999991
 30
0.0
  0
VERTEX
  5
301
  8
0
 10
-5.229449999999999
 20
1.418439999999999
 30
0.0
  0
VERTEX
  5
302
  8
0
 10
-5.1898099999999987
 20
1.436939999999999
 30
0.0
  0
VERTEX
  5
303
  8
0
 10
-5.1501700000000001
 20
1.4551700000000001
 30
0.0
  0
VERTEX
  5
304
  8
0
 10
-5.1105400000000003
 20
1.4731199999999991
 30
0.0
  0
VERTEX
  5
305
  8
0
 10
-5.0708999999999991
 20
1.49082
 30
0.0
  0
VERTEX
  5
306
  8
0
 10
-5.0312599999999987
 20
1.5082699999999989
 30
0.0
  0
VERTEX
  5
307
  8
0
 10
-4.9916299999999998
 20
1.5254700000000001
 30
0.0
  0
VERTEX
  5
308
  8
0
 10
-4.9519900000000003
 20
1.54244
 30
0.0
  0
VERTEX
  5
309
  8
0
 10
-4.9123499999999991
 20
1.559189999999999
 30
0.0
  0
VERTEX
  5
30A
  8
0
 10
-4.8727199999999993
 20
1.5757099999999991
 30
0.0
  0
VERTEX
  5
30B
  8
0
 10
-4.8330799999999998
 20
1.5920099999999999
 30
0.0
  0
VERTEX
  5
30C
  8
0
 10
-4.7934499999999991
 20
1.6080899999999989
 30
0.0
  0
VERTEX
  5
30D
  8
0
 10
-4.7538099999999988
 20
1.6239499999999989
 30
0.0
  0
VERTEX
  5
30E
  8
0
 10
-4.7141699999999993
 20
1.6395999999999991
 30
0.0
  0
VERTEX
  5
30F
  8
0
 10
-4.6745400000000004
 20
1.65503
 30
0.0
  0
VERTEX
  5
310
  8
0
 10
-4.6349
 20
1.67025
 30
0.0
  0
VERTEX
  5
311
  8
0
 10
-4.5952599999999988
 20
1.6852599999999991
 30
0.0
  0
VERTEX
  5
312
  8
0
 10
-4.5556299999999998
 20
1.70007
 30
0.0
  0
VERTEX
  5
313
  8
0
 10
-4.5159900000000004
 20
1.7146699999999999
 30
0.0
  0
VERTEX
  5
314
  8
0
 10
-4.4763500000000001
 20
1.7290799999999991
 30
0.0
  0
VERTEX
  5
315
  8
0
 10
-4.4367199999999993
 20
1.7433000000000001
 30
0.0
  0
VERTEX
  5
316
  8
0
 10
-4.397079999999999
 20
1.7573299999999989
 30
0.0
  0
VERTEX
  5
317
  8
0
 10
-4.3574400000000004
 20
1.7711699999999999
 30
0.0
  0
VERTEX
  5
318
  8
0
 10
-4.3178099999999988
 20
1.784829999999999
 30
0.0
  0
VERTEX
  5
319
  8
0
 10
-4.2781699999999994
 20
1.798309999999999
 30
0.0
  0
VERTEX
  5
31A
  8
0
 10
-4.2385400000000004
 20
1.8116199999999989
 30
0.0
  0
VERTEX
  5
31B
  8
0
 10
-4.1989000000000001
 20
1.824759999999999
 30
0.0
  0
VERTEX
  5
31C
  8
0
 10
-4.1592599999999988
 20
1.8377399999999999
 30
0.0
  0
VERTEX
  5
31D
  8
0
 10
-4.119629999999999
 20
1.850549999999999
 30
0.0
  0
VERTEX
  5
31E
  8
0
 10
-4.0799899999999996
 20
1.8632099999999989
 30
0.0
  0
VERTEX
  5
31F
  8
0
 10
-4.0403500000000001
 20
1.8757099999999991
 30
0.0
  0
VERTEX
  5
320
  8
0
 10
-4.0007199999999994
 20
1.888059999999999
 30
0.0
  0
VERTEX
  5
321
  8
0
 10
-3.9610799999999999
 20
1.9002599999999989
 30
0.0
  0
VERTEX
  5
322
  8
0
 10
-3.92144
 20
1.9123099999999991
 30
0.0
  0
VERTEX
  5
323
  8
0
 10
-3.8818099999999989
 20
1.924229999999999
 30
0.0
  0
VERTEX
  5
324
  8
0
 10
-3.842169999999999
 20
1.9359999999999991
 30
0.0
  0
VERTEX
  5
325
  8
0
 10
-3.80253
 20
1.9476399999999989
 30
0.0
  0
VERTEX
  5
326
  8
0
 10
-3.7629000000000001
 20
1.9591400000000001
 30
0.0
  0
VERTEX
  5
327
  8
0
 10
-3.7232599999999989
 20
1.9705099999999991
 30
0.0
  0
VERTEX
  5
328
  8
0
 10
-3.683619999999999
 20
1.981749999999999
 30
0.0
  0
VERTEX
  5
329
  8
0
 10
-3.6439900000000001
 20
1.992859999999999
 30
0.0
  0
VERTEX
  5
32A
  8
0
 10
-3.6043500000000002
 20
2.0038399999999998
 30
0.0
  0
VERTEX
  5
32B
  8
0
 10
-3.564719999999999
 20
2.014699999999999
 30
0.0
  0
VERTEX
  5
32C
  8
0
 10
-3.52508
 20
2.0254300000000001
 30
0.0
  0
VERTEX
  5
32D
  8
0
 10
-3.4854400000000001
 20
2.0360399999999998
 30
0.0
  0
VERTEX
  5
32E
  8
0
 10
-3.4458099999999989
 20
2.0465399999999998
 30
0.0
  0
VERTEX
  5
32F
  8
0
 10
-3.406169999999999
 20
2.0569099999999989
 30
0.0
  0
VERTEX
  5
330
  8
0
 10
-3.36653
 20
2.0671699999999991
 30
0.0
  0
VERTEX
  5
331
  8
0
 10
-3.3269000000000002
 20
2.0773199999999998
 30
0.0
  0
VERTEX
  5
332
  8
0
 10
-3.287259999999999
 20
2.087359999999999
 30
0.0
  0
VERTEX
  5
333
  8
0
 10
-3.2476199999999991
 20
2.09728
 30
0.0
  0
VERTEX
  5
334
  8
0
 10
-3.2079900000000001
 20
2.1070999999999991
 30
0.0
  0
VERTEX
  5
335
  8
0
 10
-3.1683500000000002
 20
2.1168099999999992
 30
0.0
  0
VERTEX
  5
336
  8
0
 10
-3.128709999999999
 20
2.126409999999999
 30
0.0
  0
VERTEX
  5
337
  8
0
 10
-3.08908
 20
2.135899999999999
 30
0.0
  0
VERTEX
  5
338
  8
0
 10
-3.0494400000000002
 20
2.1452900000000001
 30
0.0
  0
VERTEX
  5
339
  8
0
 10
-3.0097999999999989
 20
2.1545799999999988
 30
0.0
  0
VERTEX
  5
33A
  8
0
 10
-2.9701699999999991
 20
2.163759999999999
 30
0.0
  0
VERTEX
  5
33B
  8
0
 10
-2.9305300000000001
 20
2.1728399999999999
 30
0.0
  0
VERTEX
  5
33C
  8
0
 10
-2.8908999999999989
 20
2.18181
 30
0.0
  0
VERTEX
  5
33D
  8
0
 10
-2.851259999999999
 20
2.19069
 30
0.0
  0
VERTEX
  5
33E
  8
0
 10
-2.8116199999999991
 20
2.1994599999999989
 30
0.0
  0
VERTEX
  5
33F
  8
0
 10
-2.7719900000000002
 20
2.2081400000000002
 30
0.0
  0
VERTEX
  5
340
  8
0
 10
-2.7323499999999989
 20
2.21672
 30
0.0
  0
VERTEX
  5
341
  8
0
 10
-2.692709999999999
 20
2.2252000000000001
 30
0.0
  0
VERTEX
  5
342
  8
0
 10
-2.6530800000000001
 20
2.233579999999999
 30
0.0
  0
VERTEX
  5
343
  8
0
 10
-2.6134400000000002
 20
2.24187
 30
0.0
  0
VERTEX
  5
344
  8
0
 10
-2.573799999999999
 20
2.25007
 30
0.0
  0
VERTEX
  5
345
  8
0
 10
-2.53417
 20
2.2581699999999998
 30
0.0
  0
VERTEX
  5
346
  8
0
 10
-2.4945300000000001
 20
2.266189999999999
 30
0.0
  0
VERTEX
  5
347
  8
0
 10
-2.4548899999999998
 20
2.274109999999999
 30
0.0
  0
VERTEX
  5
348
  8
0
 10
-2.4152599999999991
 20
2.2819400000000001
 30
0.0
  0
VERTEX
  5
349
  8
0
 10
-2.3756200000000001
 20
2.2896799999999988
 30
0.0
  0
VERTEX
  5
34A
  8
0
 10
-2.3359899999999998
 20
2.2973300000000001
 30
0.0
  0
VERTEX
  5
34B
  8
0
 10
-2.296349999999999
 20
2.3048899999999999
 30
0.0
  0
VERTEX
  5
34C
  8
0
 10
-2.2567099999999991
 20
2.31237
 30
0.0
  0
VERTEX
  5
34D
  8
0
 10
-2.2170799999999988
 20
2.3197700000000001
 30
0.0
  0
VERTEX
  5
34E
  8
0
 10
-2.1774399999999998
 20
2.32708
 30
0.0
  0
VERTEX
  5
34F
  8
0
 10
-2.137799999999999
 20
2.3342999999999989
 30
0.0
  0
VERTEX
  5
350
  8
0
 10
-2.0981700000000001
 20
2.34145
 30
0.0
  0
VERTEX
  5
351
  8
0
 10
-2.0585299999999989
 20
2.3485099999999992
 30
0.0
  0
VERTEX
  5
352
  8
0
 10
-2.0188899999999999
 20
2.3554900000000001
 30
0.0
  0
VERTEX
  5
353
  8
0
 10
-1.9792599999999989
 20
2.3623899999999991
 30
0.0
  0
VERTEX
  5
354
  8
0
 10
-1.9396199999999999
 20
2.369219999999999
 30
0.0
  0
VERTEX
  5
355
  8
0
 10
-1.89998
 20
2.3759600000000001
 30
0.0
  0
VERTEX
  5
356
  8
0
 10
-1.8603499999999999
 20
2.3826299999999989
 30
0.0
  0
VERTEX
  5
357
  8
0
 10
-1.8207099999999989
 20
2.3892299999999991
 30
0.0
  0
VERTEX
  5
358
  8
0
 10
-1.7810699999999999
 20
2.39575
 30
0.0
  0
VERTEX
  5
359
  8
0
 10
-1.7414400000000001
 20
2.40219
 30
0.0
  0
VERTEX
  5
35A
  8
0
 10
-1.7017999999999991
 20
2.40856
 30
0.0
  0
VERTEX
  5
35B
  8
0
 10
-1.6621699999999999
 20
2.4148499999999991
 30
0.0
  0
VERTEX
  5
35C
  8
0
 10
-1.62253
 20
2.4210699999999998
 30
0.0
  0
VERTEX
  5
35D
  8
0
 10
-1.582889999999999
 20
2.4272200000000002
 30
0.0
  0
VERTEX
  5
35E
  8
0
 10
-1.5432600000000001
 20
2.4333
 30
0.0
  0
VERTEX
  5
35F
  8
0
 10
-1.50362
 20
2.4392999999999989
 30
0.0
  0
VERTEX
  5
360
  8
0
 10
-1.4639799999999989
 20
2.44523
 30
0.0
  0
VERTEX
  5
361
  8
0
 10
-1.42435
 20
2.4510999999999989
 30
0.0
  0
VERTEX
  5
362
  8
0
 10
-1.3847100000000001
 20
2.45689
 30
0.0
  0
VERTEX
  5
363
  8
0
 10
-1.3450699999999991
 20
2.4626199999999998
 30
0.0
  0
VERTEX
  5
364
  8
0
 10
-1.305439999999999
 20
2.4682699999999991
 30
0.0
  0
VERTEX
  5
365
  8
0
 10
-1.2658
 20
2.4738599999999988
 30
0.0
  0
VERTEX
  5
366
  8
0
 10
-1.2261599999999999
 20
2.479379999999999
 30
0.0
  0
VERTEX
  5
367
  8
0
 10
-1.186529999999999
 20
2.4848300000000001
 30
0.0
  0
VERTEX
  5
368
  8
0
 10
-1.1468899999999991
 20
2.490219999999999
 30
0.0
  0
VERTEX
  5
369
  8
0
 10
-1.1072599999999999
 20
2.4955400000000001
 30
0.0
  0
VERTEX
  5
36A
  8
0
 10
-1.06762
 20
2.5007899999999998
 30
0.0
  0
VERTEX
  5
36B
  8
0
 10
-1.027979999999999
 20
2.5059800000000001
 30
0.0
  0
VERTEX
  5
36C
  8
0
 10
-0.98835
 20
2.5111099999999991
 30
0.0
  0
VERTEX
  5
36D
  8
0
 10
-0.9487099999999999
 20
2.5161699999999998
 30
0.0
  0
VERTEX
  5
36E
  8
0
 10
-0.90907
 20
2.5211600000000001
 30
0.0
  0
VERTEX
  5
36F
  8
0
 10
-0.8694399999999999
 20
2.5260899999999991
 30
0.0
  0
VERTEX
  5
370
  8
0
 10
-0.8298
 20
2.530959999999999
 30
0.0
  0
VERTEX
  5
371
  8
0
 10
-0.7901600000000001
 20
2.5357599999999989
 30
0.0
  0
VERTEX
  5
372
  8
0
 10
-0.75053
 20
2.5405099999999989
 30
0.0
  0
VERTEX
  5
373
  8
0
 10
-0.71089
 20
2.5451799999999989
 30
0.0
  0
VERTEX
  5
374
  8
0
 10
-0.6712500000000001
 20
2.549799999999999
 30
0.0
  0
VERTEX
  5
375
  8
0
 10
-0.63162
 20
2.554349999999999
 30
0.0
  0
VERTEX
  5
376
  8
0
 10
-0.5919800000000001
 20
2.55884
 30
0.0
  0
VERTEX
  5
377
  8
0
 10
-0.5523400000000001
 20
2.5632700000000002
 30
0.0
  0
VERTEX
  5
378
  8
0
 10
-0.20462
 20
2.4859399999999998
 30
0.0
  0
VERTEX
  5
379
  8
0
 10
-0.20286
 20
2.5126499999999989
 30
0.0
  0
VERTEX
  5
37A
  8
0
 10
-0.19764
 20
2.538899999999999
 30
0.0
  0
VERTEX
  5
37B
  8
0
 10
-0.18904
 20
2.5642399999999999
 30
0.0
  0
VERTEX
  5
37C
  8
0
 10
-0.1772
 20
2.5882499999999991
 30
0.0
  0
VERTEX
  5
37D
  8
0
 10
-0.16233
 20
2.6105
 30
0.0
  0
VERTEX
  5
37E
  8
0
 10
-0.14469
 20
2.6306199999999991
 30
0.0
  0
VERTEX
  5
37F
  8
0
 10
-0.12456
 20
2.6482700000000001
 30
0.0
  0
VERTEX
  5
380
  8
0
 10
-0.10231
 20
2.6631399999999998
 30
0.0
  0
VERTEX
  5
381
  8
0
 10
-0.0783
 20
2.6749800000000001
 30
0.0
  0
VERTEX
  5
382
  8
0
 10
-0.05296
 20
2.6835800000000001
 30
0.0
  0
VERTEX
  5
383
  8
0
 10
-0.02671
 20
2.6888000000000001
 30
0.0
  0
VERTEX
  5
384
  8
0
 10
0.0
 20
2.6905499999999991
 30
0.0
  0
VERTEX
  5
385
  8
0
 10
0.02671
 20
2.6888000000000001
 30
0.0
  0
VERTEX
  5
386
  8
0
 10
0.05296
 20
2.6835800000000001
 30
0.0
  0
VERTEX
  5
387
  8
0
 10
0.0783
 20
2.6749800000000001
 30
0.0
  0
VERTEX
  5
388
  8
0
 10
0.10231
 20
2.6631399999999998
 30
0.0
  0
VERTEX
  5
389
  8
0
 10
0.12456
 20
2.6482700000000001
 30
0.0
  0
VERTEX
  5
38A
  8
0
 10
0.14469
 20
2.6306199999999991
 30
0.0
  0
VERTEX
  5
38B
  8
0
 10
0.16233
 20
2.6105
 30
0.0
  0
VERTEX
  5
38C
  8
0
 10
0.1772
 20
2.5882499999999991
 30
0.0
  0
VERTEX
  5
38D
  8
0
 10
0.18904
 20
2.5642399999999999
 30
0.0
  0
VERTEX
  5
38E
  8
0
 10
0.19764
 20
2.538899999999999
 30
0.0
  0
VERTEX
  5
38F
  8
0
 10
0.20286
 20
2.5126499999999989
 30
0.0
  0
VERTEX
  5
390
  8
0
 10
0.20462
 20
2.4859399999999998
 30
0.0
  0
VERTEX
  5
391
  8
0
 10
0.53682
 20
2.4859399999999998
 30
0.0
  0
VERTEX
  5
392
  8
0
 10
0.53682
 20
2.858909999999999
 30
0.0
  0
VERTEX
  5
393
  8
0
 10
0.4872100000000001
 20
2.855319999999999
 30
0.0
  0
VERTEX
  5
394
  8
0
 10
0.4376
 20
2.8516499999999989
 30
0.0
  0
VERTEX
  5
395
  8
0
 10
0.38799
 20
2.8479000000000001
 30
0.0
  0
VERTEX
  5
396
  8
0
 10
0.33839
 20
2.844069999999999
 30
0.0
  0
VERTEX
  5
397
  8
0
 10
0.28878
 20
2.8401499999999991
 30
0.0
  0
VERTEX
  5
398
  8
0
 10
0.23917
 20
2.8361399999999999
 30
0.0
  0
VERTEX
  5
399
  8
0
 10
0.18956
 20
2.8320500000000002
 30
0.0
  0
VERTEX
  5
39A
  8
0
 10
0.13996
 20
2.8278799999999999
 30
0.0
  0
VERTEX
  5
39B
  8
0
 10
0.09035
 20
2.82361
 30
0.0
  0
VERTEX
  5
39C
  8
0
 10
0.04074
 20
2.819259999999999
 30
0.0
  0
VERTEX
  5
39D
  8
0
 10
-0.00887
 20
2.8148200000000001
 30
0.0
  0
VERTEX
  5
39E
  8
0
 10
-0.05847
 20
2.8102900000000002
 30
0.0
  0
VERTEX
  5
39F
  8
0
 10
-0.10808
 20
2.8056799999999988
 30
0.0
  0
VERTEX
  5
3A0
  8
0
 10
-0.15769
 20
2.8009699999999991
 30
0.0
  0
VERTEX
  5
3A1
  8
0
 10
-0.2073
 20
2.79617
 30
0.0
  0
VERTEX
  5
3A2
  8
0
 10
-0.2569
 20
2.791269999999999
 30
0.0
  0
VERTEX
  5
3A3
  8
0
 10
-0.30651
 20
2.7862900000000002
 30
0.0
  0
VERTEX
  5
3A4
  8
0
 10
-0.35612
 20
2.7812099999999988
 30
0.0
  0
VERTEX
  5
3A5
  8
0
 10
-0.4057300000000001
 20
2.7760299999999991
 30
0.0
  0
VERTEX
  5
3A6
  8
0
 10
-0.4553300000000001
 20
2.7707599999999988
 30
0.0
  0
VERTEX
  5
3A7
  8
0
 10
-0.5049400000000001
 20
2.7654000000000001
 30
0.0
  0
VERTEX
  5
3A8
  8
0
 10
-0.55455
 20
2.7599399999999998
 30
0.0
  0
VERTEX
  5
3A9
  8
0
 10
-0.6041600000000001
 20
2.7543799999999989
 30
0.0
  0
VERTEX
  5
3AA
  8
0
 10
-0.6537600000000001
 20
2.7487300000000001
 30
0.0
  0
VERTEX
  5
3AB
  8
0
 10
-0.7033700000000001
 20
2.7429799999999989
 30
0.0
  0
VERTEX
  5
3AC
  8
0
 10
-0.75298
 20
2.7371300000000001
 30
0.0
  0
VERTEX
  5
3AD
  8
0
 10
-0.80259
 20
2.7311799999999988
 30
0.0
  0
VERTEX
  5
3AE
  8
0
 10
-0.85219
 20
2.7251300000000001
 30
0.0
  0
VERTEX
  5
3AF
  8
0
 10
-0.9018
 20
2.7189799999999988
 30
0.0
  0
VERTEX
  5
3B0
  8
0
 10
-0.95141
 20
2.7127300000000001
 30
0.0
  0
VERTEX
  5
3B1
  8
0
 10
-1.00102
 20
2.7063799999999989
 30
0.0
  0
VERTEX
  5
3B2
  8
0
 10
-1.0506200000000001
 20
2.6999299999999988
 30
0.0
  0
VERTEX
  5
3B3
  8
0
 10
-1.1002299999999989
 20
2.693379999999999
 30
0.0
  0
VERTEX
  5
3B4
  8
0
 10
-1.1498399999999991
 20
2.686729999999999
 30
0.0
  0
VERTEX
  5
3B5
  8
0
 10
-1.199449999999999
 20
2.6799699999999991
 30
0.0
  0
VERTEX
  5
3B6
  8
0
 10
-1.2490499999999991
 20
2.6730999999999989
 30
0.0
  0
VERTEX
  5
3B7
  8
0
 10
-1.298659999999999
 20
2.6661399999999991
 30
0.0
  0
VERTEX
  5
3B8
  8
0
 10
-1.3482700000000001
 20
2.6590599999999989
 30
0.0
  0
VERTEX
  5
3B9
  8
0
 10
-1.39788
 20
2.6518799999999989
 30
0.0
  0
VERTEX
  5
3BA
  8
0
 10
-1.447479999999999
 20
2.6445899999999991
 30
0.0
  0
VERTEX
  5
3BB
  8
0
 10
-1.49709
 20
2.6371899999999999
 30
0.0
  0
VERTEX
  5
3BC
  8
0
 10
-1.5466999999999991
 20
2.6296699999999991
 30
0.0
  0
VERTEX
  5
3BD
  8
0
 10
-1.5963099999999999
 20
2.6220500000000002
 30
0.0
  0
VERTEX
  5
3BE
  8
0
 10
-1.6459099999999991
 20
2.6143099999999988
 30
0.0
  0
VERTEX
  5
3BF
  8
0
 10
-1.6955199999999999
 20
2.6064599999999989
 30
0.0
  0
VERTEX
  5
3C0
  8
0
 10
-1.745129999999999
 20
2.5984899999999991
 30
0.0
  0
VERTEX
  5
3C1
  8
0
 10
-1.79474
 20
2.590409999999999
 30
0.0
  0
VERTEX
  5
3C2
  8
0
 10
-1.8443400000000001
 20
2.5821999999999989
 30
0.0
  0
VERTEX
  5
3C3
  8
0
 10
-1.89395
 20
2.5738799999999991
 30
0.0
  0
VERTEX
  5
3C4
  8
0
 10
-1.9435599999999991
 20
2.5654400000000002
 30
0.0
  0
VERTEX
  5
3C5
  8
0
 10
-1.9931700000000001
 20
2.55688
 30
0.0
  0
VERTEX
  5
3C6
  8
0
 10
-2.0427699999999991
 20
2.5481899999999991
 30
0.0
  0
VERTEX
  5
3C7
  8
0
 10
-2.092379999999999
 20
2.5393799999999991
 30
0.0
  0
VERTEX
  5
3C8
  8
0
 10
-2.1419899999999998
 20
2.53044
 30
0.0
  0
VERTEX
  5
3C9
  8
0
 10
-2.1916000000000002
 20
2.5213700000000001
 30
0.0
  0
VERTEX
  5
3CA
  8
0
 10
-2.2412000000000001
 20
2.5121699999999998
 30
0.0
  0
VERTEX
  5
3CB
  8
0
 10
-2.29081
 20
2.5028399999999991
 30
0.0
  0
VERTEX
  5
3CC
  8
0
 10
-2.3404199999999991
 20
2.4933700000000001
 30
0.0
  0
VERTEX
  5
3CD
  8
0
 10
-2.390029999999999
 20
2.4837699999999998
 30
0.0
  0
VERTEX
  5
3CE
  8
0
 10
-2.4396299999999989
 20
2.474019999999999
 30
0.0
  0
VERTEX
  5
3CF
  8
0
 10
-2.4892400000000001
 20
2.4641399999999991
 30
0.0
  0
VERTEX
  5
3D0
  8
0
 10
-2.5388500000000001
 20
2.45411
 30
0.0
  0
VERTEX
  5
3D1
  8
0
 10
-2.5884599999999991
 20
2.44394
 30
0.0
  0
VERTEX
  5
3D2
  8
0
 10
-2.638059999999999
 20
2.4336299999999991
 30
0.0
  0
VERTEX
  5
3D3
  8
0
 10
-2.6876699999999998
 20
2.4231599999999989
 30
0.0
  0
VERTEX
  5
3D4
  8
0
 10
-2.7372799999999988
 20
2.4125399999999999
 30
0.0
  0
VERTEX
  5
3D5
  8
0
 10
-2.7868900000000001
 20
2.40178
 30
0.0
  0
VERTEX
  5
3D6
  8
0
 10
-2.8364899999999991
 20
2.390849999999999
 30
0.0
  0
VERTEX
  5
3D7
  8
0
 10
-2.886099999999999
 20
2.3797799999999989
 30
0.0
  0
VERTEX
  5
3D8
  8
0
 10
-2.9357099999999989
 20
2.3685399999999999
 30
0.0
  0
VERTEX
  5
3D9
  8
0
 10
-2.9853200000000002
 20
2.357149999999999
 30
0.0
  0
VERTEX
  5
3DA
  8
0
 10
-3.0349200000000001
 20
2.3455900000000001
 30
0.0
  0
VERTEX
  5
3DB
  8
0
 10
-3.0845299999999991
 20
2.3338700000000001
 30
0.0
  0
VERTEX
  5
3DC
  8
0
 10
-3.134139999999999
 20
2.321979999999999
 30
0.0
  0
VERTEX
  5
3DD
  8
0
 10
-3.183749999999999
 20
2.30993
 30
0.0
  0
VERTEX
  5
3DE
  8
0
 10
-3.2333500000000002
 20
2.297709999999999
 30
0.0
  0
VERTEX
  5
3DF
  8
0
 10
-3.2829599999999992
 20
2.28532
 30
0.0
  0
VERTEX
  5
3E0
  8
0
 10
-3.3325699999999991
 20
2.2727499999999989
 30
0.0
  0
VERTEX
  5
3E1
  8
0
 10
-3.38218
 20
2.260009999999999
 30
0.0
  0
VERTEX
  5
3E2
  8
0
 10
-3.4317799999999998
 20
2.2471000000000001
 30
0.0
  0
VERTEX
  5
3E3
  8
0
 10
-3.4813900000000002
 20
2.2339999999999991
 30
0.0
  0
VERTEX
  5
3E4
  8
0
 10
-3.5310000000000001
 20
2.2207099999999991
 30
0.0
  0
VERTEX
  5
3E5
  8
0
 10
-3.5806100000000001
 20
2.20723
 30
0.0
  0
VERTEX
  5
3E6
  8
0
 10
-3.630209999999999
 20
2.1935599999999988
 30
0.0
  0
VERTEX
  5
3E7
  8
0
 10
-3.679819999999999
 20
2.1796899999999999
 30
0.0
  0
VERTEX
  5
3E8
  8
0
 10
-3.7294299999999998
 20
2.1656200000000001
 30
0.0
  0
VERTEX
  5
3E9
  8
0
 10
-3.7790400000000002
 20
2.1513399999999998
 30
0.0
  0
VERTEX
  5
3EA
  8
0
 10
-3.82864
 20
2.1368599999999991
 30
0.0
  0
VERTEX
  5
3EB
  8
0
 10
-3.8782499999999991
 20
2.12216
 30
0.0
  0
VERTEX
  5
3EC
  8
0
 10
-3.927859999999999
 20
2.10724
 30
0.0
  0
VERTEX
  5
3ED
  8
0
 10
-3.977469999999999
 20
2.092099999999999
 30
0.0
  0
VERTEX
  5
3EE
  8
0
 10
-4.0270700000000001
 20
2.0767299999999991
 30
0.0
  0
VERTEX
  5
3EF
  8
0
 10
-4.0766799999999996
 20
2.0611199999999998
 30
0.0
  0
VERTEX
  5
3F0
  8
0
 10
-4.12629
 20
2.045269999999999
 30
0.0
  0
VERTEX
  5
3F1
  8
0
 10
-4.1759000000000004
 20
2.0291700000000001
 30
0.0
  0
VERTEX
  5
3F2
  8
0
 10
-4.2255000000000003
 20
2.0128200000000001
 30
0.0
  0
VERTEX
  5
3F3
  8
0
 10
-4.2751099999999989
 20
1.9961999999999991
 30
0.0
  0
VERTEX
  5
3F4
  8
0
 10
-4.3247200000000001
 20
1.9793199999999991
 30
0.0
  0
VERTEX
  5
3F5
  8
0
 10
-4.3743299999999996
 20
1.9621500000000001
 30
0.0
  0
VERTEX
  5
3F6
  8
0
 10
-4.4239300000000004
 20
1.9447000000000001
 30
0.0
  0
VERTEX
  5
3F7
  8
0
 10
-4.473539999999999
 20
1.9269499999999991
 30
0.0
  0
VERTEX
  5
3F8
  8
0
 10
-4.5231500000000002
 20
1.9089
 30
0.0
  0
VERTEX
  5
3F9
  8
0
 10
-4.5727599999999988
 20
1.8905400000000001
 30
0.0
  0
VERTEX
  5
3FA
  8
0
 10
-4.6223599999999987
 20
1.871859999999999
 30
0.0
  0
VERTEX
  5
3FB
  8
0
 10
-4.6719699999999991
 20
1.8528599999999991
 30
0.0
  0
VERTEX
  5
3FC
  8
0
 10
-4.7215800000000003
 20
1.833529999999999
 30
0.0
  0
VERTEX
  5
3FD
  8
0
 10
-4.7711899999999989
 20
1.8138599999999989
 30
0.0
  0
VERTEX
  5
3FE
  8
0
 10
-4.8207899999999997
 20
1.7938599999999989
 30
0.0
  0
VERTEX
  5
3FF
  8
0
 10
-4.8704000000000001
 20
1.7735000000000001
 30
0.0
  0
VERTEX
  5
400
  8
0
 10
-4.9200099999999987
 20
1.752799999999999
 30
0.0
  0
VERTEX
  5
401
  8
0
 10
-4.969619999999999
 20
1.731749999999999
 30
0.0
  0
VERTEX
  5
402
  8
0
 10
-5.0192199999999989
 20
1.71034
 30
0.0
  0
VERTEX
  5
403
  8
0
 10
-5.0688300000000002
 20
1.688559999999999
 30
0.0
  0
VERTEX
  5
404
  8
0
 10
-5.1184399999999997
 20
1.66638
 30
0.0
  0
VERTEX
  5
405
  8
0
 10
-5.16805
 20
1.643799999999999
 30
0.0
  0
VERTEX
  5
406
  8
0
 10
-5.217649999999999
 20
1.620779999999999
 30
0.0
  0
VERTEX
  5
407
  8
0
 10
-5.2672600000000003
 20
1.5973200000000001
 30
0.0
  0
VERTEX
  5
408
  8
0
 10
-5.3168699999999989
 20
1.5733900000000001
 30
0.0
  0
VERTEX
  5
409
  8
0
 10
-5.3664800000000001
 20
1.54898
 30
0.0
  0
VERTEX
  5
40A
  8
0
 10
-5.41608
 20
1.524049999999999
 30
0.0
  0
VERTEX
  5
40B
  8
0
 10
-5.4656900000000004
 20
1.498589999999999
 30
0.0
  0
VERTEX
  5
40C
  8
0
 10
-5.515299999999999
 20
1.4725799999999989
 30
0.0
  0
VERTEX
  5
40D
  8
0
 10
-5.5649100000000002
 20
1.445989999999999
 30
0.0
  0
VERTEX
  5
40E
  8
0
 10
-5.6145100000000001
 20
1.4187700000000001
 30
0.0
  0
VERTEX
  5
40F
  8
0
 10
-5.6641199999999987
 20
1.3908899999999991
 30
0.0
  0
VERTEX
  5
410
  8
0
 10
-5.7137299999999991
 20
1.3622700000000001
 30
0.0
  0
VERTEX
  5
411
  8
0
 10
-5.7633400000000004
 20
1.3328699999999989
 30
0.0
  0
VERTEX
  5
412
  8
0
 10
-5.8129400000000002
 20
1.3026299999999991
 30
0.0
  0
VERTEX
  5
413
  8
0
 10
-5.8625499999999988
 20
1.2715199999999991
 30
0.0
  0
VERTEX
  5
414
  8
0
 10
-5.9121600000000001
 20
1.23953
 30
0.0
  0
VERTEX
  5
415
  8
0
 10
-5.9617699999999987
 20
1.206639999999999
 30
0.0
  0
VERTEX
  5
416
  8
0
 10
-6.0113699999999994
 20
1.17286
 30
0.0
  0
VERTEX
  5
417
  8
0
 10
-6.0609799999999998
 20
1.1381699999999999
 30
0.0
  0
VERTEX
  5
418
  8
0
 10
-6.1105900000000002
 20
1.1025599999999991
 30
0.0
  0
VERTEX
  5
419
  8
0
 10
-6.1601999999999988
 20
1.06589
 30
0.0
  0
VERTEX
  5
41A
  8
0
 10
-6.2098000000000004
 20
1.027979999999999
 30
0.0
  0
VERTEX
  5
41B
  8
0
 10
-6.259409999999999
 20
0.9886299999999998
 30
0.0
  0
VERTEX
  5
41C
  8
0
 10
-6.3090199999999994
 20
0.9476499999999999
 30
0.0
  0
VERTEX
  5
41D
  8
0
 10
-6.3586299999999998
 20
0.9048399999999999
 30
0.0
  0
VERTEX
  5
41E
  8
0
 10
-6.4082299999999996
 20
0.8597399999999999
 30
0.0
  0
VERTEX
  5
41F
  8
0
 10
-6.45784
 20
0.8115999999999999
 30
0.0
  0
VERTEX
  5
420
  8
0
 10
-6.5074500000000004
 20
0.75992
 30
0.0
  0
VERTEX
  5
421
  8
0
 10
-6.5570599999999999
 20
0.7043700000000001
 30
0.0
  0
VERTEX
  5
422
  8
0
 10
-6.6066599999999998
 20
0.6451600000000001
 30
0.0
  0
VERTEX
  5
423
  8
0
 10
-6.6562700000000001
 20
0.5825899999999999
 30
0.0
  0
VERTEX
  5
424
  8
0
 10
-6.7058799999999996
 20
0.51692
 30
0.0
  0
VERTEX
  5
425
  8
0
 10
-6.7554899999999991
 20
0.44432
 30
0.0
  0
VERTEX
  5
426
  8
0
 10
-6.805089999999999
 20
0.3528
 30
0.0
  0
VERTEX
  5
427
  8
0
 10
-6.8547000000000002
 20
0.22939
 30
0.0
  0
VERTEX
  5
428
  8
0
 10
-6.9043099999999997
 20
0.06111
 30
0.0
  0
VERTEX
  5
429
  8
0
 10
-6.9043099999999997
 20
-0.07962
 30
0.0
  0
VERTEX
  5
42A
  8
0
 10
-6.8398699999999986
 20
-0.19283
 30
0.0
  0
VERTEX
  5
42B
  8
0
 10
-6.7754300000000001
 20
-0.27259
 30
0.0
  0
VERTEX
  5
42C
  8
0
 10
-6.7109899999999989
 20
-0.32789
 30
0.0
  0
VERTEX
  5
42D
  8
0
 10
-6.6465500000000004
 20
-0.36773
 30
0.0
  0
VERTEX
  5
42E
  8
0
 10
-6.582110000000001
 20
-0.40111
 30
0.0
  0
VERTEX
  5
42F
  8
0
 10
-6.517669999999999
 20
-0.43408
 30
0.0
  0
VERTEX
  5
430
  8
0
 10
-6.4532299999999996
 20
-0.46677
 30
0.0
  0
VERTEX
  5
431
  8
0
 10
-6.3887900000000002
 20
-0.4985600000000001
 30
0.0
  0
VERTEX
  5
432
  8
0
 10
-6.324349999999999
 20
-0.5287800000000001
 30
0.0
  0
VERTEX
  5
433
  8
0
 10
-6.2599099999999988
 20
-0.55685
 30
0.0
  0
VERTEX
  5
434
  8
0
 10
-6.1954699999999994
 20
-0.58297
 30
0.0
  0
VERTEX
  5
435
  8
0
 10
-6.1310299999999991
 20
-0.60741
 30
0.0
  0
VERTEX
  5
436
  8
0
 10
-6.0665800000000001
 20
-0.6304
 30
0.0
  0
VERTEX
  5
437
  8
0
 10
-6.0021399999999989
 20
-0.6522100000000001
 30
0.0
  0
VERTEX
  5
438
  8
0
 10
-5.9377000000000004
 20
-0.67299
 30
0.0
  0
VERTEX
  5
439
  8
0
 10
-5.8732600000000001
 20
-0.69292
 30
0.0
  0
VERTEX
  5
43A
  8
0
 10
-5.808819999999999
 20
-0.7121499999999999
 30
0.0
  0
VERTEX
  5
43B
  8
0
 10
-5.7443799999999996
 20
-0.7308200000000001
 30
0.0
  0
VERTEX
  5
43C
  8
0
 10
-5.6799400000000002
 20
-0.74898
 30
0.0
  0
VERTEX
  5
43D
  8
0
 10
-5.615499999999999
 20
-0.7665999999999999
 30
0.0
  0
VERTEX
  5
43E
  8
0
 10
-5.5510599999999988
 20
-0.78367
 30
0.0
  0
VERTEX
  5
43F
  8
0
 10
-5.4866199999999994
 20
-0.8001899999999998
 30
0.0
  0
VERTEX
  5
440
  8
0
 10
-5.4221799999999991
 20
-0.8161599999999999
 30
0.0
  0
VERTEX
  5
441
  8
0
 10
-5.3577399999999988
 20
-0.83162
 30
0.0
  0
VERTEX
  5
442
  8
0
 10
-5.2933000000000003
 20
-0.84661
 30
0.0
  0
VERTEX
  5
443
  8
0
 10
-5.2288600000000001
 20
-0.8611600000000001
 30
0.0
  0
VERTEX
  5
444
  8
0
 10
-5.1644199999999989
 20
-0.8753099999999999
 30
0.0
  0
VERTEX
  5
445
  8
0
 10
-5.0999800000000004
 20
-0.88908
 30
0.0
  0
VERTEX
  5
446
  8
0
 10
-5.0355400000000001
 20
-0.90251
 30
0.0
  0
VERTEX
  5
447
  8
0
 10
-4.971099999999999
 20
-0.9156200000000001
 30
0.0
  0
VERTEX
  5
448
  8
0
 10
-4.9066599999999987
 20
-0.9284299999999999
 30
0.0
  0
VERTEX
  5
449
  8
0
 10
-4.8422199999999993
 20
-0.9409600000000001
 30
0.0
  0
VERTEX
  5
44A
  8
0
 10
-4.777779999999999
 20
-0.9532
 30
0.0
  0
VERTEX
  5
44B
  8
0
 10
-4.7133399999999996
 20
-0.9651799999999999
 30
0.0
  0
VERTEX
  5
44C
  8
0
 10
-4.6489000000000003
 20
-0.9768899999999998
 30
0.0
  0
VERTEX
  5
44D
  8
0
 10
-4.5844599999999991
 20
-0.9883399999999999
 30
0.0
  0
VERTEX
  5
44E
  8
0
 10
-4.5200199999999988
 20
-0.9995299999999998
 30
0.0
  0
VERTEX
  5
44F
  8
0
 10
-4.4555800000000003
 20
-1.0104699999999991
 30
0.0
  0
VERTEX
  5
450
  8
0
 10
-4.39114
 20
-1.0211699999999999
 30
0.0
  0
VERTEX
  5
451
  8
0
 10
-4.3266999999999989
 20
-1.0316299999999989
 30
0.0
  0
VERTEX
  5
452
  8
0
 10
-4.2622599999999986
 20
-1.04186
 30
0.0
  0
VERTEX
  5
453
  8
0
 10
-4.1978200000000001
 20
-1.0518700000000001
 30
0.0
  0
VERTEX
  5
454
  8
0
 10
-4.1333799999999998
 20
-1.06166
 30
0.0
  0
VERTEX
  5
455
  8
0
 10
-4.0689399999999996
 20
-1.0712399999999991
 30
0.0
  0
VERTEX
  5
456
  8
0
 10
-4.0045000000000002
 20
-1.0806299999999991
 30
0.0
  0
VERTEX
  5
457
  8
0
 10
-3.940059999999999
 20
-1.089829999999999
 30
0.0
  0
VERTEX
  5
458
  8
0
 10
-3.8756199999999992
 20
-1.0988599999999991
 30
0.0
  0
VERTEX
  5
459
  8
0
 10
-3.8111799999999998
 20
-1.1077099999999991
 30
0.0
  0
VERTEX
  5
45A
  8
0
 10
-3.7467399999999991
 20
-1.1164000000000001
 30
0.0
  0
VERTEX
  5
45B
  8
0
 10
-3.6823000000000001
 20
-1.1249400000000001
 30
0.0
  0
VERTEX
  5
45C
  8
0
 10
-3.617859999999999
 20
-1.1333200000000001
 30
0.0
  0
VERTEX
  5
45D
  8
0
 10
-3.5534199999999991
 20
-1.1415599999999999
 30
0.0
  0
VERTEX
  5
45E
  8
0
 10
-3.4889800000000002
 20
-1.1496599999999999
 30
0.0
  0
VERTEX
  5
45F
  8
0
 10
-3.4245399999999999
 20
-1.1576200000000001
 30
0.0
  0
VERTEX
  5
460
  8
0
 10
-3.3601000000000001
 20
-1.16544
 30
0.0
  0
VERTEX
  5
461
  8
0
 10
-3.2956599999999989
 20
-1.17313
 30
0.0
  0
VERTEX
  5
462
  8
0
 10
-3.2312199999999991
 20
-1.1806799999999991
 30
0.0
  0
VERTEX
  5
463
  8
0
 10
-3.1667799999999988
 20
-1.188089999999999
 30
0.0
  0
VERTEX
  5
464
  8
0
 10
-3.1023399999999999
 20
-1.195379999999999
 30
0.0
  0
VERTEX
  5
465
  8
0
 10
-3.0379
 20
-1.202529999999999
 30
0.0
  0
VERTEX
  5
466
  8
0
 10
-2.9734599999999989
 20
-1.2095599999999991
 30
0.0
  0
VERTEX
  5
467
  8
0
 10
-2.909009999999999
 20
-1.2164699999999999
 30
0.0
  0
VERTEX
  5
468
  8
0
 10
-2.84457
 20
-1.2232499999999991
 30
0.0
  0
VERTEX
  5
469
  8
0
 10
-2.7801299999999989
 20
-1.2299100000000001
 30
0.0
  0
VERTEX
  5
46A
  8
0
 10
-2.715689999999999
 20
-1.23645
 30
0.0
  0
VERTEX
  5
46B
  8
0
 10
-2.6512500000000001
 20
-1.2428799999999991
 30
0.0
  0
VERTEX
  5
46C
  8
0
 10
-2.5868099999999989
 20
-1.2492000000000001
 30
0.0
  0
VERTEX
  5
46D
  8
0
 10
-2.52237
 20
-1.2554000000000001
 30
0.0
  0
VERTEX
  5
46E
  8
0
 10
-2.4579299999999988
 20
-1.2615000000000001
 30
0.0
  0
VERTEX
  5
46F
  8
0
 10
-2.3934899999999999
 20
-1.26749
 30
0.0
  0
VERTEX
  5
470
  8
0
 10
-2.3290500000000001
 20
-1.2733799999999991
 30
0.0
  0
VERTEX
  5
471
  8
0
 10
-2.2646099999999989
 20
-1.2791699999999999
 30
0.0
  0
VERTEX
  5
472
  8
0
 10
-2.2001699999999991
 20
-1.2848599999999999
 30
0.0
  0
VERTEX
  5
473
  8
0
 10
-2.1357300000000001
 20
-1.2904599999999991
 30
0.0
  0
VERTEX
  5
474
  8
0
 10
-2.0712899999999999
 20
-1.29596
 30
0.0
  0
VERTEX
  5
475
  8
0
 10
-2.00685
 20
-1.3013600000000001
 30
0.0
  0
VERTEX
  5
476
  8
0
 10
-1.9424099999999991
 20
-1.306679999999999
 30
0.0
  0
VERTEX
  5
477
  8
0
 10
-1.8779699999999999
 20
-1.3119000000000001
 30
0.0
  0
VERTEX
  5
478
  8
0
 10
-1.813529999999999
 20
-1.317029999999999
 30
0.0
  0
VERTEX
  5
479
  8
0
 10
-1.74909
 20
-1.3220700000000001
 30
0.0
  0
VERTEX
  5
47A
  8
0
 10
-1.6846499999999991
 20
-1.3270200000000001
 30
0.0
  0
VERTEX
  5
47B
  8
0
 10
-1.620209999999999
 20
-1.33189
 30
0.0
  0
VERTEX
  5
47C
  8
0
 10
-1.5557700000000001
 20
-1.3366599999999991
 30
0.0
  0
VERTEX
  5
47D
  8
0
 10
-1.4913299999999989
 20
-1.34135
 30
0.0
  0
VERTEX
  5
47E
  8
0
 10
-1.42689
 20
-1.3459499999999991
 30
0.0
  0
VERTEX
  5
47F
  8
0
 10
-1.3624499999999991
 20
-1.3504599999999991
 30
0.0
  0
VERTEX
  5
480
  8
0
 10
-1.2980100000000001
 20
-1.354889999999999
 30
0.0
  0
VERTEX
  5
481
  8
0
 10
-1.2335700000000001
 20
-1.35924
 30
0.0
  0
VERTEX
  5
482
  8
0
 10
-1.16913
 20
-1.363499999999999
 30
0.0
  0
VERTEX
  5
483
  8
0
 10
-1.1046899999999991
 20
-1.36768
 30
0.0
  0
VERTEX
  5
484
  8
0
 10
-1.040249999999999
 20
-1.3717799999999989
 30
0.0
  0
VERTEX
  5
485
  8
0
 10
-0.97581
 20
-1.3757900000000001
 30
0.0
  0
VERTEX
  5
486
  8
0
 10
-0.9113700000000001
 20
-1.3797200000000001
 30
0.0
  0
VERTEX
  5
487
  8
0
 10
-0.84693
 20
-1.3835699999999991
 30
0.0
  0
VERTEX
  5
488
  8
0
 10
-0.7824900000000001
 20
-1.3873500000000001
 30
0.0
  0
VERTEX
  5
489
  8
0
 10
-0.71805
 20
-1.3910400000000001
 30
0.0
  0
VERTEX
  5
48A
  8
0
 10
-0.6536100000000001
 20
-1.3946499999999991
 30
0.0
  0
VERTEX
  5
48B
  8
0
 10
-0.5891700000000001
 20
-1.3981799999999991
 30
0.0
  0
VERTEX
  5
48C
  8
0
 10
-0.52473
 20
-1.401629999999999
 30
0.0
  0
VERTEX
  5
48D
  8
0
 10
-0.46029
 20
-1.405
 30
0.0
  0
VERTEX
  5
48E
  8
0
 10
-0.39585
 20
-1.4083000000000001
 30
0.0
  0
VERTEX
  5
48F
  8
0
 10
-0.33141
 20
-1.4115099999999989
 30
0.0
  0
VERTEX
  5
490
  8
0
 10
-0.26697
 20
-1.41466
 30
0.0
  0
VERTEX
  5
491
  8
0
 10
-0.20253
 20
-1.4177200000000001
 30
0.0
  0
VERTEX
  5
492
  8
0
 10
-0.13809
 20
-1.4207099999999999
 30
0.0
  0
VERTEX
  5
493
  8
0
 10
-0.07365
 20
-1.4236299999999991
 30
0.0
  0
VERTEX
  5
494
  8
0
 10
-0.00921
 20
-1.4264799999999991
 30
0.0
  0
VERTEX
  5
495
  8
0
 10
0.05523
 20
-1.429249999999999
 30
0.0
  0
VERTEX
  5
496
  8
0
 10
0.11967
 20
-1.4319500000000001
 30
0.0
  0
VERTEX
  5
497
  8
0
 10
0.18411
 20
-1.4345799999999991
 30
0.0
  0
VERTEX
  5
498
  8
0
 10
0.24856
 20
-1.437139999999999
 30
0.0
  0
VERTEX
  5
499
  8
0
 10
0.313
 20
-1.43963
 30
0.0
  0
VERTEX
  5
49A
  8
0
 10
0.37744
 20
-1.4420500000000001
 30
0.0
  0
VERTEX
  5
49B
  8
0
 10
0.44188
 20
-1.4444099999999991
 30
0.0
  0
VERTEX
  5
49C
  8
0
 10
0.5063200000000001
 20
-1.4467000000000001
 30
0.0
  0
VERTEX
  5
49D
  8
0
 10
0.57076
 20
-1.44892
 30
0.0
  0
VERTEX
  5
49E
  8
0
 10
0.6352000000000001
 20
-1.451079999999999
 30
0.0
  0
VERTEX
  5
49F
  8
0
 10
0.69964
 20
-1.4531700000000001
 30
0.0
  0
VERTEX
  5
4A0
  8
0
 10
0.76408
 20
-1.4551899999999991
 30
0.0
  0
VERTEX
  5
4A1
  8
0
 10
0.8285199999999999
 20
-1.4571499999999991
 30
0.0
  0
VERTEX
  5
4A2
  8
0
 10
0.89296
 20
-1.4590499999999991
 30
0.0
  0
VERTEX
  5
4A3
  8
0
 10
0.9573999999999999
 20
-1.4608799999999991
 30
0.0
  0
VERTEX
  5
4A4
  8
0
 10
1.021839999999999
 20
-1.4626399999999991
 30
0.0
  0
VERTEX
  5
4A5
  8
0
 10
1.086279999999999
 20
-1.4643399999999991
 30
0.0
  0
VERTEX
  5
4A6
  8
0
 10
1.1507199999999991
 20
-1.465979999999999
 30
0.0
  0
VERTEX
  5
4A7
  8
0
 10
1.21516
 20
-1.467549999999999
 30
0.0
  0
VERTEX
  5
4A8
  8
0
 10
1.2796000000000001
 20
-1.46905
 30
0.0
  0
VERTEX
  5
4A9
  8
0
 10
1.344039999999999
 20
-1.470489999999999
 30
0.0
  0
VERTEX
  5
4AA
  8
0
 10
1.4084799999999991
 20
-1.47187
 30
0.0
  0
VERTEX
  5
4AB
  8
0
 10
1.47292
 20
-1.473179999999999
 30
0.0
  0
VERTEX
  5
4AC
  8
0
 10
1.5373600000000001
 20
-1.4744200000000001
 30
0.0
  0
VERTEX
  5
4AD
  8
0
 10
1.601799999999999
 20
-1.4756
 30
0.0
  0
VERTEX
  5
4AE
  8
0
 10
1.6662399999999999
 20
-1.47672
 30
0.0
  0
VERTEX
  5
4AF
  8
0
 10
1.7306799999999991
 20
-1.477779999999999
 30
0.0
  0
VERTEX
  5
4B0
  8
0
 10
1.79512
 20
-1.4787600000000001
 30
0.0
  0
VERTEX
  5
4B1
  8
0
 10
1.859559999999999
 20
-1.4796899999999991
 30
0.0
  0
VERTEX
  5
4B2
  8
0
 10
1.9239999999999999
 20
-1.48055
 30
0.0
  0
VERTEX
  5
4B3
  8
0
 10
1.98844
 20
-1.481339999999999
 30
0.0
  0
VERTEX
  5
4B4
  8
0
 10
2.05288
 20
-1.48207
 30
0.0
  0
VERTEX
  5
4B5
  8
0
 10
2.117319999999999
 20
-1.4827399999999991
 30
0.0
  0
VERTEX
  5
4B6
  8
0
 10
2.1817599999999988
 20
-1.483339999999999
 30
0.0
  0
VERTEX
  5
4B7
  8
0
 10
2.2461999999999991
 20
-1.483879999999999
 30
0.0
  0
VERTEX
  5
4B8
  8
0
 10
2.3106399999999998
 20
-1.4843500000000001
 30
0.0
  0
VERTEX
  5
4B9
  8
0
 10
2.3750800000000001
 20
-1.48475
 30
0.0
  0
VERTEX
  5
4BA
  8
0
 10
2.439519999999999
 20
-1.4851000000000001
 30
0.0
  0
VERTEX
  5
4BB
  8
0
 10
2.5039599999999989
 20
-1.4853700000000001
 30
0.0
  0
VERTEX
  5
4BC
  8
0
 10
2.5684
 20
-1.48559
 30
0.0
  0
VERTEX
  5
4BD
  8
0
 10
2.6328399999999998
 20
-1.4857400000000001
 30
0.0
  0
VERTEX
  5
4BE
  8
0
 10
2.6972800000000001
 20
-1.4858299999999991
 30
0.0
  0
VERTEX
  5
4BF
  8
0
 10
2.7617199999999991
 20
-1.485849999999999
 30
0.0
  0
VERTEX
  5
4C0
  8
0
 10
2.7617199999999991
 20
-0.8756099999999999
 30
0.0
  0
VERTEX
  5
4C1
  8
0
 10
2.1366499999999991
 20
-0.8756099999999999
 30
0.0
  0
VERTEX
  5
4C2
  8
0
 10
2.1366499999999991
 20
-1.01024
 30
0.0
  0
VERTEX
  5
4C3
  8
0
 10
-2.1366499999999991
 20
-1.01024
 30
0.0
  0
VERTEX
  5
4C4
  8
0
 10
-0.20462
 20
2.4859399999999998
 30
0.0
  0
VERTEX
  5
4C5
  8
0
 10
0.0
 20
0.0
 30
0.0
  0
VERTEX
  5
4C6
  8
0
 10
0.0
 20
0.0
 30
0.0
  0
SEQEND
  5
4C7
  8
0
  0
ENDSEC
  0
EOF
