  0
SECTION
  2
HEADER
  9
$ACADVER
  1
AC1009
  9
$INSBASE
 10
0.0
 20
0.0
 30
0.0
  9
$EXTMIN
 10
-1.8945499999999991
 20
-1.0193000000000001
 30
0.0
  9
$EXTMAX
 10
4.7363799999999996
 20
1.9777400000000001
 30
0.0
  9
$LIMMIN
 10
0.0
 20
0.0
  9
$LIMMAX
 10
12.0
 20
9.0
  9
$ORTHOMODE
 70
     0
  9
$REGENMODE
 70
     1
  9
$FILLMODE
 70
     1
  9
$QTEXTMODE
 70
     0
  9
$MIRRTEXT
 70
     0
  9
$DRAGMODE
 70
     2
  9
$LTSCALE
 40
1.0
  9
$OSMODE
 70
    37
  9
$ATTMODE
 70
     1
  9
$TEXTSIZE
 40
0.2
  9
$TRACEWID
 40
0.05
  9
$TEXTSTYLE
  7
STANDARD
  9
$CLAYER
  8
0
  9
$CELTYPE
  6
BYLAYER
  9
$CECOLOR
 62
   256
  9
$DIMSCALE
 40
1.0
  9
$DIMASZ
 40
0.18
  9
$DIMEXO
 40
0.0625
  9
$DIMDLI
 40
0.38
  9
$DIMRND
 40
0.0
  9
$DIMDLE
 40
0.0
  9
$DIMEXE
 40
0.18
  9
$DIMTP
 40
0.0
  9
$DIMTM
 40
0.0
  9
$DIMTXT
 40
0.18
  9
$DIMCEN
 40
0.09
  9
$DIMTSZ
 40
0.0
  9
$DIMTOL
 70
     0
  9
$DIMLIM
 70
     0
  9
$DIMTIH
 70
     1
  9
$DIMTOH
 70
     1
  9
$DIMSE1
 70
     0
  9
$DIMSE2
 70
     0
  9
$DIMTAD
 70
     0
  9
$DIMZIN
 70
     0
  9
$DIMBLK
  1

  9
$DIMASO
 70
     1
  9
$DIMSHO
 70
     1
  9
$DIMPOST
  1

  9
$DIMAPOST
  1

  9
$DIMALT
 70
     0
  9
$DIMALTD
 70
     2
  9
$DIMALTF
 40
25.3999999999999986
  9
$DIMLFAC
 40
1.0
  9
$DIMTOFL
 70
     0
  9
$DIMTVP
 40
0.0
  9
$DIMTIX
 70
     0
  9
$DIMSOXD
 70
     0
  9
$DIMSAH
 70
     0
  9
$DIMBLK1
  1

  9
$DIMBLK2
  1

  9
$DIMSTYLE
  2
STANDARD
  9
$DIMCLRD
 70
     0
  9
$DIMCLRE
 70
     0
  9
$DIMCLRT
 70
     0
  9
$DIMTFAC
 40
1.0
  9
$DIMGAP
 40
0.09
  9
$LUNITS
 70
     2
  9
$LUPREC
 70
     4
  9
$SKETCHINC
 40
0.1
  9
$FILLETRAD
 40
0.0
  9
$AUNITS
 70
     0
  9
$AUPREC
 70
     0
  9
$MENU
  1
.
  9
$ELEVATION
 40
0.0
  9
$PELEVATION
 40
0.0
  9
$THICKNESS
 40
0.0
  9
$LIMCHECK
 70
     0
  9
$BLIPMODE
 70
     0
  9
$CHAMFERA
 40
0.0
  9
$CHAMFERB
 40
0.0
  9
$SKPOLY
 70
     0
  9
$TDCREATE
 40
2457765.7589930561371148
  9
$TDUPDATE
 40
2457765.7609837967902422
  9
$TDINDWG
 40
0.0019907407
  9
$TDUSRTIMER
 40
0.0019907407
  9
$USRTIMER
 70
     1
  9
$ANGBASE
 50
0.0
  9
$ANGDIR
 70
     0
  9
$PDMODE
 70
     0
  9
$PDSIZE
 40
0.0
  9
$PLINEWID
 40
0.0
  9
$COORDS
 70
     1
  9
$SPLFRAME
 70
     0
  9
$SPLINETYPE
 70
     6
  9
$SPLINESEGS
 70
     8
  9
$ATTDIA
 70
     1
  9
$ATTREQ
 70
     1
  9
$HANDLING
 70
     1
  9
$HANDSEED
  5
4C8
  9
$SURFTAB1
 70
     6
  9
$SURFTAB2
 70
     6
  9
$SURFTYPE
 70
     6
  9
$SURFU
 70
     6
  9
$SURFV
 70
     6
  9
$UCSNAME
  2

  9
$UCSORG
 10
0.0
 20
0.0
 30
0.0
  9
$UCSXDIR
 10
1.0
 20
0.0
 30
0.0
  9
$UCSYDIR
 10
0.0
 20
1.0
 30
0.0
  9
$PUCSNAME
  2

  9
$PUCSORG
 10
0.0
 20
0.0
 30
0.0
  9
$PUCSXDIR
 10
1.0
 20
0.0
 30
0.0
  9
$PUCSYDIR
 10
0.0
 20
1.0
 30
0.0
  9
$USERI1
 70
     0
  9
$USERI2
 70
     0
  9
$USERI3
 70
     0
  9
$USERI4
 70
     0
  9
$USERI5
 70
     0
  9
$USERR1
 40
0.0
  9
$USERR2
 40
0.0
  9
$USERR3
 40
0.0
  9
$USERR4
 40
0.0
  9
$USERR5
 40
0.0
  9
$WORLDVIEW
 70
     1
  9
$SHADEDGE
 70
     3
  9
$SHADEDIF
 70
    70
  9
$TILEMODE
 70
     1
  9
$MAXACTVP
 70
    64
  9
$PLIMCHECK
 70
     0
  9
$PEXTMIN
 10
0.0
 20
0.0
 30
0.0
  9
$PEXTMAX
 10
0.0
 20
0.0
 30
0.0
  9
$PLIMMIN
 10
0.0
 20
0.0
  9
$PLIMMAX
 10
12.0
 20
9.0
  9
$UNITMODE
 70
     0
  9
$VISRETAIN
 70
     1
  9
$PLINEGEN
 70
     0
  9
$PSLTSCALE
 70
     1
  0
ENDSEC
  0
SECTION
  2
TABLES
  0
TABLE
  2
VPORT
 70
     1
  0
VPORT
  2
*ACTIVE
 70
     0
 10
0.0
 20
0.0
 11
1.0
 21
1.0
 12
2.6229094714625631
 22
0.1418518523770182
 13
0.0
 23
0.0
 14
0.5
 24
0.5
 15
0.5
 25
0.5
 16
0.0
 26
0.0
 36
1.0
 17
0.0
 27
0.0
 37
0.0
 40
5.922435872431639
 41
2.58041958041958
 42
50.0
 43
0.0
 44
0.0
 50
0.0
 51
0.0
 71
     0
 72
  1000
 73
     1
 74
     3
 75
     0
 76
     1
 77
     0
 78
     0
  0
ENDTAB
  0
TABLE
  2
LTYPE
 70
     1
  0
LTYPE
  2
CONTINUOUS
 70
     0
  3
Solid line
 72
    65
 73
     0
 40
0.0
  0
ENDTAB
  0
TABLE
  2
LAYER
 70
     1
  0
LAYER
  2
0
 70
     0
 62
     7
  6
CONTINUOUS
  0
ENDTAB
  0
TABLE
  2
STYLE
 70
     2
  0
STYLE
  2
STANDARD
 70
     0
 40
0.0
 41
1.0
 50
0.0
 71
     0
 42
0.2
  3
txt
  4

  0
STYLE
  2
ANNOTATIVE
 70
     0
 40
0.0
 41
1.0
 50
0.0
 71
     0
 42
0.2
  3
txt
  4

  0
ENDTAB
  0
TABLE
  2
VIEW
 70
     0
  0
ENDTAB
  0
TABLE
  2
UCS
 70
     0
  0
ENDTAB
  0
TABLE
  2
APPID
 70
     7
  0
APPID
  2
ACAD
 70
     0
  0
APPID
  2
ACADANNOPO
 70
     0
  0
APPID
  2
ACADANNOTATIVE
 70
     0
  0
APPID
  2
ACAD_DSTYLE_DIMJAG
 70
     0
  0
APPID
  2
ACAD_DSTYLE_DIMTALN
 70
     0
  0
APPID
  2
ACAD_MLEADERVER
 70
     0
  0
APPID
  2
ACAD_NAV_VCDISPLAY
 70
     0
  0
ENDTAB
  0
TABLE
  2
DIMSTYLE
 70
     2
  0
DIMSTYLE
  2
STANDARD
 70
     0
  3

  4

  5

  6

  7

 40
1.0
 41
0.18
 42
0.0625
 43
0.38
 44
0.18
 45
0.0
 46
0.0
 47
0.0
 48
0.0
140
0.18
141
0.09
142
0.0
143
25.3999999999999986
144
1.0
145
0.0
146
1.0
147
0.09
 71
     0
 72
     0
 73
     1
 74
     1
 75
     0
 76
     0
 77
     0
 78
     0
170
     0
171
     2
172
     0
173
     0
174
     0
175
     0
176
     0
177
     0
178
     0
  0
DIMSTYLE
  2
ANNOTATIVE
 70
     0
  3

  4

  5

  6

  7

 40
0.0
 41
0.18
 42
0.0625
 43
0.38
 44
0.18
 45
0.0
 46
0.0
 47
0.0
 48
0.0
140
0.18
141
0.09
142
0.0
143
25.3999999999999986
144
1.0
145
0.0
146
1.0
147
0.09
 71
     0
 72
     0
 73
     1
 74
     1
 75
     0
 76
     0
 77
     0
 78
     0
170
     0
171
     2
172
     0
173
     0
174
     0
175
     0
176
     0
177
     0
178
     0
  0
ENDTAB
  0
ENDSEC
  0
SECTION
  2
BLOCKS
  0
BLOCK
  8
0
  2
$MODEL_SPACE
 70
     0
 10
0.0
 20
0.0
 30
0.0
  3
$MODEL_SPACE
  1

  0
ENDBLK
  5
21
  8
0
  0
BLOCK
 67
     1
  8
0
  2
$PAPER_SPACE
 70
     0
 10
0.0
 20
0.0
 30
0.0
  3
$PAPER_SPACE
  1

  0
ENDBLK
  5
5B
 67
     1
  8
0
  0
ENDSEC
  0
SECTION
  2
ENTITIES
  0
POLYLINE
  5
1F7
  8
0
 66
     1
 10
0.0
 20
0.0
 30
0.0
 70
     1
  0
VERTEX
  5
248
  8
0
 10
0.0
 20
0.0
 30
0.0
  0
VERTEX
  5
249
  8
0
 10
1.3938900000000001
 20
-0.6078100000000001
 30
0.0
  0
VERTEX
  5
24A
  8
0
 10
1.515639999999999
 20
-0.68402
 30
0.0
  0
VERTEX
  5
24B
  8
0
 10
1.5344199999999999
 20
-0.6823600000000001
 30
0.0
  0
VERTEX
  5
24C
  8
0
 10
1.5532099999999991
 20
-0.6806900000000001
 30
0.0
  0
VERTEX
  5
24D
  8
0
 10
1.5719899999999991
 20
-0.67902
 30
0.0
  0
VERTEX
  5
24E
  8
0
 10
1.59077
 20
-0.67732
 30
0.0
  0
VERTEX
  5
24F
  8
0
 10
1.6095600000000001
 20
-0.67562
 30
0.0
  0
VERTEX
  5
250
  8
0
 10
1.628339999999999
 20
-0.6739000000000001
 30
0.0
  0
VERTEX
  5
251
  8
0
 10
1.6471199999999999
 20
-0.67218
 30
0.0
  0
VERTEX
  5
252
  8
0
 10
1.6659099999999989
 20
-0.67044
 30
0.0
  0
VERTEX
  5
253
  8
0
 10
1.68469
 20
-0.6686800000000001
 30
0.0
  0
VERTEX
  5
254
  8
0
 10
1.70347
 20
-0.6669100000000001
 30
0.0
  0
VERTEX
  5
255
  8
0
 10
1.7222500000000001
 20
-0.66513
 30
0.0
  0
VERTEX
  5
256
  8
0
 10
1.7410399999999999
 20
-0.6633399999999999
 30
0.0
  0
VERTEX
  5
257
  8
0
 10
1.7598199999999999
 20
-0.6615300000000001
 30
0.0
  0
VERTEX
  5
258
  8
0
 10
1.7785999999999991
 20
-0.6597100000000001
 30
0.0
  0
VERTEX
  5
259
  8
0
 10
1.79739
 20
-0.6578800000000001
 30
0.0
  0
VERTEX
  5
25A
  8
0
 10
1.816169999999999
 20
-0.65603
 30
0.0
  0
VERTEX
  5
25B
  8
0
 10
1.8349500000000001
 20
-0.6541700000000001
 30
0.0
  0
VERTEX
  5
25C
  8
0
 10
1.8537399999999999
 20
-0.6522899999999999
 30
0.0
  0
VERTEX
  5
25D
  8
0
 10
1.8725199999999991
 20
-0.6504
 30
0.0
  0
VERTEX
  5
25E
  8
0
 10
1.8913
 20
-0.64849
 30
0.0
  0
VERTEX
  5
25F
  8
0
 10
1.9100900000000001
 20
-0.64657
 30
0.0
  0
VERTEX
  5
260
  8
0
 10
1.9288700000000001
 20
-0.64464
 30
0.0
  0
VERTEX
  5
261
  8
0
 10
1.9476500000000001
 20
-0.64269
 30
0.0
  0
VERTEX
  5
262
  8
0
 10
1.966429999999999
 20
-0.6407300000000001
 30
0.0
  0
VERTEX
  5
263
  8
0
 10
1.9852199999999991
 20
-0.6387500000000002
 30
0.0
  0
VERTEX
  5
264
  8
0
 10
2.004
 20
-0.63676
 30
0.0
  0
VERTEX
  5
265
  8
0
 10
2.02278
 20
-0.6347500000000001
 30
0.0
  0
VERTEX
  5
266
  8
0
 10
2.0415700000000001
 20
-0.6327199999999999
 30
0.0
  0
VERTEX
  5
267
  8
0
 10
2.0603500000000001
 20
-0.63068
 30
0.0
  0
VERTEX
  5
268
  8
0
 10
2.0791300000000001
 20
-0.6286300000000001
 30
0.0
  0
VERTEX
  5
269
  8
0
 10
2.0979199999999998
 20
-0.62656
 30
0.0
  0
VERTEX
  5
26A
  8
0
 10
2.1166999999999989
 20
-0.62447
 30
0.0
  0
VERTEX
  5
26B
  8
0
 10
2.1354799999999989
 20
-0.62237
 30
0.0
  0
VERTEX
  5
26C
  8
0
 10
2.154269999999999
 20
-0.62025
 30
0.0
  0
VERTEX
  5
26D
  8
0
 10
2.173049999999999
 20
-0.6181200000000001
 30
0.0
  0
VERTEX
  5
26E
  8
0
 10
2.1918299999999991
 20
-0.61597
 30
0.0
  0
VERTEX
  5
26F
  8
0
 10
2.2106099999999991
 20
-0.6138
 30
0.0
  0
VERTEX
  5
270
  8
0
 10
2.2294
 20
-0.6116200000000001
 30
0.0
  0
VERTEX
  5
271
  8
0
 10
2.2481800000000001
 20
-0.60942
 30
0.0
  0
VERTEX
  5
272
  8
0
 10
2.2669599999999992
 20
-0.6072
 30
0.0
  0
VERTEX
  5
273
  8
0
 10
2.2857500000000002
 20
-0.60497
 30
0.0
  0
VERTEX
  5
274
  8
0
 10
2.3045299999999989
 20
-0.6027100000000001
 30
0.0
  0
VERTEX
  5
275
  8
0
 10
2.3233099999999989
 20
-0.6004500000000002
 30
0.0
  0
VERTEX
  5
276
  8
0
 10
2.342099999999999
 20
-0.5981600000000001
 30
0.0
  0
VERTEX
  5
277
  8
0
 10
2.360879999999999
 20
-0.5958600000000001
 30
0.0
  0
VERTEX
  5
278
  8
0
 10
2.379659999999999
 20
-0.59354
 30
0.0
  0
VERTEX
  5
279
  8
0
 10
2.3984499999999991
 20
-0.5912100000000001
 30
0.0
  0
VERTEX
  5
27A
  8
0
 10
2.4172299999999991
 20
-0.58885
 30
0.0
  0
VERTEX
  5
27B
  8
0
 10
2.43601
 20
-0.58648
 30
0.0
  0
VERTEX
  5
27C
  8
0
 10
2.4548000000000001
 20
-0.58409
 30
0.0
  0
VERTEX
  5
27D
  8
0
 10
2.4735800000000001
 20
-0.58169
 30
0.0
  0
VERTEX
  5
27E
  8
0
 10
2.4923599999999988
 20
-0.5792600000000001
 30
0.0
  0
VERTEX
  5
27F
  8
0
 10
2.5111400000000001
 20
-0.5768200000000001
 30
0.0
  0
VERTEX
  5
280
  8
0
 10
2.5299299999999989
 20
-0.57436
 30
0.0
  0
VERTEX
  5
281
  8
0
 10
2.5487099999999989
 20
-0.57189
 30
0.0
  0
VERTEX
  5
282
  8
0
 10
2.5674899999999998
 20
-0.56939
 30
0.0
  0
VERTEX
  5
283
  8
0
 10
2.586279999999999
 20
-0.56687
 30
0.0
  0
VERTEX
  5
284
  8
0
 10
2.605059999999999
 20
-0.56434
 30
0.0
  0
VERTEX
  5
285
  8
0
 10
2.6238399999999991
 20
-0.5617800000000001
 30
0.0
  0
VERTEX
  5
286
  8
0
 10
2.64263
 20
-0.5592000000000001
 30
0.0
  0
VERTEX
  5
287
  8
0
 10
2.6614100000000001
 20
-0.55661
 30
0.0
  0
VERTEX
  5
288
  8
0
 10
2.6801900000000001
 20
-0.55399
 30
0.0
  0
VERTEX
  5
289
  8
0
 10
2.6989799999999988
 20
-0.5513500000000001
 30
0.0
  0
VERTEX
  5
28A
  8
0
 10
2.7177599999999988
 20
-0.5486900000000001
 30
0.0
  0
VERTEX
  5
28B
  8
0
 10
2.7365400000000002
 20
-0.5460000000000002
 30
0.0
  0
VERTEX
  5
28C
  8
0
 10
2.7553200000000002
 20
-0.5433
 30
0.0
  0
VERTEX
  5
28D
  8
0
 10
2.774109999999999
 20
-0.54057
 30
0.0
  0
VERTEX
  5
28E
  8
0
 10
2.7928899999999999
 20
-0.53781
 30
0.0
  0
VERTEX
  5
28F
  8
0
 10
2.811669999999999
 20
-0.53504
 30
0.0
  0
VERTEX
  5
290
  8
0
 10
2.83046
 20
-0.5322300000000001
 30
0.0
  0
VERTEX
  5
291
  8
0
 10
2.8492399999999991
 20
-0.5294
 30
0.0
  0
VERTEX
  5
292
  8
0
 10
2.8680199999999991
 20
-0.52655
 30
0.0
  0
VERTEX
  5
293
  8
0
 10
2.8868099999999992
 20
-0.52367
 30
0.0
  0
VERTEX
  5
294
  8
0
 10
2.9055900000000001
 20
-0.5207600000000001
 30
0.0
  0
VERTEX
  5
295
  8
0
 10
2.9243700000000001
 20
-0.5178300000000001
 30
0.0
  0
VERTEX
  5
296
  8
0
 10
2.9431599999999989
 20
-0.51487
 30
0.0
  0
VERTEX
  5
297
  8
0
 10
2.9619399999999998
 20
-0.5118800000000001
 30
0.0
  0
VERTEX
  5
298
  8
0
 10
2.9807199999999998
 20
-0.5088600000000002
 30
0.0
  0
VERTEX
  5
299
  8
0
 10
2.9994999999999989
 20
-0.50581
 30
0.0
  0
VERTEX
  5
29A
  8
0
 10
3.0182899999999999
 20
-0.5027300000000001
 30
0.0
  0
VERTEX
  5
29B
  8
0
 10
3.037069999999999
 20
-0.49963
 30
0.0
  0
VERTEX
  5
29C
  8
0
 10
3.0558499999999991
 20
-0.49649
 30
0.0
  0
VERTEX
  5
29D
  8
0
 10
3.07464
 20
-0.49332
 30
0.0
  0
VERTEX
  5
29E
  8
0
 10
3.0934200000000001
 20
-0.49013
 30
0.0
  0
VERTEX
  5
29F
  8
0
 10
3.1122000000000001
 20
-0.4869
 30
0.0
  0
VERTEX
  5
2A0
  8
0
 10
3.1309900000000002
 20
-0.48364
 30
0.0
  0
VERTEX
  5
2A1
  8
0
 10
3.1497700000000002
 20
-0.48035
 30
0.0
  0
VERTEX
  5
2A2
  8
0
 10
3.1685500000000002
 20
-0.47703
 30
0.0
  0
VERTEX
  5
2A3
  8
0
 10
3.1873399999999998
 20
-0.47367
 30
0.0
  0
VERTEX
  5
2A4
  8
0
 10
3.206119999999999
 20
-0.47029
 30
0.0
  0
VERTEX
  5
2A5
  8
0
 10
3.224899999999999
 20
-0.4668700000000001
 30
0.0
  0
VERTEX
  5
2A6
  8
0
 10
3.243679999999999
 20
-0.46342
 30
0.0
  0
VERTEX
  5
2A7
  8
0
 10
3.2624699999999991
 20
-0.4599300000000001
 30
0.0
  0
VERTEX
  5
2A8
  8
0
 10
3.28125
 20
-0.4564100000000001
 30
0.0
  0
VERTEX
  5
2A9
  8
0
 10
3.30003
 20
-0.4528600000000001
 30
0.0
  0
VERTEX
  5
2AA
  8
0
 10
3.3188199999999992
 20
-0.44928
 30
0.0
  0
VERTEX
  5
2AB
  8
0
 10
3.3376000000000001
 20
-0.4456600000000001
 30
0.0
  0
VERTEX
  5
2AC
  8
0
 10
3.3563800000000001
 20
-0.442
 30
0.0
  0
VERTEX
  5
2AD
  8
0
 10
3.3751699999999989
 20
-0.4383100000000001
 30
0.0
  0
VERTEX
  5
2AE
  8
0
 10
3.3939499999999989
 20
-0.43459
 30
0.0
  0
VERTEX
  5
2AF
  8
0
 10
3.4127299999999998
 20
-0.43083
 30
0.0
  0
VERTEX
  5
2B0
  8
0
 10
3.431519999999999
 20
-0.4270300000000001
 30
0.0
  0
VERTEX
  5
2B1
  8
0
 10
3.450299999999999
 20
-0.4232000000000001
 30
0.0
  0
VERTEX
  5
2B2
  8
0
 10
3.4690799999999999
 20
-0.41932
 30
0.0
  0
VERTEX
  5
2B3
  8
0
 10
3.4878599999999991
 20
-0.4154100000000001
 30
0.0
  0
VERTEX
  5
2B4
  8
0
 10
3.50665
 20
-0.4114600000000001
 30
0.0
  0
VERTEX
  5
2B5
  8
0
 10
3.5254300000000001
 20
-0.4074600000000001
 30
0.0
  0
VERTEX
  5
2B6
  8
0
 10
3.5442099999999992
 20
-0.40341
 30
0.0
  0
VERTEX
  5
2B7
  8
0
 10
3.5630000000000002
 20
-0.39932
 30
0.0
  0
VERTEX
  5
2B8
  8
0
 10
3.5817800000000002
 20
-0.39519
 30
0.0
  0
VERTEX
  5
2B9
  8
0
 10
3.6005599999999989
 20
-0.391
 30
0.0
  0
VERTEX
  5
2BA
  8
0
 10
3.619349999999999
 20
-0.38677
 30
0.0
  0
VERTEX
  5
2BB
  8
0
 10
3.6381299999999999
 20
-0.3824800000000001
 30
0.0
  0
VERTEX
  5
2BC
  8
0
 10
3.656909999999999
 20
-0.37813
 30
0.0
  0
VERTEX
  5
2BD
  8
0
 10
3.6756999999999991
 20
-0.37373
 30
0.0
  0
VERTEX
  5
2BE
  8
0
 10
3.69448
 20
-0.36927
 30
0.0
  0
VERTEX
  5
2BF
  8
0
 10
3.71326
 20
-0.36475
 30
0.0
  0
VERTEX
  5
2C0
  8
0
 10
3.7320500000000001
 20
-0.36017
 30
0.0
  0
VERTEX
  5
2C1
  8
0
 10
3.7508300000000001
 20
-0.35552
 30
0.0
  0
VERTEX
  5
2C2
  8
0
 10
3.7696099999999988
 20
-0.3508
 30
0.0
  0
VERTEX
  5
2C3
  8
0
 10
3.7883900000000001
 20
-0.34602
 30
0.0
  0
VERTEX
  5
2C4
  8
0
 10
3.8071799999999998
 20
-0.3411599999999999
 30
0.0
  0
VERTEX
  5
2C5
  8
0
 10
3.8259599999999989
 20
-0.33623
 30
0.0
  0
VERTEX
  5
2C6
  8
0
 10
3.8447399999999998
 20
-0.33123
 30
0.0
  0
VERTEX
  5
2C7
  8
0
 10
3.8635299999999999
 20
-0.3261699999999999
 30
0.0
  0
VERTEX
  5
2C8
  8
0
 10
3.8823099999999999
 20
-0.32103
 30
0.0
  0
VERTEX
  5
2C9
  8
0
 10
3.9010899999999991
 20
-0.31584
 30
0.0
  0
VERTEX
  5
2CA
  8
0
 10
3.91988
 20
-0.31058
 30
0.0
  0
VERTEX
  5
2CB
  8
0
 10
3.93866
 20
-0.30527
 30
0.0
  0
VERTEX
  5
2CC
  8
0
 10
3.9574400000000001
 20
-0.2999
 30
0.0
  0
VERTEX
  5
2CD
  8
0
 10
3.9762300000000002
 20
-0.29448
 30
0.0
  0
VERTEX
  5
2CE
  8
0
 10
3.9950099999999988
 20
-0.289
 30
0.0
  0
VERTEX
  5
2CF
  8
0
 10
4.0137900000000002
 20
-0.28345
 30
0.0
  0
VERTEX
  5
2D0
  8
0
 10
4.0325699999999989
 20
-0.27783
 30
0.0
  0
VERTEX
  5
2D1
  8
0
 10
4.051359999999999
 20
-0.27211
 30
0.0
  0
VERTEX
  5
2D2
  8
0
 10
4.0701400000000003
 20
-0.26629
 30
0.0
  0
VERTEX
  5
2D3
  8
0
 10
4.088919999999999
 20
-0.26036
 30
0.0
  0
VERTEX
  5
2D4
  8
0
 10
4.1077099999999991
 20
-0.25432
 30
0.0
  0
VERTEX
  5
2D5
  8
0
 10
4.1264900000000004
 20
-0.24815
 30
0.0
  0
VERTEX
  5
2D6
  8
0
 10
4.14527
 20
-0.24185
 30
0.0
  0
VERTEX
  5
2D7
  8
0
 10
4.1640600000000001
 20
-0.2354
 30
0.0
  0
VERTEX
  5
2D8
  8
0
 10
4.1828399999999997
 20
-0.22881
 30
0.0
  0
VERTEX
  5
2D9
  8
0
 10
4.2016200000000001
 20
-0.22205
 30
0.0
  0
VERTEX
  5
2DA
  8
0
 10
4.2204100000000002
 20
-0.21513
 30
0.0
  0
VERTEX
  5
2DB
  8
0
 10
4.2391899999999989
 20
-0.20803
 30
0.0
  0
VERTEX
  5
2DC
  8
0
 10
4.2579699999999994
 20
-0.20074
 30
0.0
  0
VERTEX
  5
2DD
  8
0
 10
4.2767499999999989
 20
-0.19323
 30
0.0
  0
VERTEX
  5
2DE
  8
0
 10
4.295539999999999
 20
-0.18548
 30
0.0
  0
VERTEX
  5
2DF
  8
0
 10
4.3143199999999986
 20
-0.17747
 30
0.0
  0
VERTEX
  5
2E0
  8
0
 10
4.3330999999999991
 20
-0.16917
 30
0.0
  0
VERTEX
  5
2E1
  8
0
 10
4.3330999999999991
 20
0.4512100000000001
 30
0.0
  0
VERTEX
  5
2E2
  8
0
 10
4.3067399999999996
 20
0.4722800000000001
 30
0.0
  0
VERTEX
  5
2E3
  8
0
 10
4.2803800000000001
 20
0.49304
 30
0.0
  0
VERTEX
  5
2E4
  8
0
 10
4.2540199999999988
 20
0.51348
 30
0.0
  0
VERTEX
  5
2E5
  8
0
 10
4.2276600000000002
 20
0.53355
 30
0.0
  0
VERTEX
  5
2E6
  8
0
 10
4.2012999999999989
 20
0.5532100000000001
 30
0.0
  0
VERTEX
  5
2E7
  8
0
 10
4.1749400000000003
 20
0.5724600000000001
 30
0.0
  0
VERTEX
  5
2E8
  8
0
 10
4.1485699999999994
 20
0.59129
 30
0.0
  0
VERTEX
  5
2E9
  8
0
 10
4.122209999999999
 20
0.6097100000000001
 30
0.0
  0
VERTEX
  5
2EA
  8
0
 10
4.0958500000000004
 20
0.6277300000000001
 30
0.0
  0
VERTEX
  5
2EB
  8
0
 10
4.0694900000000001
 20
0.6453300000000001
 30
0.0
  0
VERTEX
  5
2EC
  8
0
 10
4.0431299999999997
 20
0.66254
 30
0.0
  0
VERTEX
  5
2ED
  8
0
 10
4.0167699999999993
 20
0.67935
 30
0.0
  0
VERTEX
  5
2EE
  8
0
 10
3.9904099999999989
 20
0.6957800000000001
 30
0.0
  0
VERTEX
  5
2EF
  8
0
 10
3.964049999999999
 20
0.71186
 30
0.0
  0
VERTEX
  5
2F0
  8
0
 10
3.9376799999999998
 20
0.7276
 30
0.0
  0
VERTEX
  5
2F1
  8
0
 10
3.911319999999999
 20
0.7430200000000001
 30
0.0
  0
VERTEX
  5
2F2
  8
0
 10
3.8849599999999991
 20
0.75813
 30
0.0
  0
VERTEX
  5
2F3
  8
0
 10
3.8586
 20
0.7729600000000002
 30
0.0
  0
VERTEX
  5
2F4
  8
0
 10
3.8322400000000001
 20
0.7875100000000002
 30
0.0
  0
VERTEX
  5
2F5
  8
0
 10
3.8058800000000002
 20
0.8017999999999998
 30
0.0
  0
VERTEX
  5
2F6
  8
0
 10
3.7795199999999989
 20
0.81584
 30
0.0
  0
VERTEX
  5
2F7
  8
0
 10
3.7531599999999989
 20
0.8296399999999998
 30
0.0
  0
VERTEX
  5
2F8
  8
0
 10
3.7267899999999998
 20
0.8432200000000001
 30
0.0
  0
VERTEX
  5
2F9
  8
0
 10
3.7004299999999999
 20
0.8565799999999999
 30
0.0
  0
VERTEX
  5
2FA
  8
0
 10
3.6740699999999991
 20
0.86972
 30
0.0
  0
VERTEX
  5
2FB
  8
0
 10
3.64771
 20
0.8826399999999999
 30
0.0
  0
VERTEX
  5
2FC
  8
0
 10
3.6213500000000001
 20
0.8953700000000001
 30
0.0
  0
VERTEX
  5
2FD
  8
0
 10
3.5949900000000001
 20
0.9079
 30
0.0
  0
VERTEX
  5
2FE
  8
0
 10
3.5686300000000002
 20
0.92025
 30
0.0
  0
VERTEX
  5
2FF
  8
0
 10
3.5422699999999989
 20
0.9324200000000001
 30
0.0
  0
VERTEX
  5
300
  8
0
 10
3.5158999999999989
 20
0.94441
 30
0.0
  0
VERTEX
  5
301
  8
0
 10
3.4895399999999999
 20
0.95624
 30
0.0
  0
VERTEX
  5
302
  8
0
 10
3.4631799999999999
 20
0.9679
 30
0.0
  0
VERTEX
  5
303
  8
0
 10
3.4368199999999991
 20
0.97941
 30
0.0
  0
VERTEX
  5
304
  8
0
 10
3.41046
 20
0.99076
 30
0.0
  0
VERTEX
  5
305
  8
0
 10
3.3841000000000001
 20
1.00197
 30
0.0
  0
VERTEX
  5
306
  8
0
 10
3.3577400000000002
 20
1.013029999999999
 30
0.0
  0
VERTEX
  5
307
  8
0
 10
3.3313699999999988
 20
1.023949999999999
 30
0.0
  0
VERTEX
  5
308
  8
0
 10
3.3050099999999989
 20
1.034729999999999
 30
0.0
  0
VERTEX
  5
309
  8
0
 10
3.278649999999999
 20
1.0453600000000001
 30
0.0
  0
VERTEX
  5
30A
  8
0
 10
3.2522899999999999
 20
1.05586
 30
0.0
  0
VERTEX
  5
30B
  8
0
 10
3.2259299999999991
 20
1.0662199999999999
 30
0.0
  0
VERTEX
  5
30C
  8
0
 10
3.19957
 20
1.0764400000000001
 30
0.0
  0
VERTEX
  5
30D
  8
0
 10
3.1732099999999992
 20
1.0865199999999999
 30
0.0
  0
VERTEX
  5
30E
  8
0
 10
3.1468500000000001
 20
1.0964700000000001
 30
0.0
  0
VERTEX
  5
30F
  8
0
 10
3.1204800000000001
 20
1.1062899999999991
 30
0.0
  0
VERTEX
  5
310
  8
0
 10
3.0941200000000002
 20
1.1159799999999991
 30
0.0
  0
VERTEX
  5
311
  8
0
 10
3.0677599999999989
 20
1.1255399999999991
 30
0.0
  0
VERTEX
  5
312
  8
0
 10
3.041399999999999
 20
1.134979999999999
 30
0.0
  0
VERTEX
  5
313
  8
0
 10
3.0150399999999991
 20
1.1443000000000001
 30
0.0
  0
VERTEX
  5
314
  8
0
 10
2.98868
 20
1.1534999999999991
 30
0.0
  0
VERTEX
  5
315
  8
0
 10
2.9623200000000001
 20
1.1625799999999991
 30
0.0
  0
VERTEX
  5
316
  8
0
 10
2.9359599999999988
 20
1.17154
 30
0.0
  0
VERTEX
  5
317
  8
0
 10
2.9095900000000001
 20
1.180399999999999
 30
0.0
  0
VERTEX
  5
318
  8
0
 10
2.8832299999999988
 20
1.189149999999999
 30
0.0
  0
VERTEX
  5
319
  8
0
 10
2.8568699999999998
 20
1.197779999999999
 30
0.0
  0
VERTEX
  5
31A
  8
0
 10
2.830509999999999
 20
1.2063200000000001
 30
0.0
  0
VERTEX
  5
31B
  8
0
 10
2.804149999999999
 20
1.2147499999999991
 30
0.0
  0
VERTEX
  5
31C
  8
0
 10
2.7777899999999991
 20
1.2230799999999991
 30
0.0
  0
VERTEX
  5
31D
  8
0
 10
2.75143
 20
1.2313199999999991
 30
0.0
  0
VERTEX
  5
31E
  8
0
 10
2.7250700000000001
 20
1.23946
 30
0.0
  0
VERTEX
  5
31F
  8
0
 10
2.6987000000000001
 20
1.2475000000000001
 30
0.0
  0
VERTEX
  5
320
  8
0
 10
2.6723400000000002
 20
1.2554499999999991
 30
0.0
  0
VERTEX
  5
321
  8
0
 10
2.6459799999999989
 20
1.263309999999999
 30
0.0
  0
VERTEX
  5
322
  8
0
 10
2.6196199999999998
 20
1.2710900000000001
 30
0.0
  0
VERTEX
  5
323
  8
0
 10
2.593259999999999
 20
1.2787699999999991
 30
0.0
  0
VERTEX
  5
324
  8
0
 10
2.5668999999999991
 20
1.28637
 30
0.0
  0
VERTEX
  5
325
  8
0
 10
2.54054
 20
1.2938899999999991
 30
0.0
  0
VERTEX
  5
326
  8
0
 10
2.51417
 20
1.30132
 30
0.0
  0
VERTEX
  5
327
  8
0
 10
2.4878099999999992
 20
1.3086699999999989
 30
0.0
  0
VERTEX
  5
328
  8
0
 10
2.4614500000000001
 20
1.3159299999999989
 30
0.0
  0
VERTEX
  5
329
  8
0
 10
2.4350900000000002
 20
1.3231200000000001
 30
0.0
  0
VERTEX
  5
32A
  8
0
 10
2.4087299999999989
 20
1.33023
 30
0.0
  0
VERTEX
  5
32B
  8
0
 10
2.382369999999999
 20
1.3372599999999999
 30
0.0
  0
VERTEX
  5
32C
  8
0
 10
2.356009999999999
 20
1.3442099999999999
 30
0.0
  0
VERTEX
  5
32D
  8
0
 10
2.3296499999999991
 20
1.351089999999999
 30
0.0
  0
VERTEX
  5
32E
  8
0
 10
2.3032799999999991
 20
1.35789
 30
0.0
  0
VERTEX
  5
32F
  8
0
 10
2.2769200000000001
 20
1.3646199999999999
 30
0.0
  0
VERTEX
  5
330
  8
0
 10
2.2505599999999988
 20
1.3712799999999989
 30
0.0
  0
VERTEX
  5
331
  8
0
 10
2.2242000000000002
 20
1.3778699999999999
 30
0.0
  0
VERTEX
  5
332
  8
0
 10
2.1978399999999998
 20
1.38439
 30
0.0
  0
VERTEX
  5
333
  8
0
 10
2.171479999999999
 20
1.390839999999999
 30
0.0
  0
VERTEX
  5
334
  8
0
 10
2.145119999999999
 20
1.3972199999999999
 30
0.0
  0
VERTEX
  5
335
  8
0
 10
2.1187599999999991
 20
1.40354
 30
0.0
  0
VERTEX
  5
336
  8
0
 10
2.0923899999999991
 20
1.40978
 30
0.0
  0
VERTEX
  5
337
  8
0
 10
2.06603
 20
1.4159600000000001
 30
0.0
  0
VERTEX
  5
338
  8
0
 10
2.0396700000000001
 20
1.4220600000000001
 30
0.0
  0
VERTEX
  5
339
  8
0
 10
2.0133099999999988
 20
1.42811
 30
0.0
  0
VERTEX
  5
33A
  8
0
 10
1.98695
 20
1.434089999999999
 30
0.0
  0
VERTEX
  5
33B
  8
0
 10
1.9605900000000001
 20
1.4399999999999991
 30
0.0
  0
VERTEX
  5
33C
  8
0
 10
1.934229999999999
 20
1.44584
 30
0.0
  0
VERTEX
  5
33D
  8
0
 10
1.90787
 20
1.4516299999999991
 30
0.0
  0
VERTEX
  5
33E
  8
0
 10
1.8814999999999991
 20
1.457349999999999
 30
0.0
  0
VERTEX
  5
33F
  8
0
 10
1.85514
 20
1.4630099999999999
 30
0.0
  0
VERTEX
  5
340
  8
0
 10
1.828779999999999
 20
1.468599999999999
 30
0.0
  0
VERTEX
  5
341
  8
0
 10
1.8024199999999999
 20
1.47414
 30
0.0
  0
VERTEX
  5
342
  8
0
 10
1.7760599999999991
 20
1.4796100000000001
 30
0.0
  0
VERTEX
  5
343
  8
0
 10
1.7496999999999989
 20
1.48502
 30
0.0
  0
VERTEX
  5
344
  8
0
 10
1.7233400000000001
 20
1.49038
 30
0.0
  0
VERTEX
  5
345
  8
0
 10
1.6969700000000001
 20
1.4956700000000001
 30
0.0
  0
VERTEX
  5
346
  8
0
 10
1.670609999999999
 20
1.50091
 30
0.0
  0
VERTEX
  5
347
  8
0
 10
1.6442499999999991
 20
1.506089999999999
 30
0.0
  0
VERTEX
  5
348
  8
0
 10
1.6178900000000001
 20
1.5112099999999991
 30
0.0
  0
VERTEX
  5
349
  8
0
 10
1.591529999999999
 20
1.51627
 30
0.0
  0
VERTEX
  5
34A
  8
0
 10
1.56517
 20
1.5212799999999991
 30
0.0
  0
VERTEX
  5
34B
  8
0
 10
1.5388099999999989
 20
1.52624
 30
0.0
  0
VERTEX
  5
34C
  8
0
 10
1.5124500000000001
 20
1.531129999999999
 30
0.0
  0
VERTEX
  5
34D
  8
0
 10
1.486079999999999
 20
1.535979999999999
 30
0.0
  0
VERTEX
  5
34E
  8
0
 10
1.4597199999999999
 20
1.54077
 30
0.0
  0
VERTEX
  5
34F
  8
0
 10
1.4333599999999991
 20
1.5455099999999991
 30
0.0
  0
VERTEX
  5
350
  8
0
 10
1.4069999999999989
 20
1.5501899999999991
 30
0.0
  0
VERTEX
  5
351
  8
0
 10
1.380639999999999
 20
1.554829999999999
 30
0.0
  0
VERTEX
  5
352
  8
0
 10
1.354279999999999
 20
1.5594099999999991
 30
0.0
  0
VERTEX
  5
353
  8
0
 10
1.3279199999999991
 20
1.563939999999999
 30
0.0
  0
VERTEX
  5
354
  8
0
 10
1.3015600000000001
 20
1.5684199999999999
 30
0.0
  0
VERTEX
  5
355
  8
0
 10
1.27519
 20
1.5728599999999999
 30
0.0
  0
VERTEX
  5
356
  8
0
 10
1.248829999999999
 20
1.5772399999999991
 30
0.0
  0
VERTEX
  5
357
  8
0
 10
1.2224699999999999
 20
1.5815799999999991
 30
0.0
  0
VERTEX
  5
358
  8
0
 10
1.19611
 20
1.58586
 30
0.0
  0
VERTEX
  5
359
  8
0
 10
1.1697500000000001
 20
1.5901000000000001
 30
0.0
  0
VERTEX
  5
35A
  8
0
 10
1.143389999999999
 20
1.5942899999999991
 30
0.0
  0
VERTEX
  5
35B
  8
0
 10
1.1170299999999991
 20
1.598439999999999
 30
0.0
  0
VERTEX
  5
35C
  8
0
 10
1.09067
 20
1.6025299999999989
 30
0.0
  0
VERTEX
  5
35D
  8
0
 10
1.0643
 20
1.606579999999999
 30
0.0
  0
VERTEX
  5
35E
  8
0
 10
1.037939999999999
 20
1.61059
 30
0.0
  0
VERTEX
  5
35F
  8
0
 10
1.011579999999999
 20
1.614539999999999
 30
0.0
  0
VERTEX
  5
360
  8
0
 10
0.9852200000000001
 20
1.6184599999999989
 30
0.0
  0
VERTEX
  5
361
  8
0
 10
0.9588599999999999
 20
1.62232
 30
0.0
  0
VERTEX
  5
362
  8
0
 10
0.9324999999999999
 20
1.6261499999999991
 30
0.0
  0
VERTEX
  5
363
  8
0
 10
0.9061399999999999
 20
1.629929999999999
 30
0.0
  0
VERTEX
  5
364
  8
0
 10
0.8797700000000001
 20
1.6336599999999999
 30
0.0
  0
VERTEX
  5
365
  8
0
 10
0.85341
 20
1.6373500000000001
 30
0.0
  0
VERTEX
  5
366
  8
0
 10
0.82705
 20
1.641
 30
0.0
  0
VERTEX
  5
367
  8
0
 10
0.8006899999999999
 20
1.6446000000000001
 30
0.0
  0
VERTEX
  5
368
  8
0
 10
0.77433
 20
1.648159999999999
 30
0.0
  0
VERTEX
  5
369
  8
0
 10
0.7479700000000001
 20
1.6516799999999989
 30
0.0
  0
VERTEX
  5
36A
  8
0
 10
0.7216100000000001
 20
1.6551599999999991
 30
0.0
  0
VERTEX
  5
36B
  8
0
 10
0.6952500000000001
 20
1.65859
 30
0.0
  0
VERTEX
  5
36C
  8
0
 10
0.6688800000000001
 20
1.6619900000000001
 30
0.0
  0
VERTEX
  5
36D
  8
0
 10
0.6425200000000001
 20
1.66534
 30
0.0
  0
VERTEX
  5
36E
  8
0
 10
0.61616
 20
1.6686499999999991
 30
0.0
  0
VERTEX
  5
36F
  8
0
 10
0.5898
 20
1.6719200000000001
 30
0.0
  0
VERTEX
  5
370
  8
0
 10
0.5634400000000001
 20
1.6751400000000001
 30
0.0
  0
VERTEX
  5
371
  8
0
 10
0.53708
 20
1.678329999999999
 30
0.0
  0
VERTEX
  5
372
  8
0
 10
0.51072
 20
1.681479999999999
 30
0.0
  0
VERTEX
  5
373
  8
0
 10
0.4843600000000001
 20
1.6845799999999991
 30
0.0
  0
VERTEX
  5
374
  8
0
 10
0.45799
 20
1.6876500000000001
 30
0.0
  0
VERTEX
  5
375
  8
0
 10
0.43163
 20
1.6906699999999999
 30
0.0
  0
VERTEX
  5
376
  8
0
 10
0.40527
 20
1.6936599999999991
 30
0.0
  0
VERTEX
  5
377
  8
0
 10
0.3789099999999999
 20
1.6966000000000001
 30
0.0
  0
VERTEX
  5
378
  8
0
 10
0.08019
 20
1.7262900000000001
 30
0.0
  0
VERTEX
  5
379
  8
0
 10
0.0795
 20
1.736759999999999
 30
0.0
  0
VERTEX
  5
37A
  8
0
 10
0.07746
 20
1.7470399999999999
 30
0.0
  0
VERTEX
  5
37B
  8
0
 10
0.07409
 20
1.7569799999999991
 30
0.0
  0
VERTEX
  5
37C
  8
0
 10
0.06945
 20
1.766379999999999
 30
0.0
  0
VERTEX
  5
37D
  8
0
 10
0.06362
 20
1.7751099999999991
 30
0.0
  0
VERTEX
  5
37E
  8
0
 10
0.0567
 20
1.7829900000000001
 30
0.0
  0
VERTEX
  5
37F
  8
0
 10
0.04882
 20
1.789909999999999
 30
0.0
  0
VERTEX
  5
380
  8
0
 10
0.0401
 20
1.7957399999999999
 30
0.0
  0
VERTEX
  5
381
  8
0
 10
0.03069
 20
1.80037
 30
0.0
  0
VERTEX
  5
382
  8
0
 10
0.02075
 20
1.8037499999999991
 30
0.0
  0
VERTEX
  5
383
  8
0
 10
0.01047
 20
1.80579
 30
0.0
  0
VERTEX
  5
384
  8
0
 10
0.0
 20
1.806479999999999
 30
0.0
  0
VERTEX
  5
385
  8
0
 10
-0.01047
 20
1.80579
 30
0.0
  0
VERTEX
  5
386
  8
0
 10
-0.02075
 20
1.8037499999999991
 30
0.0
  0
VERTEX
  5
387
  8
0
 10
-0.03069
 20
1.80037
 30
0.0
  0
VERTEX
  5
388
  8
0
 10
-0.0401
 20
1.7957399999999999
 30
0.0
  0
VERTEX
  5
389
  8
0
 10
-0.04882
 20
1.789909999999999
 30
0.0
  0
VERTEX
  5
38A
  8
0
 10
-0.0567
 20
1.7829900000000001
 30
0.0
  0
VERTEX
  5
38B
  8
0
 10
-0.06362
 20
1.7751099999999991
 30
0.0
  0
VERTEX
  5
38C
  8
0
 10
-0.06945
 20
1.766379999999999
 30
0.0
  0
VERTEX
  5
38D
  8
0
 10
-0.07409
 20
1.7569799999999991
 30
0.0
  0
VERTEX
  5
38E
  8
0
 10
-0.07746
 20
1.7470399999999999
 30
0.0
  0
VERTEX
  5
38F
  8
0
 10
-0.0795
 20
1.736759999999999
 30
0.0
  0
VERTEX
  5
390
  8
0
 10
-0.08019
 20
1.7262900000000001
 30
0.0
  0
VERTEX
  5
391
  8
0
 10
-0.61709
 20
1.7262900000000001
 30
0.0
  0
VERTEX
  5
392
  8
0
 10
-0.61709
 20
1.9777400000000001
 30
0.0
  0
VERTEX
  5
393
  8
0
 10
-0.5814
 20
1.975579999999999
 30
0.0
  0
VERTEX
  5
394
  8
0
 10
-0.5457100000000001
 20
1.9733599999999989
 30
0.0
  0
VERTEX
  5
395
  8
0
 10
-0.51002
 20
1.9710799999999991
 30
0.0
  0
VERTEX
  5
396
  8
0
 10
-0.4743300000000001
 20
1.9687399999999999
 30
0.0
  0
VERTEX
  5
397
  8
0
 10
-0.43864
 20
1.96634
 30
0.0
  0
VERTEX
  5
398
  8
0
 10
-0.40295
 20
1.963879999999999
 30
0.0
  0
VERTEX
  5
399
  8
0
 10
-0.36726
 20
1.9613599999999991
 30
0.0
  0
VERTEX
  5
39A
  8
0
 10
-0.33157
 20
1.9587799999999991
 30
0.0
  0
VERTEX
  5
39B
  8
0
 10
-0.29588
 20
1.956129999999999
 30
0.0
  0
VERTEX
  5
39C
  8
0
 10
-0.26019
 20
1.9534199999999999
 30
0.0
  0
VERTEX
  5
39D
  8
0
 10
-0.2245
 20
1.9506499999999991
 30
0.0
  0
VERTEX
  5
39E
  8
0
 10
-0.18881
 20
1.9478099999999989
 30
0.0
  0
VERTEX
  5
39F
  8
0
 10
-0.15312
 20
1.944909999999999
 30
0.0
  0
VERTEX
  5
3A0
  8
0
 10
-0.11743
 20
1.94194
 30
0.0
  0
VERTEX
  5
3A1
  8
0
 10
-0.08174
 20
1.938909999999999
 30
0.0
  0
VERTEX
  5
3A2
  8
0
 10
-0.04605
 20
1.9358200000000001
 30
0.0
  0
VERTEX
  5
3A3
  8
0
 10
-0.01036
 20
1.9326599999999989
 30
0.0
  0
VERTEX
  5
3A4
  8
0
 10
0.02532
 20
1.9294299999999991
 30
0.0
  0
VERTEX
  5
3A5
  8
0
 10
0.06101
 20
1.926129999999999
 30
0.0
  0
VERTEX
  5
3A6
  8
0
 10
0.0967
 20
1.9227599999999989
 30
0.0
  0
VERTEX
  5
3A7
  8
0
 10
0.13239
 20
1.91933
 30
0.0
  0
VERTEX
  5
3A8
  8
0
 10
0.16808
 20
1.9158200000000001
 30
0.0
  0
VERTEX
  5
3A9
  8
0
 10
0.20377
 20
1.91225
 30
0.0
  0
VERTEX
  5
3AA
  8
0
 10
0.23946
 20
1.9086000000000001
 30
0.0
  0
VERTEX
  5
3AB
  8
0
 10
0.27515
 20
1.90489
 30
0.0
  0
VERTEX
  5
3AC
  8
0
 10
0.31084
 20
1.9010999999999989
 30
0.0
  0
VERTEX
  5
3AD
  8
0
 10
0.34653
 20
1.89724
 30
0.0
  0
VERTEX
  5
3AE
  8
0
 10
0.38222
 20
1.8933099999999989
 30
0.0
  0
VERTEX
  5
3AF
  8
0
 10
0.4179100000000001
 20
1.8893
 30
0.0
  0
VERTEX
  5
3B0
  8
0
 10
0.4536
 20
1.8852199999999999
 30
0.0
  0
VERTEX
  5
3B1
  8
0
 10
0.48929
 20
1.88107
 30
0.0
  0
VERTEX
  5
3B2
  8
0
 10
0.5249800000000001
 20
1.876839999999999
 30
0.0
  0
VERTEX
  5
3B3
  8
0
 10
0.56067
 20
1.8725400000000001
 30
0.0
  0
VERTEX
  5
3B4
  8
0
 10
0.59636
 20
1.8681700000000001
 30
0.0
  0
VERTEX
  5
3B5
  8
0
 10
0.63205
 20
1.8637099999999991
 30
0.0
  0
VERTEX
  5
3B6
  8
0
 10
0.6677400000000001
 20
1.8591899999999999
 30
0.0
  0
VERTEX
  5
3B7
  8
0
 10
0.70343
 20
1.854579999999999
 30
0.0
  0
VERTEX
  5
3B8
  8
0
 10
0.73912
 20
1.8499000000000001
 30
0.0
  0
VERTEX
  5
3B9
  8
0
 10
0.77481
 20
1.8451500000000001
 30
0.0
  0
VERTEX
  5
3BA
  8
0
 10
0.8105
 20
1.840309999999999
 30
0.0
  0
VERTEX
  5
3BB
  8
0
 10
0.8461899999999999
 20
1.835399999999999
 30
0.0
  0
VERTEX
  5
3BC
  8
0
 10
0.8818799999999999
 20
1.830409999999999
 30
0.0
  0
VERTEX
  5
3BD
  8
0
 10
0.91757
 20
1.825329999999999
 30
0.0
  0
VERTEX
  5
3BE
  8
0
 10
0.95326
 20
1.820179999999999
 30
0.0
  0
VERTEX
  5
3BF
  8
0
 10
0.9889499999999999
 20
1.81494
 30
0.0
  0
VERTEX
  5
3C0
  8
0
 10
1.0246399999999991
 20
1.809629999999999
 30
0.0
  0
VERTEX
  5
3C1
  8
0
 10
1.0603299999999991
 20
1.8042199999999999
 30
0.0
  0
VERTEX
  5
3C2
  8
0
 10
1.09602
 20
1.79874
 30
0.0
  0
VERTEX
  5
3C3
  8
0
 10
1.1317099999999991
 20
1.793159999999999
 30
0.0
  0
VERTEX
  5
3C4
  8
0
 10
1.1673999999999991
 20
1.7875000000000001
 30
0.0
  0
VERTEX
  5
3C5
  8
0
 10
1.2030899999999991
 20
1.7817599999999989
 30
0.0
  0
VERTEX
  5
3C6
  8
0
 10
1.2387799999999991
 20
1.7759199999999999
 30
0.0
  0
VERTEX
  5
3C7
  8
0
 10
1.2744699999999991
 20
1.77
 30
0.0
  0
VERTEX
  5
3C8
  8
0
 10
1.3101599999999991
 20
1.7639899999999999
 30
0.0
  0
VERTEX
  5
3C9
  8
0
 10
1.3458499999999991
 20
1.757879999999999
 30
0.0
  0
VERTEX
  5
3CA
  8
0
 10
1.3815399999999991
 20
1.75169
 30
0.0
  0
VERTEX
  5
3CB
  8
0
 10
1.4172299999999991
 20
1.7454000000000001
 30
0.0
  0
VERTEX
  5
3CC
  8
0
 10
1.4529199999999991
 20
1.7390099999999991
 30
0.0
  0
VERTEX
  5
3CD
  8
0
 10
1.4886099999999991
 20
1.732529999999999
 30
0.0
  0
VERTEX
  5
3CE
  8
0
 10
1.5243
 20
1.7259500000000001
 30
0.0
  0
VERTEX
  5
3CF
  8
0
 10
1.5599899999999991
 20
1.7192700000000001
 30
0.0
  0
VERTEX
  5
3D0
  8
0
 10
1.5956799999999991
 20
1.71248
 30
0.0
  0
VERTEX
  5
3D1
  8
0
 10
1.6313699999999991
 20
1.7056
 30
0.0
  0
VERTEX
  5
3D2
  8
0
 10
1.6670599999999991
 20
1.6986099999999991
 30
0.0
  0
VERTEX
  5
3D3
  8
0
 10
1.7027399999999999
 20
1.6915199999999999
 30
0.0
  0
VERTEX
  5
3D4
  8
0
 10
1.738429999999999
 20
1.6843099999999991
 30
0.0
  0
VERTEX
  5
3D5
  8
0
 10
1.7741199999999999
 20
1.6769999999999989
 30
0.0
  0
VERTEX
  5
3D6
  8
0
 10
1.809809999999999
 20
1.669579999999999
 30
0.0
  0
VERTEX
  5
3D7
  8
0
 10
1.845499999999999
 20
1.6620499999999989
 30
0.0
  0
VERTEX
  5
3D8
  8
0
 10
1.8811899999999999
 20
1.6544000000000001
 30
0.0
  0
VERTEX
  5
3D9
  8
0
 10
1.916879999999999
 20
1.6466400000000001
 30
0.0
  0
VERTEX
  5
3DA
  8
0
 10
1.9525699999999999
 20
1.6387599999999991
 30
0.0
  0
VERTEX
  5
3DB
  8
0
 10
1.9882599999999999
 20
1.6307599999999991
 30
0.0
  0
VERTEX
  5
3DC
  8
0
 10
2.0239500000000001
 20
1.622649999999999
 30
0.0
  0
VERTEX
  5
3DD
  8
0
 10
2.0596399999999999
 20
1.6144099999999999
 30
0.0
  0
VERTEX
  5
3DE
  8
0
 10
2.0953300000000001
 20
1.6060499999999991
 30
0.0
  0
VERTEX
  5
3DF
  8
0
 10
2.131019999999999
 20
1.5975699999999999
 30
0.0
  0
VERTEX
  5
3E0
  8
0
 10
2.1667099999999988
 20
1.588959999999999
 30
0.0
  0
VERTEX
  5
3E1
  8
0
 10
2.202399999999999
 20
1.58022
 30
0.0
  0
VERTEX
  5
3E2
  8
0
 10
2.2380900000000001
 20
1.5713600000000001
 30
0.0
  0
VERTEX
  5
3E3
  8
0
 10
2.273779999999999
 20
1.56237
 30
0.0
  0
VERTEX
  5
3E4
  8
0
 10
2.3094700000000001
 20
1.5532399999999991
 30
0.0
  0
VERTEX
  5
3E5
  8
0
 10
2.345159999999999
 20
1.5439899999999991
 30
0.0
  0
VERTEX
  5
3E6
  8
0
 10
2.3808500000000001
 20
1.534589999999999
 30
0.0
  0
VERTEX
  5
3E7
  8
0
 10
2.4165399999999999
 20
1.5250600000000001
 30
0.0
  0
VERTEX
  5
3E8
  8
0
 10
2.4522300000000001
 20
1.5153799999999991
 30
0.0
  0
VERTEX
  5
3E9
  8
0
 10
2.487919999999999
 20
1.50556
 30
0.0
  0
VERTEX
  5
3EA
  8
0
 10
2.5236099999999988
 20
1.4955899999999991
 30
0.0
  0
VERTEX
  5
3EB
  8
0
 10
2.559299999999999
 20
1.4854599999999989
 30
0.0
  0
VERTEX
  5
3EC
  8
0
 10
2.5949900000000001
 20
1.475179999999999
 30
0.0
  0
VERTEX
  5
3ED
  8
0
 10
2.630679999999999
 20
1.464739999999999
 30
0.0
  0
VERTEX
  5
3EE
  8
0
 10
2.6663700000000001
 20
1.4541399999999991
 30
0.0
  0
VERTEX
  5
3EF
  8
0
 10
2.702059999999999
 20
1.443379999999999
 30
0.0
  0
VERTEX
  5
3F0
  8
0
 10
2.7377500000000001
 20
1.432439999999999
 30
0.0
  0
VERTEX
  5
3F1
  8
0
 10
2.7734399999999999
 20
1.42134
 30
0.0
  0
VERTEX
  5
3F2
  8
0
 10
2.8091300000000001
 20
1.41005
 30
0.0
  0
VERTEX
  5
3F3
  8
0
 10
2.844819999999999
 20
1.3985700000000001
 30
0.0
  0
VERTEX
  5
3F4
  8
0
 10
2.8805099999999988
 20
1.3869100000000001
 30
0.0
  0
VERTEX
  5
3F5
  8
0
 10
2.916199999999999
 20
1.3750500000000001
 30
0.0
  0
VERTEX
  5
3F6
  8
0
 10
2.9518900000000001
 20
1.362989999999999
 30
0.0
  0
VERTEX
  5
3F7
  8
0
 10
2.987579999999999
 20
1.3507299999999991
 30
0.0
  0
VERTEX
  5
3F8
  8
0
 10
3.0232700000000001
 20
1.338239999999999
 30
0.0
  0
VERTEX
  5
3F9
  8
0
 10
3.058959999999999
 20
1.3255399999999991
 30
0.0
  0
VERTEX
  5
3FA
  8
0
 10
3.0946500000000001
 20
1.3126100000000001
 30
0.0
  0
VERTEX
  5
3FB
  8
0
 10
3.1303399999999999
 20
1.29945
 30
0.0
  0
VERTEX
  5
3FC
  8
0
 10
3.1660300000000001
 20
1.286049999999999
 30
0.0
  0
VERTEX
  5
3FD
  8
0
 10
3.201719999999999
 20
1.27241
 30
0.0
  0
VERTEX
  5
3FE
  8
0
 10
3.2374099999999988
 20
1.25851
 30
0.0
  0
VERTEX
  5
3FF
  8
0
 10
3.273099999999999
 20
1.2443699999999991
 30
0.0
  0
VERTEX
  5
400
  8
0
 10
3.3087900000000001
 20
1.2299599999999991
 30
0.0
  0
VERTEX
  5
401
  8
0
 10
3.3444799999999999
 20
1.2153
 30
0.0
  0
VERTEX
  5
402
  8
0
 10
3.3801699999999988
 20
1.20038
 30
0.0
  0
VERTEX
  5
403
  8
0
 10
3.4158499999999989
 20
1.1851899999999991
 30
0.0
  0
VERTEX
  5
404
  8
0
 10
3.4515400000000001
 20
1.1697200000000001
 30
0.0
  0
VERTEX
  5
405
  8
0
 10
3.4872299999999998
 20
1.15398
 30
0.0
  0
VERTEX
  5
406
  8
0
 10
3.5229199999999992
 20
1.137929999999999
 30
0.0
  0
VERTEX
  5
407
  8
0
 10
3.5586099999999989
 20
1.12157
 30
0.0
  0
VERTEX
  5
408
  8
0
 10
3.5943000000000001
 20
1.104879999999999
 30
0.0
  0
VERTEX
  5
409
  8
0
 10
3.6299899999999998
 20
1.087839999999999
 30
0.0
  0
VERTEX
  5
40A
  8
0
 10
3.66568
 20
1.070449999999999
 30
0.0
  0
VERTEX
  5
40B
  8
0
 10
3.7013699999999989
 20
1.0526699999999991
 30
0.0
  0
VERTEX
  5
40C
  8
0
 10
3.73706
 20
1.03451
 30
0.0
  0
VERTEX
  5
40D
  8
0
 10
3.7727499999999989
 20
1.0159299999999989
 30
0.0
  0
VERTEX
  5
40E
  8
0
 10
3.80844
 20
0.99692
 30
0.0
  0
VERTEX
  5
40F
  8
0
 10
3.8441299999999998
 20
0.9774599999999999
 30
0.0
  0
VERTEX
  5
410
  8
0
 10
3.8798199999999992
 20
0.95749
 30
0.0
  0
VERTEX
  5
411
  8
0
 10
3.9155099999999989
 20
0.9369799999999999
 30
0.0
  0
VERTEX
  5
412
  8
0
 10
3.9512
 20
0.9158799999999999
 30
0.0
  0
VERTEX
  5
413
  8
0
 10
3.9868899999999998
 20
0.8941499999999999
 30
0.0
  0
VERTEX
  5
414
  8
0
 10
4.0225799999999996
 20
0.87177
 30
0.0
  0
VERTEX
  5
415
  8
0
 10
4.0582699999999994
 20
0.8487199999999999
 30
0.0
  0
VERTEX
  5
416
  8
0
 10
4.09396
 20
0.82499
 30
0.0
  0
VERTEX
  5
417
  8
0
 10
4.1296499999999989
 20
0.8005899999999998
 30
0.0
  0
VERTEX
  5
418
  8
0
 10
4.1653399999999996
 20
0.7755
 30
0.0
  0
VERTEX
  5
419
  8
0
 10
4.2010300000000003
 20
0.74971
 30
0.0
  0
VERTEX
  5
41A
  8
0
 10
4.23672
 20
0.7230800000000001
 30
0.0
  0
VERTEX
  5
41B
  8
0
 10
4.2724099999999989
 20
0.6954700000000001
 30
0.0
  0
VERTEX
  5
41C
  8
0
 10
4.3080999999999987
 20
0.6667100000000001
 30
0.0
  0
VERTEX
  5
41D
  8
0
 10
4.3437900000000003
 20
0.63666
 30
0.0
  0
VERTEX
  5
41E
  8
0
 10
4.37948
 20
0.6051400000000001
 30
0.0
  0
VERTEX
  5
41F
  8
0
 10
4.4151699999999989
 20
0.5715600000000001
 30
0.0
  0
VERTEX
  5
420
  8
0
 10
4.4508599999999987
 20
0.5354800000000001
 30
0.0
  0
VERTEX
  5
421
  8
0
 10
4.4865500000000003
 20
0.4965100000000001
 30
0.0
  0
VERTEX
  5
422
  8
0
 10
4.52224
 20
0.45473
 30
0.0
  0
VERTEX
  5
423
  8
0
 10
4.5579299999999998
 20
0.41034
 30
0.0
  0
VERTEX
  5
424
  8
0
 10
4.5936199999999987
 20
0.36359
 30
0.0
  0
VERTEX
  5
425
  8
0
 10
4.6293100000000003
 20
0.31271
 30
0.0
  0
VERTEX
  5
426
  8
0
 10
4.665
 20
0.24898
 30
0.0
  0
VERTEX
  5
427
  8
0
 10
4.7006899999999989
 20
0.16214
 30
0.0
  0
VERTEX
  5
428
  8
0
 10
4.7363799999999996
 20
0.04192
 30
0.0
  0
VERTEX
  5
429
  8
0
 10
4.7363799999999996
 20
-0.05462
 30
0.0
  0
VERTEX
  5
42A
  8
0
 10
4.6921699999999991
 20
-0.13228
 30
0.0
  0
VERTEX
  5
42B
  8
0
 10
4.6479599999999994
 20
-0.18699
 30
0.0
  0
VERTEX
  5
42C
  8
0
 10
4.6037600000000003
 20
-0.22493
 30
0.0
  0
VERTEX
  5
42D
  8
0
 10
4.5595499999999989
 20
-0.25227
 30
0.0
  0
VERTEX
  5
42E
  8
0
 10
4.5153499999999989
 20
-0.27516
 30
0.0
  0
VERTEX
  5
42F
  8
0
 10
4.4711400000000001
 20
-0.29778
 30
0.0
  0
VERTEX
  5
430
  8
0
 10
4.4269299999999996
 20
-0.3202
 30
0.0
  0
VERTEX
  5
431
  8
0
 10
4.3827299999999996
 20
-0.34201
 30
0.0
  0
VERTEX
  5
432
  8
0
 10
4.338519999999999
 20
-0.36274
 30
0.0
  0
VERTEX
  5
433
  8
0
 10
4.294319999999999
 20
-0.382
 30
0.0
  0
VERTEX
  5
434
  8
0
 10
4.2501100000000003
 20
-0.39992
 30
0.0
  0
VERTEX
  5
435
  8
0
 10
4.2058999999999989
 20
-0.4166800000000001
 30
0.0
  0
VERTEX
  5
436
  8
0
 10
4.1616999999999988
 20
-0.4324600000000001
 30
0.0
  0
VERTEX
  5
437
  8
0
 10
4.1174900000000001
 20
-0.44742
 30
0.0
  0
VERTEX
  5
438
  8
0
 10
4.0732799999999996
 20
-0.4616800000000001
 30
0.0
  0
VERTEX
  5
439
  8
0
 10
4.0290800000000004
 20
-0.47534
 30
0.0
  0
VERTEX
  5
43A
  8
0
 10
3.984869999999999
 20
-0.48853
 30
0.0
  0
VERTEX
  5
43B
  8
0
 10
3.940669999999999
 20
-0.50135
 30
0.0
  0
VERTEX
  5
43C
  8
0
 10
3.8964599999999989
 20
-0.5138
 30
0.0
  0
VERTEX
  5
43D
  8
0
 10
3.8522500000000002
 20
-0.52589
 30
0.0
  0
VERTEX
  5
43E
  8
0
 10
3.8080500000000002
 20
-0.5376
 30
0.0
  0
VERTEX
  5
43F
  8
0
 10
3.7638400000000001
 20
-0.54893
 30
0.0
  0
VERTEX
  5
440
  8
0
 10
3.71963
 20
-0.5598900000000001
 30
0.0
  0
VERTEX
  5
441
  8
0
 10
3.67543
 20
-0.5704900000000001
 30
0.0
  0
VERTEX
  5
442
  8
0
 10
3.631219999999999
 20
-0.5807700000000001
 30
0.0
  0
VERTEX
  5
443
  8
0
 10
3.587019999999999
 20
-0.5907600000000001
 30
0.0
  0
VERTEX
  5
444
  8
0
 10
3.5428099999999989
 20
-0.60046
 30
0.0
  0
VERTEX
  5
445
  8
0
 10
3.4986000000000002
 20
-0.6099100000000001
 30
0.0
  0
VERTEX
  5
446
  8
0
 10
3.4544000000000001
 20
-0.6191200000000001
 30
0.0
  0
VERTEX
  5
447
  8
0
 10
3.4101900000000001
 20
-0.6281200000000001
 30
0.0
  0
VERTEX
  5
448
  8
0
 10
3.36599
 20
-0.6369100000000002
 30
0.0
  0
VERTEX
  5
449
  8
0
 10
3.32178
 20
-0.6455
 30
0.0
  0
VERTEX
  5
44A
  8
0
 10
3.277569999999999
 20
-0.6539000000000001
 30
0.0
  0
VERTEX
  5
44B
  8
0
 10
3.233369999999999
 20
-0.6621199999999999
 30
0.0
  0
VERTEX
  5
44C
  8
0
 10
3.1891599999999989
 20
-0.6701500000000001
 30
0.0
  0
VERTEX
  5
44D
  8
0
 10
3.1449500000000001
 20
-0.678
 30
0.0
  0
VERTEX
  5
44E
  8
0
 10
3.1007500000000001
 20
-0.6856800000000001
 30
0.0
  0
VERTEX
  5
44F
  8
0
 10
3.05654
 20
-0.69319
 30
0.0
  0
VERTEX
  5
450
  8
0
 10
3.01234
 20
-0.70053
 30
0.0
  0
VERTEX
  5
451
  8
0
 10
2.9681299999999999
 20
-0.7077
 30
0.0
  0
VERTEX
  5
452
  8
0
 10
2.923919999999999
 20
-0.71472
 30
0.0
  0
VERTEX
  5
453
  8
0
 10
2.8797199999999998
 20
-0.72158
 30
0.0
  0
VERTEX
  5
454
  8
0
 10
2.8355099999999989
 20
-0.7282999999999999
 30
0.0
  0
VERTEX
  5
455
  8
0
 10
2.7913000000000001
 20
-0.73488
 30
0.0
  0
VERTEX
  5
456
  8
0
 10
2.7471000000000001
 20
-0.74132
 30
0.0
  0
VERTEX
  5
457
  8
0
 10
2.70289
 20
-0.7476300000000001
 30
0.0
  0
VERTEX
  5
458
  8
0
 10
2.6586899999999991
 20
-0.75382
 30
0.0
  0
VERTEX
  5
459
  8
0
 10
2.614479999999999
 20
-0.75989
 30
0.0
  0
VERTEX
  5
45A
  8
0
 10
2.5702699999999998
 20
-0.76586
 30
0.0
  0
VERTEX
  5
45B
  8
0
 10
2.5260699999999998
 20
-0.7717100000000001
 30
0.0
  0
VERTEX
  5
45C
  8
0
 10
2.4818599999999988
 20
-0.7774600000000002
 30
0.0
  0
VERTEX
  5
45D
  8
0
 10
2.4376599999999988
 20
-0.7831199999999999
 30
0.0
  0
VERTEX
  5
45E
  8
0
 10
2.3934500000000001
 20
-0.78867
 30
0.0
  0
VERTEX
  5
45F
  8
0
 10
2.3492399999999991
 20
-0.79413
 30
0.0
  0
VERTEX
  5
460
  8
0
 10
2.3050399999999991
 20
-0.7995
 30
0.0
  0
VERTEX
  5
461
  8
0
 10
2.260829999999999
 20
-0.8047699999999998
 30
0.0
  0
VERTEX
  5
462
  8
0
 10
2.2166199999999998
 20
-0.8099499999999999
 30
0.0
  0
VERTEX
  5
463
  8
0
 10
2.1724199999999998
 20
-0.8150399999999999
 30
0.0
  0
VERTEX
  5
464
  8
0
 10
2.1282099999999988
 20
-0.8200299999999998
 30
0.0
  0
VERTEX
  5
465
  8
0
 10
2.0840099999999988
 20
-0.8249399999999999
 30
0.0
  0
VERTEX
  5
466
  8
0
 10
2.0398000000000001
 20
-0.8297600000000001
 30
0.0
  0
VERTEX
  5
467
  8
0
 10
1.99559
 20
-0.8345
 30
0.0
  0
VERTEX
  5
468
  8
0
 10
1.95139
 20
-0.8391499999999998
 30
0.0
  0
VERTEX
  5
469
  8
0
 10
1.907179999999999
 20
-0.84372
 30
0.0
  0
VERTEX
  5
46A
  8
0
 10
1.862979999999999
 20
-0.84821
 30
0.0
  0
VERTEX
  5
46B
  8
0
 10
1.8187699999999991
 20
-0.85262
 30
0.0
  0
VERTEX
  5
46C
  8
0
 10
1.774559999999999
 20
-0.8569499999999999
 30
0.0
  0
VERTEX
  5
46D
  8
0
 10
1.730359999999999
 20
-0.8612099999999999
 30
0.0
  0
VERTEX
  5
46E
  8
0
 10
1.68615
 20
-0.86539
 30
0.0
  0
VERTEX
  5
46F
  8
0
 10
1.64194
 20
-0.8695000000000001
 30
0.0
  0
VERTEX
  5
470
  8
0
 10
1.597739999999999
 20
-0.87354
 30
0.0
  0
VERTEX
  5
471
  8
0
 10
1.553529999999999
 20
-0.8775200000000001
 30
0.0
  0
VERTEX
  5
472
  8
0
 10
1.509329999999999
 20
-0.8814200000000001
 30
0.0
  0
VERTEX
  5
473
  8
0
 10
1.4651199999999991
 20
-0.88526
 30
0.0
  0
VERTEX
  5
474
  8
0
 10
1.4209099999999999
 20
-0.8890299999999998
 30
0.0
  0
VERTEX
  5
475
  8
0
 10
1.3767100000000001
 20
-0.89274
 30
0.0
  0
VERTEX
  5
476
  8
0
 10
1.3325
 20
-0.8963899999999998
 30
0.0
  0
VERTEX
  5
477
  8
0
 10
1.288289999999999
 20
-0.89997
 30
0.0
  0
VERTEX
  5
478
  8
0
 10
1.244089999999999
 20
-0.90349
 30
0.0
  0
VERTEX
  5
479
  8
0
 10
1.1998799999999989
 20
-0.9069499999999999
 30
0.0
  0
VERTEX
  5
47A
  8
0
 10
1.1556799999999989
 20
-0.9103399999999998
 30
0.0
  0
VERTEX
  5
47B
  8
0
 10
1.11147
 20
-0.9136799999999999
 30
0.0
  0
VERTEX
  5
47C
  8
0
 10
1.0672600000000001
 20
-0.9169500000000002
 30
0.0
  0
VERTEX
  5
47D
  8
0
 10
1.0230600000000001
 20
-0.92017
 30
0.0
  0
VERTEX
  5
47E
  8
0
 10
0.9788499999999999
 20
-0.92332
 30
0.0
  0
VERTEX
  5
47F
  8
0
 10
0.9346499999999998
 20
-0.92642
 30
0.0
  0
VERTEX
  5
480
  8
0
 10
0.89044
 20
-0.92946
 30
0.0
  0
VERTEX
  5
481
  8
0
 10
0.8462299999999999
 20
-0.9324399999999998
 30
0.0
  0
VERTEX
  5
482
  8
0
 10
0.80203
 20
-0.9353699999999999
 30
0.0
  0
VERTEX
  5
483
  8
0
 10
0.7578199999999999
 20
-0.9382299999999998
 30
0.0
  0
VERTEX
  5
484
  8
0
 10
0.7136100000000001
 20
-0.9410399999999999
 30
0.0
  0
VERTEX
  5
485
  8
0
 10
0.6694100000000001
 20
-0.9437999999999998
 30
0.0
  0
VERTEX
  5
486
  8
0
 10
0.6252
 20
-0.9464900000000001
 30
0.0
  0
VERTEX
  5
487
  8
0
 10
0.581
 20
-0.94914
 30
0.0
  0
VERTEX
  5
488
  8
0
 10
0.53679
 20
-0.95172
 30
0.0
  0
VERTEX
  5
489
  8
0
 10
0.4925800000000001
 20
-0.95425
 30
0.0
  0
VERTEX
  5
48A
  8
0
 10
0.4483800000000001
 20
-0.9567299999999999
 30
0.0
  0
VERTEX
  5
48B
  8
0
 10
0.40417
 20
-0.9591499999999999
 30
0.0
  0
VERTEX
  5
48C
  8
0
 10
0.35996
 20
-0.9615199999999999
 30
0.0
  0
VERTEX
  5
48D
  8
0
 10
0.31576
 20
-0.9638399999999998
 30
0.0
  0
VERTEX
  5
48E
  8
0
 10
0.27155
 20
-0.9660999999999998
 30
0.0
  0
VERTEX
  5
48F
  8
0
 10
0.22735
 20
-0.9682999999999999
 30
0.0
  0
VERTEX
  5
490
  8
0
 10
0.18314
 20
-0.9704599999999999
 30
0.0
  0
VERTEX
  5
491
  8
0
 10
0.13893
 20
-0.97256
 30
0.0
  0
VERTEX
  5
492
  8
0
 10
0.09473
 20
-0.97461
 30
0.0
  0
VERTEX
  5
493
  8
0
 10
0.05052
 20
-0.9766200000000002
 30
0.0
  0
VERTEX
  5
494
  8
0
 10
0.00632
 20
-0.9785700000000001
 30
0.0
  0
VERTEX
  5
495
  8
0
 10
-0.03789
 20
-0.98047
 30
0.0
  0
VERTEX
  5
496
  8
0
 10
-0.0821
 20
-0.9823199999999999
 30
0.0
  0
VERTEX
  5
497
  8
0
 10
-0.1263
 20
-0.98412
 30
0.0
  0
VERTEX
  5
498
  8
0
 10
-0.17051
 20
-0.98588
 30
0.0
  0
VERTEX
  5
499
  8
0
 10
-0.21472
 20
-0.9875899999999999
 30
0.0
  0
VERTEX
  5
49A
  8
0
 10
-0.25892
 20
-0.98925
 30
0.0
  0
VERTEX
  5
49B
  8
0
 10
-0.30313
 20
-0.9908699999999999
 30
0.0
  0
VERTEX
  5
49C
  8
0
 10
-0.34733
 20
-0.99244
 30
0.0
  0
VERTEX
  5
49D
  8
0
 10
-0.39154
 20
-0.99396
 30
0.0
  0
VERTEX
  5
49E
  8
0
 10
-0.43575
 20
-0.9954399999999999
 30
0.0
  0
VERTEX
  5
49F
  8
0
 10
-0.47995
 20
-0.9968799999999998
 30
0.0
  0
VERTEX
  5
4A0
  8
0
 10
-0.5241600000000001
 20
-0.9982700000000001
 30
0.0
  0
VERTEX
  5
4A1
  8
0
 10
-0.5683699999999999
 20
-0.99961
 30
0.0
  0
VERTEX
  5
4A2
  8
0
 10
-0.6125699999999999
 20
-1.0009099999999991
 30
0.0
  0
VERTEX
  5
4A3
  8
0
 10
-0.65678
 20
-1.00217
 30
0.0
  0
VERTEX
  5
4A4
  8
0
 10
-0.70098
 20
-1.0033799999999991
 30
0.0
  0
VERTEX
  5
4A5
  8
0
 10
-0.7451900000000001
 20
-1.0045399999999991
 30
0.0
  0
VERTEX
  5
4A6
  8
0
 10
-0.7894000000000001
 20
-1.0056599999999991
 30
0.0
  0
VERTEX
  5
4A7
  8
0
 10
-0.8336
 20
-1.0067399999999991
 30
0.0
  0
VERTEX
  5
4A8
  8
0
 10
-0.87781
 20
-1.0077700000000001
 30
0.0
  0
VERTEX
  5
4A9
  8
0
 10
-0.92201
 20
-1.0087600000000001
 30
0.0
  0
VERTEX
  5
4AA
  8
0
 10
-0.96622
 20
-1.0097
 30
0.0
  0
VERTEX
  5
4AB
  8
0
 10
-1.0104299999999991
 20
-1.0105999999999991
 30
0.0
  0
VERTEX
  5
4AC
  8
0
 10
-1.0546299999999991
 20
-1.01146
 30
0.0
  0
VERTEX
  5
4AD
  8
0
 10
-1.09884
 20
-1.01227
 30
0.0
  0
VERTEX
  5
4AE
  8
0
 10
-1.143049999999999
 20
-1.0130399999999991
 30
0.0
  0
VERTEX
  5
4AF
  8
0
 10
-1.187249999999999
 20
-1.0137599999999991
 30
0.0
  0
VERTEX
  5
4B0
  8
0
 10
-1.2314599999999991
 20
-1.01444
 30
0.0
  0
VERTEX
  5
4B1
  8
0
 10
-1.27566
 20
-1.0150699999999999
 30
0.0
  0
VERTEX
  5
4B2
  8
0
 10
-1.3198700000000001
 20
-1.01566
 30
0.0
  0
VERTEX
  5
4B3
  8
0
 10
-1.3640799999999991
 20
-1.0162100000000001
 30
0.0
  0
VERTEX
  5
4B4
  8
0
 10
-1.4082799999999991
 20
-1.01671
 30
0.0
  0
VERTEX
  5
4B5
  8
0
 10
-1.4524900000000001
 20
-1.0171600000000001
 30
0.0
  0
VERTEX
  5
4B6
  8
0
 10
-1.496699999999999
 20
-1.017579999999999
 30
0.0
  0
VERTEX
  5
4B7
  8
0
 10
-1.540899999999999
 20
-1.0179400000000001
 30
0.0
  0
VERTEX
  5
4B8
  8
0
 10
-1.58511
 20
-1.01827
 30
0.0
  0
VERTEX
  5
4B9
  8
0
 10
-1.62931
 20
-1.0185500000000001
 30
0.0
  0
VERTEX
  5
4BA
  8
0
 10
-1.6735199999999999
 20
-1.01878
 30
0.0
  0
VERTEX
  5
4BB
  8
0
 10
-1.7177299999999991
 20
-1.0189699999999999
 30
0.0
  0
VERTEX
  5
4BC
  8
0
 10
-1.7619299999999991
 20
-1.01912
 30
0.0
  0
VERTEX
  5
4BD
  8
0
 10
-1.8061400000000001
 20
-1.01922
 30
0.0
  0
VERTEX
  5
4BE
  8
0
 10
-1.8503400000000001
 20
-1.0192799999999991
 30
0.0
  0
VERTEX
  5
4BF
  8
0
 10
-1.8945499999999991
 20
-1.0193000000000001
 30
0.0
  0
VERTEX
  5
4C0
  8
0
 10
-1.8945499999999991
 20
-0.51589
 30
0.0
  0
VERTEX
  5
4C1
  8
0
 10
-1.3938900000000001
 20
-0.51589
 30
0.0
  0
VERTEX
  5
4C2
  8
0
 10
-1.3938900000000001
 20
-0.6078100000000001
 30
0.0
  0
VERTEX
  5
4C3
  8
0
 10
1.3938900000000001
 20
-0.6078100000000001
 30
0.0
  0
VERTEX
  5
4C4
  8
0
 10
0.08019
 20
1.7262900000000001
 30
0.0
  0
VERTEX
  5
4C5
  8
0
 10
0.0
 20
0.0
 30
0.0
  0
VERTEX
  5
4C6
  8
0
 10
0.0
 20
0.0
 30
0.0
  0
SEQEND
  5
4C7
  8
0
  0
ENDSEC
  0
EOF
