  0
SECTION
  2
HEADER
  9
$ACADVER
  1
AC1009
  9
$INSBASE
 10
0.0
 20
0.0
 30
0.0
  9
$EXTMIN
 10
-8.6292500000000008
 20
-1.85707
 30
0.0
  9
$EXTMAX
 10
3.4517000000000002
 20
3.5744599999999989
 30
0.0
  9
$LIMMIN
 10
0.0
 20
0.0
  9
$LIMMAX
 10
12.0
 20
9.0
  9
$ORTHOMODE
 70
     0
  9
$REGENMODE
 70
     1
  9
$FILLMODE
 70
     1
  9
$QTEXTMODE
 70
     0
  9
$MIRRTEXT
 70
     0
  9
$DRAGMODE
 70
     2
  9
$LTSCALE
 40
1.0
  9
$OSMODE
 70
    37
  9
$ATTMODE
 70
     1
  9
$TEXTSIZE
 40
0.2
  9
$TRACEWID
 40
0.05
  9
$TEXTSTYLE
  7
STANDARD
  9
$CLAYER
  8
0
  9
$CELTYPE
  6
BYLAYER
  9
$CECOLOR
 62
   256
  9
$DIMSCALE
 40
1.0
  9
$DIMASZ
 40
0.18
  9
$DIMEXO
 40
0.0625
  9
$DIMDLI
 40
0.38
  9
$DIMRND
 40
0.0
  9
$DIMDLE
 40
0.0
  9
$DIMEXE
 40
0.18
  9
$DIMTP
 40
0.0
  9
$DIMTM
 40
0.0
  9
$DIMTXT
 40
0.18
  9
$DIMCEN
 40
0.09
  9
$DIMTSZ
 40
0.0
  9
$DIMTOL
 70
     0
  9
$DIMLIM
 70
     0
  9
$DIMTIH
 70
     1
  9
$DIMTOH
 70
     1
  9
$DIMSE1
 70
     0
  9
$DIMSE2
 70
     0
  9
$DIMTAD
 70
     0
  9
$DIMZIN
 70
     0
  9
$DIMBLK
  1

  9
$DIMASO
 70
     1
  9
$DIMSHO
 70
     1
  9
$DIMPOST
  1

  9
$DIMAPOST
  1

  9
$DIMALT
 70
     0
  9
$DIMALTD
 70
     2
  9
$DIMALTF
 40
25.3999999999999986
  9
$DIMLFAC
 40
1.0
  9
$DIMTOFL
 70
     0
  9
$DIMTVP
 40
0.0
  9
$DIMTIX
 70
     0
  9
$DIMSOXD
 70
     0
  9
$DIMSAH
 70
     0
  9
$DIMBLK1
  1

  9
$DIMBLK2
  1

  9
$DIMSTYLE
  2
STANDARD
  9
$DIMCLRD
 70
     0
  9
$DIMCLRE
 70
     0
  9
$DIMCLRT
 70
     0
  9
$DIMTFAC
 40
1.0
  9
$DIMGAP
 40
0.09
  9
$LUNITS
 70
     2
  9
$LUPREC
 70
     4
  9
$SKETCHINC
 40
0.1
  9
$FILLETRAD
 40
0.0
  9
$AUNITS
 70
     0
  9
$AUPREC
 70
     0
  9
$MENU
  1
.
  9
$ELEVATION
 40
0.0
  9
$PELEVATION
 40
0.0
  9
$THICKNESS
 40
0.0
  9
$LIMCHECK
 70
     0
  9
$BLIPMODE
 70
     0
  9
$CHAMFERA
 40
0.0
  9
$CHAMFERB
 40
0.0
  9
$SKPOLY
 70
     0
  9
$TDCREATE
 40
2457765.7697453708387911
  9
$TDUPDATE
 40
2457765.7702199080958962
  9
$TDINDWG
 40
0.000474537
  9
$TDUSRTIMER
 40
0.000474537
  9
$USRTIMER
 70
     1
  9
$ANGBASE
 50
0.0
  9
$ANGDIR
 70
     0
  9
$PDMODE
 70
     0
  9
$PDSIZE
 40
0.0
  9
$PLINEWID
 40
0.0
  9
$COORDS
 70
     1
  9
$SPLFRAME
 70
     0
  9
$SPLINETYPE
 70
     6
  9
$SPLINESEGS
 70
     8
  9
$ATTDIA
 70
     1
  9
$ATTREQ
 70
     1
  9
$HANDLING
 70
     1
  9
$HANDSEED
  5
4C8
  9
$SURFTAB1
 70
     6
  9
$SURFTAB2
 70
     6
  9
$SURFTYPE
 70
     6
  9
$SURFU
 70
     6
  9
$SURFV
 70
     6
  9
$UCSNAME
  2

  9
$UCSORG
 10
0.0
 20
0.0
 30
0.0
  9
$UCSXDIR
 10
1.0
 20
0.0
 30
0.0
  9
$UCSYDIR
 10
0.0
 20
1.0
 30
0.0
  9
$PUCSNAME
  2

  9
$PUCSORG
 10
0.0
 20
0.0
 30
0.0
  9
$PUCSXDIR
 10
1.0
 20
0.0
 30
0.0
  9
$PUCSYDIR
 10
0.0
 20
1.0
 30
0.0
  9
$USERI1
 70
     0
  9
$USERI2
 70
     0
  9
$USERI3
 70
     0
  9
$USERI4
 70
     0
  9
$USERI5
 70
     0
  9
$USERR1
 40
0.0
  9
$USERR2
 40
0.0
  9
$USERR3
 40
0.0
  9
$USERR4
 40
0.0
  9
$USERR5
 40
0.0
  9
$WORLDVIEW
 70
     1
  9
$SHADEDGE
 70
     3
  9
$SHADEDIF
 70
    70
  9
$TILEMODE
 70
     1
  9
$MAXACTVP
 70
    64
  9
$PLIMCHECK
 70
     0
  9
$PEXTMIN
 10
0.0
 20
0.0
 30
0.0
  9
$PEXTMAX
 10
0.0
 20
0.0
 30
0.0
  9
$PLIMMIN
 10
0.0
 20
0.0
  9
$PLIMMAX
 10
12.0
 20
9.0
  9
$UNITMODE
 70
     0
  9
$VISRETAIN
 70
     1
  9
$PLINEGEN
 70
     0
  9
$PSLTSCALE
 70
     1
  0
ENDSEC
  0
SECTION
  2
TABLES
  0
TABLE
  2
VPORT
 70
     1
  0
VPORT
  2
*ACTIVE
 70
     0
 10
0.0
 20
0.0
 11
1.0
 21
1.0
 12
2.6212062439543362
 22
1.5278524677332781
 13
0.0
 23
0.0
 14
0.5
 24
0.5
 15
0.5
 25
0.5
 16
0.0
 26
0.0
 36
1.0
 17
0.0
 27
0.0
 37
0.0
 40
9.4748275007043006
 41
2.58041958041958
 42
50.0
 43
0.0
 44
0.0
 50
0.0
 51
0.0
 71
     0
 72
  1000
 73
     1
 74
     3
 75
     0
 76
     1
 77
     0
 78
     0
  0
ENDTAB
  0
TABLE
  2
LTYPE
 70
     1
  0
LTYPE
  2
CONTINUOUS
 70
     0
  3
Solid line
 72
    65
 73
     0
 40
0.0
  0
ENDTAB
  0
TABLE
  2
LAYER
 70
     1
  0
LAYER
  2
0
 70
     0
 62
     7
  6
CONTINUOUS
  0
ENDTAB
  0
TABLE
  2
STYLE
 70
     2
  0
STYLE
  2
STANDARD
 70
     0
 40
0.0
 41
1.0
 50
0.0
 71
     0
 42
0.2
  3
txt
  4

  0
STYLE
  2
ANNOTATIVE
 70
     0
 40
0.0
 41
1.0
 50
0.0
 71
     0
 42
0.2
  3
txt
  4

  0
ENDTAB
  0
TABLE
  2
VIEW
 70
     0
  0
ENDTAB
  0
TABLE
  2
UCS
 70
     0
  0
ENDTAB
  0
TABLE
  2
APPID
 70
     7
  0
APPID
  2
ACAD
 70
     0
  0
APPID
  2
ACADANNOPO
 70
     0
  0
APPID
  2
ACADANNOTATIVE
 70
     0
  0
APPID
  2
ACAD_DSTYLE_DIMJAG
 70
     0
  0
APPID
  2
ACAD_DSTYLE_DIMTALN
 70
     0
  0
APPID
  2
ACAD_MLEADERVER
 70
     0
  0
APPID
  2
ACAD_NAV_VCDISPLAY
 70
     0
  0
ENDTAB
  0
TABLE
  2
DIMSTYLE
 70
     2
  0
DIMSTYLE
  2
STANDARD
 70
     0
  3

  4

  5

  6

  7

 40
1.0
 41
0.18
 42
0.0625
 43
0.38
 44
0.18
 45
0.0
 46
0.0
 47
0.0
 48
0.0
140
0.18
141
0.09
142
0.0
143
25.3999999999999986
144
1.0
145
0.0
146
1.0
147
0.09
 71
     0
 72
     0
 73
     1
 74
     1
 75
     0
 76
     0
 77
     0
 78
     0
170
     0
171
     2
172
     0
173
     0
174
     0
175
     0
176
     0
177
     0
178
     0
  0
DIMSTYLE
  2
ANNOTATIVE
 70
     0
  3

  4

  5

  6

  7

 40
0.0
 41
0.18
 42
0.0625
 43
0.38
 44
0.18
 45
0.0
 46
0.0
 47
0.0
 48
0.0
140
0.18
141
0.09
142
0.0
143
25.3999999999999986
144
1.0
145
0.0
146
1.0
147
0.09
 71
     0
 72
     0
 73
     1
 74
     1
 75
     0
 76
     0
 77
     0
 78
     0
170
     0
171
     2
172
     0
173
     0
174
     0
175
     0
176
     0
177
     0
178
     0
  0
ENDTAB
  0
ENDSEC
  0
SECTION
  2
BLOCKS
  0
BLOCK
  8
0
  2
$MODEL_SPACE
 70
     0
 10
0.0
 20
0.0
 30
0.0
  3
$MODEL_SPACE
  1

  0
ENDBLK
  5
21
  8
0
  0
BLOCK
 67
     1
  8
0
  2
$PAPER_SPACE
 70
     0
 10
0.0
 20
0.0
 30
0.0
  3
$PAPER_SPACE
  1

  0
ENDBLK
  5
5B
 67
     1
  8
0
  0
ENDSEC
  0
SECTION
  2
ENTITIES
  0
POLYLINE
  5
1F7
  8
0
 66
     1
 10
0.0
 20
0.0
 30
0.0
 70
     1
  0
VERTEX
  5
248
  8
0
 10
0.0
 20
0.0
 30
0.0
  0
VERTEX
  5
249
  8
0
 10
-2.7276400000000001
 20
-1.33043
 30
0.0
  0
VERTEX
  5
24A
  8
0
 10
-2.7613599999999989
 20
-1.4080099999999991
 30
0.0
  0
VERTEX
  5
24B
  8
0
 10
-2.7977599999999989
 20
-1.4048
 30
0.0
  0
VERTEX
  5
24C
  8
0
 10
-2.8341599999999989
 20
-1.4015699999999991
 30
0.0
  0
VERTEX
  5
24D
  8
0
 10
-2.8705599999999989
 20
-1.3983099999999991
 30
0.0
  0
VERTEX
  5
24E
  8
0
 10
-2.9069599999999989
 20
-1.39503
 30
0.0
  0
VERTEX
  5
24F
  8
0
 10
-2.9433599999999989
 20
-1.3917200000000001
 30
0.0
  0
VERTEX
  5
250
  8
0
 10
-2.9797599999999989
 20
-1.38839
 30
0.0
  0
VERTEX
  5
251
  8
0
 10
-3.0161599999999988
 20
-1.3850299999999991
 30
0.0
  0
VERTEX
  5
252
  8
0
 10
-3.0525599999999988
 20
-1.3816399999999991
 30
0.0
  0
VERTEX
  5
253
  8
0
 10
-3.0889599999999988
 20
-1.378229999999999
 30
0.0
  0
VERTEX
  5
254
  8
0
 10
-3.1253599999999988
 20
-1.3747899999999991
 30
0.0
  0
VERTEX
  5
255
  8
0
 10
-3.1617500000000001
 20
-1.3713200000000001
 30
0.0
  0
VERTEX
  5
256
  8
0
 10
-3.19815
 20
-1.36782
 30
0.0
  0
VERTEX
  5
257
  8
0
 10
-3.23455
 20
-1.3643000000000001
 30
0.0
  0
VERTEX
  5
258
  8
0
 10
-3.27095
 20
-1.360749999999999
 30
0.0
  0
VERTEX
  5
259
  8
0
 10
-3.30735
 20
-1.3571699999999991
 30
0.0
  0
VERTEX
  5
25A
  8
0
 10
-3.34375
 20
-1.3535600000000001
 30
0.0
  0
VERTEX
  5
25B
  8
0
 10
-3.3801499999999991
 20
-1.34992
 30
0.0
  0
VERTEX
  5
25C
  8
0
 10
-3.4165499999999991
 20
-1.34626
 30
0.0
  0
VERTEX
  5
25D
  8
0
 10
-3.4529499999999991
 20
-1.3425599999999991
 30
0.0
  0
VERTEX
  5
25E
  8
0
 10
-3.4893499999999991
 20
-1.3388299999999991
 30
0.0
  0
VERTEX
  5
25F
  8
0
 10
-3.5257499999999991
 20
-1.3350799999999989
 30
0.0
  0
VERTEX
  5
260
  8
0
 10
-3.562149999999999
 20
-1.331289999999999
 30
0.0
  0
VERTEX
  5
261
  8
0
 10
-3.598549999999999
 20
-1.3274699999999999
 30
0.0
  0
VERTEX
  5
262
  8
0
 10
-3.634949999999999
 20
-1.32362
 30
0.0
  0
VERTEX
  5
263
  8
0
 10
-3.671349999999999
 20
-1.319739999999999
 30
0.0
  0
VERTEX
  5
264
  8
0
 10
-3.707749999999999
 20
-1.3158299999999989
 30
0.0
  0
VERTEX
  5
265
  8
0
 10
-3.744149999999999
 20
-1.31189
 30
0.0
  0
VERTEX
  5
266
  8
0
 10
-3.780549999999999
 20
-1.3079099999999999
 30
0.0
  0
VERTEX
  5
267
  8
0
 10
-3.816949999999999
 20
-1.3039000000000001
 30
0.0
  0
VERTEX
  5
268
  8
0
 10
-3.8533499999999989
 20
-1.29986
 30
0.0
  0
VERTEX
  5
269
  8
0
 10
-3.8897499999999989
 20
-1.29579
 30
0.0
  0
VERTEX
  5
26A
  8
0
 10
-3.9261499999999989
 20
-1.29169
 30
0.0
  0
VERTEX
  5
26B
  8
0
 10
-3.9625499999999989
 20
-1.2875499999999991
 30
0.0
  0
VERTEX
  5
26C
  8
0
 10
-3.9989499999999989
 20
-1.2833699999999999
 30
0.0
  0
VERTEX
  5
26D
  8
0
 10
-4.0353399999999988
 20
-1.2791699999999999
 30
0.0
  0
VERTEX
  5
26E
  8
0
 10
-4.0717400000000001
 20
-1.274929999999999
 30
0.0
  0
VERTEX
  5
26F
  8
0
 10
-4.1081399999999997
 20
-1.2706500000000001
 30
0.0
  0
VERTEX
  5
270
  8
0
 10
-4.1445400000000001
 20
-1.26634
 30
0.0
  0
VERTEX
  5
271
  8
0
 10
-4.1809399999999997
 20
-1.262
 30
0.0
  0
VERTEX
  5
272
  8
0
 10
-4.2173400000000001
 20
-1.25762
 30
0.0
  0
VERTEX
  5
273
  8
0
 10
-4.2537399999999996
 20
-1.253209999999999
 30
0.0
  0
VERTEX
  5
274
  8
0
 10
-4.2901400000000001
 20
-1.2487600000000001
 30
0.0
  0
VERTEX
  5
275
  8
0
 10
-4.3265399999999996
 20
-1.2442699999999991
 30
0.0
  0
VERTEX
  5
276
  8
0
 10
-4.36294
 20
-1.239749999999999
 30
0.0
  0
VERTEX
  5
277
  8
0
 10
-4.3993399999999996
 20
-1.2352000000000001
 30
0.0
  0
VERTEX
  5
278
  8
0
 10
-4.43574
 20
-1.2306099999999991
 30
0.0
  0
VERTEX
  5
279
  8
0
 10
-4.4721399999999996
 20
-1.225979999999999
 30
0.0
  0
VERTEX
  5
27A
  8
0
 10
-4.5085399999999991
 20
-1.22132
 30
0.0
  0
VERTEX
  5
27B
  8
0
 10
-4.5449400000000004
 20
-1.21662
 30
0.0
  0
VERTEX
  5
27C
  8
0
 10
-4.5813399999999991
 20
-1.211879999999999
 30
0.0
  0
VERTEX
  5
27D
  8
0
 10
-4.6177400000000004
 20
-1.2071000000000001
 30
0.0
  0
VERTEX
  5
27E
  8
0
 10
-4.6541399999999991
 20
-1.202289999999999
 30
0.0
  0
VERTEX
  5
27F
  8
0
 10
-4.6905400000000004
 20
-1.1974400000000001
 30
0.0
  0
VERTEX
  5
280
  8
0
 10
-4.726939999999999
 20
-1.192539999999999
 30
0.0
  0
VERTEX
  5
281
  8
0
 10
-4.7633400000000004
 20
-1.1876100000000001
 30
0.0
  0
VERTEX
  5
282
  8
0
 10
-4.799739999999999
 20
-1.182629999999999
 30
0.0
  0
VERTEX
  5
283
  8
0
 10
-4.8361400000000003
 20
-1.1776199999999999
 30
0.0
  0
VERTEX
  5
284
  8
0
 10
-4.8725300000000002
 20
-1.17256
 30
0.0
  0
VERTEX
  5
285
  8
0
 10
-4.9089299999999998
 20
-1.1674500000000001
 30
0.0
  0
VERTEX
  5
286
  8
0
 10
-4.9453300000000002
 20
-1.1623000000000001
 30
0.0
  0
VERTEX
  5
287
  8
0
 10
-4.9817299999999998
 20
-1.1571100000000001
 30
0.0
  0
VERTEX
  5
288
  8
0
 10
-5.0181300000000002
 20
-1.1518600000000001
 30
0.0
  0
VERTEX
  5
289
  8
0
 10
-5.0545299999999997
 20
-1.1465700000000001
 30
0.0
  0
VERTEX
  5
28A
  8
0
 10
-5.0909300000000002
 20
-1.1412299999999991
 30
0.0
  0
VERTEX
  5
28B
  8
0
 10
-5.1273299999999997
 20
-1.1358399999999991
 30
0.0
  0
VERTEX
  5
28C
  8
0
 10
-5.1637300000000002
 20
-1.1304000000000001
 30
0.0
  0
VERTEX
  5
28D
  8
0
 10
-5.2001299999999997
 20
-1.1249
 30
0.0
  0
VERTEX
  5
28E
  8
0
 10
-5.2365300000000001
 20
-1.1193500000000001
 30
0.0
  0
VERTEX
  5
28F
  8
0
 10
-5.2729299999999997
 20
-1.11375
 30
0.0
  0
VERTEX
  5
290
  8
0
 10
-5.3093300000000001
 20
-1.10809
 30
0.0
  0
VERTEX
  5
291
  8
0
 10
-5.3457299999999996
 20
-1.102379999999999
 30
0.0
  0
VERTEX
  5
292
  8
0
 10
-5.3821300000000001
 20
-1.0966100000000001
 30
0.0
  0
VERTEX
  5
293
  8
0
 10
-5.4185299999999996
 20
-1.090779999999999
 30
0.0
  0
VERTEX
  5
294
  8
0
 10
-5.4549300000000001
 20
-1.084889999999999
 30
0.0
  0
VERTEX
  5
295
  8
0
 10
-5.4913299999999996
 20
-1.07894
 30
0.0
  0
VERTEX
  5
296
  8
0
 10
-5.52773
 20
-1.0729299999999991
 30
0.0
  0
VERTEX
  5
297
  8
0
 10
-5.5641299999999996
 20
-1.0668599999999999
 30
0.0
  0
VERTEX
  5
298
  8
0
 10
-5.60053
 20
-1.0607200000000001
 30
0.0
  0
VERTEX
  5
299
  8
0
 10
-5.6369300000000004
 20
-1.0545199999999999
 30
0.0
  0
VERTEX
  5
29A
  8
0
 10
-5.6733299999999991
 20
-1.0482599999999991
 30
0.0
  0
VERTEX
  5
29B
  8
0
 10
-5.709719999999999
 20
-1.041939999999999
 30
0.0
  0
VERTEX
  5
29C
  8
0
 10
-5.7461199999999986
 20
-1.035539999999999
 30
0.0
  0
VERTEX
  5
29D
  8
0
 10
-5.782519999999999
 20
-1.0290900000000001
 30
0.0
  0
VERTEX
  5
29E
  8
0
 10
-5.8189199999999994
 20
-1.0225699999999991
 30
0.0
  0
VERTEX
  5
29F
  8
0
 10
-5.855319999999999
 20
-1.015979999999999
 30
0.0
  0
VERTEX
  5
2A0
  8
0
 10
-5.8917199999999994
 20
-1.0093199999999991
 30
0.0
  0
VERTEX
  5
2A1
  8
0
 10
-5.9281199999999989
 20
-1.002599999999999
 30
0.0
  0
VERTEX
  5
2A2
  8
0
 10
-5.9645199999999994
 20
-0.9958
 30
0.0
  0
VERTEX
  5
2A3
  8
0
 10
-6.0009199999999989
 20
-0.9889399999999998
 30
0.0
  0
VERTEX
  5
2A4
  8
0
 10
-6.0373199999999994
 20
-0.98201
 30
0.0
  0
VERTEX
  5
2A5
  8
0
 10
-6.0737199999999989
 20
-0.9750099999999999
 30
0.0
  0
VERTEX
  5
2A6
  8
0
 10
-6.1101199999999993
 20
-0.9679299999999998
 30
0.0
  0
VERTEX
  5
2A7
  8
0
 10
-6.1465199999999989
 20
-0.9607799999999999
 30
0.0
  0
VERTEX
  5
2A8
  8
0
 10
-6.1829199999999993
 20
-0.95356
 30
0.0
  0
VERTEX
  5
2A9
  8
0
 10
-6.2193199999999988
 20
-0.9462699999999999
 30
0.0
  0
VERTEX
  5
2AA
  8
0
 10
-6.2557199999999993
 20
-0.9388999999999998
 30
0.0
  0
VERTEX
  5
2AB
  8
0
 10
-6.2921199999999988
 20
-0.93145
 30
0.0
  0
VERTEX
  5
2AC
  8
0
 10
-6.3285200000000001
 20
-0.92392
 30
0.0
  0
VERTEX
  5
2AD
  8
0
 10
-6.3649199999999988
 20
-0.91631
 30
0.0
  0
VERTEX
  5
2AE
  8
0
 10
-6.4013200000000001
 20
-0.90861
 30
0.0
  0
VERTEX
  5
2AF
  8
0
 10
-6.4377199999999988
 20
-0.90081
 30
0.0
  0
VERTEX
  5
2B0
  8
0
 10
-6.4741200000000001
 20
-0.8929299999999999
 30
0.0
  0
VERTEX
  5
2B1
  8
0
 10
-6.5105199999999988
 20
-0.8849399999999999
 30
0.0
  0
VERTEX
  5
2B2
  8
0
 10
-6.5469200000000001
 20
-0.8768600000000001
 30
0.0
  0
VERTEX
  5
2B3
  8
0
 10
-6.58331
 20
-0.8686700000000001
 30
0.0
  0
VERTEX
  5
2B4
  8
0
 10
-6.6197100000000004
 20
-0.8603699999999999
 30
0.0
  0
VERTEX
  5
2B5
  8
0
 10
-6.65611
 20
-0.85197
 30
0.0
  0
VERTEX
  5
2B6
  8
0
 10
-6.6925100000000004
 20
-0.84344
 30
0.0
  0
VERTEX
  5
2B7
  8
0
 10
-6.7289099999999999
 20
-0.8347999999999998
 30
0.0
  0
VERTEX
  5
2B8
  8
0
 10
-6.7653100000000004
 20
-0.8260299999999999
 30
0.0
  0
VERTEX
  5
2B9
  8
0
 10
-6.8017099999999999
 20
-0.81713
 30
0.0
  0
VERTEX
  5
2BA
  8
0
 10
-6.8381100000000004
 20
-0.8080999999999999
 30
0.0
  0
VERTEX
  5
2BB
  8
0
 10
-6.8745099999999999
 20
-0.79894
 30
0.0
  0
VERTEX
  5
2BC
  8
0
 10
-6.9109100000000003
 20
-0.7896300000000001
 30
0.0
  0
VERTEX
  5
2BD
  8
0
 10
-6.9473099999999999
 20
-0.78018
 30
0.0
  0
VERTEX
  5
2BE
  8
0
 10
-6.9837100000000003
 20
-0.77058
 30
0.0
  0
VERTEX
  5
2BF
  8
0
 10
-7.0201099999999999
 20
-0.7608500000000001
 30
0.0
  0
VERTEX
  5
2C0
  8
0
 10
-7.0565100000000003
 20
-0.7509700000000001
 30
0.0
  0
VERTEX
  5
2C1
  8
0
 10
-7.0929099999999998
 20
-0.7409600000000001
 30
0.0
  0
VERTEX
  5
2C2
  8
0
 10
-7.1293100000000003
 20
-0.7308100000000001
 30
0.0
  0
VERTEX
  5
2C3
  8
0
 10
-7.1657099999999998
 20
-0.72052
 30
0.0
  0
VERTEX
  5
2C4
  8
0
 10
-7.2021100000000002
 20
-0.7101
 30
0.0
  0
VERTEX
  5
2C5
  8
0
 10
-7.2385099999999998
 20
-0.69955
 30
0.0
  0
VERTEX
  5
2C6
  8
0
 10
-7.2749100000000002
 20
-0.68887
 30
0.0
  0
VERTEX
  5
2C7
  8
0
 10
-7.3113099999999998
 20
-0.6780400000000001
 30
0.0
  0
VERTEX
  5
2C8
  8
0
 10
-7.3477100000000002
 20
-0.6670600000000001
 30
0.0
  0
VERTEX
  5
2C9
  8
0
 10
-7.3841099999999997
 20
-0.65589
 30
0.0
  0
VERTEX
  5
2CA
  8
0
 10
-7.4204999999999988
 20
-0.64452
 30
0.0
  0
VERTEX
  5
2CB
  8
0
 10
-7.4569000000000001
 20
-0.6329399999999999
 30
0.0
  0
VERTEX
  5
2CC
  8
0
 10
-7.4932999999999987
 20
-0.6211100000000001
 30
0.0
  0
VERTEX
  5
2CD
  8
0
 10
-7.5297000000000001
 20
-0.6090300000000001
 30
0.0
  0
VERTEX
  5
2CE
  8
0
 10
-7.5660999999999987
 20
-0.59668
 30
0.0
  0
VERTEX
  5
2CF
  8
0
 10
-7.6025
 20
-0.58403
 30
0.0
  0
VERTEX
  5
2D0
  8
0
 10
-7.6388999999999987
 20
-0.5710600000000001
 30
0.0
  0
VERTEX
  5
2D1
  8
0
 10
-7.6753
 20
-0.55775
 30
0.0
  0
VERTEX
  5
2D2
  8
0
 10
-7.7117000000000004
 20
-0.5440700000000001
 30
0.0
  0
VERTEX
  5
2D3
  8
0
 10
-7.7480999999999991
 20
-0.5299800000000001
 30
0.0
  0
VERTEX
  5
2D4
  8
0
 10
-7.7845000000000004
 20
-0.5154600000000001
 30
0.0
  0
VERTEX
  5
2D5
  8
0
 10
-7.8208999999999991
 20
-0.50047
 30
0.0
  0
VERTEX
  5
2D6
  8
0
 10
-7.8573000000000004
 20
-0.48498
 30
0.0
  0
VERTEX
  5
2D7
  8
0
 10
-7.8936999999999991
 20
-0.4689700000000001
 30
0.0
  0
VERTEX
  5
2D8
  8
0
 10
-7.9301000000000004
 20
-0.4524
 30
0.0
  0
VERTEX
  5
2D9
  8
0
 10
-7.966499999999999
 20
-0.43525
 30
0.0
  0
VERTEX
  5
2DA
  8
0
 10
-8.0029000000000003
 20
-0.41764
 30
0.0
  0
VERTEX
  5
2DB
  8
0
 10
-8.0393000000000008
 20
-0.39969
 30
0.0
  0
VERTEX
  5
2DC
  8
0
 10
-8.0756999999999994
 20
-0.38146
 30
0.0
  0
VERTEX
  5
2DD
  8
0
 10
-8.1120999999999999
 20
-0.36302
 30
0.0
  0
VERTEX
  5
2DE
  8
0
 10
-8.1485000000000003
 20
-0.34444
 30
0.0
  0
VERTEX
  5
2DF
  8
0
 10
-8.1849000000000007
 20
-0.32579
 30
0.0
  0
VERTEX
  5
2E0
  8
0
 10
-8.2212999999999994
 20
-0.30715
 30
0.0
  0
VERTEX
  5
2E1
  8
0
 10
-8.2212999999999994
 20
0.65334
 30
0.0
  0
VERTEX
  5
2E2
  8
0
 10
-8.1710899999999995
 20
0.7115100000000001
 30
0.0
  0
VERTEX
  5
2E3
  8
0
 10
-8.1208799999999997
 20
0.7665600000000001
 30
0.0
  0
VERTEX
  5
2E4
  8
0
 10
-8.0706799999999994
 20
0.81842
 30
0.0
  0
VERTEX
  5
2E5
  8
0
 10
-8.0204699999999995
 20
0.8673499999999998
 30
0.0
  0
VERTEX
  5
2E6
  8
0
 10
-7.9702599999999997
 20
0.9137199999999999
 30
0.0
  0
VERTEX
  5
2E7
  8
0
 10
-7.9200600000000003
 20
0.95797
 30
0.0
  0
VERTEX
  5
2E8
  8
0
 10
-7.8698499999999987
 20
1.0006200000000001
 30
0.0
  0
VERTEX
  5
2E9
  8
0
 10
-7.8196399999999988
 20
1.0418099999999999
 30
0.0
  0
VERTEX
  5
2EA
  8
0
 10
-7.7694399999999986
 20
1.0816799999999991
 30
0.0
  0
VERTEX
  5
2EB
  8
0
 10
-7.7192299999999996
 20
1.120339999999999
 30
0.0
  0
VERTEX
  5
2EC
  8
0
 10
-7.6690300000000002
 20
1.157929999999999
 30
0.0
  0
VERTEX
  5
2ED
  8
0
 10
-7.6188199999999986
 20
1.1945799999999991
 30
0.0
  0
VERTEX
  5
2EE
  8
0
 10
-7.5686099999999996
 20
1.230429999999999
 30
0.0
  0
VERTEX
  5
2EF
  8
0
 10
-7.5184100000000003
 20
1.2655199999999991
 30
0.0
  0
VERTEX
  5
2F0
  8
0
 10
-7.4682000000000004
 20
1.2998700000000001
 30
0.0
  0
VERTEX
  5
2F1
  8
0
 10
-7.4179899999999988
 20
1.3334900000000001
 30
0.0
  0
VERTEX
  5
2F2
  8
0
 10
-7.3677899999999994
 20
1.3663700000000001
 30
0.0
  0
VERTEX
  5
2F3
  8
0
 10
-7.3175800000000004
 20
1.3985199999999991
 30
0.0
  0
VERTEX
  5
2F4
  8
0
 10
-7.2673699999999988
 20
1.42994
 30
0.0
  0
VERTEX
  5
2F5
  8
0
 10
-7.2171699999999994
 20
1.46065
 30
0.0
  0
VERTEX
  5
2F6
  8
0
 10
-7.1669600000000004
 20
1.4906699999999999
 30
0.0
  0
VERTEX
  5
2F7
  8
0
 10
-7.1167600000000002
 20
1.5200199999999999
 30
0.0
  0
VERTEX
  5
2F8
  8
0
 10
-7.0665500000000003
 20
1.5487500000000001
 30
0.0
  0
VERTEX
  5
2F9
  8
0
 10
-7.0163399999999987
 20
1.5769
 30
0.0
  0
VERTEX
  5
2FA
  8
0
 10
-6.9661399999999993
 20
1.60449
 30
0.0
  0
VERTEX
  5
2FB
  8
0
 10
-6.9159300000000004
 20
1.6315599999999999
 30
0.0
  0
VERTEX
  5
2FC
  8
0
 10
-6.8657199999999987
 20
1.65815
 30
0.0
  0
VERTEX
  5
2FD
  8
0
 10
-6.8155199999999994
 20
1.68428
 30
0.0
  0
VERTEX
  5
2FE
  8
0
 10
-6.7653100000000004
 20
1.7099500000000001
 30
0.0
  0
VERTEX
  5
2FF
  8
0
 10
-6.7150999999999987
 20
1.7352000000000001
 30
0.0
  0
VERTEX
  5
300
  8
0
 10
-6.6649000000000003
 20
1.7600199999999999
 30
0.0
  0
VERTEX
  5
301
  8
0
 10
-6.6146899999999986
 20
1.7844299999999991
 30
0.0
  0
VERTEX
  5
302
  8
0
 10
-6.5644899999999993
 20
1.80846
 30
0.0
  0
VERTEX
  5
303
  8
0
 10
-6.5142800000000003
 20
1.832109999999999
 30
0.0
  0
VERTEX
  5
304
  8
0
 10
-6.4640699999999987
 20
1.8553900000000001
 30
0.0
  0
VERTEX
  5
305
  8
0
 10
-6.4138699999999993
 20
1.87832
 30
0.0
  0
VERTEX
  5
306
  8
0
 10
-6.3636599999999994
 20
1.900909999999999
 30
0.0
  0
VERTEX
  5
307
  8
0
 10
-6.3134499999999987
 20
1.92317
 30
0.0
  0
VERTEX
  5
308
  8
0
 10
-6.2632500000000002
 20
1.94512
 30
0.0
  0
VERTEX
  5
309
  8
0
 10
-6.2130400000000003
 20
1.966759999999999
 30
0.0
  0
VERTEX
  5
30A
  8
0
 10
-6.1628299999999996
 20
1.9881099999999989
 30
0.0
  0
VERTEX
  5
30B
  8
0
 10
-6.1126300000000002
 20
2.0091700000000001
 30
0.0
  0
VERTEX
  5
30C
  8
0
 10
-6.0624199999999986
 20
2.029949999999999
 30
0.0
  0
VERTEX
  5
30D
  8
0
 10
-6.0122200000000001
 20
2.0504299999999991
 30
0.0
  0
VERTEX
  5
30E
  8
0
 10
-5.9620100000000003
 20
2.07064
 30
0.0
  0
VERTEX
  5
30F
  8
0
 10
-5.9118000000000004
 20
2.09057
 30
0.0
  0
VERTEX
  5
310
  8
0
 10
-5.8616000000000001
 20
2.1102199999999991
 30
0.0
  0
VERTEX
  5
311
  8
0
 10
-5.8113900000000003
 20
2.129599999999999
 30
0.0
  0
VERTEX
  5
312
  8
0
 10
-5.7611800000000004
 20
2.1487199999999991
 30
0.0
  0
VERTEX
  5
313
  8
0
 10
-5.7109800000000002
 20
2.167559999999999
 30
0.0
  0
VERTEX
  5
314
  8
0
 10
-5.6607699999999994
 20
2.18615
 30
0.0
  0
VERTEX
  5
315
  8
0
 10
-5.6105599999999987
 20
2.2044899999999998
 30
0.0
  0
VERTEX
  5
316
  8
0
 10
-5.5603600000000002
 20
2.2225700000000002
 30
0.0
  0
VERTEX
  5
317
  8
0
 10
-5.5101500000000003
 20
2.2404099999999989
 30
0.0
  0
VERTEX
  5
318
  8
0
 10
-5.4599500000000001
 20
2.2580100000000001
 30
0.0
  0
VERTEX
  5
319
  8
0
 10
-5.4097400000000002
 20
2.2753799999999988
 30
0.0
  0
VERTEX
  5
31A
  8
0
 10
-5.3595300000000003
 20
2.2925200000000001
 30
0.0
  0
VERTEX
  5
31B
  8
0
 10
-5.3093300000000001
 20
2.309429999999999
 30
0.0
  0
VERTEX
  5
31C
  8
0
 10
-5.2591199999999994
 20
2.32613
 30
0.0
  0
VERTEX
  5
31D
  8
0
 10
-5.2089099999999986
 20
2.3426099999999992
 30
0.0
  0
VERTEX
  5
31E
  8
0
 10
-5.1587100000000001
 20
2.3588800000000001
 30
0.0
  0
VERTEX
  5
31F
  8
0
 10
-5.1085000000000003
 20
2.3749500000000001
 30
0.0
  0
VERTEX
  5
320
  8
0
 10
-5.0582900000000004
 20
2.3908200000000002
 30
0.0
  0
VERTEX
  5
321
  8
0
 10
-5.0080900000000002
 20
2.4064899999999998
 30
0.0
  0
VERTEX
  5
322
  8
0
 10
-4.9578800000000003
 20
2.42198
 30
0.0
  0
VERTEX
  5
323
  8
0
 10
-4.90768
 20
2.4372699999999998
 30
0.0
  0
VERTEX
  5
324
  8
0
 10
-4.8574699999999993
 20
2.4523899999999998
 30
0.0
  0
VERTEX
  5
325
  8
0
 10
-4.8072599999999994
 20
2.4673199999999991
 30
0.0
  0
VERTEX
  5
326
  8
0
 10
-4.7570600000000001
 20
2.482079999999999
 30
0.0
  0
VERTEX
  5
327
  8
0
 10
-4.7068500000000002
 20
2.496659999999999
 30
0.0
  0
VERTEX
  5
328
  8
0
 10
-4.6566400000000003
 20
2.5110799999999989
 30
0.0
  0
VERTEX
  5
329
  8
0
 10
-4.6064400000000001
 20
2.5253199999999998
 30
0.0
  0
VERTEX
  5
32A
  8
0
 10
-4.5562300000000002
 20
2.5394000000000001
 30
0.0
  0
VERTEX
  5
32B
  8
0
 10
-4.5060199999999986
 20
2.5533199999999998
 30
0.0
  0
VERTEX
  5
32C
  8
0
 10
-4.4558200000000001
 20
2.5670700000000002
 30
0.0
  0
VERTEX
  5
32D
  8
0
 10
-4.4056100000000002
 20
2.58067
 30
0.0
  0
VERTEX
  5
32E
  8
0
 10
-4.3554000000000004
 20
2.5941099999999988
 30
0.0
  0
VERTEX
  5
32F
  8
0
 10
-4.3052000000000001
 20
2.6074000000000002
 30
0.0
  0
VERTEX
  5
330
  8
0
 10
-4.2549900000000003
 20
2.6205400000000001
 30
0.0
  0
VERTEX
  5
331
  8
0
 10
-4.20479
 20
2.633529999999999
 30
0.0
  0
VERTEX
  5
332
  8
0
 10
-4.1545800000000002
 20
2.6463700000000001
 30
0.0
  0
VERTEX
  5
333
  8
0
 10
-4.1043699999999994
 20
2.6590699999999998
 30
0.0
  0
VERTEX
  5
334
  8
0
 10
-4.0541700000000001
 20
2.6716299999999991
 30
0.0
  0
VERTEX
  5
335
  8
0
 10
-4.0039600000000002
 20
2.68405
 30
0.0
  0
VERTEX
  5
336
  8
0
 10
-3.953749999999999
 20
2.6963400000000002
 30
0.0
  0
VERTEX
  5
337
  8
0
 10
-3.9035500000000001
 20
2.7084799999999989
 30
0.0
  0
VERTEX
  5
338
  8
0
 10
-3.8533400000000002
 20
2.7204899999999999
 30
0.0
  0
VERTEX
  5
339
  8
0
 10
-3.8031299999999999
 20
2.732359999999999
 30
0.0
  0
VERTEX
  5
33A
  8
0
 10
-3.7529300000000001
 20
2.7440999999999991
 30
0.0
  0
VERTEX
  5
33B
  8
0
 10
-3.7027199999999989
 20
2.7557
 30
0.0
  0
VERTEX
  5
33C
  8
0
 10
-3.6525199999999991
 20
2.7671799999999989
 30
0.0
  0
VERTEX
  5
33D
  8
0
 10
-3.6023099999999988
 20
2.778519999999999
 30
0.0
  0
VERTEX
  5
33E
  8
0
 10
-3.5520999999999989
 20
2.78973
 30
0.0
  0
VERTEX
  5
33F
  8
0
 10
-3.5019
 20
2.800819999999999
 30
0.0
  0
VERTEX
  5
340
  8
0
 10
-3.4516900000000001
 20
2.8117799999999988
 30
0.0
  0
VERTEX
  5
341
  8
0
 10
-3.4014799999999998
 20
2.8226100000000001
 30
0.0
  0
VERTEX
  5
342
  8
0
 10
-3.35128
 20
2.8333200000000001
 30
0.0
  0
VERTEX
  5
343
  8
0
 10
-3.3010699999999988
 20
2.8439099999999988
 30
0.0
  0
VERTEX
  5
344
  8
0
 10
-3.250859999999999
 20
2.854369999999999
 30
0.0
  0
VERTEX
  5
345
  8
0
 10
-3.2006600000000001
 20
2.8647099999999992
 30
0.0
  0
VERTEX
  5
346
  8
0
 10
-3.1504500000000002
 20
2.8749400000000001
 30
0.0
  0
VERTEX
  5
347
  8
0
 10
-3.1002499999999991
 20
2.8850500000000001
 30
0.0
  0
VERTEX
  5
348
  8
0
 10
-3.0500400000000001
 20
2.8950399999999998
 30
0.0
  0
VERTEX
  5
349
  8
0
 10
-2.9998299999999989
 20
2.9049099999999992
 30
0.0
  0
VERTEX
  5
34A
  8
0
 10
-2.9496299999999991
 20
2.9146799999999988
 30
0.0
  0
VERTEX
  5
34B
  8
0
 10
-2.8994200000000001
 20
2.9243199999999998
 30
0.0
  0
VERTEX
  5
34C
  8
0
 10
-2.8492099999999989
 20
2.9338599999999988
 30
0.0
  0
VERTEX
  5
34D
  8
0
 10
-2.7990099999999991
 20
2.9432900000000002
 30
0.0
  0
VERTEX
  5
34E
  8
0
 10
-2.7488000000000001
 20
2.9526099999999991
 30
0.0
  0
VERTEX
  5
34F
  8
0
 10
-2.6985899999999998
 20
2.961819999999999
 30
0.0
  0
VERTEX
  5
350
  8
0
 10
-2.64839
 20
2.9709199999999991
 30
0.0
  0
VERTEX
  5
351
  8
0
 10
-2.5981799999999988
 20
2.979919999999999
 30
0.0
  0
VERTEX
  5
352
  8
0
 10
-2.547979999999999
 20
2.98882
 30
0.0
  0
VERTEX
  5
353
  8
0
 10
-2.49777
 20
2.997609999999999
 30
0.0
  0
VERTEX
  5
354
  8
0
 10
-2.4475599999999988
 20
3.0062999999999991
 30
0.0
  0
VERTEX
  5
355
  8
0
 10
-2.397359999999999
 20
3.0148899999999998
 30
0.0
  0
VERTEX
  5
356
  8
0
 10
-2.3471500000000001
 20
3.02339
 30
0.0
  0
VERTEX
  5
357
  8
0
 10
-2.2969400000000002
 20
3.031779999999999
 30
0.0
  0
VERTEX
  5
358
  8
0
 10
-2.2467399999999991
 20
3.0400800000000001
 30
0.0
  0
VERTEX
  5
359
  8
0
 10
-2.1965300000000001
 20
3.0482800000000001
 30
0.0
  0
VERTEX
  5
35A
  8
0
 10
-2.1463199999999998
 20
3.056379999999999
 30
0.0
  0
VERTEX
  5
35B
  8
0
 10
-2.0961199999999991
 20
3.0643899999999991
 30
0.0
  0
VERTEX
  5
35C
  8
0
 10
-2.0459099999999988
 20
3.0722999999999989
 30
0.0
  0
VERTEX
  5
35D
  8
0
 10
-1.995709999999999
 20
3.0801199999999991
 30
0.0
  0
VERTEX
  5
35E
  8
0
 10
-1.9455
 20
3.0878499999999991
 30
0.0
  0
VERTEX
  5
35F
  8
0
 10
-1.8952899999999999
 20
3.0954899999999999
 30
0.0
  0
VERTEX
  5
360
  8
0
 10
-1.8450899999999999
 20
3.1030299999999991
 30
0.0
  0
VERTEX
  5
361
  8
0
 10
-1.79488
 20
3.1104899999999991
 30
0.0
  0
VERTEX
  5
362
  8
0
 10
-1.7446699999999999
 20
3.1178499999999989
 30
0.0
  0
VERTEX
  5
363
  8
0
 10
-1.6944699999999999
 20
3.1251299999999991
 30
0.0
  0
VERTEX
  5
364
  8
0
 10
-1.6442599999999989
 20
3.132309999999999
 30
0.0
  0
VERTEX
  5
365
  8
0
 10
-1.59405
 20
3.1394099999999989
 30
0.0
  0
VERTEX
  5
366
  8
0
 10
-1.5438499999999991
 20
3.1464199999999991
 30
0.0
  0
VERTEX
  5
367
  8
0
 10
-1.493639999999999
 20
3.1533500000000001
 30
0.0
  0
VERTEX
  5
368
  8
0
 10
-1.4434400000000001
 20
3.1601900000000001
 30
0.0
  0
VERTEX
  5
369
  8
0
 10
-1.3932299999999991
 20
3.1669399999999999
 30
0.0
  0
VERTEX
  5
36A
  8
0
 10
-1.3430200000000001
 20
3.17361
 30
0.0
  0
VERTEX
  5
36B
  8
0
 10
-1.2928200000000001
 20
3.1802000000000001
 30
0.0
  0
VERTEX
  5
36C
  8
0
 10
-1.2426099999999991
 20
3.1867099999999988
 30
0.0
  0
VERTEX
  5
36D
  8
0
 10
-1.192399999999999
 20
3.19313
 30
0.0
  0
VERTEX
  5
36E
  8
0
 10
-1.1422000000000001
 20
3.1994599999999989
 30
0.0
  0
VERTEX
  5
36F
  8
0
 10
-1.09199
 20
3.205719999999999
 30
0.0
  0
VERTEX
  5
370
  8
0
 10
-1.041779999999999
 20
3.2118899999999999
 30
0.0
  0
VERTEX
  5
371
  8
0
 10
-0.9915799999999999
 20
3.2179899999999999
 30
0.0
  0
VERTEX
  5
372
  8
0
 10
-0.94137
 20
3.2239999999999989
 30
0.0
  0
VERTEX
  5
373
  8
0
 10
-0.8911699999999999
 20
3.2299299999999991
 30
0.0
  0
VERTEX
  5
374
  8
0
 10
-0.8409600000000002
 20
3.2357800000000001
 30
0.0
  0
VERTEX
  5
375
  8
0
 10
-0.79075
 20
3.2415500000000002
 30
0.0
  0
VERTEX
  5
376
  8
0
 10
-0.74055
 20
3.2472300000000001
 30
0.0
  0
VERTEX
  5
377
  8
0
 10
-0.69034
 20
3.2528399999999991
 30
0.0
  0
VERTEX
  5
378
  8
0
 10
-0.197
 20
3.196979999999999
 30
0.0
  0
VERTEX
  5
379
  8
0
 10
-0.19531
 20
3.2226900000000001
 30
0.0
  0
VERTEX
  5
37A
  8
0
 10
-0.19029
 20
3.24797
 30
0.0
  0
VERTEX
  5
37B
  8
0
 10
-0.182
 20
3.27237
 30
0.0
  0
VERTEX
  5
37C
  8
0
 10
-0.17061
 20
3.29548
 30
0.0
  0
VERTEX
  5
37D
  8
0
 10
-0.15629
 20
3.31691
 30
0.0
  0
VERTEX
  5
37E
  8
0
 10
-0.1393
 20
3.3362799999999999
 30
0.0
  0
VERTEX
  5
37F
  8
0
 10
-0.11993
 20
3.3532699999999989
 30
0.0
  0
VERTEX
  5
380
  8
0
 10
-0.0985
 20
3.3675899999999999
 30
0.0
  0
VERTEX
  5
381
  8
0
 10
-0.07539
 20
3.3789799999999999
 30
0.0
  0
VERTEX
  5
382
  8
0
 10
-0.05099
 20
3.3872699999999991
 30
0.0
  0
VERTEX
  5
383
  8
0
 10
-0.02571
 20
3.39229
 30
0.0
  0
VERTEX
  5
384
  8
0
 10
0.0
 20
3.39398
 30
0.0
  0
VERTEX
  5
385
  8
0
 10
0.02571
 20
3.39229
 30
0.0
  0
VERTEX
  5
386
  8
0
 10
0.05099
 20
3.3872699999999991
 30
0.0
  0
VERTEX
  5
387
  8
0
 10
0.07539
 20
3.3789799999999999
 30
0.0
  0
VERTEX
  5
388
  8
0
 10
0.0985
 20
3.3675899999999999
 30
0.0
  0
VERTEX
  5
389
  8
0
 10
0.11993
 20
3.3532699999999989
 30
0.0
  0
VERTEX
  5
38A
  8
0
 10
0.1393
 20
3.3362799999999999
 30
0.0
  0
VERTEX
  5
38B
  8
0
 10
0.15629
 20
3.31691
 30
0.0
  0
VERTEX
  5
38C
  8
0
 10
0.17061
 20
3.29548
 30
0.0
  0
VERTEX
  5
38D
  8
0
 10
0.182
 20
3.27237
 30
0.0
  0
VERTEX
  5
38E
  8
0
 10
0.19029
 20
3.24797
 30
0.0
  0
VERTEX
  5
38F
  8
0
 10
0.19531
 20
3.2226900000000001
 30
0.0
  0
VERTEX
  5
390
  8
0
 10
0.197
 20
3.196979999999999
 30
0.0
  0
VERTEX
  5
391
  8
0
 10
0.69034
 20
3.196979999999999
 30
0.0
  0
VERTEX
  5
392
  8
0
 10
0.69034
 20
3.5744599999999989
 30
0.0
  0
VERTEX
  5
393
  8
0
 10
0.62821
 20
3.569999999999999
 30
0.0
  0
VERTEX
  5
394
  8
0
 10
0.56608
 20
3.5654300000000001
 30
0.0
  0
VERTEX
  5
395
  8
0
 10
0.5039500000000001
 20
3.5607699999999989
 30
0.0
  0
VERTEX
  5
396
  8
0
 10
0.44182
 20
3.556
 30
0.0
  0
VERTEX
  5
397
  8
0
 10
0.37969
 20
3.5511199999999992
 30
0.0
  0
VERTEX
  5
398
  8
0
 10
0.31756
 20
3.5461399999999998
 30
0.0
  0
VERTEX
  5
399
  8
0
 10
0.25543
 20
3.5410499999999989
 30
0.0
  0
VERTEX
  5
39A
  8
0
 10
0.1933
 20
3.535849999999999
 30
0.0
  0
VERTEX
  5
39B
  8
0
 10
0.13116
 20
3.5305399999999998
 30
0.0
  0
VERTEX
  5
39C
  8
0
 10
0.06903
 20
3.5251299999999999
 30
0.0
  0
VERTEX
  5
39D
  8
0
 10
0.0069
 20
3.5196000000000001
 30
0.0
  0
VERTEX
  5
39E
  8
0
 10
-0.05523
 20
3.5139599999999991
 30
0.0
  0
VERTEX
  5
39F
  8
0
 10
-0.11736
 20
3.5082100000000001
 30
0.0
  0
VERTEX
  5
3A0
  8
0
 10
-0.17949
 20
3.5023399999999998
 30
0.0
  0
VERTEX
  5
3A1
  8
0
 10
-0.24162
 20
3.4963599999999988
 30
0.0
  0
VERTEX
  5
3A2
  8
0
 10
-0.30375
 20
3.4902699999999989
 30
0.0
  0
VERTEX
  5
3A3
  8
0
 10
-0.36588
 20
3.484059999999999
 30
0.0
  0
VERTEX
  5
3A4
  8
0
 10
-0.4280100000000001
 20
3.4777300000000002
 30
0.0
  0
VERTEX
  5
3A5
  8
0
 10
-0.49014
 20
3.4712800000000001
 30
0.0
  0
VERTEX
  5
3A6
  8
0
 10
-0.55227
 20
3.4647099999999988
 30
0.0
  0
VERTEX
  5
3A7
  8
0
 10
-0.6143999999999999
 20
3.4580299999999999
 30
0.0
  0
VERTEX
  5
3A8
  8
0
 10
-0.67653
 20
3.4512199999999988
 30
0.0
  0
VERTEX
  5
3A9
  8
0
 10
-0.73866
 20
3.4443000000000001
 30
0.0
  0
VERTEX
  5
3AA
  8
0
 10
-0.8007899999999999
 20
3.4372500000000001
 30
0.0
  0
VERTEX
  5
3AB
  8
0
 10
-0.86292
 20
3.4300799999999998
 30
0.0
  0
VERTEX
  5
3AC
  8
0
 10
-0.92506
 20
3.4227799999999999
 30
0.0
  0
VERTEX
  5
3AD
  8
0
 10
-0.98719
 20
3.4153699999999989
 30
0.0
  0
VERTEX
  5
3AE
  8
0
 10
-1.04932
 20
3.4078199999999992
 30
0.0
  0
VERTEX
  5
3AF
  8
0
 10
-1.11145
 20
3.4001600000000001
 30
0.0
  0
VERTEX
  5
3B0
  8
0
 10
-1.173579999999999
 20
3.39236
 30
0.0
  0
VERTEX
  5
3B1
  8
0
 10
-1.2357100000000001
 20
3.3844400000000001
 30
0.0
  0
VERTEX
  5
3B2
  8
0
 10
-1.297839999999999
 20
3.376399999999999
 30
0.0
  0
VERTEX
  5
3B3
  8
0
 10
-1.3599699999999999
 20
3.3682199999999991
 30
0.0
  0
VERTEX
  5
3B4
  8
0
 10
-1.422099999999999
 20
3.3599199999999989
 30
0.0
  0
VERTEX
  5
3B5
  8
0
 10
-1.4842299999999991
 20
3.3514900000000001
 30
0.0
  0
VERTEX
  5
3B6
  8
0
 10
-1.5463599999999991
 20
3.342919999999999
 30
0.0
  0
VERTEX
  5
3B7
  8
0
 10
-1.6084899999999991
 20
3.3342299999999998
 30
0.0
  0
VERTEX
  5
3B8
  8
0
 10
-1.6706199999999991
 20
3.3254000000000001
 30
0.0
  0
VERTEX
  5
3B9
  8
0
 10
-1.73275
 20
3.3164400000000001
 30
0.0
  0
VERTEX
  5
3BA
  8
0
 10
-1.79488
 20
3.3073399999999991
 30
0.0
  0
VERTEX
  5
3BB
  8
0
 10
-1.8570099999999989
 20
3.2980999999999989
 30
0.0
  0
VERTEX
  5
3BC
  8
0
 10
-1.9191400000000001
 20
3.2887199999999992
 30
0.0
  0
VERTEX
  5
3BD
  8
0
 10
-1.981279999999999
 20
3.2792099999999991
 30
0.0
  0
VERTEX
  5
3BE
  8
0
 10
-2.0434099999999988
 20
3.2695500000000002
 30
0.0
  0
VERTEX
  5
3BF
  8
0
 10
-2.1055399999999991
 20
3.2597399999999999
 30
0.0
  0
VERTEX
  5
3C0
  8
0
 10
-2.1676700000000002
 20
3.2498
 30
0.0
  0
VERTEX
  5
3C1
  8
0
 10
-2.2298
 20
3.2397
 30
0.0
  0
VERTEX
  5
3C2
  8
0
 10
-2.2919299999999989
 20
3.2294599999999991
 30
0.0
  0
VERTEX
  5
3C3
  8
0
 10
-2.35406
 20
3.219069999999999
 30
0.0
  0
VERTEX
  5
3C4
  8
0
 10
-2.4161899999999998
 20
3.2085300000000001
 30
0.0
  0
VERTEX
  5
3C5
  8
0
 10
-2.4783200000000001
 20
3.1978399999999998
 30
0.0
  0
VERTEX
  5
3C6
  8
0
 10
-2.540449999999999
 20
3.1869900000000002
 30
0.0
  0
VERTEX
  5
3C7
  8
0
 10
-2.6025800000000001
 20
3.1759900000000001
 30
0.0
  0
VERTEX
  5
3C8
  8
0
 10
-2.664709999999999
 20
3.1648200000000002
 30
0.0
  0
VERTEX
  5
3C9
  8
0
 10
-2.7268400000000002
 20
3.1535000000000002
 30
0.0
  0
VERTEX
  5
3CA
  8
0
 10
-2.7889699999999991
 20
3.1420099999999991
 30
0.0
  0
VERTEX
  5
3CB
  8
0
 10
-2.8511000000000002
 20
3.1303499999999991
 30
0.0
  0
VERTEX
  5
3CC
  8
0
 10
-2.91323
 20
3.1185299999999989
 30
0.0
  0
VERTEX
  5
3CD
  8
0
 10
-2.9753599999999989
 20
3.1065299999999989
 30
0.0
  0
VERTEX
  5
3CE
  8
0
 10
-3.0375000000000001
 20
3.0943700000000001
 30
0.0
  0
VERTEX
  5
3CF
  8
0
 10
-3.099629999999999
 20
3.0820199999999991
 30
0.0
  0
VERTEX
  5
3D0
  8
0
 10
-3.1617599999999988
 20
3.0695000000000001
 30
0.0
  0
VERTEX
  5
3D1
  8
0
 10
-3.2238899999999999
 20
3.0567899999999999
 30
0.0
  0
VERTEX
  5
3D2
  8
0
 10
-3.2860199999999988
 20
3.0438999999999989
 30
0.0
  0
VERTEX
  5
3D3
  8
0
 10
-3.3481499999999991
 20
3.030829999999999
 30
0.0
  0
VERTEX
  5
3D4
  8
0
 10
-3.4102800000000002
 20
3.0175700000000001
 30
0.0
  0
VERTEX
  5
3D5
  8
0
 10
-3.4724099999999991
 20
3.004119999999999
 30
0.0
  0
VERTEX
  5
3D6
  8
0
 10
-3.5345399999999998
 20
2.9904700000000002
 30
0.0
  0
VERTEX
  5
3D7
  8
0
 10
-3.5966699999999991
 20
2.9766300000000001
 30
0.0
  0
VERTEX
  5
3D8
  8
0
 10
-3.6587999999999989
 20
2.9625900000000001
 30
0.0
  0
VERTEX
  5
3D9
  8
0
 10
-3.7209300000000001
 20
2.9483599999999992
 30
0.0
  0
VERTEX
  5
3DA
  8
0
 10
-3.783059999999999
 20
2.9339200000000001
 30
0.0
  0
VERTEX
  5
3DB
  8
0
 10
-3.8451900000000001
 20
2.91927
 30
0.0
  0
VERTEX
  5
3DC
  8
0
 10
-3.907319999999999
 20
2.90442
 30
0.0
  0
VERTEX
  5
3DD
  8
0
 10
-3.9694500000000001
 20
2.889359999999999
 30
0.0
  0
VERTEX
  5
3DE
  8
0
 10
-4.0315799999999991
 20
2.8740799999999989
 30
0.0
  0
VERTEX
  5
3DF
  8
0
 10
-4.0937199999999994
 20
2.8586
 30
0.0
  0
VERTEX
  5
3E0
  8
0
 10
-4.15585
 20
2.8428900000000001
 30
0.0
  0
VERTEX
  5
3E1
  8
0
 10
-4.2179799999999998
 20
2.8269700000000002
 30
0.0
  0
VERTEX
  5
3E2
  8
0
 10
-4.2801099999999987
 20
2.8108299999999988
 30
0.0
  0
VERTEX
  5
3E3
  8
0
 10
-4.3422400000000003
 20
2.7944599999999991
 30
0.0
  0
VERTEX
  5
3E4
  8
0
 10
-4.4043700000000001
 20
2.777849999999999
 30
0.0
  0
VERTEX
  5
3E5
  8
0
 10
-4.466499999999999
 20
2.7610000000000001
 30
0.0
  0
VERTEX
  5
3E6
  8
0
 10
-4.5286299999999997
 20
2.7439200000000001
 30
0.0
  0
VERTEX
  5
3E7
  8
0
 10
-4.5907599999999986
 20
2.7265799999999989
 30
0.0
  0
VERTEX
  5
3E8
  8
0
 10
-4.6528900000000002
 20
2.70899
 30
0.0
  0
VERTEX
  5
3E9
  8
0
 10
-4.7150199999999991
 20
2.6911399999999999
 30
0.0
  0
VERTEX
  5
3EA
  8
0
 10
-4.7771499999999989
 20
2.6730299999999989
 30
0.0
  0
VERTEX
  5
3EB
  8
0
 10
-4.8392799999999996
 20
2.6546599999999989
 30
0.0
  0
VERTEX
  5
3EC
  8
0
 10
-4.9014100000000003
 20
2.6360099999999989
 30
0.0
  0
VERTEX
  5
3ED
  8
0
 10
-4.9635400000000001
 20
2.6170800000000001
 30
0.0
  0
VERTEX
  5
3EE
  8
0
 10
-5.025669999999999
 20
2.597869999999999
 30
0.0
  0
VERTEX
  5
3EF
  8
0
 10
-5.0878100000000002
 20
2.5783599999999991
 30
0.0
  0
VERTEX
  5
3F0
  8
0
 10
-5.1499399999999991
 20
2.5585399999999998
 30
0.0
  0
VERTEX
  5
3F1
  8
0
 10
-5.2120699999999989
 20
2.538419999999999
 30
0.0
  0
VERTEX
  5
3F2
  8
0
 10
-5.2742000000000004
 20
2.5179800000000001
 30
0.0
  0
VERTEX
  5
3F3
  8
0
 10
-5.3363300000000002
 20
2.497199999999999
 30
0.0
  0
VERTEX
  5
3F4
  8
0
 10
-5.39846
 20
2.4760900000000001
 30
0.0
  0
VERTEX
  5
3F5
  8
0
 10
-5.4605899999999989
 20
2.454629999999999
 30
0.0
  0
VERTEX
  5
3F6
  8
0
 10
-5.5227199999999987
 20
2.432809999999999
 30
0.0
  0
VERTEX
  5
3F7
  8
0
 10
-5.5848500000000003
 20
2.4106200000000002
 30
0.0
  0
VERTEX
  5
3F8
  8
0
 10
-5.6469800000000001
 20
2.3880499999999989
 30
0.0
  0
VERTEX
  5
3F9
  8
0
 10
-5.709109999999999
 20
2.3650899999999999
 30
0.0
  0
VERTEX
  5
3FA
  8
0
 10
-5.7712399999999988
 20
2.3417400000000002
 30
0.0
  0
VERTEX
  5
3FB
  8
0
 10
-5.8333699999999986
 20
2.3179899999999991
 30
0.0
  0
VERTEX
  5
3FC
  8
0
 10
-5.8955000000000002
 20
2.2938099999999988
 30
0.0
  0
VERTEX
  5
3FD
  8
0
 10
-5.9576299999999991
 20
2.2692199999999998
 30
0.0
  0
VERTEX
  5
3FE
  8
0
 10
-6.0197599999999989
 20
2.2442000000000002
 30
0.0
  0
VERTEX
  5
3FF
  8
0
 10
-6.0818899999999996
 20
2.21875
 30
0.0
  0
VERTEX
  5
400
  8
0
 10
-6.144029999999999
 20
2.1928700000000001
 30
0.0
  0
VERTEX
  5
401
  8
0
 10
-6.2061599999999988
 20
2.1665399999999999
 30
0.0
  0
VERTEX
  5
402
  8
0
 10
-6.2682900000000004
 20
2.139759999999999
 30
0.0
  0
VERTEX
  5
403
  8
0
 10
-6.3304199999999993
 20
2.112509999999999
 30
0.0
  0
VERTEX
  5
404
  8
0
 10
-6.3925499999999991
 20
2.084779999999999
 30
0.0
  0
VERTEX
  5
405
  8
0
 10
-6.4546799999999998
 20
2.0565299999999991
 30
0.0
  0
VERTEX
  5
406
  8
0
 10
-6.5168099999999987
 20
2.0277400000000001
 30
0.0
  0
VERTEX
  5
407
  8
0
 10
-6.5789399999999993
 20
1.9983999999999991
 30
0.0
  0
VERTEX
  5
408
  8
0
 10
-6.64107
 20
1.9684699999999999
 30
0.0
  0
VERTEX
  5
409
  8
0
 10
-6.7031999999999989
 20
1.937929999999999
 30
0.0
  0
VERTEX
  5
40A
  8
0
 10
-6.7653299999999996
 20
1.9067599999999989
 30
0.0
  0
VERTEX
  5
40B
  8
0
 10
-6.8274600000000003
 20
1.874909999999999
 30
0.0
  0
VERTEX
  5
40C
  8
0
 10
-6.8895899999999992
 20
1.842379999999999
 30
0.0
  0
VERTEX
  5
40D
  8
0
 10
-6.951719999999999
 20
1.8091200000000001
 30
0.0
  0
VERTEX
  5
40E
  8
0
 10
-7.0138499999999988
 20
1.7750799999999991
 30
0.0
  0
VERTEX
  5
40F
  8
0
 10
-7.0759800000000004
 20
1.7401999999999991
 30
0.0
  0
VERTEX
  5
410
  8
0
 10
-7.1381100000000002
 20
1.704399999999999
 30
0.0
  0
VERTEX
  5
411
  8
0
 10
-7.2002499999999987
 20
1.6676299999999991
 30
0.0
  0
VERTEX
  5
412
  8
0
 10
-7.2623800000000003
 20
1.6298099999999991
 30
0.0
  0
VERTEX
  5
413
  8
0
 10
-7.3245100000000001
 20
1.5908999999999991
 30
0.0
  0
VERTEX
  5
414
  8
0
 10
-7.3866399999999981
 20
1.55088
 30
0.0
  0
VERTEX
  5
415
  8
0
 10
-7.4487699999999988
 20
1.509739999999999
 30
0.0
  0
VERTEX
  5
416
  8
0
 10
-7.5109000000000004
 20
1.467479999999999
 30
0.0
  0
VERTEX
  5
417
  8
0
 10
-7.5730300000000002
 20
1.4240699999999999
 30
0.0
  0
VERTEX
  5
418
  8
0
 10
-7.6351599999999999
 20
1.37951
 30
0.0
  0
VERTEX
  5
419
  8
0
 10
-7.6972899999999989
 20
1.333629999999999
 30
0.0
  0
VERTEX
  5
41A
  8
0
 10
-7.7594199999999987
 20
1.2862
 30
0.0
  0
VERTEX
  5
41B
  8
0
 10
-7.8215500000000002
 20
1.2369699999999999
 30
0.0
  0
VERTEX
  5
41C
  8
0
 10
-7.88368
 20
1.1856999999999991
 30
0.0
  0
VERTEX
  5
41D
  8
0
 10
-7.9458099999999998
 20
1.132139999999999
 30
0.0
  0
VERTEX
  5
41E
  8
0
 10
-8.0079399999999996
 20
1.075729999999999
 30
0.0
  0
VERTEX
  5
41F
  8
0
 10
-8.0700699999999994
 20
1.0155299999999989
 30
0.0
  0
VERTEX
  5
420
  8
0
 10
-8.1321999999999992
 20
0.9508799999999999
 30
0.0
  0
VERTEX
  5
421
  8
0
 10
-8.1943300000000008
 20
0.8813799999999998
 30
0.0
  0
VERTEX
  5
422
  8
0
 10
-8.2564700000000002
 20
0.8073
 30
0.0
  0
VERTEX
  5
423
  8
0
 10
-8.3185999999999982
 20
0.7289800000000001
 30
0.0
  0
VERTEX
  5
424
  8
0
 10
-8.3807299999999998
 20
0.64677
 30
0.0
  0
VERTEX
  5
425
  8
0
 10
-8.4428600000000014
 20
0.5559400000000001
 30
0.0
  0
VERTEX
  5
426
  8
0
 10
-8.5049899999999994
 20
0.4414800000000001
 30
0.0
  0
VERTEX
  5
427
  8
0
 10
-8.5671199999999992
 20
0.28707
 30
0.0
  0
VERTEX
  5
428
  8
0
 10
-8.6292500000000008
 20
0.07638
 30
0.0
  0
VERTEX
  5
429
  8
0
 10
-8.6292500000000008
 20
-0.09952
 30
0.0
  0
VERTEX
  5
42A
  8
0
 10
-8.5487099999999998
 20
-0.24101
 30
0.0
  0
VERTEX
  5
42B
  8
0
 10
-8.4681699999999989
 20
-0.34069
 30
0.0
  0
VERTEX
  5
42C
  8
0
 10
-8.3876299999999997
 20
-0.4098
 30
0.0
  0
VERTEX
  5
42D
  8
0
 10
-8.3070899999999988
 20
-0.45961
 30
0.0
  0
VERTEX
  5
42E
  8
0
 10
-8.2265499999999996
 20
-0.50132
 30
0.0
  0
VERTEX
  5
42F
  8
0
 10
-8.1460100000000004
 20
-0.5425300000000001
 30
0.0
  0
VERTEX
  5
430
  8
0
 10
-8.0654699999999995
 20
-0.58338
 30
0.0
  0
VERTEX
  5
431
  8
0
 10
-7.9849300000000003
 20
-0.6231100000000001
 30
0.0
  0
VERTEX
  5
432
  8
0
 10
-7.9043899999999994
 20
-0.6608800000000001
 30
0.0
  0
VERTEX
  5
433
  8
0
 10
-7.8238500000000002
 20
-0.69597
 30
0.0
  0
VERTEX
  5
434
  8
0
 10
-7.743310000000001
 20
-0.72862
 30
0.0
  0
VERTEX
  5
435
  8
0
 10
-7.6627700000000001
 20
-0.7591600000000001
 30
0.0
  0
VERTEX
  5
436
  8
0
 10
-7.58223
 20
-0.7879
 30
0.0
  0
VERTEX
  5
437
  8
0
 10
-7.5016899999999991
 20
-0.81515
 30
0.0
  0
VERTEX
  5
438
  8
0
 10
-7.421149999999999
 20
-0.8411299999999998
 30
0.0
  0
VERTEX
  5
439
  8
0
 10
-7.3406099999999999
 20
-0.8660299999999999
 30
0.0
  0
VERTEX
  5
43A
  8
0
 10
-7.2600699999999989
 20
-0.89006
 30
0.0
  0
VERTEX
  5
43B
  8
0
 10
-7.1795299999999997
 20
-0.9134100000000001
 30
0.0
  0
VERTEX
  5
43C
  8
0
 10
-7.0990000000000002
 20
-0.9361
 30
0.0
  0
VERTEX
  5
43D
  8
0
 10
-7.0184600000000001
 20
-0.95812
 30
0.0
  0
VERTEX
  5
43E
  8
0
 10
-6.9379200000000001
 20
-0.9794599999999999
 30
0.0
  0
VERTEX
  5
43F
  8
0
 10
-6.85738
 20
-1.0000999999999991
 30
0.0
  0
VERTEX
  5
440
  8
0
 10
-6.7768399999999991
 20
-1.0200599999999991
 30
0.0
  0
VERTEX
  5
441
  8
0
 10
-6.696299999999999
 20
-1.03939
 30
0.0
  0
VERTEX
  5
442
  8
0
 10
-6.6157599999999999
 20
-1.0581199999999999
 30
0.0
  0
VERTEX
  5
443
  8
0
 10
-6.5352199999999989
 20
-1.0763100000000001
 30
0.0
  0
VERTEX
  5
444
  8
0
 10
-6.4546799999999998
 20
-1.09399
 30
0.0
  0
VERTEX
  5
445
  8
0
 10
-6.3741399999999997
 20
-1.11121
 30
0.0
  0
VERTEX
  5
446
  8
0
 10
-6.2935999999999988
 20
-1.12799
 30
0.0
  0
VERTEX
  5
447
  8
0
 10
-6.2130599999999987
 20
-1.1443700000000001
 30
0.0
  0
VERTEX
  5
448
  8
0
 10
-6.1325199999999986
 20
-1.1603799999999991
 30
0.0
  0
VERTEX
  5
449
  8
0
 10
-6.0519800000000004
 20
-1.1760399999999991
 30
0.0
  0
VERTEX
  5
44A
  8
0
 10
-5.9714400000000003
 20
-1.191349999999999
 30
0.0
  0
VERTEX
  5
44B
  8
0
 10
-5.8909000000000002
 20
-1.2063200000000001
 30
0.0
  0
VERTEX
  5
44C
  8
0
 10
-5.8103600000000002
 20
-1.2209499999999991
 30
0.0
  0
VERTEX
  5
44D
  8
0
 10
-5.7298200000000001
 20
-1.23526
 30
0.0
  0
VERTEX
  5
44E
  8
0
 10
-5.6492800000000001
 20
-1.2492499999999991
 30
0.0
  0
VERTEX
  5
44F
  8
0
 10
-5.56874
 20
-1.262929999999999
 30
0.0
  0
VERTEX
  5
450
  8
0
 10
-5.4881999999999991
 20
-1.2762999999999991
 30
0.0
  0
VERTEX
  5
451
  8
0
 10
-5.407659999999999
 20
-1.2893699999999999
 30
0.0
  0
VERTEX
  5
452
  8
0
 10
-5.327119999999999
 20
-1.302149999999999
 30
0.0
  0
VERTEX
  5
453
  8
0
 10
-5.2465799999999998
 20
-1.3146599999999991
 30
0.0
  0
VERTEX
  5
454
  8
0
 10
-5.1660399999999989
 20
-1.3268999999999991
 30
0.0
  0
VERTEX
  5
455
  8
0
 10
-5.0854999999999988
 20
-1.338879999999999
 30
0.0
  0
VERTEX
  5
456
  8
0
 10
-5.0049599999999987
 20
-1.3506100000000001
 30
0.0
  0
VERTEX
  5
457
  8
0
 10
-4.9244199999999987
 20
-1.362109999999999
 30
0.0
  0
VERTEX
  5
458
  8
0
 10
-4.8438800000000004
 20
-1.373389999999999
 30
0.0
  0
VERTEX
  5
459
  8
0
 10
-4.7633499999999991
 20
-1.38446
 30
0.0
  0
VERTEX
  5
45A
  8
0
 10
-4.682809999999999
 20
-1.3953199999999999
 30
0.0
  0
VERTEX
  5
45B
  8
0
 10
-4.602269999999999
 20
-1.4059900000000001
 30
0.0
  0
VERTEX
  5
45C
  8
0
 10
-4.5217299999999998
 20
-1.4164699999999999
 30
0.0
  0
VERTEX
  5
45D
  8
0
 10
-4.4411899999999989
 20
-1.4267700000000001
 30
0.0
  0
VERTEX
  5
45E
  8
0
 10
-4.3606499999999988
 20
-1.43689
 30
0.0
  0
VERTEX
  5
45F
  8
0
 10
-4.2801099999999987
 20
-1.446839999999999
 30
0.0
  0
VERTEX
  5
460
  8
0
 10
-4.1995699999999987
 20
-1.4566099999999991
 30
0.0
  0
VERTEX
  5
461
  8
0
 10
-4.1190300000000004
 20
-1.4662200000000001
 30
0.0
  0
VERTEX
  5
462
  8
0
 10
-4.0384900000000004
 20
-1.475649999999999
 30
0.0
  0
VERTEX
  5
463
  8
0
 10
-3.957949999999999
 20
-1.4849199999999989
 30
0.0
  0
VERTEX
  5
464
  8
0
 10
-3.8774099999999989
 20
-1.4940299999999991
 30
0.0
  0
VERTEX
  5
465
  8
0
 10
-3.7968699999999989
 20
-1.5029699999999999
 30
0.0
  0
VERTEX
  5
466
  8
0
 10
-3.7163300000000001
 20
-1.511749999999999
 30
0.0
  0
VERTEX
  5
467
  8
0
 10
-3.6357900000000001
 20
-1.520379999999999
 30
0.0
  0
VERTEX
  5
468
  8
0
 10
-3.55525
 20
-1.5288600000000001
 30
0.0
  0
VERTEX
  5
469
  8
0
 10
-3.4747099999999991
 20
-1.53718
 30
0.0
  0
VERTEX
  5
46A
  8
0
 10
-3.394169999999999
 20
-1.5453600000000001
 30
0.0
  0
VERTEX
  5
46B
  8
0
 10
-3.3136299999999999
 20
-1.553399999999999
 30
0.0
  0
VERTEX
  5
46C
  8
0
 10
-3.2330899999999998
 20
-1.5612900000000001
 30
0.0
  0
VERTEX
  5
46D
  8
0
 10
-3.1525500000000002
 20
-1.5690500000000001
 30
0.0
  0
VERTEX
  5
46E
  8
0
 10
-3.0720099999999988
 20
-1.57667
 30
0.0
  0
VERTEX
  5
46F
  8
0
 10
-2.9914699999999992
 20
-1.5841599999999989
 30
0.0
  0
VERTEX
  5
470
  8
0
 10
-2.91093
 20
-1.59152
 30
0.0
  0
VERTEX
  5
471
  8
0
 10
-2.8303899999999991
 20
-1.598749999999999
 30
0.0
  0
VERTEX
  5
472
  8
0
 10
-2.749849999999999
 20
-1.6058699999999999
 30
0.0
  0
VERTEX
  5
473
  8
0
 10
-2.669309999999999
 20
-1.6128599999999991
 30
0.0
  0
VERTEX
  5
474
  8
0
 10
-2.5887699999999998
 20
-1.619729999999999
 30
0.0
  0
VERTEX
  5
475
  8
0
 10
-2.5082299999999988
 20
-1.6264899999999991
 30
0.0
  0
VERTEX
  5
476
  8
0
 10
-2.4277000000000002
 20
-1.6331299999999991
 30
0.0
  0
VERTEX
  5
477
  8
0
 10
-2.3471599999999988
 20
-1.639659999999999
 30
0.0
  0
VERTEX
  5
478
  8
0
 10
-2.2666200000000001
 20
-1.6460699999999999
 30
0.0
  0
VERTEX
  5
479
  8
0
 10
-2.18608
 20
-1.6523699999999999
 30
0.0
  0
VERTEX
  5
47A
  8
0
 10
-2.1055399999999991
 20
-1.6585599999999989
 30
0.0
  0
VERTEX
  5
47B
  8
0
 10
-2.024999999999999
 20
-1.6646399999999999
 30
0.0
  0
VERTEX
  5
47C
  8
0
 10
-1.944459999999999
 20
-1.6706000000000001
 30
0.0
  0
VERTEX
  5
47D
  8
0
 10
-1.86392
 20
-1.676459999999999
 30
0.0
  0
VERTEX
  5
47E
  8
0
 10
-1.78338
 20
-1.6822099999999991
 30
0.0
  0
VERTEX
  5
47F
  8
0
 10
-1.7028399999999999
 20
-1.687859999999999
 30
0.0
  0
VERTEX
  5
480
  8
0
 10
-1.6223000000000001
 20
-1.69339
 30
0.0
  0
VERTEX
  5
481
  8
0
 10
-1.54176
 20
-1.698829999999999
 30
0.0
  0
VERTEX
  5
482
  8
0
 10
-1.4612199999999991
 20
-1.7041500000000001
 30
0.0
  0
VERTEX
  5
483
  8
0
 10
-1.380679999999999
 20
-1.709379999999999
 30
0.0
  0
VERTEX
  5
484
  8
0
 10
-1.3001400000000001
 20
-1.714499999999999
 30
0.0
  0
VERTEX
  5
485
  8
0
 10
-1.2196
 20
-1.719509999999999
 30
0.0
  0
VERTEX
  5
486
  8
0
 10
-1.1390599999999991
 20
-1.724429999999999
 30
0.0
  0
VERTEX
  5
487
  8
0
 10
-1.0585199999999999
 20
-1.7292400000000001
 30
0.0
  0
VERTEX
  5
488
  8
0
 10
-0.9779799999999998
 20
-1.7339500000000001
 30
0.0
  0
VERTEX
  5
489
  8
0
 10
-0.8974399999999999
 20
-1.7385699999999999
 30
0.0
  0
VERTEX
  5
48A
  8
0
 10
-0.8169
 20
-1.7430799999999991
 30
0.0
  0
VERTEX
  5
48B
  8
0
 10
-0.73636
 20
-1.74749
 30
0.0
  0
VERTEX
  5
48C
  8
0
 10
-0.65582
 20
-1.7518
 30
0.0
  0
VERTEX
  5
48D
  8
0
 10
-0.5752800000000001
 20
-1.7560199999999999
 30
0.0
  0
VERTEX
  5
48E
  8
0
 10
-0.49474
 20
-1.7601399999999989
 30
0.0
  0
VERTEX
  5
48F
  8
0
 10
-0.4142000000000001
 20
-1.7641599999999991
 30
0.0
  0
VERTEX
  5
490
  8
0
 10
-0.33366
 20
-1.7680899999999999
 30
0.0
  0
VERTEX
  5
491
  8
0
 10
-0.25312
 20
-1.7719199999999999
 30
0.0
  0
VERTEX
  5
492
  8
0
 10
-0.17258
 20
-1.7756599999999989
 30
0.0
  0
VERTEX
  5
493
  8
0
 10
-0.09205
 20
-1.7793099999999991
 30
0.0
  0
VERTEX
  5
494
  8
0
 10
-0.01151
 20
-1.782859999999999
 30
0.0
  0
VERTEX
  5
495
  8
0
 10
0.06903
 20
-1.7863199999999999
 30
0.0
  0
VERTEX
  5
496
  8
0
 10
0.14957
 20
-1.7897000000000001
 30
0.0
  0
VERTEX
  5
497
  8
0
 10
0.23011
 20
-1.7929900000000001
 30
0.0
  0
VERTEX
  5
498
  8
0
 10
0.31065
 20
-1.79619
 30
0.0
  0
VERTEX
  5
499
  8
0
 10
0.39119
 20
-1.799299999999999
 30
0.0
  0
VERTEX
  5
49A
  8
0
 10
0.4717300000000001
 20
-1.8023299999999991
 30
0.0
  0
VERTEX
  5
49B
  8
0
 10
0.55227
 20
-1.8052699999999999
 30
0.0
  0
VERTEX
  5
49C
  8
0
 10
0.63281
 20
-1.80813
 30
0.0
  0
VERTEX
  5
49D
  8
0
 10
0.7133500000000002
 20
-1.8109099999999989
 30
0.0
  0
VERTEX
  5
49E
  8
0
 10
0.7938900000000001
 20
-1.8136099999999991
 30
0.0
  0
VERTEX
  5
49F
  8
0
 10
0.8744299999999999
 20
-1.8162199999999999
 30
0.0
  0
VERTEX
  5
4A0
  8
0
 10
0.9549700000000001
 20
-1.8187500000000001
 30
0.0
  0
VERTEX
  5
4A1
  8
0
 10
1.035509999999999
 20
-1.821199999999999
 30
0.0
  0
VERTEX
  5
4A2
  8
0
 10
1.1160499999999991
 20
-1.8235699999999999
 30
0.0
  0
VERTEX
  5
4A3
  8
0
 10
1.19659
 20
-1.8258599999999989
 30
0.0
  0
VERTEX
  5
4A4
  8
0
 10
1.277129999999999
 20
-1.8280599999999989
 30
0.0
  0
VERTEX
  5
4A5
  8
0
 10
1.3576699999999999
 20
-1.83019
 30
0.0
  0
VERTEX
  5
4A6
  8
0
 10
1.4382099999999991
 20
-1.83223
 30
0.0
  0
VERTEX
  5
4A7
  8
0
 10
1.51875
 20
-1.83419
 30
0.0
  0
VERTEX
  5
4A8
  8
0
 10
1.599289999999999
 20
-1.8360700000000001
 30
0.0
  0
VERTEX
  5
4A9
  8
0
 10
1.679829999999999
 20
-1.8378699999999999
 30
0.0
  0
VERTEX
  5
4AA
  8
0
 10
1.7603699999999991
 20
-1.8395900000000001
 30
0.0
  0
VERTEX
  5
4AB
  8
0
 10
1.8409099999999989
 20
-1.841229999999999
 30
0.0
  0
VERTEX
  5
4AC
  8
0
 10
1.9214500000000001
 20
-1.8427899999999999
 30
0.0
  0
VERTEX
  5
4AD
  8
0
 10
2.0019900000000002
 20
-1.8442599999999989
 30
0.0
  0
VERTEX
  5
4AE
  8
0
 10
2.0825299999999989
 20
-1.845659999999999
 30
0.0
  0
VERTEX
  5
4AF
  8
0
 10
2.1630699999999998
 20
-1.846979999999999
 30
0.0
  0
VERTEX
  5
4B0
  8
0
 10
2.2435999999999989
 20
-1.848209999999999
 30
0.0
  0
VERTEX
  5
4B1
  8
0
 10
2.3241399999999999
 20
-1.84937
 30
0.0
  0
VERTEX
  5
4B2
  8
0
 10
2.404679999999999
 20
-1.8504400000000001
 30
0.0
  0
VERTEX
  5
4B3
  8
0
 10
2.4852199999999991
 20
-1.851429999999999
 30
0.0
  0
VERTEX
  5
4B4
  8
0
 10
2.56576
 20
-1.8523499999999991
 30
0.0
  0
VERTEX
  5
4B5
  8
0
 10
2.6463000000000001
 20
-1.8531799999999989
 30
0.0
  0
VERTEX
  5
4B6
  8
0
 10
2.7268400000000002
 20
-1.853929999999999
 30
0.0
  0
VERTEX
  5
4B7
  8
0
 10
2.8073799999999989
 20
-1.8545999999999989
 30
0.0
  0
VERTEX
  5
4B8
  8
0
 10
2.8879199999999998
 20
-1.8551899999999999
 30
0.0
  0
VERTEX
  5
4B9
  8
0
 10
2.968459999999999
 20
-1.855699999999999
 30
0.0
  0
VERTEX
  5
4BA
  8
0
 10
3.048999999999999
 20
-1.8561299999999989
 30
0.0
  0
VERTEX
  5
4BB
  8
0
 10
3.1295399999999991
 20
-1.8564700000000001
 30
0.0
  0
VERTEX
  5
4BC
  8
0
 10
3.21008
 20
-1.8567400000000001
 30
0.0
  0
VERTEX
  5
4BD
  8
0
 10
3.2906199999999992
 20
-1.85693
 30
0.0
  0
VERTEX
  5
4BE
  8
0
 10
3.3711599999999988
 20
-1.85704
 30
0.0
  0
VERTEX
  5
4BF
  8
0
 10
3.4517000000000002
 20
-1.85707
 30
0.0
  0
VERTEX
  5
4C0
  8
0
 10
3.4517000000000002
 20
-1.2533700000000001
 30
0.0
  0
VERTEX
  5
4C1
  8
0
 10
2.7276400000000001
 20
-1.2533700000000001
 30
0.0
  0
VERTEX
  5
4C2
  8
0
 10
2.7276400000000001
 20
-1.33043
 30
0.0
  0
VERTEX
  5
4C3
  8
0
 10
-2.7276400000000001
 20
-1.33043
 30
0.0
  0
VERTEX
  5
4C4
  8
0
 10
-0.197
 20
3.196979999999999
 30
0.0
  0
VERTEX
  5
4C5
  8
0
 10
0.0
 20
0.0
 30
0.0
  0
VERTEX
  5
4C6
  8
0
 10
0.0
 20
0.0
 30
0.0
  0
SEQEND
  5
4C7
  8
0
  0
ENDSEC
  0
EOF
