  0
SECTION
  2
HEADER
  9
$ACADVER
  1
AC1009
  9
$INSBASE
 10
0.0
 20
0.0
 30
0.0
  9
$EXTMIN
 10
-3.3426300000000002
 20
-1.75868
 30
0.0
  9
$EXTMAX
 10
8.1711899999999993
 20
3.3847199999999988
 30
0.0
  9
$LIMMIN
 10
0.0
 20
0.0
  9
$LIMMAX
 10
12.0
 20
9.0
  9
$ORTHOMODE
 70
     0
  9
$REGENMODE
 70
     1
  9
$FILLMODE
 70
     1
  9
$QTEXTMODE
 70
     0
  9
$MIRRTEXT
 70
     0
  9
$DRAGMODE
 70
     2
  9
$LTSCALE
 40
1.0
  9
$OSMODE
 70
    37
  9
$ATTMODE
 70
     1
  9
$TEXTSIZE
 40
0.2
  9
$TRACEWID
 40
0.05
  9
$TEXTSTYLE
  7
STANDARD
  9
$CLAYER
  8
0
  9
$CELTYPE
  6
BYLAYER
  9
$CECOLOR
 62
   256
  9
$DIMSCALE
 40
1.0
  9
$DIMASZ
 40
0.18
  9
$DIMEXO
 40
0.0625
  9
$DIMDLI
 40
0.38
  9
$DIMRND
 40
0.0
  9
$DIMDLE
 40
0.0
  9
$DIMEXE
 40
0.18
  9
$DIMTP
 40
0.0
  9
$DIMTM
 40
0.0
  9
$DIMTXT
 40
0.18
  9
$DIMCEN
 40
0.09
  9
$DIMTSZ
 40
0.0
  9
$DIMTOL
 70
     0
  9
$DIMLIM
 70
     0
  9
$DIMTIH
 70
     1
  9
$DIMTOH
 70
     1
  9
$DIMSE1
 70
     0
  9
$DIMSE2
 70
     0
  9
$DIMTAD
 70
     0
  9
$DIMZIN
 70
     0
  9
$DIMBLK
  1

  9
$DIMASO
 70
     1
  9
$DIMSHO
 70
     1
  9
$DIMPOST
  1

  9
$DIMAPOST
  1

  9
$DIMALT
 70
     0
  9
$DIMALTD
 70
     2
  9
$DIMALTF
 40
25.3999999999999986
  9
$DIMLFAC
 40
1.0
  9
$DIMTOFL
 70
     0
  9
$DIMTVP
 40
0.0
  9
$DIMTIX
 70
     0
  9
$DIMSOXD
 70
     0
  9
$DIMSAH
 70
     0
  9
$DIMBLK1
  1

  9
$DIMBLK2
  1

  9
$DIMSTYLE
  2
STANDARD
  9
$DIMCLRD
 70
     0
  9
$DIMCLRE
 70
     0
  9
$DIMCLRT
 70
     0
  9
$DIMTFAC
 40
1.0
  9
$DIMGAP
 40
0.09
  9
$LUNITS
 70
     2
  9
$LUPREC
 70
     4
  9
$SKETCHINC
 40
0.1
  9
$FILLETRAD
 40
0.0
  9
$AUNITS
 70
     0
  9
$AUPREC
 70
     0
  9
$MENU
  1
.
  9
$ELEVATION
 40
0.0
  9
$PELEVATION
 40
0.0
  9
$THICKNESS
 40
0.0
  9
$LIMCHECK
 70
     0
  9
$BLIPMODE
 70
     0
  9
$CHAMFERA
 40
0.0
  9
$CHAMFERB
 40
0.0
  9
$SKPOLY
 70
     0
  9
$TDCREATE
 40
2457766.5063078701496124
  9
$TDUPDATE
 40
2457766.5067592598497868
  9
$TDINDWG
 40
0.0004513889
  9
$TDUSRTIMER
 40
0.0004513889
  9
$USRTIMER
 70
     1
  9
$ANGBASE
 50
0.0
  9
$ANGDIR
 70
     0
  9
$PDMODE
 70
     0
  9
$PDSIZE
 40
0.0
  9
$PLINEWID
 40
0.0
  9
$COORDS
 70
     1
  9
$SPLFRAME
 70
     0
  9
$SPLINETYPE
 70
     6
  9
$SPLINESEGS
 70
     8
  9
$ATTDIA
 70
     1
  9
$ATTREQ
 70
     1
  9
$HANDLING
 70
     1
  9
$HANDSEED
  5
4C8
  9
$SURFTAB1
 70
     6
  9
$SURFTAB2
 70
     6
  9
$SURFTYPE
 70
     6
  9
$SURFU
 70
     6
  9
$SURFV
 70
     6
  9
$UCSNAME
  2

  9
$UCSORG
 10
0.0
 20
0.0
 30
0.0
  9
$UCSXDIR
 10
1.0
 20
0.0
 30
0.0
  9
$UCSYDIR
 10
0.0
 20
1.0
 30
0.0
  9
$PUCSNAME
  2

  9
$PUCSORG
 10
0.0
 20
0.0
 30
0.0
  9
$PUCSXDIR
 10
1.0
 20
0.0
 30
0.0
  9
$PUCSYDIR
 10
0.0
 20
1.0
 30
0.0
  9
$USERI1
 70
     0
  9
$USERI2
 70
     0
  9
$USERI3
 70
     0
  9
$USERI4
 70
     0
  9
$USERI5
 70
     0
  9
$USERR1
 40
0.0
  9
$USERR2
 40
0.0
  9
$USERR3
 40
0.0
  9
$USERR4
 40
0.0
  9
$USERR5
 40
0.0
  9
$WORLDVIEW
 70
     1
  9
$SHADEDGE
 70
     3
  9
$SHADEDIF
 70
    70
  9
$TILEMODE
 70
     1
  9
$MAXACTVP
 70
    64
  9
$PLIMCHECK
 70
     0
  9
$PEXTMIN
 10
0.0
 20
0.0
 30
0.0
  9
$PEXTMAX
 10
0.0
 20
0.0
 30
0.0
  9
$PLIMMIN
 10
0.0
 20
0.0
  9
$PLIMMAX
 10
12.0
 20
9.0
  9
$UNITMODE
 70
     0
  9
$VISRETAIN
 70
     1
  9
$PLINEGEN
 70
     0
  9
$PSLTSCALE
 70
     1
  0
ENDSEC
  0
SECTION
  2
TABLES
  0
TABLE
  2
VPORT
 70
     1
  0
VPORT
  2
*ACTIVE
 70
     0
 10
0.0
 20
0.0
 11
1.0
 21
1.0
 12
-9.7954122767854628
 22
-5.2568494950279279
 13
0.0
 23
0.0
 14
0.5
 24
0.5
 15
0.5
 25
0.5
 16
0.0
 26
0.0
 36
1.0
 17
0.0
 27
0.0
 37
0.0
 40
32.081234444016907
 41
1.8170731707317069
 42
50.0
 43
0.0
 44
0.0
 50
0.0
 51
0.0
 71
     0
 72
  1000
 73
     1
 74
     3
 75
     0
 76
     1
 77
     0
 78
     0
  0
ENDTAB
  0
TABLE
  2
LTYPE
 70
     1
  0
LTYPE
  2
CONTINUOUS
 70
     0
  3
Solid line
 72
    65
 73
     0
 40
0.0
  0
ENDTAB
  0
TABLE
  2
LAYER
 70
     1
  0
LAYER
  2
0
 70
     0
 62
     7
  6
CONTINUOUS
  0
ENDTAB
  0
TABLE
  2
STYLE
 70
     2
  0
STYLE
  2
STANDARD
 70
     0
 40
0.0
 41
1.0
 50
0.0
 71
     0
 42
0.2
  3
txt
  4

  0
STYLE
  2
ANNOTATIVE
 70
     0
 40
0.0
 41
1.0
 50
0.0
 71
     0
 42
0.2
  3
txt
  4

  0
ENDTAB
  0
TABLE
  2
VIEW
 70
     0
  0
ENDTAB
  0
TABLE
  2
UCS
 70
     0
  0
ENDTAB
  0
TABLE
  2
APPID
 70
     7
  0
APPID
  2
ACAD
 70
     0
  0
APPID
  2
ACADANNOPO
 70
     0
  0
APPID
  2
ACADANNOTATIVE
 70
     0
  0
APPID
  2
ACAD_DSTYLE_DIMJAG
 70
     0
  0
APPID
  2
ACAD_DSTYLE_DIMTALN
 70
     0
  0
APPID
  2
ACAD_MLEADERVER
 70
     0
  0
APPID
  2
ACAD_NAV_VCDISPLAY
 70
     0
  0
ENDTAB
  0
TABLE
  2
DIMSTYLE
 70
     2
  0
DIMSTYLE
  2
STANDARD
 70
     0
  3

  4

  5

  6

  7

 40
1.0
 41
0.18
 42
0.0625
 43
0.38
 44
0.18
 45
0.0
 46
0.0
 47
0.0
 48
0.0
140
0.18
141
0.09
142
0.0
143
25.3999999999999986
144
1.0
145
0.0
146
1.0
147
0.09
 71
     0
 72
     0
 73
     1
 74
     1
 75
     0
 76
     0
 77
     0
 78
     0
170
     0
171
     2
172
     0
173
     0
174
     0
175
     0
176
     0
177
     0
178
     0
  0
DIMSTYLE
  2
ANNOTATIVE
 70
     0
  3

  4

  5

  6

  7

 40
0.0
 41
0.18
 42
0.0625
 43
0.38
 44
0.18
 45
0.0
 46
0.0
 47
0.0
 48
0.0
140
0.18
141
0.09
142
0.0
143
25.3999999999999986
144
1.0
145
0.0
146
1.0
147
0.09
 71
     0
 72
     0
 73
     1
 74
     1
 75
     0
 76
     0
 77
     0
 78
     0
170
     0
171
     2
172
     0
173
     0
174
     0
175
     0
176
     0
177
     0
178
     0
  0
ENDTAB
  0
ENDSEC
  0
SECTION
  2
BLOCKS
  0
BLOCK
  8
0
  2
$MODEL_SPACE
 70
     0
 10
0.0
 20
0.0
 30
0.0
  3
$MODEL_SPACE
  1

  0
ENDBLK
  5
21
  8
0
  0
BLOCK
 67
     1
  8
0
  2
$PAPER_SPACE
 70
     0
 10
0.0
 20
0.0
 30
0.0
  3
$PAPER_SPACE
  1

  0
ENDBLK
  5
5B
 67
     1
  8
0
  0
ENDSEC
  0
SECTION
  2
ENTITIES
  0
POLYLINE
  5
1F7
  8
0
 66
     1
 10
0.0
 20
0.0
 30
0.0
 70
     1
  0
VERTEX
  5
248
  8
0
 10
0.0
 20
0.0
 30
0.0
  0
VERTEX
  5
249
  8
0
 10
2.5717799999999991
 20
-1.24726
 30
0.0
  0
VERTEX
  5
24A
  8
0
 10
2.6147800000000001
 20
-1.3228200000000001
 30
0.0
  0
VERTEX
  5
24B
  8
0
 10
2.649109999999999
 20
-1.31979
 30
0.0
  0
VERTEX
  5
24C
  8
0
 10
2.68344
 20
-1.3167500000000001
 30
0.0
  0
VERTEX
  5
24D
  8
0
 10
2.7177699999999998
 20
-1.3136699999999999
 30
0.0
  0
VERTEX
  5
24E
  8
0
 10
2.7520999999999991
 20
-1.310579999999999
 30
0.0
  0
VERTEX
  5
24F
  8
0
 10
2.7864299999999989
 20
-1.3074600000000001
 30
0.0
  0
VERTEX
  5
250
  8
0
 10
2.820759999999999
 20
-1.3043199999999999
 30
0.0
  0
VERTEX
  5
251
  8
0
 10
2.8550900000000001
 20
-1.30115
 30
0.0
  0
VERTEX
  5
252
  8
0
 10
2.8894099999999989
 20
-1.297949999999999
 30
0.0
  0
VERTEX
  5
253
  8
0
 10
2.92374
 20
-1.29474
 30
0.0
  0
VERTEX
  5
254
  8
0
 10
2.9580700000000002
 20
-1.29149
 30
0.0
  0
VERTEX
  5
255
  8
0
 10
2.9923999999999991
 20
-1.2882199999999999
 30
0.0
  0
VERTEX
  5
256
  8
0
 10
3.0267300000000001
 20
-1.284929999999999
 30
0.0
  0
VERTEX
  5
257
  8
0
 10
3.061059999999999
 20
-1.2816099999999999
 30
0.0
  0
VERTEX
  5
258
  8
0
 10
3.0953900000000001
 20
-1.2782599999999991
 30
0.0
  0
VERTEX
  5
259
  8
0
 10
3.1297199999999998
 20
-1.27488
 30
0.0
  0
VERTEX
  5
25A
  8
0
 10
3.16405
 20
-1.2714799999999991
 30
0.0
  0
VERTEX
  5
25B
  8
0
 10
3.1983799999999989
 20
-1.268049999999999
 30
0.0
  0
VERTEX
  5
25C
  8
0
 10
3.2327099999999991
 20
-1.2645999999999991
 30
0.0
  0
VERTEX
  5
25D
  8
0
 10
3.2670300000000001
 20
-1.2611099999999991
 30
0.0
  0
VERTEX
  5
25E
  8
0
 10
3.301359999999999
 20
-1.2576000000000001
 30
0.0
  0
VERTEX
  5
25F
  8
0
 10
3.33569
 20
-1.2540599999999991
 30
0.0
  0
VERTEX
  5
260
  8
0
 10
3.3700199999999989
 20
-1.250489999999999
 30
0.0
  0
VERTEX
  5
261
  8
0
 10
3.4043499999999991
 20
-1.2468900000000001
 30
0.0
  0
VERTEX
  5
262
  8
0
 10
3.4386800000000002
 20
-1.24326
 30
0.0
  0
VERTEX
  5
263
  8
0
 10
3.473009999999999
 20
-1.2396100000000001
 30
0.0
  0
VERTEX
  5
264
  8
0
 10
3.5073400000000001
 20
-1.2359199999999999
 30
0.0
  0
VERTEX
  5
265
  8
0
 10
3.541669999999999
 20
-1.23221
 30
0.0
  0
VERTEX
  5
266
  8
0
 10
3.5760000000000001
 20
-1.2284600000000001
 30
0.0
  0
VERTEX
  5
267
  8
0
 10
3.6103299999999998
 20
-1.2246900000000001
 30
0.0
  0
VERTEX
  5
268
  8
0
 10
3.6446499999999991
 20
-1.2208799999999991
 30
0.0
  0
VERTEX
  5
269
  8
0
 10
3.6789800000000001
 20
-1.217039999999999
 30
0.0
  0
VERTEX
  5
26A
  8
0
 10
3.713309999999999
 20
-1.2131700000000001
 30
0.0
  0
VERTEX
  5
26B
  8
0
 10
3.7476400000000001
 20
-1.2092700000000001
 30
0.0
  0
VERTEX
  5
26C
  8
0
 10
3.7819699999999989
 20
-1.205339999999999
 30
0.0
  0
VERTEX
  5
26D
  8
0
 10
3.8163
 20
-1.201379999999999
 30
0.0
  0
VERTEX
  5
26E
  8
0
 10
3.8506300000000002
 20
-1.1973899999999991
 30
0.0
  0
VERTEX
  5
26F
  8
0
 10
3.8849599999999991
 20
-1.1933599999999991
 30
0.0
  0
VERTEX
  5
270
  8
0
 10
3.9192900000000002
 20
-1.1893
 30
0.0
  0
VERTEX
  5
271
  8
0
 10
3.953619999999999
 20
-1.1852100000000001
 30
0.0
  0
VERTEX
  5
272
  8
0
 10
3.9879500000000001
 20
-1.181079999999999
 30
0.0
  0
VERTEX
  5
273
  8
0
 10
4.0222699999999989
 20
-1.17693
 30
0.0
  0
VERTEX
  5
274
  8
0
 10
4.0566000000000004
 20
-1.172739999999999
 30
0.0
  0
VERTEX
  5
275
  8
0
 10
4.0909300000000002
 20
-1.168509999999999
 30
0.0
  0
VERTEX
  5
276
  8
0
 10
4.125259999999999
 20
-1.1642600000000001
 30
0.0
  0
VERTEX
  5
277
  8
0
 10
4.1595899999999997
 20
-1.1599699999999999
 30
0.0
  0
VERTEX
  5
278
  8
0
 10
4.1939199999999994
 20
-1.15564
 30
0.0
  0
VERTEX
  5
279
  8
0
 10
4.2282500000000001
 20
-1.151279999999999
 30
0.0
  0
VERTEX
  5
27A
  8
0
 10
4.2625799999999998
 20
-1.1468899999999991
 30
0.0
  0
VERTEX
  5
27B
  8
0
 10
4.2969099999999987
 20
-1.1424700000000001
 30
0.0
  0
VERTEX
  5
27C
  8
0
 10
4.3312400000000002
 20
-1.1380099999999991
 30
0.0
  0
VERTEX
  5
27D
  8
0
 10
4.3655599999999994
 20
-1.13351
 30
0.0
  0
VERTEX
  5
27E
  8
0
 10
4.3998900000000001
 20
-1.128979999999999
 30
0.0
  0
VERTEX
  5
27F
  8
0
 10
4.4342199999999989
 20
-1.1244099999999999
 30
0.0
  0
VERTEX
  5
280
  8
0
 10
4.4685499999999987
 20
-1.119799999999999
 30
0.0
  0
VERTEX
  5
281
  8
0
 10
4.5028800000000002
 20
-1.115159999999999
 30
0.0
  0
VERTEX
  5
282
  8
0
 10
4.5372099999999991
 20
-1.1104700000000001
 30
0.0
  0
VERTEX
  5
283
  8
0
 10
4.5715399999999988
 20
-1.10575
 30
0.0
  0
VERTEX
  5
284
  8
0
 10
4.6058699999999986
 20
-1.100989999999999
 30
0.0
  0
VERTEX
  5
285
  8
0
 10
4.6402000000000001
 20
-1.096179999999999
 30
0.0
  0
VERTEX
  5
286
  8
0
 10
4.674529999999999
 20
-1.091329999999999
 30
0.0
  0
VERTEX
  5
287
  8
0
 10
4.7088599999999987
 20
-1.086449999999999
 30
0.0
  0
VERTEX
  5
288
  8
0
 10
4.7431799999999997
 20
-1.0815099999999991
 30
0.0
  0
VERTEX
  5
289
  8
0
 10
4.7775099999999986
 20
-1.0765299999999991
 30
0.0
  0
VERTEX
  5
28A
  8
0
 10
4.8118400000000001
 20
-1.0715099999999991
 30
0.0
  0
VERTEX
  5
28B
  8
0
 10
4.846169999999999
 20
-1.0664400000000001
 30
0.0
  0
VERTEX
  5
28C
  8
0
 10
4.8804999999999987
 20
-1.06132
 30
0.0
  0
VERTEX
  5
28D
  8
0
 10
4.9148300000000003
 20
-1.056149999999999
 30
0.0
  0
VERTEX
  5
28E
  8
0
 10
4.94916
 20
-1.050929999999999
 30
0.0
  0
VERTEX
  5
28F
  8
0
 10
4.9834899999999989
 20
-1.04566
 30
0.0
  0
VERTEX
  5
290
  8
0
 10
5.0178199999999986
 20
-1.04034
 30
0.0
  0
VERTEX
  5
291
  8
0
 10
5.0521500000000001
 20
-1.0349600000000001
 30
0.0
  0
VERTEX
  5
292
  8
0
 10
5.086479999999999
 20
-1.029539999999999
 30
0.0
  0
VERTEX
  5
293
  8
0
 10
5.1208
 20
-1.024049999999999
 30
0.0
  0
VERTEX
  5
294
  8
0
 10
5.1551299999999998
 20
-1.0185200000000001
 30
0.0
  0
VERTEX
  5
295
  8
0
 10
5.1894599999999986
 20
-1.01292
 30
0.0
  0
VERTEX
  5
296
  8
0
 10
5.2237900000000002
 20
-1.0072700000000001
 30
0.0
  0
VERTEX
  5
297
  8
0
 10
5.258119999999999
 20
-1.00156
 30
0.0
  0
VERTEX
  5
298
  8
0
 10
5.2924499999999988
 20
-0.9957899999999998
 30
0.0
  0
VERTEX
  5
299
  8
0
 10
5.3267800000000003
 20
-0.9899700000000001
 30
0.0
  0
VERTEX
  5
29A
  8
0
 10
5.36111
 20
-0.98408
 30
0.0
  0
VERTEX
  5
29B
  8
0
 10
5.3954399999999989
 20
-0.9781399999999999
 30
0.0
  0
VERTEX
  5
29C
  8
0
 10
5.4297699999999987
 20
-0.9721299999999999
 30
0.0
  0
VERTEX
  5
29D
  8
0
 10
5.4641000000000002
 20
-0.96606
 30
0.0
  0
VERTEX
  5
29E
  8
0
 10
5.4984199999999994
 20
-0.9599299999999999
 30
0.0
  0
VERTEX
  5
29F
  8
0
 10
5.5327500000000001
 20
-0.9537399999999999
 30
0.0
  0
VERTEX
  5
2A0
  8
0
 10
5.5670799999999998
 20
-0.9474799999999998
 30
0.0
  0
VERTEX
  5
2A1
  8
0
 10
5.6014099999999987
 20
-0.9411599999999999
 30
0.0
  0
VERTEX
  5
2A2
  8
0
 10
5.6357400000000002
 20
-0.9347799999999999
 30
0.0
  0
VERTEX
  5
2A3
  8
0
 10
5.6700699999999991
 20
-0.9283299999999998
 30
0.0
  0
VERTEX
  5
2A4
  8
0
 10
5.7043999999999988
 20
-0.9218200000000001
 30
0.0
  0
VERTEX
  5
2A5
  8
0
 10
5.7387300000000003
 20
-0.9152400000000001
 30
0.0
  0
VERTEX
  5
2A6
  8
0
 10
5.7730600000000001
 20
-0.90859
 30
0.0
  0
VERTEX
  5
2A7
  8
0
 10
5.8073899999999989
 20
-0.9018699999999999
 30
0.0
  0
VERTEX
  5
2A8
  8
0
 10
5.8417199999999987
 20
-0.8950899999999998
 30
0.0
  0
VERTEX
  5
2A9
  8
0
 10
5.8760399999999988
 20
-0.8882399999999998
 30
0.0
  0
VERTEX
  5
2AA
  8
0
 10
5.9103699999999986
 20
-0.8813200000000001
 30
0.0
  0
VERTEX
  5
2AB
  8
0
 10
5.9447000000000001
 20
-0.8743200000000001
 30
0.0
  0
VERTEX
  5
2AC
  8
0
 10
5.9790299999999998
 20
-0.8672499999999999
 30
0.0
  0
VERTEX
  5
2AD
  8
0
 10
6.0133599999999987
 20
-0.8600999999999999
 30
0.0
  0
VERTEX
  5
2AE
  8
0
 10
6.0476900000000002
 20
-0.85287
 30
0.0
  0
VERTEX
  5
2AF
  8
0
 10
6.0820199999999991
 20
-0.84556
 30
0.0
  0
VERTEX
  5
2B0
  8
0
 10
6.1163499999999988
 20
-0.83816
 30
0.0
  0
VERTEX
  5
2B1
  8
0
 10
6.1506800000000004
 20
-0.8306699999999999
 30
0.0
  0
VERTEX
  5
2B2
  8
0
 10
6.1850100000000001
 20
-0.8230799999999998
 30
0.0
  0
VERTEX
  5
2B3
  8
0
 10
6.219339999999999
 20
-0.8153999999999999
 30
0.0
  0
VERTEX
  5
2B4
  8
0
 10
6.2536599999999991
 20
-0.80762
 30
0.0
  0
VERTEX
  5
2B5
  8
0
 10
6.2879899999999989
 20
-0.79974
 30
0.0
  0
VERTEX
  5
2B6
  8
0
 10
6.3223199999999986
 20
-0.79175
 30
0.0
  0
VERTEX
  5
2B7
  8
0
 10
6.3566500000000001
 20
-0.78365
 30
0.0
  0
VERTEX
  5
2B8
  8
0
 10
6.390979999999999
 20
-0.7754300000000001
 30
0.0
  0
VERTEX
  5
2B9
  8
0
 10
6.4253099999999987
 20
-0.7671000000000001
 30
0.0
  0
VERTEX
  5
2BA
  8
0
 10
6.4596400000000003
 20
-0.75864
 30
0.0
  0
VERTEX
  5
2BB
  8
0
 10
6.49397
 20
-0.75005
 30
0.0
  0
VERTEX
  5
2BC
  8
0
 10
6.5282999999999989
 20
-0.7413400000000001
 30
0.0
  0
VERTEX
  5
2BD
  8
0
 10
6.5626300000000004
 20
-0.73248
 30
0.0
  0
VERTEX
  5
2BE
  8
0
 10
6.5969600000000002
 20
-0.7235000000000001
 30
0.0
  0
VERTEX
  5
2BF
  8
0
 10
6.6312800000000003
 20
-0.7143800000000001
 30
0.0
  0
VERTEX
  5
2C0
  8
0
 10
6.66561
 20
-0.70512
 30
0.0
  0
VERTEX
  5
2C1
  8
0
 10
6.6999399999999989
 20
-0.6957399999999999
 30
0.0
  0
VERTEX
  5
2C2
  8
0
 10
6.7342699999999986
 20
-0.6862300000000001
 30
0.0
  0
VERTEX
  5
2C3
  8
0
 10
6.7686000000000002
 20
-0.67659
 30
0.0
  0
VERTEX
  5
2C4
  8
0
 10
6.802929999999999
 20
-0.6668300000000001
 30
0.0
  0
VERTEX
  5
2C5
  8
0
 10
6.8372599999999997
 20
-0.65694
 30
0.0
  0
VERTEX
  5
2C6
  8
0
 10
6.8715899999999994
 20
-0.6469300000000001
 30
0.0
  0
VERTEX
  5
2C7
  8
0
 10
6.9059200000000001
 20
-0.63679
 30
0.0
  0
VERTEX
  5
2C8
  8
0
 10
6.9402499999999989
 20
-0.62652
 30
0.0
  0
VERTEX
  5
2C9
  8
0
 10
6.9745799999999996
 20
-0.6160800000000001
 30
0.0
  0
VERTEX
  5
2CA
  8
0
 10
7.0088999999999988
 20
-0.60546
 30
0.0
  0
VERTEX
  5
2CB
  8
0
 10
7.0432300000000003
 20
-0.5946399999999999
 30
0.0
  0
VERTEX
  5
2CC
  8
0
 10
7.0775600000000001
 20
-0.58362
 30
0.0
  0
VERTEX
  5
2CD
  8
0
 10
7.1118899999999989
 20
-0.5723600000000002
 30
0.0
  0
VERTEX
  5
2CE
  8
0
 10
7.1462199999999987
 20
-0.56085
 30
0.0
  0
VERTEX
  5
2CF
  8
0
 10
7.1805500000000002
 20
-0.5490699999999999
 30
0.0
  0
VERTEX
  5
2D0
  8
0
 10
7.2148799999999991
 20
-0.5370200000000001
 30
0.0
  0
VERTEX
  5
2D1
  8
0
 10
7.2492099999999997
 20
-0.5246499999999999
 30
0.0
  0
VERTEX
  5
2D2
  8
0
 10
7.2835399999999986
 20
-0.5119500000000001
 30
0.0
  0
VERTEX
  5
2D3
  8
0
 10
7.3178700000000001
 20
-0.4988800000000001
 30
0.0
  0
VERTEX
  5
2D4
  8
0
 10
7.352199999999999
 20
-0.48542
 30
0.0
  0
VERTEX
  5
2D5
  8
0
 10
7.3865199999999991
 20
-0.47154
 30
0.0
  0
VERTEX
  5
2D6
  8
0
 10
7.4208499999999988
 20
-0.4572
 30
0.0
  0
VERTEX
  5
2D7
  8
0
 10
7.4551800000000004
 20
-0.44239
 30
0.0
  0
VERTEX
  5
2D8
  8
0
 10
7.4895100000000001
 20
-0.4270500000000001
 30
0.0
  0
VERTEX
  5
2D9
  8
0
 10
7.523839999999999
 20
-0.41113
 30
0.0
  0
VERTEX
  5
2DA
  8
0
 10
7.5581699999999987
 20
-0.39473
 30
0.0
  0
VERTEX
  5
2DB
  8
0
 10
7.5925000000000002
 20
-0.37798
 30
0.0
  0
VERTEX
  5
2DC
  8
0
 10
7.6268299999999991
 20
-0.3609199999999999
 30
0.0
  0
VERTEX
  5
2DD
  8
0
 10
7.6611599999999997
 20
-0.34362
 30
0.0
  0
VERTEX
  5
2DE
  8
0
 10
7.6954899999999986
 20
-0.32615
 30
0.0
  0
VERTEX
  5
2DF
  8
0
 10
7.7298200000000001
 20
-0.30857
 30
0.0
  0
VERTEX
  5
2E0
  8
0
 10
7.7641399999999994
 20
-0.29101
 30
0.0
  0
VERTEX
  5
2E1
  8
0
 10
7.7641399999999994
 20
0.6329100000000001
 30
0.0
  0
VERTEX
  5
2E2
  8
0
 10
7.7167399999999988
 20
0.68662
 30
0.0
  0
VERTEX
  5
2E3
  8
0
 10
7.6693399999999992
 20
0.7373499999999999
 30
0.0
  0
VERTEX
  5
2E4
  8
0
 10
7.6219399999999986
 20
0.78507
 30
0.0
  0
VERTEX
  5
2E5
  8
0
 10
7.5745300000000002
 20
0.83017
 30
0.0
  0
VERTEX
  5
2E6
  8
0
 10
7.5271299999999997
 20
0.873
 30
0.0
  0
VERTEX
  5
2E7
  8
0
 10
7.4797299999999991
 20
0.9139899999999999
 30
0.0
  0
VERTEX
  5
2E8
  8
0
 10
7.4323199999999989
 20
0.95363
 30
0.0
  0
VERTEX
  5
2E9
  8
0
 10
7.3849200000000002
 20
0.99197
 30
0.0
  0
VERTEX
  5
2EA
  8
0
 10
7.3375199999999987
 20
1.0291099999999991
 30
0.0
  0
VERTEX
  5
2EB
  8
0
 10
7.2901100000000003
 20
1.06517
 30
0.0
  0
VERTEX
  5
2EC
  8
0
 10
7.2427099999999998
 20
1.1002700000000001
 30
0.0
  0
VERTEX
  5
2ED
  8
0
 10
7.1953100000000001
 20
1.134539999999999
 30
0.0
  0
VERTEX
  5
2EE
  8
0
 10
7.1479100000000004
 20
1.16808
 30
0.0
  0
VERTEX
  5
2EF
  8
0
 10
7.1005000000000003
 20
1.2009299999999989
 30
0.0
  0
VERTEX
  5
2F0
  8
0
 10
7.0530999999999988
 20
1.2330799999999991
 30
0.0
  0
VERTEX
  5
2F1
  8
0
 10
7.0057
 20
1.2645500000000001
 30
0.0
  0
VERTEX
  5
2F2
  8
0
 10
6.9582899999999981
 20
1.29532
 30
0.0
  0
VERTEX
  5
2F3
  8
0
 10
6.9108899999999993
 20
1.3254099999999991
 30
0.0
  0
VERTEX
  5
2F4
  8
0
 10
6.8634899999999988
 20
1.3548199999999999
 30
0.0
  0
VERTEX
  5
2F5
  8
0
 10
6.8160800000000004
 20
1.3835599999999999
 30
0.0
  0
VERTEX
  5
2F6
  8
0
 10
6.7686799999999998
 20
1.4116599999999999
 30
0.0
  0
VERTEX
  5
2F7
  8
0
 10
6.7212800000000001
 20
1.439149999999999
 30
0.0
  0
VERTEX
  5
2F8
  8
0
 10
6.6738799999999996
 20
1.4660599999999999
 30
0.0
  0
VERTEX
  5
2F9
  8
0
 10
6.6264699999999994
 20
1.492429999999999
 30
0.0
  0
VERTEX
  5
2FA
  8
0
 10
6.5790699999999989
 20
1.5182999999999991
 30
0.0
  0
VERTEX
  5
2FB
  8
0
 10
6.5316700000000001
 20
1.5436799999999991
 30
0.0
  0
VERTEX
  5
2FC
  8
0
 10
6.484259999999999
 20
1.5686299999999991
 30
0.0
  0
VERTEX
  5
2FD
  8
0
 10
6.4368600000000002
 20
1.59314
 30
0.0
  0
VERTEX
  5
2FE
  8
0
 10
6.3894599999999988
 20
1.6172299999999991
 30
0.0
  0
VERTEX
  5
2FF
  8
0
 10
6.3420500000000004
 20
1.6409199999999999
 30
0.0
  0
VERTEX
  5
300
  8
0
 10
6.294649999999999
 20
1.66422
 30
0.0
  0
VERTEX
  5
301
  8
0
 10
6.2472500000000002
 20
1.687149999999999
 30
0.0
  0
VERTEX
  5
302
  8
0
 10
6.1998499999999988
 20
1.7096999999999991
 30
0.0
  0
VERTEX
  5
303
  8
0
 10
6.1524400000000004
 20
1.731909999999999
 30
0.0
  0
VERTEX
  5
304
  8
0
 10
6.1050399999999989
 20
1.753779999999999
 30
0.0
  0
VERTEX
  5
305
  8
0
 10
6.0576400000000001
 20
1.7753199999999989
 30
0.0
  0
VERTEX
  5
306
  8
0
 10
6.0102299999999991
 20
1.7965500000000001
 30
0.0
  0
VERTEX
  5
307
  8
0
 10
5.9628300000000003
 20
1.8174699999999999
 30
0.0
  0
VERTEX
  5
308
  8
0
 10
5.9154299999999997
 20
1.83809
 30
0.0
  0
VERTEX
  5
309
  8
0
 10
5.8680199999999987
 20
1.85843
 30
0.0
  0
VERTEX
  5
30A
  8
0
 10
5.820619999999999
 20
1.8785000000000001
 30
0.0
  0
VERTEX
  5
30B
  8
0
 10
5.7732199999999994
 20
1.8983000000000001
 30
0.0
  0
VERTEX
  5
30C
  8
0
 10
5.7258199999999988
 20
1.9178299999999999
 30
0.0
  0
VERTEX
  5
30D
  8
0
 10
5.6784099999999986
 20
1.93709
 30
0.0
  0
VERTEX
  5
30E
  8
0
 10
5.631009999999999
 20
1.9560900000000001
 30
0.0
  0
VERTEX
  5
30F
  8
0
 10
5.5836100000000002
 20
1.974829999999999
 30
0.0
  0
VERTEX
  5
310
  8
0
 10
5.5362
 20
1.993299999999999
 30
0.0
  0
VERTEX
  5
311
  8
0
 10
5.4888000000000003
 20
2.0115199999999991
 30
0.0
  0
VERTEX
  5
312
  8
0
 10
5.4413999999999989
 20
2.02949
 30
0.0
  0
VERTEX
  5
313
  8
0
 10
5.3939899999999996
 20
2.0472199999999998
 30
0.0
  0
VERTEX
  5
314
  8
0
 10
5.3465899999999991
 20
2.0647000000000002
 30
0.0
  0
VERTEX
  5
315
  8
0
 10
5.2991900000000003
 20
2.0819399999999999
 30
0.0
  0
VERTEX
  5
316
  8
0
 10
5.2517899999999988
 20
2.098949999999999
 30
0.0
  0
VERTEX
  5
317
  8
0
 10
5.2043799999999996
 20
2.1157300000000001
 30
0.0
  0
VERTEX
  5
318
  8
0
 10
5.156979999999999
 20
2.1322799999999988
 30
0.0
  0
VERTEX
  5
319
  8
0
 10
5.1095800000000002
 20
2.1486200000000002
 30
0.0
  0
VERTEX
  5
31A
  8
0
 10
5.0621700000000001
 20
2.1647400000000001
 30
0.0
  0
VERTEX
  5
31B
  8
0
 10
5.0147699999999986
 20
2.18066
 30
0.0
  0
VERTEX
  5
31C
  8
0
 10
4.967369999999999
 20
2.196359999999999
 30
0.0
  0
VERTEX
  5
31D
  8
0
 10
4.9199599999999988
 20
2.2118699999999998
 30
0.0
  0
VERTEX
  5
31E
  8
0
 10
4.87256
 20
2.2271899999999998
 30
0.0
  0
VERTEX
  5
31F
  8
0
 10
4.8251599999999986
 20
2.2423099999999989
 30
0.0
  0
VERTEX
  5
320
  8
0
 10
4.7777599999999989
 20
2.2572399999999999
 30
0.0
  0
VERTEX
  5
321
  8
0
 10
4.7303499999999987
 20
2.2719999999999989
 30
0.0
  0
VERTEX
  5
322
  8
0
 10
4.6829499999999991
 20
2.2865700000000002
 30
0.0
  0
VERTEX
  5
323
  8
0
 10
4.6355500000000003
 20
2.3009699999999991
 30
0.0
  0
VERTEX
  5
324
  8
0
 10
4.5881400000000001
 20
2.315199999999999
 30
0.0
  0
VERTEX
  5
325
  8
0
 10
4.5407400000000004
 20
2.3292599999999992
 30
0.0
  0
VERTEX
  5
326
  8
0
 10
4.493339999999999
 20
2.3431500000000001
 30
0.0
  0
VERTEX
  5
327
  8
0
 10
4.4459299999999997
 20
2.356879999999999
 30
0.0
  0
VERTEX
  5
328
  8
0
 10
4.3985300000000001
 20
2.3704499999999991
 30
0.0
  0
VERTEX
  5
329
  8
0
 10
4.3511300000000004
 20
2.383869999999999
 30
0.0
  0
VERTEX
  5
32A
  8
0
 10
4.3037299999999998
 20
2.3971299999999989
 30
0.0
  0
VERTEX
  5
32B
  8
0
 10
4.2563199999999988
 20
2.410229999999999
 30
0.0
  0
VERTEX
  5
32C
  8
0
 10
4.2089199999999991
 20
2.4231899999999991
 30
0.0
  0
VERTEX
  5
32D
  8
0
 10
4.1615199999999994
 20
2.4359899999999999
 30
0.0
  0
VERTEX
  5
32E
  8
0
 10
4.1141100000000002
 20
2.4486500000000002
 30
0.0
  0
VERTEX
  5
32F
  8
0
 10
4.0667099999999987
 20
2.4611700000000001
 30
0.0
  0
VERTEX
  5
330
  8
0
 10
4.0193099999999991
 20
2.4735399999999998
 30
0.0
  0
VERTEX
  5
331
  8
0
 10
3.9719000000000002
 20
2.4857800000000001
 30
0.0
  0
VERTEX
  5
332
  8
0
 10
3.9245000000000001
 20
2.497879999999999
 30
0.0
  0
VERTEX
  5
333
  8
0
 10
3.8771
 20
2.5098400000000001
 30
0.0
  0
VERTEX
  5
334
  8
0
 10
3.829699999999999
 20
2.521679999999999
 30
0.0
  0
VERTEX
  5
335
  8
0
 10
3.7822900000000002
 20
2.5333799999999989
 30
0.0
  0
VERTEX
  5
336
  8
0
 10
3.73489
 20
2.54495
 30
0.0
  0
VERTEX
  5
337
  8
0
 10
3.687489999999999
 20
2.5563899999999991
 30
0.0
  0
VERTEX
  5
338
  8
0
 10
3.6400800000000002
 20
2.567699999999999
 30
0.0
  0
VERTEX
  5
339
  8
0
 10
3.5926800000000001
 20
2.5788899999999999
 30
0.0
  0
VERTEX
  5
33A
  8
0
 10
3.54528
 20
2.5899499999999991
 30
0.0
  0
VERTEX
  5
33B
  8
0
 10
3.4978799999999999
 20
2.6008800000000001
 30
0.0
  0
VERTEX
  5
33C
  8
0
 10
3.4504699999999988
 20
2.6116899999999998
 30
0.0
  0
VERTEX
  5
33D
  8
0
 10
3.4030699999999992
 20
2.6223799999999988
 30
0.0
  0
VERTEX
  5
33E
  8
0
 10
3.355669999999999
 20
2.6329500000000001
 30
0.0
  0
VERTEX
  5
33F
  8
0
 10
3.3082599999999989
 20
2.6434000000000002
 30
0.0
  0
VERTEX
  5
340
  8
0
 10
3.2608599999999992
 20
2.653719999999999
 30
0.0
  0
VERTEX
  5
341
  8
0
 10
3.2134599999999991
 20
2.6639300000000001
 30
0.0
  0
VERTEX
  5
342
  8
0
 10
3.1660499999999989
 20
2.6740300000000001
 30
0.0
  0
VERTEX
  5
343
  8
0
 10
3.1186500000000001
 20
2.6839999999999988
 30
0.0
  0
VERTEX
  5
344
  8
0
 10
3.07125
 20
2.6938699999999991
 30
0.0
  0
VERTEX
  5
345
  8
0
 10
3.023849999999999
 20
2.703619999999999
 30
0.0
  0
VERTEX
  5
346
  8
0
 10
2.9764400000000002
 20
2.71326
 30
0.0
  0
VERTEX
  5
347
  8
0
 10
2.9290400000000001
 20
2.7227799999999989
 30
0.0
  0
VERTEX
  5
348
  8
0
 10
2.8816399999999991
 20
2.7322000000000002
 30
0.0
  0
VERTEX
  5
349
  8
0
 10
2.8342299999999989
 20
2.741509999999999
 30
0.0
  0
VERTEX
  5
34A
  8
0
 10
2.7868300000000001
 20
2.7507099999999989
 30
0.0
  0
VERTEX
  5
34B
  8
0
 10
2.73943
 20
2.759809999999999
 30
0.0
  0
VERTEX
  5
34C
  8
0
 10
2.692019999999999
 20
2.7688000000000001
 30
0.0
  0
VERTEX
  5
34D
  8
0
 10
2.6446200000000002
 20
2.7776900000000002
 30
0.0
  0
VERTEX
  5
34E
  8
0
 10
2.5972200000000001
 20
2.7864800000000001
 30
0.0
  0
VERTEX
  5
34F
  8
0
 10
2.5498199999999991
 20
2.7951599999999992
 30
0.0
  0
VERTEX
  5
350
  8
0
 10
2.5024099999999989
 20
2.8037399999999999
 30
0.0
  0
VERTEX
  5
351
  8
0
 10
2.4550099999999988
 20
2.8122299999999991
 30
0.0
  0
VERTEX
  5
352
  8
0
 10
2.40761
 20
2.820619999999999
 30
0.0
  0
VERTEX
  5
353
  8
0
 10
2.360199999999999
 20
2.82891
 30
0.0
  0
VERTEX
  5
354
  8
0
 10
2.3128000000000002
 20
2.83711
 30
0.0
  0
VERTEX
  5
355
  8
0
 10
2.2654000000000001
 20
2.8452099999999989
 30
0.0
  0
VERTEX
  5
356
  8
0
 10
2.2179899999999999
 20
2.853219999999999
 30
0.0
  0
VERTEX
  5
357
  8
0
 10
2.1705899999999998
 20
2.8611299999999988
 30
0.0
  0
VERTEX
  5
358
  8
0
 10
2.1231900000000001
 20
2.8689599999999991
 30
0.0
  0
VERTEX
  5
359
  8
0
 10
2.07579
 20
2.8766899999999991
 30
0.0
  0
VERTEX
  5
35A
  8
0
 10
2.028379999999999
 20
2.8843399999999999
 30
0.0
  0
VERTEX
  5
35B
  8
0
 10
1.9809799999999991
 20
2.8918900000000001
 30
0.0
  0
VERTEX
  5
35C
  8
0
 10
1.933579999999999
 20
2.8993599999999988
 30
0.0
  0
VERTEX
  5
35D
  8
0
 10
1.8861699999999999
 20
2.9067299999999991
 30
0.0
  0
VERTEX
  5
35E
  8
0
 10
1.83877
 20
2.9140199999999998
 30
0.0
  0
VERTEX
  5
35F
  8
0
 10
1.7913699999999999
 20
2.9212299999999991
 30
0.0
  0
VERTEX
  5
360
  8
0
 10
1.7439599999999991
 20
2.9283399999999999
 30
0.0
  0
VERTEX
  5
361
  8
0
 10
1.696559999999999
 20
2.935379999999999
 30
0.0
  0
VERTEX
  5
362
  8
0
 10
1.64916
 20
2.94232
 30
0.0
  0
VERTEX
  5
363
  8
0
 10
1.6017600000000001
 20
2.9491900000000002
 30
0.0
  0
VERTEX
  5
364
  8
0
 10
1.554349999999999
 20
2.9559700000000002
 30
0.0
  0
VERTEX
  5
365
  8
0
 10
1.5069499999999989
 20
2.9626700000000001
 30
0.0
  0
VERTEX
  5
366
  8
0
 10
1.459549999999999
 20
2.969279999999999
 30
0.0
  0
VERTEX
  5
367
  8
0
 10
1.4121399999999991
 20
2.9758200000000001
 30
0.0
  0
VERTEX
  5
368
  8
0
 10
1.3647400000000001
 20
2.9822700000000002
 30
0.0
  0
VERTEX
  5
369
  8
0
 10
1.3173399999999991
 20
2.9886499999999989
 30
0.0
  0
VERTEX
  5
36A
  8
0
 10
1.26993
 20
2.9949400000000002
 30
0.0
  0
VERTEX
  5
36B
  8
0
 10
1.222529999999999
 20
3.00116
 30
0.0
  0
VERTEX
  5
36C
  8
0
 10
1.17513
 20
3.007299999999999
 30
0.0
  0
VERTEX
  5
36D
  8
0
 10
1.127729999999999
 20
3.01336
 30
0.0
  0
VERTEX
  5
36E
  8
0
 10
1.0803199999999999
 20
3.0193400000000001
 30
0.0
  0
VERTEX
  5
36F
  8
0
 10
1.0329200000000001
 20
3.0252400000000002
 30
0.0
  0
VERTEX
  5
370
  8
0
 10
0.98552
 20
3.0310700000000002
 30
0.0
  0
VERTEX
  5
371
  8
0
 10
0.9381099999999999
 20
3.0368200000000001
 30
0.0
  0
VERTEX
  5
372
  8
0
 10
0.8907099999999999
 20
3.0424899999999999
 30
0.0
  0
VERTEX
  5
373
  8
0
 10
0.8433099999999999
 20
3.0480900000000002
 30
0.0
  0
VERTEX
  5
374
  8
0
 10
0.7959000000000001
 20
3.053609999999999
 30
0.0
  0
VERTEX
  5
375
  8
0
 10
0.7485000000000001
 20
3.0590599999999988
 30
0.0
  0
VERTEX
  5
376
  8
0
 10
0.7010999999999999
 20
3.0644299999999989
 30
0.0
  0
VERTEX
  5
377
  8
0
 10
0.6536999999999999
 20
3.069729999999999
 30
0.0
  0
VERTEX
  5
378
  8
0
 10
0.18747
 20
3.0197199999999991
 30
0.0
  0
VERTEX
  5
379
  8
0
 10
0.18586
 20
3.0441899999999991
 30
0.0
  0
VERTEX
  5
37A
  8
0
 10
0.18108
 20
3.0682399999999999
 30
0.0
  0
VERTEX
  5
37B
  8
0
 10
0.1732
 20
3.0914599999999992
 30
0.0
  0
VERTEX
  5
37C
  8
0
 10
0.16235
 20
3.1134499999999989
 30
0.0
  0
VERTEX
  5
37D
  8
0
 10
0.14873
 20
3.1338400000000002
 30
0.0
  0
VERTEX
  5
37E
  8
0
 10
0.13256
 20
3.1522799999999989
 30
0.0
  0
VERTEX
  5
37F
  8
0
 10
0.11412
 20
3.1684499999999991
 30
0.0
  0
VERTEX
  5
380
  8
0
 10
0.09373
 20
3.1820699999999991
 30
0.0
  0
VERTEX
  5
381
  8
0
 10
0.07174
 20
3.1929199999999991
 30
0.0
  0
VERTEX
  5
382
  8
0
 10
0.04852
 20
3.2008000000000001
 30
0.0
  0
VERTEX
  5
383
  8
0
 10
0.02447
 20
3.205579999999999
 30
0.0
  0
VERTEX
  5
384
  8
0
 10
0.0
 20
3.2071900000000002
 30
0.0
  0
VERTEX
  5
385
  8
0
 10
-0.02447
 20
3.205579999999999
 30
0.0
  0
VERTEX
  5
386
  8
0
 10
-0.04852
 20
3.2008000000000001
 30
0.0
  0
VERTEX
  5
387
  8
0
 10
-0.07174
 20
3.1929199999999991
 30
0.0
  0
VERTEX
  5
388
  8
0
 10
-0.09373
 20
3.1820699999999991
 30
0.0
  0
VERTEX
  5
389
  8
0
 10
-0.11412
 20
3.1684499999999991
 30
0.0
  0
VERTEX
  5
38A
  8
0
 10
-0.13256
 20
3.1522799999999989
 30
0.0
  0
VERTEX
  5
38B
  8
0
 10
-0.14873
 20
3.1338400000000002
 30
0.0
  0
VERTEX
  5
38C
  8
0
 10
-0.16235
 20
3.1134499999999989
 30
0.0
  0
VERTEX
  5
38D
  8
0
 10
-0.1732
 20
3.0914599999999992
 30
0.0
  0
VERTEX
  5
38E
  8
0
 10
-0.18108
 20
3.0682399999999999
 30
0.0
  0
VERTEX
  5
38F
  8
0
 10
-0.18586
 20
3.0441899999999991
 30
0.0
  0
VERTEX
  5
390
  8
0
 10
-0.18747
 20
3.0197199999999991
 30
0.0
  0
VERTEX
  5
391
  8
0
 10
-0.6536999999999999
 20
3.0197199999999991
 30
0.0
  0
VERTEX
  5
392
  8
0
 10
-0.6536999999999999
 20
3.3847199999999988
 30
0.0
  0
VERTEX
  5
393
  8
0
 10
-0.5948600000000001
 20
3.3804899999999991
 30
0.0
  0
VERTEX
  5
394
  8
0
 10
-0.5360300000000001
 20
3.3761699999999988
 30
0.0
  0
VERTEX
  5
395
  8
0
 10
-0.4772000000000001
 20
3.37175
 30
0.0
  0
VERTEX
  5
396
  8
0
 10
-0.41837
 20
3.3672399999999998
 30
0.0
  0
VERTEX
  5
397
  8
0
 10
-0.35953
 20
3.3626199999999988
 30
0.0
  0
VERTEX
  5
398
  8
0
 10
-0.3007
 20
3.357899999999999
 30
0.0
  0
VERTEX
  5
399
  8
0
 10
-0.24187
 20
3.3530799999999998
 30
0.0
  0
VERTEX
  5
39A
  8
0
 10
-0.18303
 20
3.34816
 30
0.0
  0
VERTEX
  5
39B
  8
0
 10
-0.1242
 20
3.34314
 30
0.0
  0
VERTEX
  5
39C
  8
0
 10
-0.06537
 20
3.3380099999999988
 30
0.0
  0
VERTEX
  5
39D
  8
0
 10
-0.00654
 20
3.3327699999999991
 30
0.0
  0
VERTEX
  5
39E
  8
0
 10
0.0523
 20
3.3274300000000001
 30
0.0
  0
VERTEX
  5
39F
  8
0
 10
0.11113
 20
3.3219899999999991
 30
0.0
  0
VERTEX
  5
3A0
  8
0
 10
0.16996
 20
3.31643
 30
0.0
  0
VERTEX
  5
3A1
  8
0
 10
0.22879
 20
3.3107699999999989
 30
0.0
  0
VERTEX
  5
3A2
  8
0
 10
0.28763
 20
3.3050000000000002
 30
0.0
  0
VERTEX
  5
3A3
  8
0
 10
0.34646
 20
3.2991199999999989
 30
0.0
  0
VERTEX
  5
3A4
  8
0
 10
0.4052900000000001
 20
3.2931199999999992
 30
0.0
  0
VERTEX
  5
3A5
  8
0
 10
0.46412
 20
3.2870199999999992
 30
0.0
  0
VERTEX
  5
3A6
  8
0
 10
0.5229600000000002
 20
3.2808000000000002
 30
0.0
  0
VERTEX
  5
3A7
  8
0
 10
0.5817899999999999
 20
3.2744699999999991
 30
0.0
  0
VERTEX
  5
3A8
  8
0
 10
0.6406200000000001
 20
3.2680299999999991
 30
0.0
  0
VERTEX
  5
3A9
  8
0
 10
0.6994500000000001
 20
3.2614700000000001
 30
0.0
  0
VERTEX
  5
3AA
  8
0
 10
0.7582899999999999
 20
3.2547899999999998
 30
0.0
  0
VERTEX
  5
3AB
  8
0
 10
0.8171199999999998
 20
3.2480000000000002
 30
0.0
  0
VERTEX
  5
3AC
  8
0
 10
0.8759499999999999
 20
3.241099999999999
 30
0.0
  0
VERTEX
  5
3AD
  8
0
 10
0.9347799999999999
 20
3.23407
 30
0.0
  0
VERTEX
  5
3AE
  8
0
 10
0.9936200000000001
 20
3.226929999999999
 30
0.0
  0
VERTEX
  5
3AF
  8
0
 10
1.0524500000000001
 20
3.2196699999999998
 30
0.0
  0
VERTEX
  5
3B0
  8
0
 10
1.1112799999999989
 20
3.2122899999999999
 30
0.0
  0
VERTEX
  5
3B1
  8
0
 10
1.1701099999999991
 20
3.20479
 30
0.0
  0
VERTEX
  5
3B2
  8
0
 10
1.2289499999999991
 20
3.1971699999999998
 30
0.0
  0
VERTEX
  5
3B3
  8
0
 10
1.287779999999999
 20
3.1894299999999989
 30
0.0
  0
VERTEX
  5
3B4
  8
0
 10
1.3466100000000001
 20
3.1815699999999998
 30
0.0
  0
VERTEX
  5
3B5
  8
0
 10
1.4054500000000001
 20
3.173579999999999
 30
0.0
  0
VERTEX
  5
3B6
  8
0
 10
1.46428
 20
3.1654800000000001
 30
0.0
  0
VERTEX
  5
3B7
  8
0
 10
1.5231099999999991
 20
3.1572399999999998
 30
0.0
  0
VERTEX
  5
3B8
  8
0
 10
1.581939999999999
 20
3.1488800000000001
 30
0.0
  0
VERTEX
  5
3B9
  8
0
 10
1.640779999999999
 20
3.14039
 30
0.0
  0
VERTEX
  5
3BA
  8
0
 10
1.699609999999999
 20
3.13178
 30
0.0
  0
VERTEX
  5
3BB
  8
0
 10
1.75844
 20
3.1230299999999991
 30
0.0
  0
VERTEX
  5
3BC
  8
0
 10
1.8172699999999999
 20
3.1141499999999991
 30
0.0
  0
VERTEX
  5
3BD
  8
0
 10
1.8761099999999991
 20
3.10514
 30
0.0
  0
VERTEX
  5
3BE
  8
0
 10
1.9349400000000001
 20
3.09599
 30
0.0
  0
VERTEX
  5
3BF
  8
0
 10
1.9937699999999989
 20
3.0867100000000001
 30
0.0
  0
VERTEX
  5
3C0
  8
0
 10
2.0525999999999991
 20
3.0772900000000001
 30
0.0
  0
VERTEX
  5
3C1
  8
0
 10
2.1114399999999991
 20
3.0677300000000001
 30
0.0
  0
VERTEX
  5
3C2
  8
0
 10
2.170269999999999
 20
3.0580400000000001
 30
0.0
  0
VERTEX
  5
3C3
  8
0
 10
2.229099999999999
 20
3.0482
 30
0.0
  0
VERTEX
  5
3C4
  8
0
 10
2.2879299999999989
 20
3.038219999999999
 30
0.0
  0
VERTEX
  5
3C5
  8
0
 10
2.3467699999999998
 20
3.0280900000000002
 30
0.0
  0
VERTEX
  5
3C6
  8
0
 10
2.4056000000000002
 20
3.0178199999999991
 30
0.0
  0
VERTEX
  5
3C7
  8
0
 10
2.4644300000000001
 20
3.0074000000000001
 30
0.0
  0
VERTEX
  5
3C8
  8
0
 10
2.5232600000000001
 20
2.9968300000000001
 30
0.0
  0
VERTEX
  5
3C9
  8
0
 10
2.5821000000000001
 20
2.98611
 30
0.0
  0
VERTEX
  5
3CA
  8
0
 10
2.6409299999999991
 20
2.9752299999999989
 30
0.0
  0
VERTEX
  5
3CB
  8
0
 10
2.699759999999999
 20
2.9641899999999999
 30
0.0
  0
VERTEX
  5
3CC
  8
0
 10
2.7585899999999999
 20
2.9529899999999998
 30
0.0
  0
VERTEX
  5
3CD
  8
0
 10
2.817429999999999
 20
2.9416299999999991
 30
0.0
  0
VERTEX
  5
3CE
  8
0
 10
2.8762599999999989
 20
2.9301099999999991
 30
0.0
  0
VERTEX
  5
3CF
  8
0
 10
2.9350900000000002
 20
2.9184199999999998
 30
0.0
  0
VERTEX
  5
3D0
  8
0
 10
2.9939200000000001
 20
2.9065599999999989
 30
0.0
  0
VERTEX
  5
3D1
  8
0
 10
3.0527599999999988
 20
2.8945299999999992
 30
0.0
  0
VERTEX
  5
3D2
  8
0
 10
3.1115900000000001
 20
2.8823299999999992
 30
0.0
  0
VERTEX
  5
3D3
  8
0
 10
3.17042
 20
2.8699499999999989
 30
0.0
  0
VERTEX
  5
3D4
  8
0
 10
3.22926
 20
2.8573900000000001
 30
0.0
  0
VERTEX
  5
3D5
  8
0
 10
3.2880899999999991
 20
2.8446500000000001
 30
0.0
  0
VERTEX
  5
3D6
  8
0
 10
3.346919999999999
 20
2.831729999999999
 30
0.0
  0
VERTEX
  5
3D7
  8
0
 10
3.4057499999999989
 20
2.8186299999999989
 30
0.0
  0
VERTEX
  5
3D8
  8
0
 10
3.4645899999999998
 20
2.8053300000000001
 30
0.0
  0
VERTEX
  5
3D9
  8
0
 10
3.5234199999999989
 20
2.7918500000000002
 30
0.0
  0
VERTEX
  5
3DA
  8
0
 10
3.5822500000000002
 20
2.778179999999999
 30
0.0
  0
VERTEX
  5
3DB
  8
0
 10
3.6410800000000001
 20
2.76431
 30
0.0
  0
VERTEX
  5
3DC
  8
0
 10
3.6999199999999992
 20
2.750249999999999
 30
0.0
  0
VERTEX
  5
3DD
  8
0
 10
3.75875
 20
2.7359800000000001
 30
0.0
  0
VERTEX
  5
3DE
  8
0
 10
3.81758
 20
2.7215199999999991
 30
0.0
  0
VERTEX
  5
3DF
  8
0
 10
3.876409999999999
 20
2.7068599999999989
 30
0.0
  0
VERTEX
  5
3E0
  8
0
 10
3.935249999999999
 20
2.6919900000000001
 30
0.0
  0
VERTEX
  5
3E1
  8
0
 10
3.9940799999999999
 20
2.676909999999999
 30
0.0
  0
VERTEX
  5
3E2
  8
0
 10
4.0529099999999989
 20
2.6616200000000001
 30
0.0
  0
VERTEX
  5
3E3
  8
0
 10
4.1117400000000002
 20
2.6461199999999998
 30
0.0
  0
VERTEX
  5
3E4
  8
0
 10
4.1705800000000002
 20
2.630399999999999
 30
0.0
  0
VERTEX
  5
3E5
  8
0
 10
4.2294099999999988
 20
2.6144400000000001
 30
0.0
  0
VERTEX
  5
3E6
  8
0
 10
4.2882400000000001
 20
2.5982599999999989
 30
0.0
  0
VERTEX
  5
3E7
  8
0
 10
4.3470699999999987
 20
2.5818500000000002
 30
0.0
  0
VERTEX
  5
3E8
  8
0
 10
4.4059099999999987
 20
2.5651899999999999
 30
0.0
  0
VERTEX
  5
3E9
  8
0
 10
4.464739999999999
 20
2.5482900000000002
 30
0.0
  0
VERTEX
  5
3EA
  8
0
 10
4.5235699999999994
 20
2.5311400000000002
 30
0.0
  0
VERTEX
  5
3EB
  8
0
 10
4.5823999999999989
 20
2.5137399999999999
 30
0.0
  0
VERTEX
  5
3EC
  8
0
 10
4.6412399999999989
 20
2.4960900000000001
 30
0.0
  0
VERTEX
  5
3ED
  8
0
 10
4.7000699999999993
 20
2.478159999999999
 30
0.0
  0
VERTEX
  5
3EE
  8
0
 10
4.7588999999999988
 20
2.4599700000000002
 30
0.0
  0
VERTEX
  5
3EF
  8
0
 10
4.8177399999999997
 20
2.441489999999999
 30
0.0
  0
VERTEX
  5
3F0
  8
0
 10
4.8765700000000001
 20
2.4227300000000001
 30
0.0
  0
VERTEX
  5
3F1
  8
0
 10
4.9353999999999987
 20
2.40368
 30
0.0
  0
VERTEX
  5
3F2
  8
0
 10
4.9942299999999991
 20
2.3843200000000002
 30
0.0
  0
VERTEX
  5
3F3
  8
0
 10
5.0530699999999991
 20
2.3646500000000001
 30
0.0
  0
VERTEX
  5
3F4
  8
0
 10
5.1119000000000003
 20
2.3446500000000001
 30
0.0
  0
VERTEX
  5
3F5
  8
0
 10
5.1707299999999998
 20
2.3243299999999989
 30
0.0
  0
VERTEX
  5
3F6
  8
0
 10
5.2295600000000002
 20
2.303669999999999
 30
0.0
  0
VERTEX
  5
3F7
  8
0
 10
5.2884000000000002
 20
2.282659999999999
 30
0.0
  0
VERTEX
  5
3F8
  8
0
 10
5.3472299999999997
 20
2.2612899999999998
 30
0.0
  0
VERTEX
  5
3F9
  8
0
 10
5.4060600000000001
 20
2.239549999999999
 30
0.0
  0
VERTEX
  5
3FA
  8
0
 10
5.4648899999999996
 20
2.2174399999999999
 30
0.0
  0
VERTEX
  5
3FB
  8
0
 10
5.5237299999999996
 20
2.1949399999999999
 30
0.0
  0
VERTEX
  5
3FC
  8
0
 10
5.5825599999999991
 20
2.17205
 30
0.0
  0
VERTEX
  5
3FD
  8
0
 10
5.6413900000000003
 20
2.1487699999999998
 30
0.0
  0
VERTEX
  5
3FE
  8
0
 10
5.700219999999999
 20
2.1250800000000001
 30
0.0
  0
VERTEX
  5
3FF
  8
0
 10
5.759059999999999
 20
2.100979999999999
 30
0.0
  0
VERTEX
  5
400
  8
0
 10
5.8178900000000002
 20
2.0764599999999991
 30
0.0
  0
VERTEX
  5
401
  8
0
 10
5.8767199999999988
 20
2.0515300000000001
 30
0.0
  0
VERTEX
  5
402
  8
0
 10
5.9355500000000001
 20
2.0261800000000001
 30
0.0
  0
VERTEX
  5
403
  8
0
 10
5.9943900000000001
 20
2.0003799999999989
 30
0.0
  0
VERTEX
  5
404
  8
0
 10
6.0532199999999987
 20
1.9741099999999989
 30
0.0
  0
VERTEX
  5
405
  8
0
 10
6.1120499999999991
 20
1.94737
 30
0.0
  0
VERTEX
  5
406
  8
0
 10
6.1708800000000004
 20
1.9201099999999991
 30
0.0
  0
VERTEX
  5
407
  8
0
 10
6.2297199999999986
 20
1.8923199999999989
 30
0.0
  0
VERTEX
  5
408
  8
0
 10
6.288549999999999
 20
1.8639799999999991
 30
0.0
  0
VERTEX
  5
409
  8
0
 10
6.3473800000000002
 20
1.8350599999999999
 30
0.0
  0
VERTEX
  5
40A
  8
0
 10
6.4062099999999988
 20
1.8055399999999999
 30
0.0
  0
VERTEX
  5
40B
  8
0
 10
6.4650499999999989
 20
1.77539
 30
0.0
  0
VERTEX
  5
40C
  8
0
 10
6.5238800000000001
 20
1.74458
 30
0.0
  0
VERTEX
  5
40D
  8
0
 10
6.5827099999999996
 20
1.71309
 30
0.0
  0
VERTEX
  5
40E
  8
0
 10
6.6415499999999987
 20
1.6808499999999991
 30
0.0
  0
VERTEX
  5
40F
  8
0
 10
6.70038
 20
1.6478200000000001
 30
0.0
  0
VERTEX
  5
410
  8
0
 10
6.7592100000000004
 20
1.613929999999999
 30
0.0
  0
VERTEX
  5
411
  8
0
 10
6.8180399999999981
 20
1.57911
 30
0.0
  0
VERTEX
  5
412
  8
0
 10
6.876879999999999
 20
1.543299999999999
 30
0.0
  0
VERTEX
  5
413
  8
0
 10
6.9357100000000003
 20
1.5064500000000001
 30
0.0
  0
VERTEX
  5
414
  8
0
 10
6.9945399999999989
 20
1.4685600000000001
 30
0.0
  0
VERTEX
  5
415
  8
0
 10
7.0533700000000001
 20
1.4295999999999991
 30
0.0
  0
VERTEX
  5
416
  8
0
 10
7.1122100000000001
 20
1.38958
 30
0.0
  0
VERTEX
  5
417
  8
0
 10
7.1710399999999987
 20
1.348479999999999
 30
0.0
  0
VERTEX
  5
418
  8
0
 10
7.22987
 20
1.306279999999999
 30
0.0
  0
VERTEX
  5
419
  8
0
 10
7.2887000000000004
 20
1.2628399999999991
 30
0.0
  0
VERTEX
  5
41A
  8
0
 10
7.3475399999999986
 20
1.2179299999999991
 30
0.0
  0
VERTEX
  5
41B
  8
0
 10
7.406369999999999
 20
1.1713100000000001
 30
0.0
  0
VERTEX
  5
41C
  8
0
 10
7.4652000000000003
 20
1.1227599999999991
 30
0.0
  0
VERTEX
  5
41D
  8
0
 10
7.5240299999999998
 20
1.0720499999999991
 30
0.0
  0
VERTEX
  5
41E
  8
0
 10
7.5828699999999989
 20
1.018629999999999
 30
0.0
  0
VERTEX
  5
41F
  8
0
 10
7.6417000000000002
 20
0.96162
 30
0.0
  0
VERTEX
  5
420
  8
0
 10
7.7005299999999997
 20
0.9003999999999999
 30
0.0
  0
VERTEX
  5
421
  8
0
 10
7.75936
 20
0.8346
 30
0.0
  0
VERTEX
  5
422
  8
0
 10
7.8182
 20
0.76444
 30
0.0
  0
VERTEX
  5
423
  8
0
 10
7.8770300000000004
 20
0.69028
 30
0.0
  0
VERTEX
  5
424
  8
0
 10
7.9358599999999999
 20
0.61244
 30
0.0
  0
VERTEX
  5
425
  8
0
 10
7.9946899999999994
 20
0.5264300000000001
 30
0.0
  0
VERTEX
  5
426
  8
0
 10
8.0535300000000003
 20
0.41805
 30
0.0
  0
VERTEX
  5
427
  8
0
 10
8.1123600000000007
 20
0.27183
 30
0.0
  0
VERTEX
  5
428
  8
0
 10
8.1711899999999993
 20
0.07232
 30
0.0
  0
VERTEX
  5
429
  8
0
 10
8.1711899999999993
 20
-0.09423
 30
0.0
  0
VERTEX
  5
42A
  8
0
 10
8.0944299999999991
 20
-0.22895
 30
0.0
  0
VERTEX
  5
42B
  8
0
 10
8.0176699999999972
 20
-0.32363
 30
0.0
  0
VERTEX
  5
42C
  8
0
 10
7.9409199999999993
 20
-0.38913
 30
0.0
  0
VERTEX
  5
42D
  8
0
 10
7.86416
 20
-0.4363000000000001
 30
0.0
  0
VERTEX
  5
42E
  8
0
 10
7.787399999999999
 20
-0.4759700000000001
 30
0.0
  0
VERTEX
  5
42F
  8
0
 10
7.7106399999999988
 20
-0.51524
 30
0.0
  0
VERTEX
  5
430
  8
0
 10
7.6338800000000004
 20
-0.55416
 30
0.0
  0
VERTEX
  5
431
  8
0
 10
7.5571199999999994
 20
-0.5919600000000002
 30
0.0
  0
VERTEX
  5
432
  8
0
 10
7.480360000000001
 20
-0.62784
 30
0.0
  0
VERTEX
  5
433
  8
0
 10
7.4035999999999991
 20
-0.66113
 30
0.0
  0
VERTEX
  5
434
  8
0
 10
7.3268500000000003
 20
-0.6921
 30
0.0
  0
VERTEX
  5
435
  8
0
 10
7.2500899999999993
 20
-0.7210600000000001
 30
0.0
  0
VERTEX
  5
436
  8
0
 10
7.1733299999999991
 20
-0.7483300000000001
 30
0.0
  0
VERTEX
  5
437
  8
0
 10
7.0965699999999989
 20
-0.77419
 30
0.0
  0
VERTEX
  5
438
  8
0
 10
7.0198099999999997
 20
-0.7988400000000001
 30
0.0
  0
VERTEX
  5
439
  8
0
 10
6.9430500000000004
 20
-0.8224799999999998
 30
0.0
  0
VERTEX
  5
43A
  8
0
 10
6.8662899999999993
 20
-0.8453099999999999
 30
0.0
  0
VERTEX
  5
43B
  8
0
 10
6.7895300000000001
 20
-0.8674799999999999
 30
0.0
  0
VERTEX
  5
43C
  8
0
 10
6.712769999999999
 20
-0.8890399999999999
 30
0.0
  0
VERTEX
  5
43D
  8
0
 10
6.6360199999999994
 20
-0.90995
 30
0.0
  0
VERTEX
  5
43E
  8
0
 10
6.5592600000000001
 20
-0.9301999999999999
 30
0.0
  0
VERTEX
  5
43F
  8
0
 10
6.482499999999999
 20
-0.9497799999999998
 30
0.0
  0
VERTEX
  5
440
  8
0
 10
6.4057399999999989
 20
-0.96872
 30
0.0
  0
VERTEX
  5
441
  8
0
 10
6.3289799999999996
 20
-0.9870499999999999
 30
0.0
  0
VERTEX
  5
442
  8
0
 10
6.2522199999999986
 20
-1.0048099999999991
 30
0.0
  0
VERTEX
  5
443
  8
0
 10
6.1754600000000002
 20
-1.02207
 30
0.0
  0
VERTEX
  5
444
  8
0
 10
6.0987
 20
-1.0388399999999991
 30
0.0
  0
VERTEX
  5
445
  8
0
 10
6.0219500000000004
 20
-1.0551699999999999
 30
0.0
  0
VERTEX
  5
446
  8
0
 10
5.9451900000000002
 20
-1.071089999999999
 30
0.0
  0
VERTEX
  5
447
  8
0
 10
5.86843
 20
-1.0866400000000001
 30
0.0
  0
VERTEX
  5
448
  8
0
 10
5.791669999999999
 20
-1.101829999999999
 30
0.0
  0
VERTEX
  5
449
  8
0
 10
5.7149099999999988
 20
-1.1166899999999991
 30
0.0
  0
VERTEX
  5
44A
  8
0
 10
5.6381500000000004
 20
-1.13121
 30
0.0
  0
VERTEX
  5
44B
  8
0
 10
5.5613900000000003
 20
-1.14541
 30
0.0
  0
VERTEX
  5
44C
  8
0
 10
5.4846300000000001
 20
-1.159289999999999
 30
0.0
  0
VERTEX
  5
44D
  8
0
 10
5.4078799999999996
 20
-1.1728499999999991
 30
0.0
  0
VERTEX
  5
44E
  8
0
 10
5.3311199999999994
 20
-1.1861200000000001
 30
0.0
  0
VERTEX
  5
44F
  8
0
 10
5.2543600000000001
 20
-1.199079999999999
 30
0.0
  0
VERTEX
  5
450
  8
0
 10
5.1775999999999991
 20
-1.2117500000000001
 30
0.0
  0
VERTEX
  5
451
  8
0
 10
5.1008399999999989
 20
-1.22414
 30
0.0
  0
VERTEX
  5
452
  8
0
 10
5.0240799999999997
 20
-1.2362599999999999
 30
0.0
  0
VERTEX
  5
453
  8
0
 10
4.9473199999999986
 20
-1.2481100000000001
 30
0.0
  0
VERTEX
  5
454
  8
0
 10
4.8705600000000002
 20
-1.2597
 30
0.0
  0
VERTEX
  5
455
  8
0
 10
4.7938000000000001
 20
-1.27105
 30
0.0
  0
VERTEX
  5
456
  8
0
 10
4.7170500000000004
 20
-1.28217
 30
0.0
  0
VERTEX
  5
457
  8
0
 10
4.6402900000000002
 20
-1.2930699999999999
 30
0.0
  0
VERTEX
  5
458
  8
0
 10
4.5635300000000001
 20
-1.3037499999999991
 30
0.0
  0
VERTEX
  5
459
  8
0
 10
4.486769999999999
 20
-1.314239999999999
 30
0.0
  0
VERTEX
  5
45A
  8
0
 10
4.4100099999999989
 20
-1.3245299999999991
 30
0.0
  0
VERTEX
  5
45B
  8
0
 10
4.3332499999999987
 20
-1.33464
 30
0.0
  0
VERTEX
  5
45C
  8
0
 10
4.2564900000000003
 20
-1.34457
 30
0.0
  0
VERTEX
  5
45D
  8
0
 10
4.1797300000000002
 20
-1.35433
 30
0.0
  0
VERTEX
  5
45E
  8
0
 10
4.1029799999999996
 20
-1.36392
 30
0.0
  0
VERTEX
  5
45F
  8
0
 10
4.0262199999999986
 20
-1.3733500000000001
 30
0.0
  0
VERTEX
  5
460
  8
0
 10
3.9494599999999989
 20
-1.3826099999999999
 30
0.0
  0
VERTEX
  5
461
  8
0
 10
3.8727
 20
-1.3917099999999989
 30
0.0
  0
VERTEX
  5
462
  8
0
 10
3.7959399999999999
 20
-1.400639999999999
 30
0.0
  0
VERTEX
  5
463
  8
0
 10
3.7191800000000002
 20
-1.4094199999999999
 30
0.0
  0
VERTEX
  5
464
  8
0
 10
3.6424199999999991
 20
-1.4180399999999991
 30
0.0
  0
VERTEX
  5
465
  8
0
 10
3.5656599999999989
 20
-1.4265000000000001
 30
0.0
  0
VERTEX
  5
466
  8
0
 10
3.4889000000000001
 20
-1.43482
 30
0.0
  0
VERTEX
  5
467
  8
0
 10
3.41215
 20
-1.442979999999999
 30
0.0
  0
VERTEX
  5
468
  8
0
 10
3.3353899999999999
 20
-1.4510099999999999
 30
0.0
  0
VERTEX
  5
469
  8
0
 10
3.2586300000000001
 20
-1.4588799999999991
 30
0.0
  0
VERTEX
  5
46A
  8
0
 10
3.1818699999999991
 20
-1.4666199999999989
 30
0.0
  0
VERTEX
  5
46B
  8
0
 10
3.1051099999999989
 20
-1.4742200000000001
 30
0.0
  0
VERTEX
  5
46C
  8
0
 10
3.0283500000000001
 20
-1.4816899999999991
 30
0.0
  0
VERTEX
  5
46D
  8
0
 10
2.951589999999999
 20
-1.48902
 30
0.0
  0
VERTEX
  5
46E
  8
0
 10
2.8748299999999989
 20
-1.4962299999999991
 30
0.0
  0
VERTEX
  5
46F
  8
0
 10
2.7980800000000001
 20
-1.5033099999999999
 30
0.0
  0
VERTEX
  5
470
  8
0
 10
2.7213199999999991
 20
-1.51027
 30
0.0
  0
VERTEX
  5
471
  8
0
 10
2.6445599999999989
 20
-1.51712
 30
0.0
  0
VERTEX
  5
472
  8
0
 10
2.5678000000000001
 20
-1.523839999999999
 30
0.0
  0
VERTEX
  5
473
  8
0
 10
2.4910399999999999
 20
-1.5304500000000001
 30
0.0
  0
VERTEX
  5
474
  8
0
 10
2.4142799999999989
 20
-1.53695
 30
0.0
  0
VERTEX
  5
475
  8
0
 10
2.33752
 20
-1.543339999999999
 30
0.0
  0
VERTEX
  5
476
  8
0
 10
2.260759999999999
 20
-1.5496199999999991
 30
0.0
  0
VERTEX
  5
477
  8
0
 10
2.1840000000000002
 20
-1.5557799999999991
 30
0.0
  0
VERTEX
  5
478
  8
0
 10
2.1072500000000001
 20
-1.561839999999999
 30
0.0
  0
VERTEX
  5
479
  8
0
 10
2.0304899999999999
 20
-1.56779
 30
0.0
  0
VERTEX
  5
47A
  8
0
 10
1.95373
 20
-1.573629999999999
 30
0.0
  0
VERTEX
  5
47B
  8
0
 10
1.87697
 20
-1.5793699999999999
 30
0.0
  0
VERTEX
  5
47C
  8
0
 10
1.800209999999999
 20
-1.5849999999999991
 30
0.0
  0
VERTEX
  5
47D
  8
0
 10
1.723449999999999
 20
-1.59053
 30
0.0
  0
VERTEX
  5
47E
  8
0
 10
1.64669
 20
-1.59596
 30
0.0
  0
VERTEX
  5
47F
  8
0
 10
1.5699299999999989
 20
-1.60128
 30
0.0
  0
VERTEX
  5
480
  8
0
 10
1.4931799999999991
 20
-1.6065
 30
0.0
  0
VERTEX
  5
481
  8
0
 10
1.41642
 20
-1.611629999999999
 30
0.0
  0
VERTEX
  5
482
  8
0
 10
1.3396600000000001
 20
-1.616649999999999
 30
0.0
  0
VERTEX
  5
483
  8
0
 10
1.262899999999999
 20
-1.62157
 30
0.0
  0
VERTEX
  5
484
  8
0
 10
1.1861399999999991
 20
-1.6263899999999989
 30
0.0
  0
VERTEX
  5
485
  8
0
 10
1.10938
 20
-1.6311199999999999
 30
0.0
  0
VERTEX
  5
486
  8
0
 10
1.0326200000000001
 20
-1.6357499999999989
 30
0.0
  0
VERTEX
  5
487
  8
0
 10
0.95586
 20
-1.6402799999999991
 30
0.0
  0
VERTEX
  5
488
  8
0
 10
0.8791
 20
-1.644709999999999
 30
0.0
  0
VERTEX
  5
489
  8
0
 10
0.80235
 20
-1.649049999999999
 30
0.0
  0
VERTEX
  5
48A
  8
0
 10
0.72559
 20
-1.6532899999999999
 30
0.0
  0
VERTEX
  5
48B
  8
0
 10
0.6488300000000001
 20
-1.65744
 30
0.0
  0
VERTEX
  5
48C
  8
0
 10
0.57207
 20
-1.6614899999999999
 30
0.0
  0
VERTEX
  5
48D
  8
0
 10
0.49531
 20
-1.6654500000000001
 30
0.0
  0
VERTEX
  5
48E
  8
0
 10
0.41855
 20
-1.6693199999999999
 30
0.0
  0
VERTEX
  5
48F
  8
0
 10
0.34179
 20
-1.67309
 30
0.0
  0
VERTEX
  5
490
  8
0
 10
0.26503
 20
-1.676779999999999
 30
0.0
  0
VERTEX
  5
491
  8
0
 10
0.18828
 20
-1.6803699999999999
 30
0.0
  0
VERTEX
  5
492
  8
0
 10
0.11152
 20
-1.6838699999999991
 30
0.0
  0
VERTEX
  5
493
  8
0
 10
0.03476
 20
-1.68729
 30
0.0
  0
VERTEX
  5
494
  8
0
 10
-0.042
 20
-1.69062
 30
0.0
  0
VERTEX
  5
495
  8
0
 10
-0.11876
 20
-1.693859999999999
 30
0.0
  0
VERTEX
  5
496
  8
0
 10
-0.19552
 20
-1.69702
 30
0.0
  0
VERTEX
  5
497
  8
0
 10
-0.27228
 20
-1.7000900000000001
 30
0.0
  0
VERTEX
  5
498
  8
0
 10
-0.34904
 20
-1.70309
 30
0.0
  0
VERTEX
  5
499
  8
0
 10
-0.42579
 20
-1.7059899999999999
 30
0.0
  0
VERTEX
  5
49A
  8
0
 10
-0.5025500000000001
 20
-1.70882
 30
0.0
  0
VERTEX
  5
49B
  8
0
 10
-0.57931
 20
-1.71157
 30
0.0
  0
VERTEX
  5
49C
  8
0
 10
-0.6560699999999999
 20
-1.71424
 30
0.0
  0
VERTEX
  5
49D
  8
0
 10
-0.73283
 20
-1.716829999999999
 30
0.0
  0
VERTEX
  5
49E
  8
0
 10
-0.8095899999999998
 20
-1.7193400000000001
 30
0.0
  0
VERTEX
  5
49F
  8
0
 10
-0.88635
 20
-1.72177
 30
0.0
  0
VERTEX
  5
4A0
  8
0
 10
-0.9631099999999999
 20
-1.7241299999999991
 30
0.0
  0
VERTEX
  5
4A1
  8
0
 10
-1.0398700000000001
 20
-1.7264099999999989
 30
0.0
  0
VERTEX
  5
4A2
  8
0
 10
-1.1166199999999999
 20
-1.728599999999999
 30
0.0
  0
VERTEX
  5
4A3
  8
0
 10
-1.193379999999999
 20
-1.730729999999999
 30
0.0
  0
VERTEX
  5
4A4
  8
0
 10
-1.27014
 20
-1.7327699999999999
 30
0.0
  0
VERTEX
  5
4A5
  8
0
 10
-1.3468999999999991
 20
-1.734729999999999
 30
0.0
  0
VERTEX
  5
4A6
  8
0
 10
-1.423659999999999
 20
-1.7366200000000001
 30
0.0
  0
VERTEX
  5
4A7
  8
0
 10
-1.5004200000000001
 20
-1.738429999999999
 30
0.0
  0
VERTEX
  5
4A8
  8
0
 10
-1.57718
 20
-1.740159999999999
 30
0.0
  0
VERTEX
  5
4A9
  8
0
 10
-1.65394
 20
-1.741809999999999
 30
0.0
  0
VERTEX
  5
4AA
  8
0
 10
-1.7306900000000001
 20
-1.74339
 30
0.0
  0
VERTEX
  5
4AB
  8
0
 10
-1.80745
 20
-1.7448900000000001
 30
0.0
  0
VERTEX
  5
4AC
  8
0
 10
-1.8842099999999991
 20
-1.7463099999999989
 30
0.0
  0
VERTEX
  5
4AD
  8
0
 10
-1.9609700000000001
 20
-1.747649999999999
 30
0.0
  0
VERTEX
  5
4AE
  8
0
 10
-2.0377299999999989
 20
-1.74892
 30
0.0
  0
VERTEX
  5
4AF
  8
0
 10
-2.1144899999999991
 20
-1.7501099999999989
 30
0.0
  0
VERTEX
  5
4B0
  8
0
 10
-2.1912500000000001
 20
-1.7512199999999991
 30
0.0
  0
VERTEX
  5
4B1
  8
0
 10
-2.268009999999999
 20
-1.752259999999999
 30
0.0
  0
VERTEX
  5
4B2
  8
0
 10
-2.34477
 20
-1.7532199999999989
 30
0.0
  0
VERTEX
  5
4B3
  8
0
 10
-2.4215200000000001
 20
-1.7541
 30
0.0
  0
VERTEX
  5
4B4
  8
0
 10
-2.4982799999999989
 20
-1.754899999999999
 30
0.0
  0
VERTEX
  5
4B5
  8
0
 10
-2.5750399999999991
 20
-1.75563
 30
0.0
  0
VERTEX
  5
4B6
  8
0
 10
-2.6518000000000002
 20
-1.756279999999999
 30
0.0
  0
VERTEX
  5
4B7
  8
0
 10
-2.728559999999999
 20
-1.75685
 30
0.0
  0
VERTEX
  5
4B8
  8
0
 10
-2.80532
 20
-1.7573399999999999
 30
0.0
  0
VERTEX
  5
4B9
  8
0
 10
-2.8820799999999989
 20
-1.7577599999999991
 30
0.0
  0
VERTEX
  5
4BA
  8
0
 10
-2.9588399999999999
 20
-1.7580899999999999
 30
0.0
  0
VERTEX
  5
4BB
  8
0
 10
-3.03559
 20
-1.7583500000000001
 30
0.0
  0
VERTEX
  5
4BC
  8
0
 10
-3.1123500000000002
 20
-1.75854
 30
0.0
  0
VERTEX
  5
4BD
  8
0
 10
-3.189109999999999
 20
-1.75865
 30
0.0
  0
VERTEX
  5
4BE
  8
0
 10
-3.2658700000000001
 20
-1.75868
 30
0.0
  0
VERTEX
  5
4BF
  8
0
 10
-3.3426300000000002
 20
-1.75864
 30
0.0
  0
VERTEX
  5
4C0
  8
0
 10
-3.3426300000000002
 20
-1.1628499999999991
 30
0.0
  0
VERTEX
  5
4C1
  8
0
 10
-2.5717799999999991
 20
-1.1628499999999991
 30
0.0
  0
VERTEX
  5
4C2
  8
0
 10
-2.5717799999999991
 20
-1.24726
 30
0.0
  0
VERTEX
  5
4C3
  8
0
 10
2.5717799999999991
 20
-1.24726
 30
0.0
  0
VERTEX
  5
4C4
  8
0
 10
0.18747
 20
3.0197199999999991
 30
0.0
  0
VERTEX
  5
4C5
  8
0
 10
0.0
 20
0.0
 30
0.0
  0
VERTEX
  5
4C6
  8
0
 10
0.0
 20
0.0
 30
0.0
  0
SEQEND
  5
4C7
  8
0
  0
ENDSEC
  0
EOF
